<?xml version="1.0" encoding="UTF-8" standalone="no"?>
<svg
   xmlns:dc="http://purl.org/dc/elements/1.1/"
   xmlns:cc="http://creativecommons.org/ns#"
   xmlns:rdf="http://www.w3.org/1999/02/22-rdf-syntax-ns#"
   xmlns:svg="http://www.w3.org/2000/svg"
   xmlns="http://www.w3.org/2000/svg"
   xmlns:sodipodi="http://sodipodi.sourceforge.net/DTD/sodipodi-0.dtd"
   xmlns:inkscape="http://www.inkscape.org/namespaces/inkscape"
   viewBox="0 0 250.0 64"
   height="64"
   width="250"
   xml:space="preserve"
   version="1.1"
   id="svg2"
   inkscape:version="0.91 r13725"
   sodipodi:docname="phx_text_logo.svg"><sodipodi:namedview
     pagecolor="#ffffff"
     bordercolor="#666666"
     borderopacity="1"
     objecttolerance="10"
     gridtolerance="10"
     guidetolerance="10"
     inkscape:pageopacity="0"
     inkscape:pageshadow="2"
     inkscape:window-width="1855"
     inkscape:window-height="1056"
     id="namedview15"
     showgrid="false"
     inkscape:zoom="2.97"
     inkscape:cx="99.663815"
     inkscape:cy="63.116166"
     inkscape:window-x="65"
     inkscape:window-y="24"
     inkscape:window-maximized="1"
     inkscape:current-layer="svg2" /><metadata
     id="metadata8"><rdf:RDF><cc:Work
         rdf:about=""><dc:format>image/svg+xml</dc:format><dc:type
           rdf:resource="http://purl.org/dc/dcmitype/StillImage" /><dc:title /></cc:Work></rdf:RDF></metadata><defs
     id="defs6" /><g
     transform="matrix(1.25,0,0,-1.25,-3.5353529,104.00673)"
     id="g10"><g
       transform="scale(0.1,0.1)"
       id="g12"><path
         id="path14"
         style="fill:none;fill-opacity:1;fill-rule:nonzero;stroke:none"
         d="m 0,0 2190,0 0,960 L 0,960 0,0 Z"
         inkscape:connector-curvature="0" /><path
         transform="matrix(8,0,0,-8,0,960)"
         id="path16"
         d="m 21.193359,21.597656 c -3.612562,-0.01411 -7.224609,0.08255 -10.818359,0.263672 -3.3623,0.1875 -4.5371094,3.927219 -4.3496094,6.777344 -0.0376,14.4375 -0.050291,28.886719 0.037109,43.324219 3.3999,-0.399875 9.0619844,1.226815 10.1621094,-3.5 0.308494,-4.907095 0.274875,-9.674344 0.375,-14.511719 6.887125,-0.225125 14.187094,0.910156 20.699219,-1.839844 7.475125,-3.837375 8.464844,-13.699219 6.464844,-21.011719 C 42.601047,25.699734 37.313422,22.26275 32.013672,22 28.419922,21.737563 24.805922,21.611766 21.193359,21.597656 Z m 1.927735,8.669922 c 2.178172,-0.0078 4.354953,0.04584 6.517578,0.308594 0.806203,0.149953 1.510601,0.46234 2.115234,0.898437 0.604634,0.436097 1.10949,0.99573 1.511719,1.634766 0.402229,0.639036 0.7014,1.358417 0.900391,2.117187 0.198991,0.758771 0.296097,1.556262 0.291015,2.351563 -0.0051,0.795301 -0.112276,1.587311 -0.322265,2.335937 -0.20999,0.748627 -0.521769,1.453519 -0.9375,2.072266 -0.415732,0.618747 -0.934333,1.152931 -1.556641,1.558594 -0.622308,0.405663 -1.348016,0.683594 -2.177734,0.792969 -2.131063,0.275187 -4.274594,0.34064 -6.419922,0.34375 -2.145328,0.0031 -4.293891,-0.05613 -6.431641,-0.03125 0.01275,-4.774875 0.01419,-9.549344 -0.02344,-14.324219 2.175062,0.0185 4.355031,-0.05078 6.533203,-0.05859 z"
         style="fill:#fd8f00;fill-opacity:1;fill-rule:nonzero;stroke:none"
         inkscape:connector-curvature="0" /><path
         id="path18"
         style="fill:#f7f7f7;fill-opacity:1;fill-rule:nonzero;stroke:none"
         d="m 403.699,787.5 c 25.199,-3.5 61.301,7.602 74.801,-21.199 10.102,-34.602 3.398,-71.699 4.199,-107.403 22.102,20.5 46.699,40.801 77.801,44.403 63.398,7.199 127.199,-44.903 132.102,-108.903 5.898,-69.796 1.597,-140 2.597,-210.097 C 672.5,387.398 644,378.898 626.801,398 c -18.903,22.699 -8.699,54.801 -11.301,81.801 -2.602,44.699 10.301,96.597 -20.898,134.199 -29,33.602 -92,19.102 -103.403,-24.102 -16.597,-57.796 -1.597,-119.097 -9.898,-178.097 -9.301,-34.403 -51.102,-25.199 -77.903,-27.199 0.102,134.296 -0.296,268.597 0.301,402.898"
         inkscape:connector-curvature="0" /><path
         id="path22"
         style="fill:#fd8f00;fill-opacity:1;fill-rule:nonzero;stroke:none"
         d="m 1846.4866,606.81452 c 25.5286,37.23067 49.7032,78.22291 76.8,116.699 30.0222,-0.23689 57.1134,1.18548 86.4134,1.58848 -36,-60.903 -79.6,-117.102 -114.5,-178.602 29.3666,-57.53656 68.3,-106.102 99.7,-160.801 -31.3,-0.597 -62.6,-0.597 -93.8,-0.301 -17.5,32.102 -35.3,64 -53.3,95.704 -21.5,-30.704 -40.1,-63.204 -58.5,-95.801 -31.7,-0.199 -63.4,-0.199 -95.1,0.5 31.6,54.699 67.4164,105.3939 98.9,161.801 -28.3,51.199 -62.6,98.699 -94.1,147.796 30.2,0.5 60.4,0.602 90.6,0.801 17.7,-31 35.5,-61.898 55.3,-91.5"
         inkscape:connector-curvature="0" /><path
         transform="matrix(8,0,0,-8,0,960)"
         id="path24"
         d="m 108.71484,31.945312 c -2.31935,0.08043 -4.61914,0.58486 -6.72851,1.541016 -4.437502,1.850125 -8.049346,5.764188 -9.199221,10.476563 -1.88775,6.962375 -1.398843,14.836859 1.925782,21.287109 6.425379,9.649875 22.936979,9.786703 29.474609,0.173828 3.9625,-7.012125 4.33828,-16.061578 1.36328,-23.486328 -2.73759,-6.65625 -9.87789,-10.233471 -16.83594,-9.992188 z m 1.02149,8.675782 c 1.00058,0.02475 1.98437,0.289859 2.88672,0.742187 0.90234,0.452328 1.72243,1.091199 2.39648,1.861328 0.67405,0.770129 1.20189,1.672235 1.51758,2.650391 0.58737,1.993625 0.84801,4.065969 0.84961,6.142578 0.002,2.07661 -0.25535,4.157484 -0.69922,6.169922 -0.24059,1.040656 -0.71858,2.06267 -1.36719,2.970703 -0.6486,0.908033 -1.46719,1.702727 -2.38672,2.291016 -0.91952,0.588289 -1.9408,0.969357 -2.99414,1.050781 -0.52667,0.04071 -1.06128,0.0059 -1.5957,-0.115234 -0.53442,-0.12109 -1.06872,-0.328485 -1.59375,-0.634766 -1.16566,-0.546875 -2.07207,-1.320701 -2.77539,-2.244141 -0.70332,-0.923439 -1.20392,-1.995695 -1.55469,-3.142578 -0.35076,-1.146883 -0.55217,-2.368732 -0.66015,-3.585937 -0.10798,-1.217205 -0.12269,-2.430047 -0.0977,-3.564453 -0.003,-0.940532 0.0705,-1.934789 0.24414,-2.919922 0.17361,-0.985133 0.44727,-1.960938 0.8418,-2.867188 0.39453,-0.90625 0.91073,-1.743383 1.57031,-2.447265 0.65958,-0.703883 1.46289,-1.274313 2.43164,-1.652344 0.96875,-0.512594 1.98575,-0.729832 2.98633,-0.705078 z"
         style="fill:#f7f7f7;fill-opacity:1;fill-rule:nonzero;stroke:none"
         inkscape:connector-curvature="0" /><path
         id="path26"
         style="fill:#f7f7f7;fill-opacity:1;fill-rule:nonzero;stroke:none"
         d="m 1157.9,697.398 c 45.6,15.602 95.4,-0.199 134.8,-24.597 33.2,-22.301 39,-65.403 40.6,-102.199 1,-61.903 0.1,-123.903 0.3,-185.801 -26.6,2.699 -63,-8 -78.3,21 -10.4,63.5 1.9,128.801 -6.2,192.597 -8,52.301 -97.3,51.204 -105.1,-0.796 -6.2,-61.602 2.6,-123.903 -4.2,-185.403 -9.2,-34.301 -50.9,-25.801 -77.7,-27.699 0.6,74.199 -2,148.398 1.5,222.398 3,49.5 50,80.5 94.3,90.5"
         inkscape:connector-curvature="0" /><path
         transform="matrix(8,0,0,-8,0,960)"
         id="path28"
         d="m 189.21875,31.931641 c -3.36262,0.07904 -6.69766,1.004781 -9.51953,2.804687 -4.1875,2.63775 -6.73633,7.364719 -7.23633,12.214844 -1.225,7.61225 0.37266,16.835937 6.78516,22.023437 9.4625,7.600125 25.81445,2.883224 28.62695,-9.378906 -1.80723,0.02126 -4.03837,-0.02807 -6.05664,0.02539 -0.88099,0.02334 -2.64063,0.128906 -2.64063,0.128906 0,0 -1.04354,1.553311 -2.26953,2.779297 -3.22548,3.225491 -6.97397,3.005959 -10.03906,1.236328 -2.80734,-1.620818 -4.78125,-5.709611 -4.78125,-8.615234 8.6875,-0.137125 17.36211,-5.16e-4 26.03711,-0.08789 -0.17918,-5.67836 -0.35078,-11.950766 -4.11328,-16.587891 -3.50781,-4.453125 -9.1886,-6.674707 -14.79297,-6.542968 z m 0.28711,8.828125 c 0.99276,-0.07088 1.99538,0.02299 2.93945,0.292968 0.94408,0.269981 1.8293,0.716438 2.5918,1.347657 1.30888,1.232543 2.02258,2.189249 2.4707,3.097656 0.44813,0.908407 0.63168,1.767671 0.87891,2.808594 -5.21695,-0.0017 -10.96261,-0.03899 -16.39844,-0.05664 0,-1.305684 0.2436,-2.290301 0.64063,-3.101562 0.39702,-0.811262 0.9467,-1.448651 1.55859,-2.060547 0.69146,-0.691456 1.52504,-1.23755 2.43359,-1.628907 0.90856,-0.391356 1.89201,-0.62834 2.88477,-0.699218 z"
         style="fill:#f7f7f7;fill-opacity:1;fill-rule:nonzero;stroke:none"
         inkscape:connector-curvature="0" /><path
         id="path78"
         style="fill:none;fill-opacity:1;fill-rule:nonzero;stroke:none"
         d="m 777.602,277.102 c 14.699,0.199 29.5,0.199 44.296,-0.102 9.801,-26.699 9.403,-81 -31.898,-72.398 -25.801,15.597 -17,48.398 -12.398,72.5"
         inkscape:connector-curvature="0" /></g></g></svg>