<?xml version="1.0" standalone="no"?>
<!DOCTYPE svg PUBLIC "-//W3C//DTD SVG 1.1//EN" "http://www.w3.org/Graphics/SVG/1.1/DTD/svg11.dtd">
<svg width="24px" height="24px" viewBox="0 0 2379 1356" version="1.1" xmlns="http://www.w3.org/2000/svg" xmlns:xlink="http://www.w3.org/1999/xlink" xml:space="preserve" style="fill-rule:evenodd;clip-rule:evenodd;stroke-linejoin:round;stroke-miterlimit:1.41421;">
    <g id="logoLarge copy 4">
        <path id="Shape 1" d="M145.988,895.808C132.081,820.821 134.333,756.179 147.415,700.496C151.972,777.865 168.314,854.766 195.961,927.369C208.425,960.201 223.325,992.241 240.499,1023.02C251.823,1043.56 389.889,1316.61 750.334,1356.71C728.17,1349.28 656.691,1328.48 619.12,1314.4C407.883,1235.11 331.68,1128.46 280.244,1003.41C164.269,720.872 276.763,478.946 588.369,425.329C681.918,409.153 688.001,409.028 775.111,405.713C824.258,403.83 915.983,408.913 961.708,416.838C1256.3,467.878 1485.12,575.066 1485.17,575.066C1488.76,569.741 1487.75,563.532 1484.5,556.003C1475.99,536.539 1462.87,518.38 1450.33,501.267C1443.28,491.798 1435.97,482.427 1428.57,473.328C1385.27,419.626 1320.38,351.632 1242.78,285.856C1192.24,242.821 1136.17,200.833 1077.08,164.401C1049.32,147.221 1020.92,131.394 992.146,117.05C923.264,82.5481 852.365,56.1321 784.153,39.1753C635.98,-6.70481 503.094,-6.70481 382.457,10.8664C366.021,13.2433 349.46,16.0536 333.133,19.0968C266.263,31.6149 200.545,49.2381 134.857,66.7309C213.191,60.6698 302.47,67.5638 393.689,83.0479C254.352,112.534 96.6371,167.883 0,229.69C80.2947,188.092 195.062,179.672 298.838,185.328C170.63,250.871 43.1049,350.109 0,473.087C41.1565,403.888 110.336,361.596 185.32,336.535C186.314,336.154 185.446,338.839 183.178,344.047C170.53,373.434 113.35,483.743 86.6709,586.996C77.4833,622.285 71.9376,656.978 73.1037,687.114C83.2643,616.155 116.513,556.664 160.742,507.438C160.454,508.967 160.062,510.663 159.723,512.292C137.155,571.201 122.136,635.885 119.993,705.564C118.07,765.482 125.69,829.156 145.988,895.808Z" style="fill:rgb(151,151,151);"/>
        <path id="Shape 2" d="M1479.03,601.883C1479.03,601.883 1245.36,496.155 962.372,446.738C921.615,439.694 831.753,434.047 782.257,435.974C695.07,439.323 690.021,439.48 599.559,455.273C463.395,478.879 364.126,540.699 312.469,634.038C259.038,730.74 259.985,858.541 315.179,993.699C348.993,1076.52 398.791,1148.86 471.092,1202.24C612.384,1306.55 799.526,1360.35 974.442,1344.5C1025.33,1339.9 1078.52,1330.38 1127.38,1315.13C1199.54,1292.47 1268.56,1262.42 1333.04,1222.74C1356.29,1208.45 1378.26,1192.49 1400.71,1176.95C1606.75,1034.69 1655.75,941.698 1818.87,911.013C1911.29,893.617 2002.77,886.574 2092.25,931.469C2180.22,974.217 2284.91,1014.44 2379.68,986.132C2183.03,978.032 2079.24,731.432 1848.26,689.732C1784.13,673.153 1720.19,672.367 1657.48,681.8C1683.62,671.225 1712.12,663.513 1744.72,660.294C1937.79,637.402 2057.19,730.069 2220.62,721.895C2060.74,669.486 1936.76,531.634 1758.87,478.748C1726.65,469.657 1691.6,463.756 1655.21,461.703C1839.28,440.234 1930.18,504.01 2062.94,486.676C1925.76,453.69 1800.08,356.946 1647.8,313.03C1591.42,296.708 1517.39,291.924 1446.29,312.276C1432.89,315.053 1420.23,319.581 1408.71,325.837C1398.63,330.207 1388.57,334.881 1378.82,340.446C1374.51,342.783 1370.56,345.513 1366.41,347.933C1410.64,392.368 1442.08,429.273 1460.24,451.883C1467.95,461.488 1475.56,471.339 1482.87,481.216C1494.53,497.166 1498.65,503.914 1511.9,526.028C1543.55,578.856 1530.16,623.123 1530.16,623.123L1479.03,601.883ZM1186.77,1092.27C1183.95,1133.39 1128.57,1208.55 1074.6,1205.28C1007.69,1201.41 971.743,1086.07 926.854,1023.77C946.501,997.211 983.865,988.333 995.927,954.256C988.103,817.091 799.53,671.226 718.334,816.435C665.312,768.956 545.208,747.406 535.985,678.348C531.217,642.251 589.818,560.888 648.164,556.621C738.146,550.123 884.285,671.818 977.915,763.635C1067.02,850.871 1192.28,1013.61 1186.77,1092.27Z" style="fill:rgb(248,248,248);"/>
    </g>
</svg>
