<?xml version="1.0" standalone="no"?>
<!DOCTYPE svg PUBLIC "-//W3C//DTD SVG 1.1//EN" "http://www.w3.org/Graphics/SVG/1.1/DTD/svg11.dtd">
<svg width="26px" height="26px" viewBox="0 0 21 21" version="1.1" xmlns="http://www.w3.org/2000/svg" xmlns:xlink="http://www.w3.org/1999/xlink" xml:space="preserve" style="fill-rule:evenodd;clip-rule:evenodd;stroke-linecap:round;stroke-linejoin:round;stroke-miterlimit:1.41421;">
    <g transform="matrix(1,0,0,1,-332,-42)">
        <g id="file_manager">
            <g transform="matrix(0.835749,0,0,0.835749,266.812,24.4493)">
                <path d="M79.964,42L79.913,41.999L79.863,41.997L79.813,41.994L79.763,41.99L79.714,41.984L79.665,41.977L79.616,41.969L79.568,41.96L79.52,41.95L79.473,41.938L79.426,41.925L79.38,41.912L79.334,41.897L79.288,41.881L79.243,41.864L79.199,41.846L79.155,41.826L79.112,41.806L79.069,41.785L79.027,41.763L78.986,41.74L78.945,41.715L78.905,41.69L78.865,41.664L78.826,41.637L78.788,41.61L78.751,41.581L78.714,41.551L78.678,41.521L78.643,41.49L78.608,41.457L78.574,41.424L78.542,41.391L78.509,41.356L78.478,41.321L78.448,41.285L78.418,41.248L78.389,41.211L78.361,41.173L78.335,41.134L78.309,41.094L78.283,41.054L78.259,41.013L78.236,40.972L78.214,40.93L78.193,40.887L78.173,40.844L78.153,40.8L78.135,40.756L78.118,40.711L78.102,40.665L78.087,40.619L78.074,40.573L78.061,40.526L78.049,40.479L78.039,40.431L78.03,40.383L78.022,40.334L78.015,40.285L78.009,40.236L78.005,40.186L78.002,40.136L78,40.086L77.999,40.035L77.999,22.965L78,22.914L78.002,22.864L78.005,22.814L78.009,22.764L78.015,22.715L78.022,22.666L78.03,22.617L78.039,22.569L78.049,22.521L78.061,22.474L78.074,22.427L78.087,22.381L78.102,22.335L78.118,22.289L78.135,22.244L78.153,22.2L78.173,22.156L78.193,22.113L78.214,22.07L78.236,22.028L78.259,21.987L78.283,21.946L78.309,21.906L78.335,21.866L78.361,21.827L78.389,21.789L78.418,21.752L78.448,21.715L78.478,21.679L78.509,21.644L78.542,21.609L78.574,21.576L78.608,21.543L78.643,21.51L78.678,21.479L78.714,21.449L78.751,21.419L78.788,21.39L78.826,21.363L78.865,21.336L78.905,21.31L78.945,21.284L78.986,21.26L79.027,21.237L79.069,21.215L79.112,21.194L79.155,21.174L79.199,21.154L79.243,21.136L79.288,21.119L79.334,21.103L79.38,21.088L79.426,21.075L79.473,21.062L79.52,21.05L79.568,21.04L79.616,21.031L79.665,21.023L79.714,21.016L79.763,21.01L79.813,21.006L79.863,21.003L79.913,21.001L79.964,21L89.979,21L94.999,25.776L94.999,40.035L94.998,40.086L94.996,40.136L94.993,40.186L94.989,40.236L94.983,40.285L94.976,40.334L94.968,40.383L94.959,40.431L94.949,40.479L94.937,40.526L94.924,40.573L94.911,40.619L94.896,40.665L94.88,40.711L94.863,40.756L94.845,40.8L94.825,40.844L94.805,40.887L94.784,40.93L94.762,40.972L94.739,41.013L94.715,41.054L94.689,41.094L94.663,41.134L94.636,41.173L94.609,41.211L94.58,41.248L94.55,41.285L94.52,41.321L94.489,41.356L94.456,41.391L94.423,41.424L94.39,41.457L94.355,41.49L94.32,41.521L94.284,41.551L94.247,41.581L94.21,41.61L94.172,41.637L94.133,41.664L94.093,41.69L94.053,41.715L94.012,41.74L93.971,41.763L93.929,41.785L93.886,41.806L93.843,41.826L93.799,41.846L93.755,41.864L93.71,41.881L93.664,41.897L93.618,41.912L93.572,41.925L93.525,41.938L93.478,41.95L93.43,41.96L93.382,41.969L93.333,41.977L93.284,41.984L93.235,41.99L93.185,41.994L93.135,41.997L93.085,41.999L93.034,42L79.964,42ZM79.971,40.8L93.027,40.8L93.054,40.8L93.075,40.799L93.094,40.798L93.114,40.796L93.133,40.794L93.152,40.791L93.171,40.788L93.19,40.784L93.208,40.78L93.226,40.776L93.244,40.771L93.262,40.766L93.28,40.76L93.297,40.754L93.314,40.747L93.331,40.74L93.348,40.733L93.365,40.725L93.382,40.717L93.398,40.708L93.414,40.699L93.43,40.69L93.446,40.68L93.461,40.67L93.476,40.659L93.491,40.649L93.506,40.637L93.52,40.626L93.534,40.614L93.548,40.601L93.562,40.589L93.575,40.576L93.588,40.563L93.6,40.549L93.613,40.535L93.625,40.521L93.636,40.507L93.648,40.492L93.659,40.477L93.669,40.462L93.679,40.447L93.689,40.431L93.698,40.415L93.707,40.399L93.716,40.383L93.724,40.366L93.732,40.349L93.739,40.332L93.746,40.315L93.753,40.298L93.759,40.281L93.765,40.263L93.77,40.245L93.775,40.227L93.779,40.209L93.783,40.191L93.787,40.172L93.79,40.153L93.793,40.134L93.795,40.115L93.797,40.095L93.798,40.076L93.799,40.055L93.799,40.028L93.799,26.291L89.499,22.2L79.971,22.2L79.943,22.2L79.923,22.201L79.904,22.202L79.884,22.204L79.865,22.206L79.846,22.209L79.827,22.212L79.808,22.216L79.79,22.22L79.772,22.224L79.754,22.229L79.736,22.234L79.718,22.24L79.701,22.246L79.684,22.253L79.667,22.26L79.65,22.267L79.633,22.275L79.616,22.283L79.6,22.292L79.584,22.301L79.568,22.31L79.552,22.32L79.537,22.33L79.522,22.34L79.507,22.351L79.492,22.363L79.478,22.374L79.464,22.386L79.45,22.399L79.436,22.411L79.423,22.424L79.41,22.437L79.397,22.451L79.385,22.465L79.373,22.479L79.362,22.493L79.35,22.508L79.34,22.523L79.329,22.538L79.319,22.554L79.309,22.569L79.3,22.585L79.291,22.601L79.282,22.617L79.274,22.634L79.266,22.651L79.259,22.668L79.252,22.685L79.245,22.702L79.239,22.719L79.233,22.737L79.228,22.755L79.223,22.773L79.219,22.791L79.215,22.809L79.211,22.828L79.208,22.847L79.205,22.866L79.203,22.885L79.201,22.905L79.2,22.924L79.199,22.945L79.199,22.973L79.199,40.027L79.199,40.055L79.2,40.076L79.201,40.095L79.203,40.115L79.205,40.134L79.208,40.153L79.211,40.172L79.215,40.191L79.219,40.209L79.223,40.227L79.228,40.245L79.233,40.263L79.239,40.281L79.245,40.298L79.252,40.315L79.259,40.332L79.266,40.349L79.274,40.366L79.282,40.383L79.291,40.399L79.3,40.415L79.309,40.431L79.319,40.446L79.329,40.462L79.34,40.477L79.35,40.492L79.362,40.507L79.373,40.521L79.385,40.535L79.397,40.549L79.41,40.563L79.423,40.576L79.436,40.589L79.45,40.601L79.464,40.614L79.478,40.626L79.492,40.637L79.507,40.649L79.522,40.66L79.537,40.67L79.552,40.68L79.568,40.69L79.584,40.699L79.6,40.708L79.616,40.717L79.633,40.725L79.65,40.733L79.666,40.74L79.684,40.747L79.701,40.754L79.718,40.76L79.736,40.766L79.754,40.771L79.772,40.776L79.79,40.78L79.808,40.784L79.827,40.788L79.846,40.791L79.865,40.794L79.884,40.796L79.904,40.798L79.923,40.799L79.943,40.8L79.971,40.8Z" style="fill:rgb(210,210,210);"/>
                <path d="M82.007,30.583L90.97,30.583" style="fill:none;stroke-width:1.2px;stroke:rgb(210,210,210);"/>
                <g transform="matrix(1,0,0,1,0,3.61672)">
                    <path d="M82.007,30.583L90.97,30.583" style="fill:none;stroke-width:1.2px;stroke:rgb(210,210,210);"/>
                </g>
                <g transform="matrix(1,0,0,1,0,7.41672)">
                    <path d="M82.007,30.583L90.97,30.583" style="fill:none;stroke-width:1.2px;stroke:rgb(210,210,210);"/>
                </g>
                <path d="M89.4,22.031L89.4,25.959L94.039,25.959" style="fill:none;stroke-width:1.2px;stroke:rgb(210,210,210);"/>
            </g>
            <g transform="matrix(0.798631,0,0,0.798631,276.62,28.9372)">
                <path d="M77.999,39.052L77.999,40.035C77.999,41.12 78.879,42 79.964,42L93.034,42C94.119,42 94.999,41.12 94.999,40.035L94.999,25.776L89.979,21L87.808,21" style="fill:none;stroke-width:1.2px;stroke-linecap:butt;stroke:rgb(210,210,210);"/>
                <path d="M89.4,21L89.4,25.959L94.999,25.959" style="fill:none;stroke-width:1.2px;stroke-linecap:butt;stroke:rgb(210,210,210);"/>
            </g>
        </g>
    </g>
</svg>
