<?xml version="1.0" standalone="no"?>
<!DOCTYPE svg PUBLIC "-//W3C//DTD SVG 1.1//EN" "http://www.w3.org/Graphics/SVG/1.1/DTD/svg11.dtd">
<svg width="26px" height="26px" viewBox="0 0 212 212" version="1.1" xmlns="http://www.w3.org/2000/svg" xmlns:xlink="http://www.w3.org/1999/xlink" xml:space="preserve" style="fill-rule:evenodd;clip-rule:evenodd;stroke-linejoin:round;stroke-miterlimit:1.41421;">
    <path d="M106.321,153.464L106.018,153.463L105.716,153.46L105.414,153.456L105.112,153.449L104.81,153.44L104.509,153.43L104.208,153.418L103.908,153.403L103.607,153.387L103.308,153.369L103.009,153.349L102.71,153.327L102.412,153.304L102.114,153.278L101.816,153.251L101.519,153.222L101.223,153.191L100.926,153.158L100.631,153.123L100.336,153.086L100.041,153.048L99.7473,153.008L99.4537,152.966L99.1606,152.922L98.8682,152.876L98.5761,152.829L98.2846,152.78L97.9941,152.729L97.7039,152.676L97.4143,152.621L97.125,152.565L96.8365,152.507L96.549,152.447L96.2618,152.385L95.975,152.322L95.6889,152.257L95.4038,152.19L95.1191,152.122L94.8352,152.051L94.5517,151.979L94.2688,151.906L93.9871,151.83L93.7055,151.753L93.425,151.674L93.1454,151.594L92.8657,151.512L92.5872,151.428L92.3099,151.343L92.0325,151.256L91.7561,151.167L91.4808,151.076L91.2057,150.984L90.9318,150.891L90.6587,150.795L90.3858,150.698L90.114,150.6L89.8435,150.5L89.5731,150.398L89.3037,150.294L89.0354,150.19L88.7674,150.083L88.5006,149.975L88.2346,149.865L87.9692,149.754L87.7048,149.641L87.4411,149.527L87.1784,149.411L86.9168,149.294L86.6555,149.175L86.3954,149.054L86.1365,148.932L85.8779,148.809L85.6204,148.683L85.3638,148.557L85.108,148.429L84.8533,148.299L84.5995,148.168L84.3467,148.036L84.0946,147.902L83.8434,147.767L83.5932,147.63L83.3439,147.491L83.0957,147.351L82.8484,147.21L82.6021,147.068L82.3566,146.923L82.1122,146.778L81.869,146.631L81.6263,146.483L81.3847,146.333L81.1445,146.182L80.9048,146.029L80.6663,145.875L80.4288,145.72L80.1922,145.563L79.9568,145.405L79.7224,145.246L79.4889,145.085L79.2566,144.923L79.0254,144.76L78.7948,144.595L78.5657,144.428L78.3376,144.261L78.1104,144.092L77.8844,143.922L77.6592,143.751L77.4354,143.578L77.2127,143.404L76.9908,143.228L76.7701,143.052L76.5504,142.874L76.332,142.695L76.1148,142.514L75.8985,142.332L75.6834,142.149L75.4694,141.965L75.2566,141.78L75.0448,141.593L74.8339,141.405L74.6248,141.216L74.4165,141.025L74.209,140.833L74.0032,140.64L73.7983,140.446L73.5945,140.251L73.3921,140.054L73.1909,139.857L72.9907,139.658L72.7916,139.457L72.594,139.256L72.3974,139.054L72.202,138.85L72.008,138.645L71.8151,138.439L71.6232,138.232L71.4327,138.023L71.2435,137.814L71.0557,137.604L70.8689,137.392L70.6831,137.179L70.499,136.965L70.316,136.75L70.1341,136.533L69.9538,136.316L69.7746,136.098L69.5967,135.878L69.4199,135.657L69.2447,135.436L69.0707,135.213L68.8979,134.989L68.7264,134.764L68.5563,134.538L68.3877,134.311L68.2201,134.082L68.0538,133.853L67.8891,133.623L67.7257,133.392L67.5636,133.159L67.4027,132.926L67.2432,132.691L67.0852,132.456L66.9287,132.219L66.7733,131.982L66.6193,131.743L66.467,131.504L66.3158,131.263L66.1659,131.022L66.0175,130.779L65.8708,130.536L65.7253,130.291L65.5811,130.046L65.4384,129.799L65.2972,129.552L65.1575,129.304L65.0193,129.055L64.8823,128.805L64.7468,128.553L64.6129,128.301L64.4804,128.048L64.3493,127.794L64.2199,127.54L64.092,127.284L63.9653,127.027L63.8402,126.77L63.7168,126.512L63.5948,126.252L63.4743,125.992L63.3554,125.731L63.2379,125.469L63.1219,125.206L63.0077,124.943L62.8949,124.679L62.7836,124.413L62.674,124.147L62.5659,123.88L62.4593,123.613L62.3544,123.344L62.2511,123.075L62.1493,122.805L62.0491,122.534L61.9506,122.262L61.8537,121.989L61.7584,121.716L61.6647,121.442L61.5726,121.167L61.4822,120.892L61.3934,120.615L61.3064,120.338L61.2209,120.061L61.1371,119.782L61.055,119.503L60.9745,119.223L60.8958,118.942L60.8188,118.661L60.7434,118.379L60.6697,118.096L60.5977,117.813L60.5275,117.529L60.4589,117.244L60.3921,116.959L60.3271,116.673L60.2638,116.386L60.2021,116.099L60.1423,115.811L60.0842,115.523L60.0279,115.234L59.9734,114.944L59.9206,114.654L59.8696,114.363L59.8204,114.072L59.7729,113.779L59.7273,113.487L59.6835,113.194L59.6415,112.9L59.6013,112.607L59.5629,112.312L59.5263,112.017L59.4916,111.721L59.4587,111.425L59.4276,111.129L59.3984,110.832L59.371,110.534L59.3455,110.236L59.3219,109.938L59.3001,109.639L59.2802,109.34L59.2621,109.04L59.246,108.74L59.2317,108.44L59.2193,108.139L59.2088,107.838L59.2002,107.536L59.1935,107.234L59.1887,106.932L59.1859,106.629L59.1849,106.326L59.1859,106.023L59.1887,105.721L59.1935,105.418L59.2002,105.117L59.2088,104.815L59.2193,104.514L59.2317,104.213L59.246,103.912L59.2621,103.612L59.2802,103.313L59.3001,103.014L59.3219,102.715L59.3455,102.416L59.371,102.118L59.3984,101.821L59.4276,101.524L59.4587,101.227L59.4916,100.931L59.5263,100.636L59.5629,100.341L59.6013,100.046L59.6415,99.7521L59.6835,99.4584L59.7273,99.1653L59.7729,98.8731L59.8204,98.581L59.8696,98.2895L59.9206,97.9989L59.9734,97.7085L60.0279,97.419L60.0842,97.1299L60.1423,96.8415L60.2021,96.5536L60.2638,96.2663L60.3271,95.9798L60.3921,95.6939L60.4589,95.4086L60.5275,95.1239L60.5977,94.8398L60.6697,94.5565L60.7434,94.2736L60.8188,93.9916L60.8958,93.7105L60.9745,93.4297L61.055,93.1499L61.1371,92.8708L61.2209,92.592L61.3064,92.3143L61.3934,92.0373L61.4822,91.7608L61.5726,91.4854L61.6647,91.2106L61.7584,90.9365L61.8537,90.6632L61.9506,90.3907L62.0491,90.119L62.1493,89.848L62.2511,89.5778L62.3544,89.3085L62.4593,89.0399L62.5659,88.7721L62.674,88.5052L62.7836,88.2392L62.8949,87.9739L63.0077,87.7095L63.1219,87.446L63.2379,87.1832L63.3554,86.9212L63.4743,86.6601L63.5948,86.4002L63.7168,86.141L63.8402,85.8826L63.9653,85.6251L64.092,85.3682L64.2199,85.1127L64.3493,84.8581L64.4804,84.6041L64.6129,84.3511L64.7468,84.0992L64.8823,83.848L65.0193,83.5976L65.1575,83.3485L65.2972,83.1005L65.4384,82.853L65.5811,82.6066L65.7253,82.3611L65.8708,82.1167L66.0175,81.8735L66.1659,81.6309L66.3158,81.3892L66.467,81.1486L66.6193,80.9094L66.7733,80.6708L66.9287,80.4332L67.0852,80.1969L67.2432,79.9614L67.4027,79.7269L67.5636,79.4933L67.7257,79.261L67.8891,79.0297L68.0538,78.7995L68.2201,78.5701L68.3876,78.3419L68.5562,78.1149L68.7264,77.8888L68.8979,77.6638L69.0706,77.4398L69.2447,77.2169L69.42,76.9952L69.5966,76.7745L69.7746,76.5549L69.9538,76.3364L70.1342,76.1191L70.316,75.9029L70.499,75.6877L70.6832,75.4737L70.8687,75.2608L71.0556,75.049L71.2436,74.8384L71.4328,74.629L71.6233,74.4206L71.815,74.2134L72.0079,74.0075L72.202,73.8026L72.3973,73.5989L72.594,73.3963L72.7917,73.1951L72.9906,72.9949L73.1908,72.7959L73.3922,72.5981L73.5947,72.4016L73.7982,72.2063L74.0032,72.012L74.2092,71.8191L74.4163,71.6275L74.6247,71.4369L74.8341,71.2477L75.0447,71.0597L75.2564,70.873L75.4694,70.6873L75.6834,70.5031L75.8985,70.3201L76.1148,70.1383L76.3321,69.9578L76.5506,69.7786L76.7701,69.6008L76.9908,69.4241L77.2126,69.2487L77.4354,69.0747L77.6593,68.9019L77.8843,68.7305L78.1104,68.5603L78.3375,68.3915L78.5658,68.224L78.795,68.0579L79.0251,67.8931L79.2566,67.7296L79.4891,67.5674L79.7223,67.4067L79.9568,67.2472L80.1925,67.0891L80.4288,66.9325L80.6662,66.7773L80.9048,66.6233L81.1443,66.4707L81.3849,66.3195L81.6263,66.1698L81.8687,66.0215L82.1123,65.8745L82.3566,65.7291L82.6019,65.585L82.8485,65.4422L83.0958,65.301L83.3439,65.1613L83.5932,65.0229L83.8433,64.8861L84.0946,64.7505L84.3467,64.6166L84.5993,64.4842L84.8534,64.3531L85.1083,64.2236L85.3638,64.0956L85.6204,63.9691L85.8777,63.8441L86.1362,63.7205L86.3955,63.5984L86.6556,63.4779L86.9167,63.359L87.1786,63.2415L87.4414,63.1256L87.7046,63.0114L87.9691,62.8986L88.2345,62.7872L88.5006,62.6775L88.7675,62.5694L89.0352,62.4629L89.3038,62.358L89.5731,62.2546L89.8431,62.1529L90.1142,62.0527L90.3861,61.9541L90.6585,61.8572L90.9318,61.7619L91.2059,61.6682L91.4807,61.5761L91.7561,61.4858L92.0323,61.397L92.3097,61.3098L92.5875,61.2243L92.866,61.1406L93.1452,61.0584L93.425,60.978L93.7055,60.8993L93.9868,60.8222L94.269,60.7468L94.5519,60.6731L94.835,60.6012L95.119,60.5309L95.4038,60.4624L95.689,60.3956L95.975,60.3305L96.2616,60.2672L96.5488,60.2056L96.8367,60.1457L97.125,60.0877L97.4143,60.0313L97.7039,59.9768L97.9941,59.924L98.2849,59.873L98.5761,59.8238L98.868,59.7763L99.1606,59.7307L99.4537,59.6868L99.7471,59.6448L100.041,59.6046L100.336,59.5662L100.631,59.5297L100.926,59.4949L101.222,59.462L101.519,59.431L101.816,59.4017L102.114,59.3744L102.411,59.3489L102.71,59.3252L103.009,59.3034L103.308,59.2835L103.608,59.2655L103.908,59.2493L104.208,59.235L104.509,59.2226L104.81,59.2121L105.112,59.2036L105.413,59.1969L105.716,59.1921L106.019,59.1892L106.321,59.1882L106.624,59.1892L106.927,59.1921L107.229,59.1969L107.531,59.2036L107.833,59.2121L108.134,59.2226L108.435,59.235L108.735,59.2493L109.035,59.2655L109.335,59.2835L109.634,59.3034L109.933,59.3252L110.232,59.3489L110.529,59.3744L110.827,59.4017L111.124,59.431L111.42,59.462L111.716,59.4949L112.307,59.5662L112.896,59.6448L113.482,59.7307L114.067,59.8238L114.649,59.924L115.229,60.0313L115.806,60.1457L116.381,60.2672L116.954,60.3956L117.524,60.5309L118.091,60.6731L118.656,60.8222L119.218,60.978L119.777,61.1406L120.333,61.3098L120.887,61.4858L121.437,61.6682L121.984,61.8572L122.529,62.0527L123.07,62.2546L123.608,62.4629L124.142,62.6775L124.674,62.8986L125.201,63.1256L125.726,63.359L126.247,63.5984L126.765,63.8441L127.279,64.0955L127.79,64.3532L128.296,64.6166L128.8,64.8861L129.299,65.1613L129.794,65.4422L130.286,65.7291L130.774,66.0215L131.258,66.3195L131.738,66.6233L132.214,66.9325L132.686,67.2472L133.154,67.5674L133.618,67.8931L134.077,68.224L134.533,68.5605L134.983,68.9018L135.43,69.2488L135.873,69.6007L136.311,69.9578L136.744,70.3201L137.173,70.6873L137.598,71.0597L138.018,71.437L138.434,71.8191L138.845,72.2063L139.251,72.598L139.652,72.9949L140.049,73.3963L140.441,73.8027L140.828,74.2133L141.21,74.629L141.587,75.0491L141.96,75.4737L142.327,75.9028L142.689,76.3365L143.046,76.7745L143.398,77.217L143.745,77.6636L144.087,78.1148L144.423,78.5701L144.754,79.0299L145.079,79.4933L145.4,79.9614L145.714,80.4332L146.024,80.9094L146.327,81.3892L146.625,81.8734L146.918,82.3611L147.204,82.853L147.485,83.3485L147.761,83.8481L148.03,84.3509L148.294,84.8583L148.551,85.3681L148.803,85.8828L149.048,86.4L149.288,86.9212L149.521,87.4462L149.748,87.9737L149.969,88.5053L150.184,89.0399L150.392,89.5779L150.594,90.1188L150.789,90.6632L150.978,91.2106L151.161,91.761L151.336,92.3139L151.506,92.8709L151.668,93.4296L151.824,93.9918L151.973,94.5563L152.115,95.124L152.251,95.6939L152.379,96.2661L152.501,96.8415L152.615,97.419L152.722,97.999L152.822,98.5808L152.916,99.1656L153.001,99.7517L153.042,100.046L153.117,100.635L153.151,100.931L153.184,101.227L153.215,101.524L153.245,101.821L153.272,102.119L153.297,102.416L153.321,102.714L153.343,103.014L153.363,103.313L153.381,103.612L153.397,103.912L153.411,104.213L153.424,104.514L153.434,104.815L153.443,105.117L153.449,105.418L153.454,105.721L153.457,106.023L153.458,106.326L153.457,106.629L153.454,106.932L153.449,107.234L153.443,107.536L153.434,107.838L153.424,108.139L153.411,108.44L153.397,108.74L153.381,109.04L153.363,109.34L153.343,109.639L153.321,109.938L153.297,110.236L153.272,110.534L153.245,110.831L153.215,111.129L153.184,111.425L153.151,111.721L153.117,112.017L153.08,112.312L153.042,112.607L153.001,112.901L152.959,113.194L152.916,113.487L152.87,113.78L152.822,114.072L152.773,114.363L152.722,114.653L152.67,114.944L152.615,115.234L152.559,115.523L152.501,115.811L152.441,116.099L152.379,116.386L152.316,116.673L152.251,116.959L152.184,117.244L152.115,117.528L152.045,117.813L151.973,118.096L151.9,118.379L151.824,118.661L151.747,118.942L151.668,119.223L151.588,119.503L151.506,119.782L151.422,120.061L151.336,120.339L151.249,120.615L151.161,120.892L151.07,121.167L150.978,121.442L150.885,121.716L150.789,121.989L150.692,122.262L150.594,122.534L150.494,122.805L150.392,123.075L150.288,123.344L150.184,123.613L150.077,123.88L149.969,124.147L149.859,124.413L149.748,124.679L149.635,124.943L149.521,125.206L149.405,125.469L149.288,125.731L149.169,125.992L149.048,126.253L148.926,126.512L148.803,126.77L148.678,127.027L148.551,127.284L148.423,127.54L148.294,127.794L148.163,128.048L148.03,128.302L147.896,128.554L147.761,128.804L147.624,129.055L147.485,129.304L147.346,129.552L147.204,129.799L147.062,130.046L146.918,130.291L146.772,130.536L146.625,130.779L146.477,131.022L146.327,131.263L146.176,131.504L146.024,131.743L145.869,131.982L145.714,132.219L145.558,132.456L145.4,132.691L145.24,132.926L145.079,133.159L144.917,133.392L144.754,133.623L144.589,133.853L144.423,134.082L144.255,134.311L144.086,134.538L143.916,134.764L143.745,134.989L143.572,135.213L143.398,135.435L143.223,135.657L143.046,135.878L142.868,136.098L142.689,136.316L142.509,136.533L142.327,136.75L142.144,136.965L141.96,137.179L141.774,137.392L141.587,137.604L141.399,137.814L141.21,138.023L141.02,138.232L140.828,138.439L140.635,138.645L140.441,138.85L140.245,139.054L140.049,139.256L139.851,139.457L139.652,139.658L139.452,139.857L139.251,140.054L139.048,140.251L138.845,140.446L138.64,140.64L138.434,140.833L138.226,141.025L138.018,141.216L137.809,141.405L137.598,141.593L137.386,141.78L137.173,141.965L136.96,142.149L136.744,142.332L136.528,142.514L136.311,142.695L136.093,142.874L135.873,143.052L135.652,143.229L135.43,143.404L135.208,143.578L134.984,143.751L134.758,143.922L134.533,144.092L134.305,144.261L134.077,144.428L133.848,144.595L133.617,144.76L133.386,144.923L133.154,145.085L132.92,145.246L132.686,145.405L132.451,145.563L132.214,145.72L131.977,145.875L131.738,146.029L131.498,146.182L131.258,146.333L131.017,146.483L130.774,146.631L130.531,146.778L130.286,146.923L130.041,147.068L129.795,147.21L129.547,147.351L129.299,147.491L129.05,147.63L128.799,147.767L128.548,147.902L128.296,148.036L128.043,148.168L127.79,148.299L127.535,148.429L127.279,148.557L127.022,148.684L126.765,148.809L126.506,148.932L126.247,149.054L125.988,149.174L125.726,149.294L125.464,149.411L125.202,149.527L124.938,149.641L124.674,149.754L124.408,149.865L124.142,149.975L123.876,150.083L123.607,150.19L123.339,150.294L123.07,150.398L122.799,150.5L122.529,150.6L122.257,150.698L121.984,150.795L121.711,150.891L121.437,150.984L121.162,151.076L120.887,151.167L120.61,151.256L120.333,151.343L120.056,151.428L119.777,151.512L119.498,151.594L119.218,151.675L118.937,151.753L118.656,151.83L118.374,151.906L118.091,151.979L117.808,152.051L117.524,152.122L117.239,152.19L116.954,152.257L116.668,152.322L116.381,152.385L116.094,152.447L115.806,152.507L115.518,152.565L115.229,152.621L114.939,152.676L114.649,152.729L114.358,152.78L114.067,152.829L113.775,152.876L113.482,152.922L113.189,152.966L112.896,153.008L112.602,153.048L112.307,153.086L112.012,153.123L111.716,153.158L111.42,153.191L111.124,153.222L110.827,153.251L110.529,153.278L110.231,153.304L109.933,153.327L109.634,153.349L109.335,153.369L109.036,153.387L108.735,153.403L108.435,153.418L108.134,153.43L107.833,153.44L107.531,153.449L107.229,153.456L106.927,153.46L106.624,153.463L106.321,153.464ZM106.321,139.287L106.535,139.287L106.747,139.285L106.96,139.281L107.172,139.277L107.384,139.271L107.596,139.263L107.807,139.255L108.018,139.245L108.228,139.233L108.438,139.221L108.648,139.207L108.857,139.191L109.066,139.175L109.275,139.157L109.483,139.138L109.691,139.117L109.899,139.095L110.106,139.072L110.313,139.048L110.519,139.023L110.725,138.996L110.931,138.968L111.136,138.938L111.341,138.908L111.545,138.876L111.749,138.843L111.953,138.808L112.156,138.773L112.359,138.736L112.561,138.698L112.763,138.658L112.964,138.618L113.165,138.576L113.365,138.533L113.565,138.489L113.765,138.443L113.964,138.397L114.163,138.349L114.361,138.3L114.559,138.25L114.756,138.198L114.953,138.146L115.149,138.092L115.345,138.037L115.54,137.981L115.735,137.924L115.929,137.865L116.123,137.806L116.316,137.745L116.509,137.683L116.701,137.62L116.893,137.556L117.084,137.49L117.274,137.424L117.464,137.356L117.654,137.287L117.843,137.217L118.032,137.146L118.22,137.074L118.407,137.001L118.594,136.927L118.78,136.851L118.966,136.775L119.151,136.697L119.335,136.618L119.519,136.539L119.703,136.458L119.886,136.376L120.068,136.293L120.249,136.209L120.43,136.123L120.611,136.037L120.791,135.95L120.97,135.861L121.148,135.772L121.326,135.681L121.504,135.59L121.68,135.497L121.857,135.404L122.032,135.309L122.207,135.214L122.381,135.117L122.554,135.019L122.727,134.92L122.9,134.821L123.071,134.72L123.242,134.618L123.412,134.516L123.582,134.412L123.751,134.307L123.919,134.201L124.086,134.095L124.253,133.987L124.419,133.878L124.585,133.769L124.749,133.658L124.914,133.547L125.077,133.434L125.239,133.321L125.401,133.206L125.563,133.091L125.723,132.975L125.883,132.857L126.042,132.739L126.2,132.62L126.357,132.5L126.514,132.379L126.67,132.257L126.826,132.134L126.98,132.011L127.134,131.886L127.287,131.761L127.439,131.634L127.591,131.507L127.741,131.379L127.891,131.25L128.04,131.12L128.189,130.989L128.336,130.857L128.483,130.725L128.629,130.591L128.774,130.457L128.918,130.322L129.062,130.186L129.204,130.049L129.346,129.911L129.487,129.773L129.627,129.633L129.767,129.493L129.905,129.352L130.043,129.21L130.18,129.067L130.316,128.924L130.451,128.78L130.585,128.635L130.719,128.489L130.851,128.342L130.983,128.194L131.114,128.046L131.244,127.897L131.373,127.747L131.501,127.596L131.628,127.445L131.755,127.293L131.88,127.14L132.005,126.986L132.128,126.831L132.251,126.676L132.373,126.52L132.494,126.363L132.614,126.206L132.733,126.047L132.851,125.888L132.969,125.729L133.085,125.568L133.2,125.407L133.315,125.245L133.428,125.083L133.541,124.919L133.652,124.755L133.763,124.59L133.872,124.425L133.981,124.259L134.089,124.092L134.195,123.924L134.301,123.756L134.406,123.587L134.509,123.418L134.612,123.248L134.714,123.077L134.815,122.905L134.914,122.733L135.013,122.56L135.111,122.386L135.207,122.212L135.303,122.038L135.398,121.862L135.491,121.686L135.584,121.509L135.675,121.332L135.766,121.154L135.855,120.975L135.944,120.796L136.031,120.616L136.117,120.436L136.202,120.255L136.286,120.073L136.37,119.891L136.452,119.708L136.532,119.525L136.612,119.341L136.691,119.156L136.769,118.971L136.845,118.785L136.921,118.599L136.995,118.412L137.068,118.225L137.14,118.037L137.211,117.848L137.281,117.659L137.35,117.47L137.417,117.28L137.484,117.089L137.549,116.898L137.614,116.706L137.677,116.514L137.739,116.321L137.799,116.128L137.859,115.934L137.917,115.74L137.975,115.545L138.031,115.35L138.086,115.154L138.139,114.958L138.192,114.761L138.243,114.564L138.294,114.366L138.343,114.168L138.39,113.969L138.437,113.77L138.482,113.571L138.527,113.371L138.57,113.17L138.611,112.969L138.652,112.768L138.691,112.566L138.729,112.364L138.766,112.161L138.802,111.958L138.836,111.754L138.869,111.55L138.901,111.346L138.932,111.141L138.961,110.936L138.989,110.73L139.016,110.524L139.042,110.318L139.066,110.111L139.089,109.904L139.111,109.696L139.131,109.488L139.151,109.28L139.168,109.071L139.185,108.862L139.2,108.653L139.214,108.443L139.227,108.233L139.238,108.022L139.248,107.812L139.257,107.6L139.264,107.389L139.27,107.177L139.275,106.965L139.278,106.752L139.28,106.539L139.281,106.326L139.28,106.113L139.278,105.9L139.275,105.688L139.27,105.476L139.264,105.264L139.257,105.052L139.248,104.841L139.238,104.63L139.227,104.42L139.214,104.209L139.2,104L139.185,103.79L139.168,103.581L139.151,103.372L139.131,103.164L139.111,102.956L139.089,102.749L139.066,102.541L139.042,102.335L139.016,102.128L138.989,101.922L138.961,101.717L138.932,101.511L138.901,101.307L138.869,101.102L138.836,100.898L138.802,100.695L138.766,100.492L138.729,100.289L138.691,100.087L138.652,99.8848L138.611,99.6834L138.57,99.4825L138.527,99.282L138.482,99.082L138.437,98.8824L138.39,98.6833L138.343,98.4847L138.294,98.2865L138.243,98.0888L138.192,97.8915L138.139,97.6948L138.086,97.4985L138.031,97.3027L137.975,97.1075L137.917,96.9127L137.859,96.7184L137.799,96.5246L137.739,96.3314L137.677,96.1386L137.614,95.9464L137.549,95.7547L137.484,95.5635L137.417,95.3728L137.35,95.1827L137.281,94.9931L137.211,94.8041L137.14,94.6156L137.068,94.4276L136.995,94.2402L136.921,94.0534L136.845,93.8671L136.769,93.6814L136.691,93.4963L136.612,93.3117L136.532,93.1278L136.452,92.9444L136.37,92.7615L136.286,92.5793L136.202,92.3977L136.117,92.2167L136.031,92.0362L135.944,91.8564L135.855,91.6772L135.766,91.4986L135.675,91.3207L135.584,91.1433L135.491,90.9666L135.398,90.7905L135.303,90.615L135.207,90.4402L135.111,90.266L135.013,90.0925L134.914,89.9196L134.815,89.7474L134.714,89.5758L134.612,89.4049L134.509,89.2347L134.406,89.0652L134.301,88.8963L134.195,88.7281L134.089,88.5605L133.981,88.3937L133.872,88.2276L133.763,88.0621L133.652,87.8974L133.541,87.7333L133.428,87.57L133.315,87.4074L133.2,87.2455L133.085,87.0843L132.969,86.9238L132.851,86.7641L132.733,86.6051L132.614,86.4468L132.494,86.2893L132.373,86.1325L132.251,85.9765L132.128,85.8212L132.005,85.6667L131.88,85.5129L131.755,85.3599L131.628,85.2077L131.501,85.0562L131.373,84.9055L131.244,84.7556L131.114,84.6065L130.983,84.4582L130.851,84.3107L130.719,84.1639L130.585,84.018L130.451,83.8729L130.316,83.7285L130.18,83.585L130.043,83.4423L129.905,83.3005L129.767,83.1594L129.627,83.0192L129.487,82.8798L129.346,82.7413L129.204,82.6036L129.062,82.4667L128.918,82.3307L128.774,82.1956L128.629,82.0613L128.483,81.9278L128.336,81.7953L128.189,81.6636L128.04,81.5327L127.891,81.4028L127.741,81.2737L127.591,81.1455L127.439,81.0182L127.287,80.8918L127.134,80.7663L126.98,80.6417L126.826,80.5181L126.67,80.3953L126.514,80.2734L126.357,80.1525L126.2,80.0324L126.042,79.9133L125.883,79.7952L125.723,79.6779L125.563,79.5616L125.401,79.4463L125.239,79.3319L125.077,79.2184L124.914,79.1059L124.749,78.9944L124.585,78.8838L124.419,78.7742L124.253,78.6655L124.086,78.5579L123.919,78.4512L123.751,78.3455L123.582,78.2407L123.412,78.137L123.242,78.0343L123.071,77.9326L122.9,77.8318L122.727,77.7321L122.554,77.6334L122.381,77.5357L122.207,77.439L122.032,77.3434L121.857,77.2487L121.68,77.1551L121.504,77.0626L121.326,76.9711L121.148,76.8806L120.97,76.7911L120.791,76.7028L120.611,76.6154L120.43,76.5292L120.249,76.444L120.068,76.3599L119.886,76.2768L119.703,76.1948L119.519,76.1139L119.335,76.0341L119.151,75.9554L118.966,75.8777L118.78,75.8012L118.594,75.7258L118.407,75.6514L118.22,75.5782L118.032,75.5061L117.843,75.4351L117.654,75.3652L117.464,75.2964L117.274,75.2288L117.084,75.1623L116.893,75.097L116.701,75.0328L116.509,74.9697L116.316,74.9078L116.123,74.847L115.929,74.7874L115.735,74.7289L115.54,74.6716L115.345,74.6155L115.149,74.5606L114.953,74.5068L114.756,74.4542L114.559,74.4028L114.361,74.3526L114.163,74.3036L113.964,74.2558L113.765,74.2092L113.565,74.1637L113.365,74.1195L113.165,74.0765L112.964,74.0348L112.763,73.9942L112.561,73.9549L112.359,73.9168L112.156,73.8799L111.953,73.8443L111.749,73.8099L111.545,73.7768L111.341,73.7449L111.136,73.7143L110.931,73.6849L110.725,73.6568L110.519,73.6299L110.313,73.6044L110.106,73.5801L109.899,73.557L109.691,73.5353L109.483,73.5148L109.275,73.4957L109.066,73.4778L108.857,73.4612L108.648,73.446L108.438,73.432L108.228,73.4193L108.018,73.408L107.807,73.398L107.596,73.3893L107.384,73.3819L107.172,73.3759L106.96,73.3712L106.747,73.3678L106.535,73.3658L106.321,73.3651L106.108,73.3658L105.895,73.3678L105.683,73.3712L105.471,73.3759L105.259,73.3819L105.047,73.3893L104.836,73.398L104.625,73.408L104.415,73.4193L104.205,73.432L103.995,73.446L103.786,73.4612L103.576,73.4778L103.368,73.4957L103.159,73.5148L102.952,73.5353L102.744,73.557L102.537,73.5801L102.33,73.6044L102.124,73.6299L101.918,73.6568L101.712,73.6849L101.507,73.7143L101.302,73.7449L101.098,73.7768L100.894,73.8099L100.69,73.8443L100.487,73.8799L100.284,73.9168L100.082,73.9549L99.8803,73.9942L99.6789,74.0348L99.478,74.0765L99.2775,74.1195L99.0775,74.1637L98.8779,74.2092L98.6788,74.2558L98.4802,74.3036L98.282,74.3526L98.0843,74.4028L97.8871,74.4542L97.6903,74.5068L97.4941,74.5606L97.2983,74.6155L97.1031,74.6716L96.9083,74.7289L96.714,74.7874L96.5202,74.847L96.327,74.9078L96.1342,74.9697L95.942,75.0328L95.7503,75.097L95.5591,75.1623L95.3685,75.2288L95.1784,75.2964L94.9888,75.3652L94.7998,75.4351L94.6113,75.5061L94.4233,75.5782L94.236,75.6514L94.0491,75.7258L93.8629,75.8012L93.6772,75.8777L93.4921,75.9554L93.3075,76.0341L93.1235,76.1139L92.9401,76.1948L92.7573,76.2768L92.5751,76.3599L92.3935,76.444L92.2125,76.5292L92.0321,76.6154L91.8523,76.7028L91.6731,76.7911L91.4945,76.8806L91.3165,76.9711L91.1392,77.0626L90.9624,77.1551L90.7864,77.2487L90.6109,77.3434L90.4361,77.439L90.2619,77.5357L90.0884,77.6334L89.9155,77.7321L89.7433,77.8318L89.5718,77.9326L89.4009,78.0343L89.2307,78.137L89.0611,78.2407L88.8922,78.3455L88.724,78.4512L88.5565,78.5579L88.3897,78.6655L88.2236,78.7742L88.0581,78.8838L87.8934,78.9944L87.7294,79.1059L87.566,79.2184L87.4034,79.3319L87.2415,79.4463L87.0803,79.5616L86.9199,79.6779L86.7602,79.7952L86.6012,79.9133L86.4429,80.0324L86.2854,80.1525L86.1286,80.2734L85.9726,80.3953L85.8173,80.5181L85.6628,80.6417L85.509,80.7663L85.356,80.8918L85.2038,81.0182L85.0524,81.1455L84.9017,81.2737L84.7518,81.4028L84.6027,81.5327L84.4544,81.6636L84.3068,81.7953L84.1601,81.9278L84.0142,82.0613L83.8691,82.1956L83.7247,82.3307L83.5812,82.4667L83.4386,82.6036L83.2967,82.7413L83.1557,82.8798L83.0154,83.0192L82.8761,83.1594L82.7375,83.3005L82.5998,83.4423L82.463,83.585L82.327,83.7285L82.1918,83.8729L82.0575,84.018L81.9241,84.1639L81.7915,84.3107L81.6599,84.4582L81.529,84.6065L81.3991,84.7556L81.27,84.9055L81.1419,85.0562L81.0146,85.2077L80.8882,85.3599L80.7627,85.5129L80.6381,85.6667L80.5144,85.8212L80.3916,85.9765L80.2698,86.1325L80.1488,86.2893L80.0288,86.4468L79.9097,86.6051L79.7915,86.7641L79.6743,86.9238L79.558,87.0843L79.4427,87.2455L79.3283,87.4074L79.2148,87.57L79.1023,87.7333L78.9908,87.8974L78.8802,88.0621L78.7706,88.2276L78.662,88.3937L78.5543,88.5605L78.4476,88.7281L78.3419,88.8963L78.2372,89.0652L78.1335,89.2347L78.0307,89.4049L77.929,89.5758L77.8283,89.7474L77.7286,89.9196L77.6299,90.0925L77.5322,90.266L77.4355,90.4402L77.3398,90.615L77.2452,90.7905L77.1516,90.9666L77.0591,91.1433L76.9676,91.3207L76.8771,91.4986L76.7877,91.6772L76.6993,91.8564L76.612,92.0362L76.5257,92.2167L76.4405,92.3977L76.3564,92.5793L76.2733,92.7615L76.1914,92.9444L76.1105,93.1278L76.0307,93.3117L75.9519,93.4963L75.8743,93.6814L75.7978,93.8671L75.7223,94.0534L75.648,94.2402L75.5748,94.4276L75.5026,94.6156L75.4317,94.8041L75.3618,94.9931L75.293,95.1827L75.2254,95.3728L75.1589,95.5635L75.0936,95.7547L75.0293,95.9464L74.9663,96.1386L74.9044,96.3314L74.8436,96.5246L74.784,96.7184L74.7255,96.9127L74.6683,97.1075L74.6121,97.3027L74.5572,97.4985L74.5034,97.6948L74.4508,97.8915L74.3994,98.0888L74.3492,98.2865L74.3002,98.4847L74.2524,98.6833L74.2058,98.8824L74.1604,99.082L74.1162,99.282L74.0732,99.4825L74.0314,99.6834L73.9909,99.8848L73.9515,100.087L73.9134,100.289L73.8766,100.492L73.841,100.695L73.8066,100.898L73.7734,101.102L73.7416,101.307L73.7109,101.511L73.6816,101.717L73.6534,101.922L73.6266,102.128L73.601,102.335L73.5767,102.541L73.5537,102.749L73.532,102.956L73.5115,103.164L73.4923,103.372L73.4745,103.581L73.4579,103.79L73.4426,104L73.4287,104.209L73.416,104.42L73.4047,104.63L73.3947,104.841L73.386,105.052L73.3786,105.264L73.3726,105.476L73.3679,105.688L73.3645,105.9L73.3625,106.113L73.3618,106.326L73.3645,106.752L73.3726,107.177L73.386,107.6L73.4047,108.022L73.4287,108.443L73.4579,108.862L73.4923,109.28L73.532,109.696L73.5767,110.111L73.6266,110.524L73.6816,110.936L73.7416,111.346L73.8066,111.754L73.8766,112.161L73.9515,112.566L74.0314,112.969L74.1162,113.371L74.2058,113.77L74.3002,114.168L74.3994,114.564L74.5034,114.958L74.6121,115.35L74.7255,115.74L74.8436,116.128L74.9663,116.514L75.0936,116.898L75.2254,117.28L75.3618,117.659L75.5026,118.037L75.648,118.412L75.7978,118.785L75.9519,119.156L76.1105,119.525L76.2733,119.891L76.4405,120.255L76.612,120.616L76.7877,120.975L76.9676,121.332L77.1516,121.686L77.3398,122.038L77.5322,122.386L77.7286,122.733L77.929,123.077L78.1335,123.418L78.3419,123.756L78.5543,124.092L78.7706,124.425L78.9908,124.755L79.2148,125.083L79.4427,125.407L79.6743,125.729L79.9097,126.047L80.1488,126.363L80.3916,126.676L80.6381,126.986L80.8882,127.293L81.1419,127.596L81.3991,127.897L81.6599,128.194L81.9241,128.489L82.1918,128.78L82.463,129.067L82.7375,129.352L83.0154,129.633L83.2967,129.911L83.5812,130.186L83.8691,130.457L84.1601,130.725L84.4544,130.989L84.7518,131.25L85.0524,131.507L85.356,131.761L85.6628,132.011L85.9726,132.257L86.2854,132.5L86.6012,132.739L86.9199,132.975L87.2415,133.206L87.566,133.434L87.8934,133.658L88.2236,133.878L88.5565,134.095L88.8922,134.307L89.2307,134.516L89.5718,134.72L89.9155,134.92L90.2619,135.117L90.6109,135.309L90.9624,135.497L91.3165,135.681L91.6731,135.861L92.0321,136.037L92.3935,136.209L92.7573,136.376L93.1235,136.539L93.4921,136.697L93.8629,136.851L94.236,137.001L94.6113,137.146L94.9888,137.287L95.3685,137.424L95.7503,137.556L96.1342,137.683L96.5202,137.806L96.9083,137.924L97.2983,138.037L97.6903,138.146L98.0843,138.25L98.4802,138.349L98.8779,138.443L99.2775,138.533L99.6789,138.618L100.082,138.698L100.487,138.773L100.894,138.843L101.302,138.908L101.712,138.968L102.124,139.023L102.537,139.072L102.952,139.117L103.368,139.157L103.786,139.191L104.205,139.221L104.625,139.245L105.047,139.263L105.471,139.277L105.895,139.285L106.321,139.287ZM106.321,198.476L106.695,198.475L107.069,198.473L107.442,198.469L107.816,198.464L108.19,198.457L108.563,198.448L108.937,198.439L109.31,198.427L109.684,198.414L109.75,198.412L116.758,178.453L117.128,177.51L117.564,176.595L118.064,175.714L118.627,174.87L119.248,174.069L119.924,173.315L120.653,172.61L121.43,171.96L122.252,171.367L123.114,170.833L124.012,170.363L124.941,169.959L125.897,169.621L126.3,169.495L126.664,169.379L127.027,169.261L127.389,169.14L127.75,169.018L128.111,168.894L128.47,168.767L128.83,168.638L129.188,168.508L129.546,168.375L129.902,168.241L130.258,168.104L130.613,167.965L130.968,167.824L131.321,167.681L131.674,167.536L132.026,167.39L132.377,167.241L132.727,167.09L133.076,166.937L133.424,166.782L133.772,166.625L134.118,166.466L134.464,166.305L134.809,166.141L135.153,165.977L135.496,165.81L135.838,165.641L136.179,165.47L136.519,165.297L136.858,165.122L137.233,164.926L138.147,164.488L139.09,164.117L140.058,163.815L141.044,163.582L142.045,163.421L143.055,163.331L144.068,163.314L145.08,163.369L146.086,163.496L147.08,163.695L148.057,163.964L149.012,164.303L149.941,164.708L169.008,173.865L169.056,173.82L169.33,173.565L169.602,173.309L169.873,173.052L170.143,172.794L170.412,172.534L170.68,172.274L170.947,172.012L171.213,171.749L171.477,171.486L171.741,171.221L172.004,170.955L172.265,170.688L172.526,170.421L172.785,170.151L173.043,169.881L173.3,169.61L173.557,169.338L173.812,169.065L173.857,169.016L164.7,149.947L164.294,149.018L163.956,148.063L163.687,147.086L163.488,146.092L163.361,145.087L163.305,144.075L163.323,143.061L163.412,142.052L163.574,141.051L163.807,140.065L164.109,139.097L164.48,138.154L164.917,137.24L165.113,136.865L165.288,136.526L165.461,136.186L165.632,135.845L165.801,135.503L165.968,135.16L166.133,134.816L166.296,134.471L166.457,134.125L166.616,133.779L166.773,133.431L166.928,133.083L167.081,132.734L167.232,132.383L167.381,132.032L167.528,131.68L167.673,131.328L167.816,130.974L167.957,130.62L168.095,130.265L168.232,129.909L168.367,129.552L168.5,129.194L168.63,128.836L168.759,128.477L168.885,128.117L169.01,127.757L169.132,127.395L169.252,127.033L169.37,126.67L169.487,126.307L169.613,125.904L169.95,124.948L170.355,124.019L170.825,123.121L171.358,122.259L171.951,121.437L172.602,120.659L173.306,119.931L174.06,119.254L174.861,118.633L175.705,118.071L176.586,117.57L177.501,117.134L178.445,116.764L198.402,109.756L198.405,109.689L198.418,109.315L198.429,108.942L198.439,108.568L198.447,108.195L198.454,107.821L198.459,107.447L198.463,107.074L198.465,106.7L198.466,106.326L198.465,105.952L198.463,105.579L198.459,105.205L198.454,104.831L198.447,104.458L198.439,104.085L198.429,103.711L198.418,103.337L198.405,102.964L198.402,102.897L178.445,95.8886L177.501,95.5188L176.586,95.0825L175.705,94.582L174.861,94.0198L174.06,93.3987L173.306,92.722L172.602,91.9931L171.951,91.2158L171.358,90.394L170.825,89.5319L170.355,88.6339L169.95,87.7046L169.613,86.7488L169.487,86.3454L169.37,85.9821L169.252,85.6193L169.132,85.2572L169.01,84.8959L168.885,84.5351L168.759,84.1752L168.63,83.8163L168.5,83.4582L168.367,83.1004L168.232,82.7436L168.095,82.3876L167.957,82.0326L167.816,81.6783L167.673,81.3246L167.528,80.9721L167.381,80.6203L167.232,80.2692L167.081,79.9188L166.928,79.5697L166.773,79.2215L166.616,78.8738L166.457,78.5271L166.296,78.1814L166.133,77.8367L165.968,77.4929L165.801,77.1498L165.632,76.8077L165.461,76.4667L165.288,76.1267L165.113,75.7873L164.917,75.4126L164.48,74.4983L164.109,73.5551L163.807,72.5878L163.574,71.6014L163.412,70.6008L163.323,69.5913L163.305,68.5779L163.361,67.5659L163.488,66.5604L163.687,65.5666L163.956,64.5896L164.294,63.6342L164.7,62.7055L173.857,43.6368L173.812,43.5878L173.557,43.3145L173.3,43.0422L173.043,42.7712L172.785,42.5011L172.525,42.232L172.265,41.9641L172.004,41.6972L171.741,41.4312L171.477,41.1666L171.213,40.9029L170.947,40.6402L170.68,40.3786L170.412,40.1182L170.143,39.8588L169.873,39.6005L169.602,39.3435L169.33,39.0873L169.056,38.8321L169.008,38.7873L149.941,47.9441L149.012,48.35L148.057,48.6885L147.08,48.9578L146.086,49.1566L145.08,49.2839L144.068,49.339L143.054,49.3217L142.045,49.232L141.044,49.0703L140.058,48.8376L139.09,48.535L138.147,48.1641L137.233,47.7267L136.858,47.5308L136.519,47.3559L136.179,47.1829L135.838,47.0119L135.496,46.843L135.153,46.676L134.809,46.511L134.464,46.3479L134.119,46.1869L133.772,46.0279L133.424,45.8709L133.076,45.7159L132.727,45.5629L132.377,45.4119L132.026,45.263L131.674,45.1161L131.321,44.9712L130.968,44.8283L130.613,44.6875L130.258,44.5487L129.902,44.412L129.546,44.2773L129.188,44.1446L128.83,44.014L128.471,43.8854L128.111,43.759L127.75,43.6345L127.389,43.5122L127.027,43.3919L126.664,43.2737L126.301,43.1575L125.898,43.0313L124.942,42.694L124.012,42.2893L123.114,41.8192L122.252,41.2862L121.431,40.6929L120.653,40.0424L119.924,39.3381L119.248,38.5835L118.627,37.7824L118.064,36.939L117.564,36.0577L117.128,35.1428L116.758,34.199L109.75,14.2408L109.684,14.2382L109.31,14.2253L108.937,14.214L108.563,14.2041L108.19,14.1958L107.816,14.189L107.442,14.1837L107.069,14.1799L106.695,14.1776L106.321,14.1768L105.948,14.1776L105.574,14.1799L105.2,14.1837L104.827,14.189L104.453,14.1958L104.08,14.2041L103.706,14.214L103.333,14.2253L102.959,14.2382L102.893,14.2408L95.885,34.199L95.5152,35.1428L95.0789,36.0577L94.5784,36.9391L94.0162,37.7824L93.3952,38.5835L92.7185,39.3381L91.9897,40.0425L91.2123,40.6929L90.3905,41.2862L89.5284,41.8192L88.6304,42.2893L87.7011,42.694L86.7453,43.0313L86.3422,43.1575L85.9788,43.2737L85.6159,43.3919L85.2539,43.5122L84.8926,43.6345L84.532,43.759L84.1721,43.8854L83.8131,44.014L83.4548,44.1446L83.0973,44.2772L82.7405,44.4119L82.3846,44.5487L82.0295,44.6875L81.6752,44.8283L81.3217,44.9712L80.969,45.1161L80.6172,45.263L80.2662,45.412L79.9161,45.5629L79.5669,45.7159L79.2185,45.8709L78.8709,46.0279L78.5243,46.1869L78.1786,46.3479L77.8339,46.5109L77.49,46.676L77.147,46.843L76.805,47.0119L76.464,47.1829L76.1239,47.3559L75.7847,47.5308L75.4103,47.7267L74.4959,48.1641L73.5526,48.535L72.5852,48.8376L71.5987,49.0703L70.598,49.232L69.5884,49.3217L68.5749,49.339L67.5628,49.2839L66.5572,49.1566L65.5633,48.9578L64.5861,48.6885L63.6307,48.35L62.7019,47.9441L43.6351,38.7873L43.5866,38.8322L43.3134,39.0872L43.0412,39.3434L42.7701,39.6005L42.5,39.8588L42.231,40.1182L41.9631,40.3787L41.6962,40.6402L41.4304,40.9028L41.1656,41.1665L40.9019,41.4313L40.6393,41.6972L40.3777,41.9641L40.1173,42.232L39.8579,42.5011L39.5997,42.7711L39.3425,43.0423L39.0864,43.3145L38.8313,43.5877L38.7858,43.6369L47.9427,62.7055L48.3486,63.6342L48.687,64.5896L48.9562,65.5667L49.155,66.5606L49.2823,67.5661L49.3374,68.5781L49.3201,69.5915L49.2304,70.6011L49.0688,71.6016L48.8361,72.5881L48.5335,73.5554L48.1626,74.4987L47.7253,75.413L47.5295,75.7874L47.3545,76.1265L47.1816,76.4667L47.0106,76.8078L46.8416,77.1498L46.6746,77.4928L46.5097,77.8366L46.3466,78.1815L46.1856,78.5272L46.0266,78.8738L45.8696,79.2214L45.7146,79.5697L45.5616,79.919L45.4107,80.2692L45.2617,80.6202L45.1148,80.972L44.9699,81.3247L44.827,81.6782L44.6862,82.0325L44.5474,82.3877L44.4107,82.7437L44.276,83.1004L44.1433,83.4579L44.0127,83.8163L43.8842,84.1754L43.7577,84.5352L43.6333,84.8958L43.5109,85.2572L43.3906,85.6192L43.2724,85.9821L43.1563,86.3456L43.0301,86.7488L42.6928,87.7046L42.2881,88.6339L41.8181,89.5319L41.285,90.394L40.6918,91.2158L40.0413,91.9931L39.337,92.722L38.5824,93.3987L37.7814,94.0198L36.938,94.582L36.0567,95.0825L35.1418,95.5188L34.1981,95.8886L14.2408,102.897L14.2382,102.964L14.2253,103.337L14.214,103.711L14.2041,104.084L14.1958,104.458L14.189,104.832L14.1837,105.205L14.1799,105.579L14.1776,105.953L14.1768,106.326L14.1776,106.7L14.1799,107.074L14.1837,107.447L14.189,107.821L14.1958,108.195L14.2041,108.568L14.214,108.942L14.2253,109.315L14.2408,109.756L34.1981,116.764L35.1418,117.134L36.0567,117.57L36.938,118.071L37.7814,118.633L38.5824,119.254L39.337,119.931L40.0413,120.659L40.6918,121.437L41.285,122.259L41.8181,123.121L42.2881,124.019L42.6928,124.948L43.0301,125.904L43.1563,126.307L43.2724,126.67L43.3906,127.033L43.5109,127.395L43.6333,127.757L43.7577,128.117L43.8842,128.477L44.0127,128.836L44.1433,129.195L44.276,129.552L44.4107,129.909L44.5474,130.265L44.6862,130.62L44.827,130.974L44.9699,131.328L45.1148,131.681L45.2617,132.032L45.4107,132.383L45.5616,132.734L45.7146,133.083L45.8696,133.431L46.0266,133.779L46.1856,134.125L46.3466,134.471L46.5096,134.816L46.6746,135.16L46.8416,135.503L47.0106,135.845L47.1816,136.186L47.3545,136.526L47.5295,136.865L47.7253,137.24L48.1626,138.154L48.5335,139.097L48.8361,140.064L49.0688,141.051L49.2304,142.052L49.3201,143.061L49.3374,144.074L49.2823,145.086L49.155,146.092L48.9562,147.086L48.687,148.063L48.3485,149.018L47.9427,149.947L38.7858,169.016L39.0864,169.338L39.3423,169.61L39.5997,169.881L39.858,170.152L40.1172,170.42L40.3778,170.689L40.6392,170.955L40.9019,171.221L41.1656,171.486L41.4302,171.75L41.6963,172.012L41.9632,172.274L42.2309,172.534L42.5,172.794L42.7701,173.052L43.0411,173.309L43.3134,173.565L43.6351,173.865L62.7019,164.708L63.6307,164.303L64.5861,163.964L65.5633,163.695L66.5572,163.496L67.5628,163.369L68.5749,163.314L69.5884,163.331L70.598,163.421L71.5986,163.582L72.5851,163.815L73.5525,164.117L74.4958,164.488L75.4102,164.926L75.7847,165.122L76.1238,165.297L76.464,165.47L76.805,165.641L77.147,165.81L77.4901,165.977L77.8337,166.142L78.1786,166.305L78.5245,166.466L78.8709,166.625L79.2184,166.782L79.5668,166.937L79.9159,167.09L80.2663,167.241L80.6174,167.39L80.9689,167.536L81.3216,167.681L81.6753,167.824L82.0296,167.965L82.3846,168.104L82.7405,168.241L83.0974,168.375L83.4545,168.508L83.8129,168.638L84.1724,168.767L84.532,168.894L84.8924,169.018L85.254,169.14L85.6158,169.261L85.9786,169.379L86.3424,169.495L86.7457,169.621L87.7015,169.959L88.6308,170.363L89.5287,170.833L90.3908,171.367L91.2126,171.96L91.9898,172.61L92.7187,173.315L93.3953,174.069L94.0163,174.87L94.5785,175.714L95.079,176.595L95.5152,177.51L95.885,178.454L102.893,198.412L103.332,198.427L103.706,198.439L104.08,198.448L104.453,198.457L104.827,198.464L105.201,198.469L105.574,198.473L105.948,198.475L106.321,198.476ZM106.321,212.653L105.89,212.652L105.459,212.649L105.028,212.645L104.597,212.639L104.166,212.631L103.735,212.621L103.304,212.61L102.873,212.597L102.442,212.582L102.011,212.565L101.58,212.547L101.149,212.527L100.718,212.505L100.288,212.481L99.857,212.456L99.4265,212.429L98.9961,212.4L98.5658,212.369L98.1355,212.337L97.7054,212.303L97.2753,212.267L96.8454,212.229L96.4156,212.19L95.9859,212.149L95.5563,212.106L95.1269,212.062L94.6976,212.015L94.2685,211.967L93.8395,211.917L93.4106,211.866L92.982,211.812L92.5535,211.757L82.5088,183.15L82.0666,183.012L81.6253,182.871L81.1849,182.727L80.7454,182.581L80.3067,182.433L79.869,182.282L79.4322,182.128L78.9963,181.972L78.5613,181.813L78.1273,181.652L77.6942,181.489L77.2621,181.323L76.831,181.154L76.4008,180.983L75.9717,180.81L75.5435,180.634L75.1164,180.456L74.6903,180.275L74.2653,180.092L73.8413,179.906L73.4184,179.718L72.9965,179.527L72.5757,179.334L72.1561,179.139L71.7375,178.941L71.32,178.74L70.9037,178.538L70.4885,178.333L70.0744,178.125L69.6615,177.915L69.2498,177.703L68.8393,177.488L41.5093,190.613L41.1673,190.349L40.8265,190.084L40.4868,189.817L40.1482,189.549L39.8108,189.279L39.4744,189.008L39.1393,188.736L38.8052,188.463L38.4723,188.188L38.1406,187.912L37.81,187.635L37.4806,187.356L37.1523,187.076L36.8252,186.794L36.4993,186.512L36.1745,186.228L35.8509,185.942L35.5285,185.656L35.2073,185.368L34.8873,185.079L34.5684,184.788L34.2508,184.497L33.9343,184.204L33.6191,183.91L33.305,183.614L32.9922,183.317L32.6806,183.019L32.3702,182.72L32.061,182.419L31.753,182.118L31.4463,181.815L31.1408,181.51L30.8366,181.205L30.5336,180.898L30.2318,180.59L29.9313,180.281L29.632,179.97L29.334,179.659L29.0372,179.346L28.7417,179.032L28.4475,178.717L28.1545,178.4L27.8628,178.083L27.5724,177.764L27.2833,177.444L26.9955,177.122L26.7089,176.8L26.4236,176.476L26.1397,176.152L25.857,175.826L25.5757,175.499L25.2956,175.17L25.0169,174.841L24.7394,174.51L24.4633,174.178L24.1886,173.846L23.9151,173.511L23.643,173.176L23.3722,172.84L23.1027,172.503L22.8346,172.164L22.5679,171.824L22.3025,171.483L22.0384,171.141L35.1631,143.81L34.9483,143.4L34.736,142.988L34.526,142.575L34.3185,142.161L34.1133,141.746L33.9106,141.329L33.7103,140.912L33.5124,140.493L33.3169,140.074L33.1239,139.653L32.9333,139.231L32.7452,138.808L32.5594,138.384L32.3762,137.959L32.1954,137.533L32.017,137.106L31.8411,136.677L31.6677,136.248L31.4967,135.818L31.3282,135.387L31.1622,134.955L30.9987,134.522L30.8377,134.088L30.6791,133.653L30.5231,133.217L30.3695,132.78L30.2185,132.342L30.0699,131.903L29.9239,131.464L29.7804,131.023L29.6394,130.582L29.501,130.14L0.895205,120.095L0.840129,119.666L0.786801,119.238L0.735222,118.809L0.685391,118.38L0.637309,117.951L0.590975,117.521L0.54639,117.092L0.503553,116.662L0.462464,116.233L0.423124,115.803L0.385532,115.373L0.349689,114.943L0.315595,114.513L0.283248,114.082L0.252651,113.652L0.223801,113.221L0.1967,112.791L0.171348,112.36L0.147744,111.93L0.125888,111.499L0.105781,111.068L0.0874223,110.637L0.0708121,110.206L0.0559503,109.775L0.0428369,109.344L0.031472,108.913L0.0218556,108.482L0.0139876,108.051L0.00786801,107.62L0.00349689,107.189L0.000874223,106.757L-1.98952e-13,106.326L0.000874223,105.895L0.00349689,105.464L0.00786801,105.033L0.0139876,104.602L0.0218556,104.17L0.031472,103.739L0.0428369,103.308L0.0559503,102.877L0.0708121,102.446L0.0874223,102.015L0.105781,101.584L0.125888,101.154L0.147744,100.723L0.171348,100.292L0.1967,99.8616L0.223801,99.431L0.252651,99.0006L0.283248,98.5702L0.315595,98.14L0.349689,97.7098L0.385532,97.2797L0.423124,96.8498L0.462464,96.42L0.503553,95.9903L0.54639,95.5607L0.590975,95.1312L0.637309,94.7019L0.685391,94.2728L0.735222,93.8437L0.786801,93.4149L0.840129,92.9862L0.895205,92.5577L29.501,82.5125L29.6394,82.0703L29.7804,81.629L29.9239,81.1886L30.0699,80.749L30.2185,80.3104L30.3695,79.8726L30.5231,79.4358L30.6791,78.9998L30.8377,78.5648L30.9987,78.1308L31.1622,77.6977L31.3282,77.2656L31.4967,76.8344L31.6677,76.4043L31.8411,75.9751L32.017,75.547L32.1954,75.1198L32.3762,74.6937L32.5594,74.2687L32.7452,73.8447L32.9333,73.4217L33.1239,72.9998L33.3169,72.579L33.5124,72.1593L33.7103,71.7407L33.9106,71.3233L34.1133,70.9069L34.3185,70.4917L34.526,70.0776L34.736,69.6647L34.9483,69.253L35.1631,68.8424L22.0384,41.5112L22.3025,41.1692L22.5679,40.8283L22.8346,40.4886L23.1027,40.15L23.3722,39.8126L23.643,39.4762L23.9151,39.141L24.1886,38.807L24.4633,38.4741L24.7394,38.1423L25.0169,37.8117L25.2956,37.4823L25.5757,37.154L25.857,36.8269L26.1397,36.5009L26.4236,36.1762L26.7089,35.8526L26.9955,35.5301L27.2833,35.2089L27.5724,34.8888L27.8628,34.57L28.1545,34.2523L28.4475,33.9359L28.7417,33.6206L29.0372,33.3065L29.334,32.9937L29.632,32.6821L29.9313,32.3717L30.2318,32.0625L30.5336,31.7545L30.8366,31.4477L31.1408,31.1422L31.4463,30.838L31.753,30.5349L32.061,30.2332L32.3702,29.9326L32.6806,29.6333L32.9922,29.3353L33.305,29.0385L33.6191,28.743L33.9343,28.4488L34.2508,28.1558L34.5684,27.8641L34.8873,27.5737L35.2073,27.2845L35.5285,26.9967L35.8509,26.7101L36.1745,26.4248L36.4993,26.1409L36.8252,25.8582L37.1523,25.5768L37.4806,25.2968L37.81,25.018L38.1406,24.7406L38.4723,24.4645L38.8052,24.1897L39.1393,23.9162L39.4744,23.6441L39.8108,23.3733L40.1482,23.1038L40.4868,22.8357L40.8265,22.5689L41.1673,22.3035L41.5093,22.0394L68.8393,35.1647L69.2498,34.9499L69.6615,34.7375L70.0744,34.5276L70.4885,34.32L70.9037,34.1149L71.32,33.9121L71.7375,33.7118L72.1561,33.5139L72.5757,33.3185L72.9965,33.1254L73.4184,32.9348L73.8413,32.7466L74.2653,32.5609L74.6903,32.3776L75.1164,32.1968L75.5435,32.0185L75.9717,31.8426L76.4008,31.6691L76.831,31.4981L77.2621,31.3296L77.6942,31.1636L78.1273,31.0001L78.5613,30.8391L78.9963,30.6805L79.4322,30.5244L79.869,30.3709L80.3067,30.2198L80.7454,30.0713L81.1849,29.9253L81.6253,29.7817L82.0666,29.6408L82.5088,29.5023L92.5535,0.895245L92.982,0.840167L93.4106,0.786837L93.8395,0.735255L94.2685,0.685422L94.6976,0.637338L95.1269,0.591002L95.5563,0.546414L95.9859,0.503575L96.4156,0.462485L96.8454,0.423143L97.2753,0.38555L97.7054,0.349705L98.1355,0.315609L98.5658,0.283261L98.9961,0.252662L99.4265,0.223811L99.857,0.196709L100.288,0.171356L100.718,0.14775L101.149,0.125894L101.58,0.105786L102.011,0.0874263L102.442,0.0708153L102.873,0.0559528L103.304,0.0428389L103.735,0.0314735L104.166,0.0218566L104.597,0.0139882L105.028,0.00786837L105.459,0.00349705L105.89,0.000874263L106.321,-1.7053e-13L106.753,0.000874263L107.184,0.00349705L107.615,0.00786837L108.046,0.0139882L108.477,0.0218566L108.908,0.0314735L109.339,0.0428389L109.77,0.0559528L110.201,0.0708153L110.632,0.0874263L111.063,0.105786L111.494,0.125894L111.925,0.14775L112.355,0.171356L112.786,0.196709L113.216,0.223811L113.647,0.252662L114.077,0.283261L114.507,0.315609L114.938,0.349705L115.368,0.38555L115.797,0.423143L116.227,0.462485L116.657,0.503575L117.087,0.546414L117.516,0.591002L117.945,0.637338L118.374,0.685422L118.803,0.735255L119.232,0.786837L119.661,0.840167L120.089,0.895245L130.134,29.5023L130.576,29.6408L131.018,29.7817L131.458,29.9253L131.897,30.0713L132.336,30.2198L132.774,30.3709L133.211,30.5244L133.647,30.6805L134.082,30.8391L134.516,31.0001L134.949,31.1636L135.381,31.3296L135.812,31.4981L136.242,31.6691L136.671,31.8426L137.099,32.0185L137.526,32.1968L137.953,32.3776L138.378,32.5609L138.802,32.7466L139.225,32.9348L139.646,33.1254L140.067,33.3185L140.487,33.5139L140.905,33.7118L141.323,33.9121L141.739,34.1149L142.154,34.32L142.568,34.5276L142.981,34.7375L143.393,34.9499L143.804,35.1647L171.134,22.0394L171.476,22.3035L171.816,22.5689L172.156,22.8357L172.495,23.1038L172.832,23.3733L173.168,23.6441L173.504,23.9162L173.838,24.1897L174.171,24.4645L174.502,24.7406L174.833,25.018L175.162,25.2968L175.491,25.5768L175.818,25.8582L176.144,26.1409L176.468,26.4248L176.792,26.7101L177.114,26.9967L177.436,27.2845L177.756,27.5737L178.074,27.8641L178.392,28.1558L178.709,28.4488L179.024,28.743L179.338,29.0385L179.651,29.3353L179.962,29.6333L180.273,29.9326L180.582,30.2332L180.89,30.5349L181.197,30.838L181.502,31.1422L181.806,31.4477L182.109,31.7545L182.411,32.0625L182.712,32.3717L183.011,32.6821L183.309,32.9937L183.606,33.3065L183.901,33.6206L184.195,33.9359L184.488,34.2523L184.78,34.57L185.07,34.8888L185.36,35.2089L185.647,35.5301L185.934,35.8526L186.219,36.1762L186.503,36.5009L186.786,36.8269L187.067,37.154L187.347,37.4823L187.626,37.8117L187.903,38.1423L188.18,38.4741L188.454,38.807L188.728,39.141L189,39.4762L189.271,39.8126L189.54,40.15L189.808,40.4886L190.075,40.8283L190.34,41.1692L190.604,41.5112L177.48,68.8424L177.695,69.253L177.907,69.6647L178.117,70.0776L178.324,70.4917L178.53,70.9069L178.732,71.3233L178.933,71.7407L179.13,72.1593L179.326,72.579L179.519,72.9998L179.71,73.4217L179.898,73.8447L180.083,74.2687L180.267,74.6937L180.448,75.1198L180.626,75.547L180.802,75.9751L180.975,76.4043L181.146,76.8344L181.315,77.2656L181.481,77.6977L181.644,78.1308L181.805,78.5648L181.964,78.9998L182.12,79.4358L182.273,79.8726L182.424,80.3104L182.573,80.749L182.719,81.1886L182.862,81.629L183.003,82.0703L183.142,82.5125L211.748,92.5577L211.803,92.9862L211.856,93.4149L211.908,93.8437L211.957,94.2728L212.006,94.7019L212.052,95.1312L212.096,95.5607L212.139,95.9903L212.18,96.42L212.22,96.8498L212.257,97.2797L212.293,97.7098L212.327,98.14L212.36,98.5702L212.39,99.0006L212.419,99.431L212.446,99.8616L212.472,100.292L212.495,100.723L212.517,101.154L212.537,101.584L212.555,102.015L212.572,102.446L212.587,102.877L212.6,103.308L212.611,103.739L212.621,104.17L212.629,104.602L212.635,105.033L212.639,105.464L212.642,105.895L212.643,106.326L212.642,106.757L212.639,107.189L212.635,107.62L212.629,108.051L212.621,108.482L212.611,108.913L212.6,109.344L212.587,109.775L212.572,110.206L212.555,110.637L212.537,111.068L212.517,111.499L212.495,111.93L212.472,112.36L212.446,112.791L212.419,113.221L212.39,113.652L212.36,114.082L212.327,114.513L212.293,114.943L212.257,115.373L212.22,115.803L212.18,116.233L212.139,116.662L212.096,117.092L212.052,117.521L212.006,117.951L211.957,118.38L211.908,118.809L211.856,119.238L211.803,119.666L211.748,120.095L183.142,130.14L183.003,130.582L182.862,131.023L182.719,131.464L182.573,131.903L182.424,132.342L182.273,132.78L182.12,133.217L181.964,133.653L181.805,134.088L181.644,134.522L181.481,134.955L181.315,135.387L181.146,135.818L180.975,136.248L180.802,136.677L180.626,137.106L180.448,137.533L180.267,137.959L180.083,138.384L179.898,138.808L179.71,139.231L179.519,139.653L179.326,140.074L179.13,140.493L178.933,140.912L178.732,141.329L178.53,141.746L178.324,142.161L178.117,142.575L177.907,142.988L177.695,143.4L177.48,143.81L190.604,171.141L190.34,171.483L190.075,171.824L189.808,172.164L189.54,172.503L189.271,172.84L189,173.176L188.728,173.511L188.454,173.846L188.18,174.178L187.903,174.51L187.626,174.841L187.347,175.17L187.067,175.499L186.786,175.826L186.503,176.152L186.219,176.476L185.934,176.8L185.647,177.122L185.36,177.444L185.07,177.764L184.78,178.083L184.488,178.4L184.195,178.717L183.901,179.032L183.606,179.346L183.309,179.659L183.011,179.97L182.712,180.281L182.411,180.59L182.109,180.898L181.806,181.205L181.502,181.51L181.197,181.815L180.89,182.118L180.582,182.419L180.273,182.72L179.962,183.019L179.651,183.317L179.338,183.614L179.024,183.91L178.709,184.204L178.392,184.497L178.074,184.788L177.756,185.079L177.436,185.368L177.114,185.656L176.792,185.942L176.468,186.228L176.144,186.512L175.818,186.794L175.491,187.076L175.162,187.356L174.833,187.635L174.502,187.912L174.171,188.188L173.838,188.463L173.504,188.736L173.168,189.008L172.832,189.279L172.495,189.549L172.156,189.817L171.816,190.084L171.476,190.349L171.134,190.613L143.804,177.488L143.393,177.703L142.981,177.915L142.568,178.125L142.154,178.333L141.739,178.538L141.323,178.74L140.905,178.941L140.487,179.139L140.067,179.334L139.646,179.527L139.225,179.718L138.802,179.906L138.378,180.092L137.953,180.275L137.526,180.456L137.099,180.634L136.671,180.81L136.242,180.983L135.812,181.154L135.381,181.323L134.949,181.489L134.516,181.652L134.082,181.813L133.647,181.972L133.211,182.128L132.774,182.282L132.336,182.433L131.897,182.581L131.458,182.727L131.018,182.871L130.576,183.012L130.134,183.15L120.089,211.757L119.661,211.812L119.232,211.866L118.803,211.917L118.374,211.967L117.945,212.015L117.516,212.062L117.087,212.106L116.657,212.149L116.227,212.19L115.797,212.229L115.368,212.267L114.938,212.303L114.507,212.337L114.077,212.369L113.647,212.4L113.216,212.429L112.786,212.456L112.355,212.481L111.925,212.505L111.494,212.527L111.063,212.547L110.632,212.565L110.201,212.582L109.77,212.597L109.339,212.61L108.908,212.621L108.477,212.631L108.046,212.639L107.615,212.645L107.184,212.649L106.753,212.652L106.321,212.653Z" style="fill:rgb(210,210,210);"/>
</svg>
