<?xml version="1.0" standalone="no"?>
<!DOCTYPE svg PUBLIC "-//W3C//DTD SVG 1.1//EN" "http://www.w3.org/Graphics/SVG/1.1/DTD/svg11.dtd">
<svg width="26px" height="26px" viewBox="0 0 212 212" version="1.1" xmlns="http://www.w3.org/2000/svg" xmlns:xlink="http://www.w3.org/1999/xlink" xml:space="preserve" style="fill-rule:evenodd;clip-rule:evenodd;stroke-linejoin:round;stroke-miterlimit:1.41421;">
    <g>
        <path d="M106.326,212.652L105.982,212.651L105.638,212.65L105.295,212.647L104.952,212.643L104.609,212.638L104.266,212.632L103.924,212.625L103.582,212.617L103.24,212.608L102.898,212.598L102.557,212.586L102.216,212.574L101.875,212.561L101.535,212.546L101.195,212.53L100.855,212.514L100.515,212.496L100.176,212.477L99.8365,212.457L99.4977,212.436L99.1592,212.414L98.8209,212.391L98.483,212.367L98.1454,212.342L97.808,212.316L97.4709,212.288L97.1342,212.26L96.7977,212.231L96.4616,212.2L96.1257,212.169L95.7901,212.137L95.4549,212.103L95.12,212.068L94.7853,212.033L94.451,211.996L94.117,211.959L93.7833,211.92L93.4499,211.88L93.1168,211.839L92.7841,211.798L92.4516,211.755L92.1195,211.711L91.7877,211.666L91.4563,211.62L91.1251,211.574L90.7943,211.526L90.4639,211.477L90.1337,211.427L89.8039,211.376L89.4744,211.324L89.1453,211.271L88.8165,211.217L88.488,211.162L88.1599,211.106L87.8321,211.049L87.5046,210.991L87.1775,210.932L86.8508,210.872L86.5244,210.811L86.1984,210.749L85.8727,210.687L85.5473,210.623L85.2223,210.558L84.8977,210.492L84.5734,210.425L84.2495,210.357L83.926,210.288L83.6028,210.218L83.28,210.148L82.9575,210.076L82.6354,210.003L82.3137,209.929L81.9924,209.855L81.6714,209.779L81.3508,209.702L81.0306,209.625L80.7108,209.546L80.3913,209.467L80.0723,209.386L79.7536,209.305L79.4353,209.222L79.1173,209.139L78.7998,209.054L78.4827,208.969L78.1659,208.883L77.8496,208.796L77.5336,208.708L77.218,208.618L76.9029,208.528L76.5881,208.437L76.2737,208.345L75.9598,208.253L75.6462,208.159L75.3331,208.064L75.0203,207.968L74.708,207.872L74.3961,207.774L74.0846,207.676L73.7735,207.576L73.4628,207.476L73.1525,207.375L72.8427,207.273L72.5332,207.169L72.2242,207.065L71.9157,206.96L71.6075,206.855L71.2998,206.748L70.9925,206.64L70.6856,206.531L70.3792,206.422L70.0732,206.311L69.7676,206.2L69.4625,206.088L69.1578,205.975L68.8536,205.861L68.5498,205.746L68.2464,205.63L67.9435,205.513L67.641,205.395L67.339,205.277L67.0374,205.157L66.7363,205.037L66.4357,204.916L66.1355,204.794L65.8357,204.671L65.5364,204.547L65.2376,204.422L64.9392,204.296L64.6413,204.17L64.3438,204.042L64.0469,203.914L63.7504,203.785L63.4543,203.655L63.1588,203.524L62.8637,203.392L62.569,203.259L62.2749,203.126L61.9812,202.992L61.688,202.856L61.3953,202.72L61.1031,202.583L60.8114,202.445L60.5201,202.307L60.2294,202.167L59.9391,202.027L59.6493,201.885L59.36,201.743L59.0712,201.6L58.7829,201.456L58.4951,201.312L58.2078,201.166L57.921,201.02L57.6347,200.873L57.3489,200.725L57.0636,200.576L56.7788,200.426L56.4945,200.276L56.2108,200.124L55.9275,199.972L55.6448,199.819L55.3626,199.665L55.0808,199.51L54.7997,199.355L54.519,199.199L54.2388,199.041L53.9592,198.883L53.6801,198.725L53.4016,198.565L53.1235,198.405L52.846,198.243L52.569,198.081L52.2926,197.918L52.0167,197.755L51.7413,197.59L51.4665,197.425L51.1922,197.259L50.9184,197.092L50.6452,196.924L50.3725,196.756L50.1004,196.586L49.8288,196.416L49.5578,196.245L49.2873,196.074L49.0174,195.901L48.7481,195.728L48.4793,195.554L48.211,195.379L47.9433,195.203L47.6762,195.027L47.4096,194.85L47.1436,194.672L46.8782,194.493L46.6133,194.314L46.349,194.133L46.0853,193.952L45.8221,193.77L45.5595,193.588L45.2975,193.404L45.0361,193.22L44.7753,193.035L44.515,192.85L44.2553,192.663L43.9962,192.476L43.7377,192.288L43.4798,192.099L43.2224,191.91L42.9657,191.72L42.7095,191.529L42.4539,191.337L42.199,191.145L41.9446,190.951L41.6908,190.757L41.4377,190.563L41.1851,190.367L40.9331,190.171L40.6818,189.974L40.431,189.776L40.1809,189.578L39.9313,189.379L39.6824,189.179L39.4341,188.978L39.1864,188.777L38.9393,188.575L38.6928,188.372L38.447,188.169L38.2018,187.965L37.9572,187.76L37.7132,187.554L37.4699,187.348L37.2271,187.14L36.985,186.933L36.7436,186.724L36.5028,186.515L36.2626,186.305L36.023,186.094L35.7841,185.883L35.5458,185.671L35.3082,185.458L35.0712,185.245L34.8348,185.03L34.5991,184.816L34.3641,184.6L34.1297,184.384L33.8959,184.167L33.6628,183.949L33.4304,183.731L33.1986,183.512L32.9674,183.292L32.737,183.072L32.5071,182.851L32.278,182.629L32.0495,182.406L31.8217,182.183L31.5945,181.959L31.368,181.735L31.1422,181.51L30.9171,181.284L30.6926,181.058L30.4688,180.83L30.2457,180.603L30.0232,180.374L29.8015,180.145L29.5804,179.915L29.36,179.685L29.1403,179.453L28.9212,179.222L28.7029,178.989L28.4853,178.756L28.2683,178.522L28.052,178.288L27.8365,178.053L27.6216,177.817L27.4074,177.581L27.194,177.344L26.9812,177.106L26.7691,176.868L26.5577,176.629L26.3471,176.389L26.1371,176.149L25.9279,175.908L25.7194,175.667L25.5116,175.425L25.3045,175.182L25.0981,174.939L24.8924,174.695L24.6875,174.45L24.4832,174.205L24.2797,173.959L24.0769,173.713L23.8749,173.466L23.6736,173.218L23.473,172.97L23.2731,172.721L23.074,172.471L22.8756,172.221L22.6779,171.97L22.481,171.719L22.2848,171.467L22.0893,171.214L21.8946,170.961L21.7006,170.707L21.5074,170.453L21.315,170.198L21.1232,169.943L20.9323,169.686L20.742,169.43L20.5526,169.172L20.3639,168.914L20.1759,168.656L19.9887,168.397L19.8023,168.137L19.6166,167.877L19.4317,167.616L19.2476,167.354L19.0642,167.092L18.8816,166.83L18.6997,166.567L18.5187,166.303L18.3384,166.039L18.1588,165.774L17.9801,165.508L17.8021,165.242L17.6249,164.976L17.4485,164.709L17.2729,164.441L17.0981,164.173L16.924,163.904L16.7507,163.635L16.5783,163.365L16.4066,163.094L16.2357,162.823L16.0656,162.552L15.8963,162.28L15.7278,162.007L15.5601,161.734L15.3932,161.46L15.2271,161.186L15.0618,160.911L14.8973,160.635L14.7336,160.359L14.5707,160.083L14.4087,159.806L14.2474,159.529L14.087,159.25L13.9274,158.972L13.7686,158.693L13.6106,158.413L13.4534,158.133L13.2971,157.852L13.1416,157.571L12.9869,157.289L12.833,157.007L12.68,156.725L12.5277,156.441L12.3764,156.158L12.2258,155.873L12.0761,155.588L11.9272,155.303L11.7792,155.017L11.632,154.731L11.4857,154.444L11.3402,154.157L11.1955,153.869L11.0517,153.581L10.9087,153.292L10.7666,153.003L10.6253,152.713L10.4849,152.423L10.3454,152.132L10.2066,151.841L10.0688,151.549L9.93182,151.257L9.79569,150.964L9.66043,150.671L9.52604,150.377L9.3925,150.083L9.25984,149.788L9.12805,149.493L8.99712,149.198L8.86707,148.902L8.7379,148.605L8.6096,148.308L8.48218,148.011L8.35563,147.713L8.22997,147.414L8.10519,147.116L7.9813,146.816L7.85829,146.517L7.73616,146.216L7.61493,145.916L7.49459,145.615L7.37513,145.313L7.25658,145.011L7.13892,144.709L7.02215,144.406L6.90628,144.102L6.79132,143.798L6.67726,143.494L6.5641,143.19L6.45184,142.884L6.34049,142.579L6.23005,142.273L6.12052,141.966L6.01191,141.66L5.9042,141.352L5.79741,141.045L5.69154,140.736L5.58659,140.428L5.48255,140.119L5.37944,139.809L5.27725,139.5L5.17599,139.189L5.07565,138.879L4.97624,138.568L4.87776,138.256L4.78021,137.944L4.6836,137.632L4.58792,137.319L4.49317,137.006L4.39936,136.692L4.3065,136.378L4.21457,136.064L4.12359,135.749L4.03355,135.434L3.94445,135.118L3.85631,134.803L3.76911,134.486L3.68287,134.169L3.59757,133.852L3.51324,133.535L3.42985,133.217L3.34743,132.899L3.26596,132.58L3.18546,132.261L3.10591,131.941L3.02733,131.621L2.94972,131.301L2.87307,130.981L2.7974,130.66L2.72269,130.338L2.64896,130.017L2.57619,129.695L2.50441,129.372L2.4336,129.049L2.36377,128.726L2.29492,128.403L2.22705,128.079L2.16017,127.754L2.09427,127.43L2.02936,127.105L1.96543,126.779L1.9025,126.454L1.84056,126.128L1.77961,125.801L1.71966,125.475L1.6607,125.147L1.60274,124.82L1.54578,124.492L1.48982,124.164L1.43487,123.836L1.38092,123.507L1.32798,123.178L1.27604,122.848L1.22512,122.518L1.1752,122.188L1.1263,121.858L1.07841,121.527L1.03154,121.196L0.98569,120.864L0.940857,120.533L0.897044,120.2L0.854255,119.868L0.812489,119.535L0.77175,119.202L0.732038,118.869L0.693355,118.535L0.655704,118.201L0.619084,117.867L0.583499,117.532L0.54895,117.197L0.515438,116.862L0.482965,116.526L0.451532,116.191L0.421142,115.854L0.391796,115.518L0.363495,115.181L0.336242,114.844L0.310037,114.507L0.284883,114.169L0.26078,113.831L0.237732,113.493L0.215738,113.154L0.194802,112.816L0.174924,112.477L0.156107,112.137L0.138351,111.798L0.121659,111.458L0.106031,111.117L0.091471,110.777L0.077979,110.436L0.0655569,110.095L0.0542064,109.754L0.0439292,109.412L0.0347269,109.07L0.0266011,108.728L0.0195535,108.386L0.0135856,108.043L0.00869912,107.7L0.0048957,107.357L0.00217696,107.014L0.000544511,106.67L4.54747e-13,106.326L0.000544511,105.982L0.00217696,105.638L0.0048957,105.295L0.00869912,104.952L0.0135856,104.609L0.0195535,104.266L0.0266011,103.924L0.0347269,103.582L0.0439292,103.24L0.0542064,102.898L0.0655569,102.557L0.077979,102.216L0.091471,101.875L0.106031,101.535L0.121659,101.194L0.138351,100.854L0.156107,100.515L0.174924,100.175L0.194802,99.8363L0.215738,99.4975L0.237732,99.159L0.26078,98.8208L0.284883,98.4829L0.310037,98.1452L0.336242,97.8079L0.363495,97.4708L0.391796,97.1341L0.421142,96.7976L0.451532,96.4614L0.482965,96.1256L0.515438,95.79L0.54895,95.4548L0.583499,95.1198L0.619084,94.7852L0.655704,94.4509L0.693355,94.1169L0.732038,93.7832L0.77175,93.4498L0.812489,93.1167L0.854255,92.7839L0.897044,92.4515L0.940857,92.1194L0.98569,91.7876L1.03154,91.4562L1.07841,91.125L1.1263,90.7942L1.1752,90.4637L1.22512,90.1336L1.27604,89.8038L1.32798,89.4743L1.38092,89.1451L1.43487,88.8163L1.48982,88.4879L1.54578,88.1597L1.60274,87.832L1.6607,87.5045L1.71966,87.1774L1.77961,86.8507L1.84056,86.5243L1.9025,86.1982L1.96543,85.8725L2.02936,85.5472L2.09427,85.2222L2.16017,84.8976L2.22705,84.5733L2.29492,84.2494L2.36377,83.9259L2.4336,83.6027L2.50441,83.2799L2.57619,82.9574L2.64896,82.6353L2.72269,82.3136L2.7974,81.9923L2.87307,81.6713L2.94972,81.3507L3.02733,81.0305L3.10591,80.7107L3.18546,80.3912L3.26596,80.0722L3.34743,79.7535L3.42985,79.4352L3.51324,79.1172L3.59757,78.7997L3.68287,78.4826L3.76911,78.1658L3.85631,77.8495L3.94445,77.5335L4.03355,77.2179L4.12359,76.9028L4.21457,76.588L4.3065,76.2736L4.39936,75.9597L4.49317,75.6461L4.58792,75.333L4.6836,75.0202L4.78021,74.7079L4.87776,74.396L4.97624,74.0845L5.07565,73.7734L5.17599,73.4627L5.27725,73.1524L5.37944,72.8426L5.48255,72.5331L5.58659,72.2241L5.69154,71.9156L5.79741,71.6074L5.9042,71.2997L6.01191,70.9924L6.12052,70.6855L6.23005,70.3791L6.34049,70.0731L6.45184,69.7675L6.5641,69.4624L6.67726,69.1577L6.79132,68.8535L6.90628,68.5497L7.02215,68.2463L7.13892,67.9434L7.25658,67.6409L7.37513,67.3389L7.49459,67.0374L7.61493,66.7362L7.73616,66.4356L7.85829,66.1354L7.9813,65.8356L8.10519,65.5363L8.22997,65.2375L8.35563,64.9391L8.48218,64.6412L8.6096,64.3438L8.7379,64.0468L8.86707,63.7503L8.99712,63.4542L9.12805,63.1587L9.25984,62.8636L9.3925,62.569L9.52604,62.2748L9.66043,61.9811L9.79569,61.688L9.93182,61.3953L10.0688,61.103L10.2066,60.8113L10.3454,60.52L10.4849,60.2293L10.6253,59.939L10.7666,59.6492L10.9087,59.3599L11.0517,59.0711L11.1955,58.7828L11.3402,58.495L11.4857,58.2077L11.632,57.9209L11.7792,57.6346L11.9272,57.3488L12.0761,57.0635L12.2258,56.7787L12.3764,56.4945L12.5277,56.2107L12.68,55.9274L12.833,55.6447L12.9869,55.3625L13.1416,55.0808L13.2971,54.7996L13.4534,54.5189L13.6106,54.2388L13.7686,53.9592L13.9274,53.6801L14.087,53.4015L14.2474,53.1234L14.4087,52.8459L14.5707,52.569L14.7336,52.2925L14.8973,52.0166L15.0618,51.7412L15.2271,51.4664L15.3932,51.1921L15.5601,50.9183L15.7278,50.6451L15.8963,50.3725L16.0656,50.1003L16.2357,49.8288L16.4066,49.5577L16.5783,49.2873L16.7507,49.0174L16.924,48.748L17.0981,48.4792L17.2729,48.2109L17.4485,47.9432L17.6249,47.6761L17.8021,47.4096L17.9801,47.1436L18.1588,46.8781L18.3384,46.6132L18.5187,46.3489L18.6997,46.0852L18.8816,45.8221L19.0642,45.5595L19.2476,45.2975L19.4317,45.0361L19.6166,44.7752L19.8023,44.5149L19.9887,44.2552L20.1759,43.9961L20.3639,43.7376L20.5526,43.4797L20.742,43.2224L20.9323,42.9656L21.1232,42.7095L21.315,42.4539L21.5074,42.1989L21.7006,41.9445L21.8946,41.6908L22.0893,41.4376L22.2848,41.185L22.481,40.9331L22.6779,40.6817L22.8756,40.4309L23.074,40.1808L23.2731,39.9313L23.473,39.6823L23.6736,39.434L23.8749,39.1863L24.0769,38.9392L24.2797,38.6928L24.4832,38.4469L24.6875,38.2017L24.8924,37.9571L25.0981,37.7132L25.3045,37.4698L25.5116,37.2271L25.7194,36.985L25.9279,36.7435L26.1371,36.5027L26.3471,36.2625L26.5577,36.023L26.7691,35.7841L26.9812,35.5458L27.194,35.3081L27.4074,35.0711L27.6216,34.8348L27.8365,34.5991L28.052,34.364L28.2683,34.1296L28.4853,33.8959L28.7029,33.6628L28.9212,33.4303L29.1403,33.1985L29.36,32.9674L29.5804,32.7369L29.8015,32.5071L30.0232,32.2779L30.2457,32.0495L30.4688,31.8216L30.6926,31.5945L30.9171,31.368L31.1422,31.1422L31.368,30.917L31.5945,30.6925L31.8217,30.4687L32.0495,30.2456L32.278,30.0232L32.5071,29.8014L32.737,29.5803L32.9674,29.3599L33.1986,29.1402L33.4304,28.9212L33.6628,28.7029L33.8959,28.4852L34.1297,28.2683L34.3641,28.052L34.5991,27.8364L34.8348,27.6216L35.0712,27.4074L35.3082,27.1939L35.5458,26.9811L35.7841,26.7691L36.023,26.5577L36.2626,26.3471L36.5028,26.1371L36.7436,25.9279L36.985,25.7193L37.2271,25.5115L37.4699,25.3044L37.7132,25.098L37.9572,24.8924L38.2018,24.6874L38.447,24.4832L38.6928,24.2797L38.9393,24.0769L39.1864,23.8749L39.4341,23.6735L39.6824,23.4729L39.9313,23.2731L40.1809,23.0739L40.431,22.8755L40.6818,22.6779L40.9331,22.4809L41.1851,22.2847L41.4377,22.0893L41.6908,21.8946L41.9446,21.7006L42.199,21.5074L42.4539,21.3149L42.7095,21.1232L42.9657,20.9322L43.2224,20.742L43.4798,20.5526L43.7377,20.3638L43.9962,20.1759L44.2553,19.9887L44.515,19.8023L44.7753,19.6166L45.0361,19.4317L45.2975,19.2475L45.5595,19.0641L45.8221,18.8815L46.0853,18.6997L46.349,18.5186L46.6133,18.3383L46.8782,18.1588L47.1436,17.9801L47.4096,17.8021L47.6762,17.6249L47.9433,17.4485L48.211,17.2729L48.4793,17.098L48.7481,16.924L49.0174,16.7507L49.2873,16.5783L49.5578,16.4066L49.8288,16.2357L50.1004,16.0656L50.3725,15.8963L50.6452,15.7278L50.9184,15.5601L51.1922,15.3932L51.4665,15.2271L51.7413,15.0618L52.0167,14.8973L52.2926,14.7336L52.569,14.5707L52.846,14.4087L53.1235,14.2474L53.4016,14.087L53.6801,13.9274L53.9592,13.7685L54.2388,13.6106L54.519,13.4534L54.7997,13.2971L55.0808,13.1415L55.3626,12.9868L55.6448,12.833L55.9275,12.6799L56.2108,12.5277L56.4945,12.3763L56.7788,12.2258L57.0636,12.0761L57.3489,11.9272L57.6347,11.7792L57.921,11.632L58.2078,11.4857L58.4951,11.3401L58.7829,11.1955L59.0712,11.0517L59.36,10.9087L59.6493,10.7666L59.9391,10.6253L60.2294,10.4849L60.5201,10.3453L60.8114,10.2066L61.1031,10.0688L61.3953,9.9318L61.688,9.79568L61.9812,9.66042L62.2749,9.52602L62.569,9.39249L62.8637,9.25983L63.1588,9.12804L63.4543,8.99711L63.7504,8.86706L64.0469,8.73789L64.3438,8.60959L64.6413,8.48217L64.9392,8.35562L65.2376,8.22996L65.5364,8.10518L65.8357,7.98129L66.1355,7.85828L66.4357,7.73615L66.7363,7.61492L67.0374,7.49458L67.339,7.37512L67.641,7.25657L67.9435,7.13891L68.2464,7.02214L68.5498,6.90628L68.8536,6.79131L69.1578,6.67725L69.4625,6.56409L69.7676,6.45183L70.0732,6.34048L70.3792,6.23005L70.6856,6.12052L70.9925,6.0119L71.2998,5.9042L71.6075,5.79741L71.9157,5.69153L72.2242,5.58658L72.5332,5.48255L72.8427,5.37944L73.1525,5.27725L73.4628,5.17598L73.7735,5.07564L74.0846,4.97623L74.3961,4.87775L74.708,4.78021L75.0203,4.68359L75.3331,4.58791L75.6462,4.49316L75.9598,4.39936L76.2737,4.30649L76.5881,4.21456L76.9029,4.12358L77.218,4.03354L77.5336,3.94445L77.8496,3.8563L78.1659,3.76911L78.4827,3.68286L78.7998,3.59757L79.1173,3.51323L79.4353,3.42985L79.7536,3.34742L80.0723,3.26596L80.3913,3.18545L80.7108,3.10591L81.0306,3.02733L81.3508,2.94972L81.6714,2.87307L81.9924,2.79739L82.3137,2.72269L82.6354,2.64895L82.9575,2.57619L83.28,2.50441L83.6028,2.4336L83.926,2.36377L84.2495,2.29492L84.5734,2.22705L84.8977,2.16017L85.2223,2.09427L85.5473,2.02936L85.8727,1.96543L86.1984,1.9025L86.5244,1.84056L86.8508,1.77961L87.1775,1.71965L87.5046,1.6607L87.8321,1.60274L88.1599,1.54578L88.488,1.48982L88.8165,1.43487L89.1453,1.38092L89.4744,1.32798L89.8039,1.27604L90.1337,1.22511L90.4639,1.1752L90.7943,1.1263L91.1251,1.07841L91.4563,1.03154L91.7877,0.985689L92.1195,0.940855L92.4516,0.897043L92.7841,0.854253L93.1168,0.812488L93.4499,0.771749L93.7833,0.732037L94.117,0.693354L94.451,0.655703L94.7853,0.619084L95.12,0.583498L95.4549,0.548949L95.7901,0.515437L96.1257,0.482964L96.4616,0.451532L96.7977,0.421142L97.1342,0.391795L97.4709,0.363495L97.808,0.336241L98.1454,0.310036L98.483,0.284882L98.8209,0.26078L99.1592,0.237731L99.4977,0.215738L99.8365,0.194802L100.176,0.174924L100.515,0.156106L100.855,0.138351L101.195,0.121658L101.535,0.106031L101.875,0.0914709L102.216,0.0779789L102.557,0.0655568L102.898,0.0542063L103.24,0.0439292L103.582,0.0347269L103.924,0.0266011L104.266,0.0195534L104.609,0.0135856L104.952,0.00869911L105.295,0.0048957L105.638,0.00217695L105.982,0.00054451L106.326,2.84217e-14L106.67,0.00054451L107.014,0.00217695L107.357,0.0048957L107.7,0.00869911L108.043,0.0135856L108.386,0.0195534L108.728,0.0266011L109.07,0.0347269L109.412,0.0439292L109.754,0.0542063L110.095,0.0655568L110.436,0.0779789L110.777,0.0914709L111.118,0.106031L111.458,0.121658L111.798,0.138351L112.137,0.156106L112.477,0.174924L112.816,0.194802L113.155,0.215738L113.493,0.237731L113.831,0.26078L114.169,0.284882L114.507,0.310036L114.844,0.336241L115.181,0.363495L115.518,0.391795L115.855,0.421142L116.191,0.451532L116.527,0.482964L116.862,0.515437L117.197,0.548949L117.532,0.583498L117.867,0.619084L118.201,0.655703L118.535,0.693354L118.869,0.732037L119.202,0.771749L119.535,0.812488L119.868,0.854253L120.201,0.897043L120.533,0.940855L120.865,0.985689L121.196,1.03154L121.527,1.07841L121.858,1.1263L122.188,1.1752L122.519,1.22511L122.848,1.27604L123.178,1.32798L123.507,1.38092L123.836,1.43487L124.164,1.48982L124.492,1.54578L124.82,1.60274L125.148,1.6607L125.475,1.71965L125.801,1.77961L126.128,1.84056L126.454,1.9025L126.78,1.96543L127.105,2.02936L127.43,2.09427L127.755,2.16017L128.079,2.22705L128.403,2.29492L128.726,2.36377L129.049,2.4336L129.372,2.50441L129.695,2.57619L130.017,2.64895L130.339,2.72269L130.66,2.79739L130.981,2.87307L131.301,2.94972L131.622,3.02733L131.941,3.10591L132.261,3.18545L132.58,3.26596L132.899,3.34742L133.217,3.42985L133.535,3.51323L133.852,3.59757L134.17,3.68286L134.486,3.76911L134.803,3.8563L135.119,3.94445L135.434,4.03354L135.749,4.12358L136.064,4.21456L136.379,4.30649L136.692,4.39936L137.006,4.49316L137.319,4.58791L137.632,4.68359L137.944,4.78021L138.256,4.87775L138.568,4.97623L138.879,5.07564L139.189,5.17598L139.5,5.27725L139.81,5.37944L140.119,5.48255L140.428,5.58658L140.737,5.69153L141.045,5.79741L141.352,5.9042L141.66,6.0119L141.967,6.12052L142.273,6.23005L142.579,6.34048L142.885,6.45183L143.19,6.56409L143.494,6.67725L143.799,6.79131L144.102,6.90628L144.406,7.02214L144.709,7.13891L145.011,7.25657L145.313,7.37512L145.615,7.49458L145.916,7.61492L146.217,7.73615L146.517,7.85828L146.817,7.98129L147.116,8.10518L147.415,8.22996L147.713,8.35562L148.011,8.48217L148.308,8.60959L148.605,8.73789L148.902,8.86706L149.198,8.99711L149.494,9.12804L149.789,9.25983L150.083,9.39249L150.377,9.52602L150.671,9.66042L150.964,9.79568L151.257,9.9318L151.549,10.0688L151.841,10.2066L152.132,10.3453L152.423,10.4849L152.713,10.6253L153.003,10.7666L153.292,10.9087L153.581,11.0517L153.869,11.1955L154.157,11.3401L154.444,11.4857L154.731,11.632L155.018,11.7792L155.303,11.9272L155.589,12.0761L155.873,12.2258L156.158,12.3763L156.441,12.5277L156.725,12.6799L157.007,12.833L157.29,12.9868L157.571,13.1415L157.853,13.2971L158.133,13.4534L158.413,13.6106L158.693,13.7685L158.972,13.9274L159.251,14.087L159.529,14.2474L159.806,14.4087L160.083,14.5707L160.36,14.7336L160.636,14.8973L160.911,15.0618L161.186,15.2271L161.46,15.3932L161.734,15.5601L162.007,15.7278L162.28,15.8963L162.552,16.0656L162.823,16.2357L163.094,16.4066L163.365,16.5783L163.635,16.7507L163.904,16.924L164.173,17.098L164.441,17.2729L164.709,17.4485L164.976,17.6249L165.243,17.8021L165.509,17.9801L165.774,18.1588L166.039,18.3383L166.303,18.5186L166.567,18.6997L166.83,18.8815L167.093,19.0641L167.355,19.2475L167.616,19.4317L167.877,19.6166L168.137,19.8023L168.397,19.9887L168.656,20.1759L168.915,20.3638L169.172,20.5526L169.43,20.742L169.687,20.9322L169.943,21.1232L170.198,21.3149L170.453,21.5074L170.708,21.7006L170.961,21.8946L171.215,22.0893L171.467,22.2847L171.719,22.4809L171.97,22.6779L172.221,22.8755L172.471,23.0739L172.721,23.2731L172.97,23.4729L173.218,23.6735L173.466,23.8749L173.713,24.0769L173.959,24.2797L174.205,24.4832L174.45,24.6874L174.695,24.8924L174.939,25.098L175.182,25.3044L175.425,25.5115L175.667,25.7193L175.909,25.9279L176.149,26.1371L176.39,26.3471L176.629,26.5577L176.868,26.7691L177.106,26.9811L177.344,27.1939L177.581,27.4074L177.817,27.6216L178.053,27.8364L178.288,28.052L178.523,28.2683L178.756,28.4852L178.989,28.7029L179.222,28.9212L179.454,29.1402L179.685,29.3599L179.915,29.5803L180.145,29.8014L180.374,30.0232L180.603,30.2456L180.831,30.4687L181.058,30.6925L181.284,30.917L181.51,31.1422L181.735,31.368L181.96,31.5945L182.183,31.8216L182.407,32.0495L182.629,32.2779L182.851,32.5071L183.072,32.7369L183.292,32.9674L183.512,33.1985L183.731,33.4303L183.949,33.6628L184.167,33.8959L184.384,34.1296L184.6,34.364L184.816,34.5991L185.031,34.8348L185.245,35.0711L185.458,35.3081L185.671,35.5458L185.883,35.7841L186.095,36.023L186.305,36.2625L186.515,36.5027L186.724,36.7435L186.933,36.985L187.141,37.2271L187.348,37.4698L187.554,37.7132L187.76,37.9571L187.965,38.2017L188.169,38.4469L188.373,38.6928L188.575,38.9392L188.777,39.1863L188.979,39.434L189.179,39.6823L189.379,39.9313L189.578,40.1808L189.777,40.4309L189.974,40.6817L190.171,40.9331L190.367,41.185L190.563,41.4376L190.758,41.6908L190.952,41.9445L191.145,42.1989L191.337,42.4539L191.529,42.7095L191.72,42.9656L191.91,43.2224L192.1,43.4797L192.288,43.7376L192.476,43.9961L192.664,44.2552L192.85,44.5149L193.036,44.7752L193.221,45.0361L193.405,45.2975L193.588,45.5595L193.771,45.8221L193.953,46.0852L194.134,46.3489L194.314,46.6132L194.493,46.8781L194.672,47.1436L194.85,47.4096L195.027,47.6761L195.204,47.9432L195.379,48.2109L195.554,48.4792L195.728,48.748L195.902,49.0174L196.074,49.2873L196.246,49.5577L196.417,49.8288L196.587,50.1003L196.756,50.3725L196.924,50.6451L197.092,50.9183L197.259,51.1921L197.425,51.4664L197.59,51.7412L197.755,52.0166L197.919,52.2925L198.082,52.569L198.244,52.8459L198.405,53.1234L198.565,53.4015L198.725,53.6801L198.884,53.9592L199.042,54.2388L199.199,54.5189L199.355,54.7996L199.511,55.0808L199.665,55.3625L199.819,55.6447L199.972,55.9274L200.125,56.2107L200.276,56.4945L200.426,56.7787L200.576,57.0635L200.725,57.3488L200.873,57.6346L201.02,57.9209L201.167,58.2077L201.312,58.495L201.457,58.7828L201.601,59.0711L201.744,59.3599L201.886,59.6492L202.027,59.939L202.167,60.2293L202.307,60.52L202.446,60.8113L202.583,61.103L202.72,61.3953L202.857,61.688L202.992,61.9811L203.126,62.2748L203.26,62.569L203.392,62.8636L203.524,63.1587L203.655,63.4542L203.785,63.7503L203.914,64.0468L204.043,64.3438L204.17,64.6412L204.297,64.9391L204.422,65.2375L204.547,65.5363L204.671,65.8356L204.794,66.1354L204.916,66.4356L205.037,66.7362L205.158,67.0374L205.277,67.3389L205.396,67.6409L205.513,67.9434L205.63,68.2463L205.746,68.5497L205.861,68.8535L205.975,69.1577L206.088,69.4624L206.2,69.7675L206.312,70.0731L206.422,70.3791L206.532,70.6855L206.64,70.9924L206.748,71.2997L206.855,71.6074L206.961,71.9156L207.066,72.2241L207.17,72.5331L207.273,72.8426L207.375,73.1524L207.476,73.4627L207.577,73.7734L207.676,74.0845L207.774,74.396L207.872,74.7079L207.969,75.0202L208.064,75.333L208.159,75.6461L208.253,75.9597L208.346,76.2736L208.438,76.588L208.529,76.9028L208.619,77.2179L208.708,77.5335L208.796,77.8495L208.883,78.1658L208.969,78.4826L209.055,78.7997L209.139,79.1172L209.222,79.4352L209.305,79.7535L209.386,80.0722L209.467,80.3912L209.546,80.7107L209.625,81.0305L209.703,81.3507L209.779,81.6713L209.855,81.9923L209.93,82.3136L210.003,82.6353L210.076,82.9574L210.148,83.2799L210.219,83.6027L210.288,83.9259L210.357,84.2494L210.425,84.5733L210.492,84.8976L210.558,85.2222L210.623,85.5472L210.687,85.8725L210.75,86.1982L210.812,86.5243L210.873,86.8507L210.933,87.1774L210.992,87.5045L211.05,87.832L211.106,88.1597L211.162,88.4879L211.217,88.8163L211.271,89.1451L211.324,89.4743L211.376,89.8038L211.427,90.1336L211.477,90.4637L211.526,90.7942L211.574,91.125L211.621,91.4562L211.667,91.7876L211.711,92.1194L211.755,92.4515L211.798,92.7839L211.84,93.1167L211.881,93.4498L211.92,93.7832L211.959,94.1169L211.997,94.4509L212.033,94.7852L212.069,95.1198L212.103,95.4548L212.137,95.79L212.169,96.1256L212.201,96.4614L212.231,96.7976L212.26,97.1341L212.289,97.4708L212.316,97.8079L212.342,98.1452L212.367,98.4829L212.391,98.8208L212.415,99.159L212.437,99.4975L212.457,99.8363L212.477,100.175L212.496,100.515L212.514,100.854L212.531,101.194L212.546,101.535L212.561,101.875L212.574,102.216L212.587,102.557L212.598,102.898L212.608,103.24L212.618,103.582L212.626,103.924L212.633,104.266L212.639,104.609L212.644,104.952L212.647,105.295L212.65,105.638L212.652,105.982L212.652,106.326L212.652,106.67L212.65,107.014L212.647,107.357L212.644,107.7L212.639,108.043L212.633,108.386L212.626,108.728L212.618,109.07L212.608,109.412L212.598,109.754L212.587,110.095L212.574,110.436L212.561,110.777L212.546,111.117L212.531,111.458L212.514,111.798L212.496,112.137L212.477,112.477L212.457,112.816L212.437,113.154L212.415,113.493L212.391,113.831L212.367,114.169L212.342,114.507L212.316,114.844L212.289,115.181L212.26,115.518L212.231,115.854L212.201,116.191L212.169,116.526L212.137,116.862L212.103,117.197L212.069,117.532L212.033,117.867L211.997,118.201L211.959,118.535L211.92,118.869L211.881,119.202L211.84,119.535L211.798,119.868L211.755,120.2L211.711,120.533L211.667,120.864L211.621,121.196L211.574,121.527L211.526,121.858L211.477,122.188L211.427,122.518L211.376,122.848L211.324,123.178L211.271,123.507L211.217,123.836L211.162,124.164L211.106,124.492L211.05,124.82L210.992,125.147L210.933,125.475L210.873,125.801L210.812,126.128L210.75,126.454L210.687,126.779L210.623,127.105L210.558,127.43L210.492,127.754L210.425,128.079L210.357,128.403L210.288,128.726L210.219,129.049L210.148,129.372L210.076,129.695L210.003,130.017L209.93,130.338L209.855,130.66L209.779,130.981L209.703,131.301L209.625,131.621L209.546,131.941L209.467,132.261L209.386,132.58L209.305,132.899L209.222,133.217L209.139,133.535L209.055,133.852L208.969,134.169L208.883,134.486L208.796,134.803L208.708,135.118L208.619,135.434L208.529,135.749L208.438,136.064L208.346,136.378L208.253,136.692L208.159,137.006L208.064,137.319L207.969,137.632L207.872,137.944L207.774,138.256L207.676,138.568L207.577,138.879L207.476,139.189L207.375,139.5L207.273,139.809L207.17,140.119L207.066,140.428L206.961,140.736L206.855,141.045L206.748,141.352L206.64,141.66L206.532,141.966L206.422,142.273L206.312,142.579L206.2,142.884L206.088,143.19L205.975,143.494L205.861,143.798L205.746,144.102L205.63,144.406L205.513,144.709L205.396,145.011L205.277,145.313L205.158,145.615L205.037,145.916L204.916,146.216L204.794,146.517L204.671,146.816L204.547,147.116L204.422,147.414L204.297,147.713L204.17,148.011L204.043,148.308L203.914,148.605L203.785,148.902L203.655,149.198L203.524,149.493L203.392,149.788L203.26,150.083L203.126,150.377L202.992,150.671L202.857,150.964L202.72,151.257L202.583,151.549L202.446,151.841L202.307,152.132L202.167,152.423L202.027,152.713L201.886,153.003L201.744,153.292L201.601,153.581L201.457,153.869L201.312,154.157L201.167,154.444L201.02,154.731L200.873,155.017L200.725,155.303L200.576,155.588L200.426,155.873L200.276,156.158L200.125,156.441L199.972,156.725L199.819,157.007L199.665,157.289L199.511,157.571L199.355,157.852L199.199,158.133L199.042,158.413L198.884,158.693L198.725,158.972L198.565,159.25L198.405,159.529L198.244,159.806L198.082,160.083L197.919,160.359L197.755,160.635L197.59,160.911L197.425,161.186L197.259,161.46L197.092,161.734L196.924,162.007L196.756,162.28L196.587,162.552L196.417,162.823L196.246,163.094L196.074,163.365L195.902,163.635L195.728,163.904L195.554,164.173L195.379,164.441L195.204,164.709L195.027,164.976L194.85,165.242L194.672,165.508L194.493,165.774L194.314,166.039L194.134,166.303L193.953,166.567L193.771,166.83L193.588,167.092L193.405,167.354L193.221,167.616L193.036,167.877L192.85,168.137L192.664,168.397L192.476,168.656L192.288,168.914L192.1,169.172L191.91,169.43L191.72,169.686L191.529,169.943L191.337,170.198L191.145,170.453L190.952,170.707L190.758,170.961L190.563,171.214L190.367,171.467L190.171,171.719L189.974,171.97L189.777,172.221L189.578,172.471L189.379,172.721L189.179,172.97L188.979,173.218L188.777,173.466L188.575,173.713L188.373,173.959L188.169,174.205L187.965,174.45L187.76,174.695L187.554,174.939L187.348,175.182L187.141,175.425L186.933,175.667L186.724,175.908L186.515,176.149L186.305,176.389L186.095,176.629L185.883,176.868L185.671,177.106L185.458,177.344L185.245,177.581L185.031,177.817L184.816,178.053L184.6,178.288L184.384,178.522L184.167,178.756L183.949,178.989L183.731,179.222L183.512,179.453L183.292,179.685L183.072,179.915L182.851,180.145L182.629,180.374L182.407,180.603L182.183,180.83L181.96,181.058L181.735,181.284L181.51,181.51L181.284,181.735L181.058,181.959L180.831,182.183L180.603,182.406L180.374,182.629L180.145,182.851L179.915,183.072L179.685,183.292L179.454,183.512L179.222,183.731L178.989,183.949L178.756,184.167L178.523,184.384L178.288,184.6L178.053,184.816L177.817,185.03L177.581,185.245L177.344,185.458L177.106,185.671L176.868,185.883L176.629,186.094L176.39,186.305L176.149,186.515L175.909,186.724L175.667,186.933L175.425,187.14L175.182,187.348L174.939,187.554L174.695,187.76L174.45,187.965L174.205,188.169L173.959,188.372L173.713,188.575L173.466,188.777L173.218,188.978L172.97,189.179L172.721,189.379L172.471,189.578L172.221,189.776L171.97,189.974L171.719,190.171L171.467,190.367L171.215,190.563L170.961,190.757L170.708,190.951L170.453,191.145L170.198,191.337L169.943,191.529L169.687,191.72L169.43,191.91L169.172,192.099L168.915,192.288L168.656,192.476L168.397,192.663L168.137,192.85L167.877,193.035L167.616,193.22L167.355,193.404L167.093,193.588L166.83,193.77L166.567,193.952L166.303,194.133L166.039,194.314L165.774,194.493L165.509,194.672L165.243,194.85L164.976,195.027L164.709,195.203L164.441,195.379L164.173,195.554L163.904,195.728L163.635,195.901L163.365,196.074L163.094,196.245L162.823,196.416L162.552,196.586L162.28,196.756L162.007,196.924L161.734,197.092L161.46,197.259L161.186,197.425L160.911,197.59L160.636,197.755L160.36,197.918L160.083,198.081L159.806,198.243L159.529,198.405L159.251,198.565L158.972,198.725L158.693,198.883L158.413,199.041L158.133,199.199L157.853,199.355L157.571,199.51L157.29,199.665L157.007,199.819L156.725,199.972L156.441,200.124L156.158,200.276L155.873,200.426L155.589,200.576L155.303,200.725L155.018,200.873L154.731,201.02L154.444,201.166L154.157,201.312L153.869,201.456L153.581,201.6L153.292,201.743L153.003,201.885L152.713,202.027L152.423,202.167L152.132,202.307L151.841,202.445L151.549,202.583L151.257,202.72L150.964,202.856L150.671,202.992L150.377,203.126L150.083,203.259L149.789,203.392L149.494,203.524L149.198,203.655L148.902,203.785L148.605,203.914L148.308,204.042L148.011,204.17L147.713,204.296L147.415,204.422L147.116,204.547L146.817,204.671L146.517,204.794L146.217,204.916L145.916,205.037L145.615,205.157L145.313,205.277L145.011,205.395L144.709,205.513L144.406,205.63L144.102,205.746L143.799,205.861L143.494,205.975L143.19,206.088L142.885,206.2L142.579,206.311L142.273,206.422L141.967,206.531L141.66,206.64L141.352,206.748L141.045,206.855L140.737,206.96L140.428,207.065L140.119,207.169L139.81,207.273L139.5,207.375L139.189,207.476L138.879,207.576L138.568,207.676L138.256,207.774L137.944,207.872L137.632,207.968L137.319,208.064L137.006,208.159L136.692,208.253L136.379,208.345L136.064,208.437L135.749,208.528L135.434,208.618L135.119,208.708L134.803,208.796L134.486,208.883L134.17,208.969L133.852,209.054L133.535,209.139L133.217,209.222L132.899,209.305L132.58,209.386L132.261,209.467L131.941,209.546L131.622,209.625L131.301,209.702L130.981,209.779L130.66,209.855L130.339,209.929L130.017,210.003L129.695,210.076L129.372,210.148L129.049,210.218L128.726,210.288L128.403,210.357L128.079,210.425L127.755,210.492L127.43,210.558L127.105,210.623L126.78,210.687L126.454,210.749L126.128,210.811L125.801,210.872L125.475,210.932L125.148,210.991L124.82,211.049L124.492,211.106L124.164,211.162L123.836,211.217L123.507,211.271L123.178,211.324L122.848,211.376L122.519,211.427L122.188,211.477L121.858,211.526L121.527,211.574L121.196,211.62L120.865,211.666L120.533,211.711L120.201,211.755L119.868,211.798L119.535,211.839L119.202,211.88L118.869,211.92L118.535,211.959L118.201,211.996L117.867,212.033L117.532,212.068L117.197,212.103L116.862,212.137L116.527,212.169L116.191,212.2L115.855,212.231L115.518,212.26L115.181,212.288L114.844,212.316L114.507,212.342L114.169,212.367L113.831,212.391L113.493,212.414L113.155,212.436L112.816,212.457L112.477,212.477L112.137,212.496L111.798,212.514L111.458,212.53L111.118,212.546L110.777,212.561L110.436,212.574L110.095,212.586L109.754,212.598L109.412,212.608L109.07,212.617L108.728,212.625L108.386,212.632L108.043,212.638L107.7,212.643L107.357,212.647L107.014,212.65L106.67,212.651L106.326,212.652ZM106.326,197.463L106.622,197.462L106.918,197.461L107.213,197.458L107.508,197.455L107.803,197.451L108.098,197.446L108.392,197.44L108.685,197.433L108.98,197.425L109.273,197.416L109.567,197.406L109.859,197.396L110.152,197.384L110.444,197.371L110.736,197.358L111.029,197.344L111.32,197.328L111.612,197.312L111.903,197.295L112.194,197.277L112.484,197.258L112.774,197.239L113.065,197.218L113.355,197.196L113.644,197.174L113.933,197.15L114.222,197.126L114.511,197.101L114.799,197.075L115.087,197.048L115.375,197.02L115.663,196.991L115.95,196.962L116.237,196.931L116.524,196.9L116.81,196.867L117.096,196.834L117.382,196.8L117.667,196.765L117.953,196.729L118.238,196.693L118.522,196.655L118.807,196.617L119.091,196.578L119.375,196.537L119.658,196.496L119.942,196.454L120.224,196.412L120.507,196.368L120.789,196.324L121.071,196.278L121.353,196.232L121.634,196.185L121.916,196.137L122.197,196.088L122.477,196.039L122.757,195.988L123.037,195.937L123.316,195.884L123.596,195.831L123.874,195.778L124.153,195.723L124.431,195.667L124.709,195.611L124.988,195.553L125.264,195.495L125.541,195.436L125.818,195.377L126.094,195.316L126.371,195.254L126.647,195.192L126.922,195.129L127.197,195.065L127.472,195L127.747,194.935L128.02,194.868L128.294,194.801L128.568,194.733L128.841,194.664L129.114,194.594L129.386,194.524L129.659,194.452L129.93,194.38L130.202,194.307L130.473,194.233L130.744,194.159L131.014,194.083L131.284,194.007L131.555,193.93L131.824,193.852L132.093,193.773L132.362,193.694L132.63,193.613L132.898,193.532L133.166,193.45L133.433,193.368L133.7,193.284L133.967,193.2L134.233,193.115L134.499,193.029L134.765,192.942L135.03,192.855L135.295,192.766L135.559,192.677L135.823,192.588L136.087,192.497L136.35,192.406L136.614,192.313L136.876,192.22L137.138,192.127L137.4,192.032L137.662,191.937L137.923,191.841L138.184,191.744L138.445,191.646L138.704,191.548L138.964,191.448L139.224,191.348L139.483,191.248L139.741,191.146L139.999,191.044L140.257,190.941L140.515,190.837L140.772,190.733L141.029,190.627L141.285,190.521L141.54,190.414L141.796,190.307L142.051,190.198L142.306,190.089L142.56,189.98L142.814,189.869L143.068,189.757L143.321,189.645L143.573,189.533L143.826,189.419L144.077,189.305L144.329,189.189L144.58,189.074L144.831,188.957L145.081,188.84L145.331,188.722L145.58,188.603L145.829,188.483L146.078,188.363L146.326,188.242L146.574,188.12L146.821,187.998L147.068,187.875L147.315,187.751L147.561,187.626L147.806,187.501L148.052,187.375L148.297,187.248L148.541,187.12L148.785,186.992L149.029,186.863L149.272,186.733L149.514,186.603L149.757,186.472L149.999,186.34L150.24,186.207L150.481,186.074L150.721,185.94L150.962,185.805L151.201,185.67L151.44,185.534L151.679,185.397L151.918,185.26L152.155,185.121L152.393,184.983L152.629,184.843L152.866,184.703L153.102,184.562L153.337,184.42L153.573,184.278L153.807,184.135L154.041,183.991L154.275,183.846L154.509,183.701L154.741,183.556L154.974,183.409L155.205,183.262L155.437,183.114L155.668,182.965L155.898,182.816L156.128,182.666L156.358,182.516L156.587,182.365L156.815,182.213L157.043,182.06L157.271,181.907L157.498,181.753L157.725,181.598L157.951,181.443L158.177,181.287L158.402,181.131L158.626,180.973L158.851,180.815L159.074,180.657L159.297,180.498L159.52,180.338L159.743,180.177L159.964,180.016L160.185,179.854L160.406,179.692L160.626,179.529L160.846,179.365L161.065,179.2L161.284,179.035L161.502,178.869L161.72,178.703L161.937,178.536L162.153,178.368L162.369,178.2L162.585,178.031L162.8,177.862L163.015,177.692L163.229,177.52L163.442,177.349L163.655,177.177L163.868,177.004L164.08,176.831L164.291,176.657L164.502,176.483L164.712,176.307L164.922,176.131L165.132,175.955L165.34,175.778L165.548,175.6L165.757,175.422L165.964,175.243L166.17,175.064L166.376,174.884L166.582,174.703L166.787,174.521L166.991,174.339L167.195,174.157L167.398,173.974L167.601,173.79L167.803,173.606L168.005,173.42L168.206,173.235L168.407,173.049L168.607,172.862L168.806,172.675L169.005,172.487L169.203,172.299L169.401,172.109L169.598,171.92L169.795,171.729L169.991,171.538L170.186,171.347L170.381,171.155L170.576,170.962L170.769,170.769L170.963,170.575L171.155,170.381L171.347,170.186L171.539,169.991L171.73,169.795L171.92,169.598L172.11,169.401L172.299,169.203L172.487,169.005L172.675,168.806L172.863,168.606L173.049,168.406L173.235,168.206L173.421,168.005L173.606,167.803L173.79,167.601L173.974,167.398L174.157,167.195L174.34,166.991L174.522,166.786L174.703,166.581L174.884,166.376L175.064,166.17L175.243,165.963L175.422,165.756L175.601,165.548L175.778,165.34L175.955,165.132L176.132,164.922L176.308,164.712L176.483,164.502L176.658,164.291L176.831,164.08L177.005,163.868L177.178,163.655L177.349,163.442L177.521,163.229L177.692,163.014L177.862,162.8L178.031,162.585L178.2,162.369L178.369,162.153L178.536,161.936L178.703,161.719L178.87,161.502L179.035,161.284L179.2,161.065L179.365,160.846L179.529,160.626L179.692,160.405L179.854,160.185L180.016,159.964L180.177,159.742L180.338,159.52L180.498,159.297L180.657,159.074L180.816,158.85L180.974,158.626L181.131,158.402L181.287,158.176L181.443,157.95L181.599,157.724L181.753,157.498L181.907,157.271L182.06,157.043L182.213,156.815L182.365,156.586L182.516,156.358L182.667,156.128L182.817,155.898L182.966,155.667L183.114,155.437L183.262,155.205L183.409,154.973L183.556,154.741L183.702,154.508L183.847,154.275L183.991,154.041L184.135,153.807L184.278,153.572L184.42,153.337L184.562,153.102L184.703,152.866L184.843,152.629L184.983,152.392L185.122,152.155L185.26,151.917L185.397,151.679L185.534,151.44L185.67,151.201L185.806,150.961L185.94,150.722L186.074,150.481L186.208,150.24L186.34,149.998L186.472,149.756L186.603,149.515L186.734,149.272L186.863,149.028L186.992,148.785L187.121,148.541L187.248,148.297L187.375,148.052L187.501,147.807L187.626,147.561L187.751,147.315L187.875,147.068L187.998,146.821L188.121,146.574L188.242,146.326L188.363,146.078L188.484,145.829L188.603,145.58L188.722,145.331L188.84,145.081L188.957,144.831L189.074,144.58L189.19,144.329L189.305,144.077L189.419,143.825L189.533,143.573L189.646,143.32L189.758,143.067L189.869,142.814L189.98,142.56L190.089,142.306L190.199,142.051L190.307,141.796L190.415,141.54L190.522,141.284L190.627,141.028L190.733,140.772L190.838,140.514L190.941,140.257L191.044,139.999L191.147,139.741L191.248,139.482L191.349,139.224L191.449,138.964L191.548,138.704L191.646,138.445L191.744,138.184L191.841,137.923L191.937,137.662L192.032,137.4L192.127,137.138L192.221,136.876L192.314,136.613L192.406,136.35L192.497,136.087L192.588,135.823L192.678,135.559L192.767,135.294L192.855,135.03L192.943,134.764L193.029,134.499L193.115,134.233L193.2,133.966L193.285,133.7L193.368,133.433L193.451,133.165L193.533,132.898L193.614,132.63L193.694,132.361L193.774,132.092L193.852,131.823L193.93,131.554L194.007,131.284L194.083,131.014L194.159,130.744L194.233,130.473L194.307,130.202L194.38,129.93L194.453,129.658L194.524,129.386L194.594,129.114L194.664,128.841L194.733,128.568L194.801,128.294L194.868,128.02L194.935,127.746L195.001,127.472L195.065,127.197L195.129,126.922L195.193,126.646L195.255,126.371L195.316,126.095L195.377,125.818L195.437,125.541L195.496,125.265L195.554,124.987L195.611,124.709L195.667,124.431L195.723,124.153L195.778,123.875L195.832,123.595L195.885,123.316L195.937,123.036L195.988,122.757L196.039,122.476L196.088,122.196L196.137,121.915L196.185,121.634L196.232,121.352L196.278,121.071L196.324,120.789L196.368,120.507L196.412,120.224L196.455,119.941L196.497,119.658L196.538,119.374L196.578,119.091L196.617,118.807L196.656,118.522L196.693,118.238L196.73,117.952L196.766,117.667L196.801,117.382L196.835,117.096L196.868,116.81L196.9,116.523L196.931,116.237L196.962,115.95L196.992,115.662L197.02,115.375L197.048,115.087L197.075,114.799L197.101,114.51L197.126,114.222L197.151,113.933L197.174,113.643L197.197,113.354L197.218,113.065L197.239,112.775L197.259,112.484L197.277,112.193L197.295,111.902L197.313,111.612L197.329,111.32L197.344,111.028L197.358,110.737L197.372,110.445L197.384,110.152L197.396,109.859L197.406,109.566L197.416,109.273L197.425,108.979L197.433,108.686L197.44,108.392L197.446,108.097L197.451,107.803L197.455,107.508L197.459,107.213L197.461,106.917L197.462,106.622L197.463,106.326L197.462,106.03L197.461,105.735L197.459,105.439L197.455,105.144L197.451,104.849L197.446,104.555L197.44,104.26L197.433,103.966L197.425,103.673L197.416,103.379L197.406,103.086L197.396,102.793L197.384,102.5L197.372,102.207L197.358,101.915L197.344,101.624L197.329,101.332L197.313,101.04L197.295,100.75L197.277,100.459L197.259,100.168L197.239,99.8772L197.218,99.587L197.197,99.2976L197.174,99.0085L197.151,98.7189L197.126,98.43L197.101,98.1415L197.075,97.8529L197.048,97.5647L197.02,97.2768L196.992,96.9897L196.962,96.7021L196.931,96.4152L196.9,96.1288L196.868,95.8417L196.835,95.556L196.801,95.2702L196.766,94.9846L196.73,94.6995L196.693,94.4143L196.656,94.1299L196.617,93.8454L196.578,93.5613L196.538,93.2775L196.497,92.9936L196.455,92.7106L196.412,92.428L196.368,92.1452L196.324,91.8628L196.278,91.5808L196.232,91.2997L196.185,91.0179L196.137,90.7366L196.088,90.4561L196.039,90.1755L195.988,89.8953L195.937,89.6155L195.885,89.336L195.832,89.0565L195.778,88.7774L195.723,88.499L195.667,88.2207L195.611,87.9427L195.554,87.6651L195.496,87.3875L195.437,87.1106L195.377,86.8342L195.316,86.5572L195.255,86.2811L195.193,86.0059L195.129,85.7301L195.065,85.4547L195.001,85.1802L194.935,84.9056L194.868,84.6315L194.801,84.3581L194.733,84.0843L194.664,83.8109L194.594,83.5383L194.524,83.2657L194.453,82.9939L194.38,82.7221L194.307,82.4502L194.233,82.1792L194.159,81.9082L194.083,81.6376L194.007,81.3678L193.93,81.098L193.852,80.8286L193.774,80.5596L193.694,80.2906L193.614,80.022L193.533,79.7543L193.451,79.4866L193.368,79.2188L193.285,78.9523L193.2,78.6859L193.115,78.4189L193.029,78.1528L192.942,77.8876L192.855,77.6224L192.767,77.3576L192.678,77.0932L192.588,76.8289L192.497,76.5649L192.406,76.3018L192.314,76.0388L192.221,75.7757L192.127,75.5135L192.032,75.2517L191.937,74.9904L191.841,74.7291L191.744,74.4677L191.646,74.2073L191.548,73.9478L191.449,73.6878L191.349,73.4282L191.248,73.1695L191.147,72.9109L191.044,72.6527L190.941,72.395L190.838,72.1377L190.733,71.8804L190.628,71.6236L190.522,71.3677L190.415,71.1118L190.307,70.8564L190.199,70.601L190.089,70.346L189.98,70.0923L189.869,69.8384L189.758,69.5848L189.646,69.3317L189.533,69.0787L189.419,68.8265L189.305,68.5748L189.19,68.3232L189.074,68.072L188.957,67.8213L188.84,67.5711L188.722,67.3213L188.603,67.0721L188.484,66.8229L188.363,66.5742L188.242,66.3259L188.121,66.0781L187.998,65.8309L187.875,65.5837L187.751,65.3374L187.626,65.0911L187.501,64.8454L187.375,64.6001L187.248,64.3554L187.121,64.1111L186.992,63.8669L186.863,63.6236L186.734,63.3804L186.603,63.1373L186.472,62.8954L186.34,62.6537L186.208,62.4122L186.074,62.1711L185.94,61.9305L185.806,61.6907L185.67,61.4511L185.534,61.2117L185.398,60.9732L185.26,60.7351L185.122,60.4971L184.983,60.2597L184.843,60.0228L184.703,59.7863L184.562,59.5501L184.42,59.3147L184.278,59.0798L184.135,58.8447L183.991,58.6105L183.847,58.3772L183.702,58.144L183.556,57.911L183.409,57.6786L183.262,57.4466L183.114,57.2151L182.966,56.9846L182.817,56.7542L182.667,56.524L182.516,56.2943L182.365,56.0655L182.213,55.8369L182.06,55.6089L181.907,55.3814L181.753,55.154L181.599,54.9275L181.443,54.7016L181.287,54.4758L181.131,54.2504L180.974,54.026L180.816,53.8019L180.657,53.578L180.498,53.3547L180.338,53.1319L180.177,52.91L180.016,52.6883L179.854,52.4671L179.692,52.2465L179.529,52.0262L179.365,51.8064L179.2,51.5871L179.035,51.3684L178.87,51.1503L178.703,50.9327L178.536,50.7157L178.369,50.4989L178.2,50.2827L178.031,50.0671L177.862,49.852L177.692,49.6375L177.521,49.4233L177.349,49.2099L177.178,48.9971L177.005,48.7843L176.831,48.5723L176.658,48.3613L176.483,48.1501L176.307,47.9396L176.132,47.73L175.955,47.5206L175.778,47.3118L175.601,47.1036L175.422,46.8957L175.243,46.6887L175.064,46.4823L174.884,46.2761L174.703,46.0705L174.522,45.8656L174.34,45.6609L174.157,45.4571L173.974,45.2539L173.79,45.0511L173.606,44.8488L173.421,44.6471L173.235,44.446L173.049,44.2456L172.863,44.0457L172.675,43.8461L172.487,43.6472L172.299,43.4489L172.109,43.2509L171.92,43.0537L171.73,42.8575L171.539,42.6613L171.347,42.4655L171.155,42.2709L170.963,42.0765L170.769,41.8825L170.576,41.6897L170.381,41.497L170.186,41.3049L169.991,41.1134L169.795,40.9225L169.599,40.7325L169.401,40.5427L169.203,40.3534L169.005,40.165L168.806,39.9771L168.607,39.7897L168.407,39.603L168.206,39.4169L168.005,39.2314L167.803,39.0464L167.601,38.862L167.398,38.6782L167.195,38.495L166.991,38.3125L166.787,38.1306L166.582,37.9492L166.376,37.7684L166.17,37.5884L165.964,37.4089L165.756,37.23L165.549,37.0516L165.34,36.8738L165.132,36.6971L164.922,36.5206L164.712,36.3445L164.502,36.1694L164.291,35.9949L164.08,35.8209L163.868,35.6476L163.655,35.4748L163.442,35.3028L163.229,35.1314L163.015,34.9605L162.8,34.7903L162.585,34.6208L162.369,34.4518L162.153,34.2836L161.937,34.1159L161.72,33.9489L161.502,33.7826L161.284,33.6168L161.065,33.4517L160.846,33.2873L160.626,33.1235L160.406,32.9603L160.185,32.7978L159.964,32.636L159.742,32.4749L159.52,32.3143L159.297,32.1544L159.074,31.9952L158.85,31.8366L158.626,31.6786L158.402,31.5215L158.177,31.3649L157.951,31.209L157.725,31.0537L157.498,30.8991L157.271,30.7451L157.043,30.5919L156.815,30.4393L156.587,30.2874L156.358,30.1362L156.128,29.9856L155.898,29.8356L155.668,29.6865L155.437,29.5379L155.205,29.39L154.974,29.2429L154.741,29.0964L154.508,28.9506L154.275,28.8055L154.041,28.661L153.807,28.5173L153.573,28.3742L153.337,28.2318L153.102,28.0902L152.866,27.9492L152.629,27.8089L152.393,27.6693L152.155,27.5304L151.917,27.3922L151.679,27.2547L151.44,27.1179L151.201,26.9819L150.962,26.8465L150.722,26.7118L150.481,26.5778L150.24,26.4446L149.999,26.312L149.757,26.1802L149.515,26.049L149.272,25.9186L149.029,25.789L148.785,25.66L148.541,25.5317L148.297,25.4042L148.052,25.2774L147.807,25.1512L147.561,25.0259L147.315,24.9013L147.068,24.7773L146.821,24.6541L146.574,24.5317L146.326,24.4099L146.078,24.289L145.829,24.1686L145.58,24.0491L145.331,23.9304L145.081,23.8123L144.831,23.695L144.58,23.5784L144.329,23.4625L144.077,23.3474L143.826,23.2331L143.573,23.1195L143.321,23.0066L143.068,22.8945L142.814,22.7831L142.56,22.6725L142.306,22.5626L142.051,22.4535L141.796,22.3452L141.54,22.2376L141.285,22.1308L141.028,22.0247L140.772,21.9193L140.515,21.8148L140.257,21.711L139.999,21.6079L139.741,21.5057L139.483,21.4042L139.224,21.3034L138.964,21.2035L138.705,21.1043L138.445,21.0059L138.184,20.9082L137.923,20.8114L137.662,20.7153L137.4,20.6199L137.139,20.5254L136.876,20.4316L136.614,20.3386L136.351,20.2464L136.087,20.155L135.823,20.0644L135.559,19.9745L135.295,19.8855L135.03,19.7972L134.765,19.7098L134.499,19.6231L134.233,19.5372L133.967,19.4521L133.7,19.3678L133.433,19.2843L133.166,19.2016L132.898,19.1197L132.63,19.0386L132.361,18.9583L132.093,18.8788L131.824,18.8001L131.554,18.7222L131.284,18.6452L131.014,18.5689L130.744,18.4934L130.473,18.4188L130.202,18.345L129.93,18.2719L129.659,18.1997L129.386,18.1284L129.114,18.0578L128.841,17.9881L128.568,17.9191L128.294,17.851L128.021,17.7838L127.746,17.7173L127.472,17.6517L127.197,17.5869L126.922,17.5229L126.647,17.4598L126.371,17.3975L126.095,17.336L125.818,17.2754L125.542,17.2156L125.264,17.1566L124.987,17.0985L124.709,17.0413L124.431,16.9848L124.153,16.9292L123.875,16.8745L123.596,16.8206L123.316,16.7675L123.037,16.7153L122.757,16.664L122.477,16.6135L122.196,16.5638L121.915,16.515L121.634,16.4671L121.353,16.42L121.071,16.3738L120.789,16.3284L120.507,16.2839L120.224,16.2403L119.941,16.1975L119.658,16.1556L119.375,16.1146L119.091,16.0744L118.807,16.0351L118.522,15.9967L118.238,15.9591L117.953,15.9225L117.668,15.8867L117.382,15.8517L117.096,15.8177L116.81,15.7845L116.524,15.7522L116.237,15.7208L115.95,15.6903L115.663,15.6607L115.375,15.6319L115.087,15.6041L114.799,15.5771L114.511,15.5511L114.222,15.5259L113.933,15.5016L113.644,15.4782L113.354,15.4557L113.065,15.4341L112.775,15.4134L112.484,15.3937L112.194,15.3748L111.903,15.3568L111.612,15.3397L111.32,15.3236L111.029,15.3083L110.737,15.294L110.445,15.2806L110.152,15.2681L109.859,15.2565L109.566,15.2458L109.273,15.2361L108.98,15.2272L108.686,15.2193L108.392,15.2123L108.097,15.2063L107.803,15.2011L107.508,15.1969L107.213,15.1937L106.918,15.1913L106.622,15.1899L106.326,15.1895L106.03,15.1899L105.735,15.1913L105.439,15.1937L105.144,15.1969L104.849,15.2011L104.555,15.2063L104.261,15.2123L103.967,15.2193L103.673,15.2272L103.379,15.2361L103.086,15.2458L102.793,15.2565L102.5,15.2681L102.208,15.2806L101.916,15.294L101.624,15.3083L101.332,15.3236L101.04,15.3397L100.749,15.3568L100.458,15.3748L100.168,15.3937L99.8776,15.4134L99.5875,15.4341L99.2978,15.4557L99.0083,15.4782L98.719,15.5016L98.4301,15.5259L98.1414,15.5511L97.853,15.5771L97.5649,15.6041L97.2771,15.6319L96.9896,15.6607L96.7023,15.6903L96.4153,15.7208L96.1286,15.7522L95.8422,15.7845L95.5561,15.8177L95.2703,15.8517L94.9847,15.8867L94.6995,15.9225L94.4145,15.9591L94.1299,15.9967L93.8455,16.0351L93.5614,16.0744L93.2776,16.1146L92.9941,16.1556L92.7109,16.1975L92.428,16.2403L92.1454,16.2839L91.8631,16.3284L91.581,16.3738L91.2993,16.42L91.0179,16.4671L90.7369,16.515L90.4561,16.5638L90.1756,16.6135L89.8954,16.664L89.6155,16.7153L89.336,16.7675L89.0567,16.8206L88.7778,16.8745L88.4991,16.9292L88.2208,16.9848L87.9428,17.0413L87.6651,17.0985L87.3877,17.1567L87.1107,17.2156L86.834,17.2754L86.5575,17.336L86.2814,17.3975L86.0057,17.4598L85.7302,17.5229L85.4551,17.5869L85.1803,17.6517L84.9058,17.7173L84.6317,17.7838L84.3579,17.851L84.0843,17.9191L83.8112,17.9881L83.5384,18.0578L83.2659,18.1284L82.9937,18.1997L82.7219,18.2719L82.4504,18.3449L82.1793,18.4188L81.9084,18.4934L81.638,18.5689L81.3679,18.6451L81.0981,18.7222L80.8286,18.8001L80.5595,18.8788L80.2908,18.9583L80.0223,19.0386L79.7543,19.1197L79.4866,19.2016L79.2192,19.2843L78.9522,19.3678L78.6855,19.4521L78.4193,19.5372L78.1533,19.6231L77.8877,19.7098L77.6225,19.7972L77.3576,19.8855L77.0931,19.9746L76.829,20.0644L76.5652,20.155L76.3017,20.2464L76.0387,20.3386L75.776,20.4316L75.5137,20.5254L75.2517,20.6199L74.9901,20.7153L74.7289,20.8113L74.4681,20.9082L74.2077,21.0059L73.9476,21.1043L73.6879,21.2035L73.4285,21.3034L73.1696,21.4042L72.911,21.5057L72.6528,21.608L72.395,21.711L72.1376,21.8148L71.8805,21.9194L71.6239,22.0247L71.3676,22.1307L71.1117,22.2376L70.8563,22.3452L70.6012,22.4535L70.3465,22.5627L70.0922,22.6725L69.8383,22.7831L69.5848,22.8945L69.3317,23.0066L69.079,23.1195L68.8267,23.2331L68.5748,23.3474L68.3233,23.4625L68.0722,23.5784L67.8215,23.695L67.5712,23.8123L67.3214,23.9303L67.0719,24.0491L66.8229,24.1687L66.5742,24.2889L66.326,24.4099L66.0782,24.5317L65.8308,24.6541L65.5839,24.7773L65.3374,24.9012L65.0912,25.0259L64.8455,25.1513L64.6003,25.2774L64.3554,25.4042L64.111,25.5317L63.8671,25.66L63.6234,25.789L63.3804,25.9186L63.1377,26.049L62.8954,26.1802L62.6536,26.312L62.4122,26.4446L62.1713,26.5778L61.9308,26.7118L61.6907,26.8465L61.4511,26.9818L61.2119,27.1179L60.9732,27.2548L60.7349,27.3922L60.4971,27.5304L60.2597,27.6693L60.0228,27.8089L59.7863,27.9492L59.5503,28.0902L59.3147,28.2318L59.0796,28.3742L58.845,28.5173L58.6108,28.661L58.3771,28.8055L58.1438,28.9506L57.911,29.0964L57.6787,29.2429L57.4468,29.3901L57.2154,29.5379L56.9845,29.6865L56.7541,29.8357L56.5241,29.9856L56.2946,30.1361L56.0655,30.2874L55.837,30.4393L55.6089,30.5919L55.3814,30.7451L55.1543,30.8991L54.9276,31.0537L54.7014,31.209L54.4758,31.3649L54.2507,31.5214L54.026,31.6787L53.8018,31.8366L53.5781,31.9952L53.3549,32.1544L53.1321,32.3143L52.91,32.4748L52.6883,32.636L52.4671,32.7979L52.2464,32.9604L52.0262,33.1235L51.8065,33.2873L51.5873,33.4517L51.3686,33.6168L51.1504,33.7825L50.9327,33.9489L50.7156,34.1159L50.499,34.2835L50.2828,34.4518L50.0672,34.6208L49.8521,34.7903L49.6375,34.9605L49.4235,35.1313L49.2099,35.3028L48.9969,35.4749L48.7844,35.6476L48.5724,35.8209L48.3611,35.9949L48.1502,36.1694L47.9398,36.3446L47.7299,36.5205L47.5206,36.6969L47.3119,36.874L47.1036,37.0517L46.8959,37.23L46.6888,37.4089L46.4822,37.5884L46.276,37.7685L46.0705,37.9492L45.8656,38.1306L45.6611,38.3125L45.4572,38.4951L45.2539,38.6782L45.0511,38.862L44.8489,39.0464L44.6472,39.2313L44.4461,39.4169L44.2455,39.6031L44.0455,39.7898L43.8461,39.9771L43.6472,40.165L43.4489,40.3536L43.2511,40.5426L43.054,40.7323L42.8573,40.9226L42.6612,41.1135L42.4658,41.3049L42.2708,41.497L42.0765,41.6896L41.8828,41.8827L41.6896,42.0765L41.4969,42.2709L41.3049,42.4658L41.1135,42.6612L40.9227,42.8573L40.7324,43.0539L40.5427,43.2511L40.3536,43.4488L40.1651,43.6471L39.9771,43.846L39.7898,44.0455L39.603,44.2455L39.4169,44.4461L39.2313,44.6472L39.0464,44.8488L38.862,45.0511L38.6783,45.2539L38.4951,45.4572L38.3125,45.6611L38.1306,45.8656L37.9493,46.0705L37.7685,46.2761L37.5884,46.4822L37.4089,46.6887L37.23,46.8959L37.0517,47.1036L36.874,47.3118L36.6969,47.5206L36.5205,47.7299L36.3447,47.9397L36.1695,48.1501L35.9949,48.361L35.8209,48.5725L35.6476,48.7844L35.4749,48.9969L35.3028,49.2099L35.1313,49.4234L34.9605,49.6375L34.7903,49.8521L34.6208,50.0671L34.4519,50.2827L34.2836,50.4989L34.1159,50.7156L33.9489,50.9327L33.7826,51.1504L33.6168,51.3685L33.4517,51.5872L33.2873,51.8064L33.1235,52.0261L32.9604,52.2463L32.7979,52.467L32.636,52.6882L32.4748,52.9099L32.3143,53.1322L32.1544,53.3548L31.9952,53.5781L31.8366,53.8018L31.6787,54.0259L31.5214,54.2506L31.3649,54.4757L31.209,54.7014L31.0537,54.9276L30.8991,55.1542L30.7452,55.3813L30.5919,55.6089L30.4393,55.8369L30.2874,56.0655L30.1362,56.2945L29.9856,56.524L29.8357,56.754L29.6865,56.9845L29.5379,57.2154L29.3901,57.4468L29.2429,57.6787L29.0964,57.911L28.9506,58.1437L28.8055,58.377L28.661,58.6107L28.5173,58.8449L28.3742,59.0796L28.2319,59.3147L28.0902,59.5503L27.9492,59.7862L27.8089,60.0228L27.6693,60.2596L27.5305,60.497L27.3922,60.7349L27.2547,60.9732L27.118,61.2119L26.9819,61.451L26.8465,61.6906L26.7118,61.9307L26.5778,62.1713L26.4446,62.4122L26.3121,62.6535L26.1802,62.8953L26.0491,63.1376L25.9187,63.3803L25.789,63.6234L25.66,63.867L25.5317,64.111L25.4042,64.3554L25.2774,64.6002L25.1513,64.8455L25.0259,65.0912L24.9012,65.3373L24.7773,65.5838L24.6541,65.8308L24.5317,66.0781L24.4099,66.3259L24.2889,66.5742L24.1687,66.8228L24.0491,67.0718L23.9304,67.3213L23.8123,67.5712L23.695,67.8214L23.5784,68.0721L23.4625,68.3232L23.3474,68.5747L23.2331,68.8266L23.1195,69.0789L23.0066,69.3316L22.8945,69.5847L22.7831,69.8382L22.6725,70.0921L22.5627,70.3464L22.4535,70.6012L22.3452,70.8562L22.2376,71.1117L22.1307,71.3676L22.0247,71.6238L21.9194,71.8804L21.8148,72.1375L21.711,72.3949L21.608,72.6527L21.5057,72.9109L21.4042,73.1695L21.3035,73.4284L21.2035,73.6878L21.1043,73.9475L21.0059,74.2075L20.9082,74.468L20.8113,74.7289L20.7152,74.9901L20.6199,75.2516L20.5254,75.5136L20.4316,75.7759L20.3386,76.0386L20.2464,76.3017L20.155,76.5651L20.0644,76.8289L19.9746,77.093L19.8855,77.3575L19.7972,77.6224L19.7098,77.8876L19.6231,78.1532L19.5372,78.4192L19.4521,78.6855L19.3678,78.9521L19.2843,79.2191L19.2016,79.4865L19.1197,79.7542L19.0386,80.0222L18.9583,80.2907L18.8788,80.5594L18.8001,80.8285L18.7222,81.0979L18.6451,81.3678L18.5689,81.6379L18.4934,81.9083L18.4188,82.1791L18.345,82.4503L18.2719,82.7218L18.1997,82.9936L18.1284,83.2658L18.0578,83.5383L17.988,83.8111L17.9191,84.0843L17.851,84.3577L17.7838,84.6316L17.7173,84.9057L17.6517,85.1802L17.5869,85.455L17.5229,85.7301L17.4598,86.0056L17.3975,86.2813L17.336,86.5574L17.2754,86.8339L17.2156,87.1106L17.1567,87.3877L17.0985,87.665L17.0413,87.9427L16.9848,88.2207L16.9292,88.499L16.8745,88.7777L16.8206,89.0566L16.7675,89.3358L16.7153,89.6154L16.664,89.8953L16.6135,90.1754L16.5638,90.4559L16.515,90.7367L16.4671,91.0178L16.42,91.2993L16.3738,91.581L16.3284,91.8629L16.284,92.1452L16.2403,92.4279L16.1975,92.7108L16.1556,92.994L16.1146,93.2775L16.0744,93.5613L16.0351,93.8453L15.9967,94.1297L15.9591,94.4144L15.9225,94.6994L15.8867,94.9846L15.8517,95.2702L15.8177,95.556L15.7845,95.8421L15.7522,96.1285L15.7208,96.4152L15.6903,96.7022L15.6607,96.9895L15.6319,97.277L15.6041,97.5648L15.5771,97.8529L15.5511,98.1413L15.5259,98.43L15.5016,98.7189L15.4782,99.0081L15.4557,99.2976L15.4341,99.5874L15.4134,99.8775L15.3937,100.168L15.3748,100.458L15.3568,100.749L15.3397,101.04L15.3236,101.332L15.3083,101.623L15.294,101.915L15.2806,102.208L15.2681,102.5L15.2565,102.793L15.2458,103.086L15.2361,103.379L15.2272,103.673L15.2193,103.966L15.2123,104.26L15.2063,104.555L15.2011,104.849L15.1969,105.144L15.1937,105.439L15.1913,105.735L15.1899,106.03L15.1895,106.326L15.1899,106.622L15.1913,106.917L15.1937,107.213L15.1969,107.508L15.2011,107.803L15.2063,108.097L15.2123,108.392L15.2193,108.686L15.2272,108.979L15.2361,109.273L15.2458,109.566L15.2565,109.859L15.2681,110.152L15.2806,110.444L15.294,110.737L15.3083,111.029L15.3236,111.32L15.3397,111.612L15.3568,111.903L15.3748,112.194L15.3937,112.484L15.4134,112.775L15.4341,113.065L15.4557,113.354L15.4782,113.644L15.5016,113.933L15.5259,114.222L15.5511,114.511L15.5771,114.799L15.6041,115.087L15.6319,115.375L15.6607,115.663L15.6903,115.95L15.7208,116.237L15.7522,116.523L15.7845,116.81L15.8177,117.096L15.8517,117.382L15.8867,117.667L15.9225,117.953L15.9591,118.238L15.9967,118.522L16.0351,118.807L16.0744,119.091L16.1146,119.375L16.1556,119.658L16.1975,119.941L16.2403,120.224L16.284,120.507L16.3284,120.789L16.3738,121.071L16.42,121.353L16.4671,121.634L16.515,121.915L16.5638,122.196L16.6135,122.477L16.664,122.757L16.7153,123.037L16.7675,123.316L16.8206,123.595L16.8745,123.874L16.9292,124.153L16.9848,124.431L17.0413,124.709L17.0985,124.987L17.1567,125.264L17.2156,125.541L17.2754,125.818L17.336,126.095L17.3975,126.371L17.4598,126.646L17.5229,126.922L17.5869,127.197L17.6517,127.472L17.7173,127.746L17.7838,128.02L17.851,128.294L17.9191,128.568L17.9881,128.841L18.0578,129.114L18.1284,129.386L18.1997,129.658L18.2719,129.93L18.345,130.202L18.4188,130.473L18.4934,130.744L18.5689,131.014L18.6451,131.284L18.7222,131.554L18.8001,131.824L18.8788,132.093L18.9583,132.361L19.0386,132.63L19.1197,132.898L19.2016,133.165L19.2843,133.433L19.3678,133.7L19.4521,133.967L19.5372,134.233L19.6231,134.499L19.7097,134.764L19.7972,135.03L19.8855,135.294L19.9746,135.559L20.0644,135.823L20.155,136.087L20.2464,136.35L20.3386,136.613L20.4316,136.876L20.5254,137.138L20.6199,137.4L20.7153,137.662L20.8114,137.923L20.9082,138.184L21.0059,138.444L21.1043,138.704L21.2035,138.964L21.3035,139.224L21.4042,139.483L21.5057,139.741L21.608,139.999L21.711,140.257L21.8148,140.514L21.9194,140.772L22.0247,141.028L22.1307,141.284L22.2376,141.54L22.3452,141.796L22.4535,142.051L22.5627,142.306L22.6725,142.56L22.7831,142.814L22.8945,143.067L23.0066,143.32L23.1195,143.573L23.2331,143.825L23.3474,144.077L23.4625,144.329L23.5784,144.58L23.695,144.831L23.8123,145.081L23.9303,145.331L24.0491,145.58L24.1687,145.829L24.2889,146.078L24.4099,146.326L24.5317,146.574L24.6541,146.821L24.7774,147.068L24.9012,147.315L25.0258,147.561L25.1513,147.806L25.2774,148.052L25.4042,148.297L25.5317,148.541L25.66,148.785L25.789,149.029L25.9187,149.272L26.0491,149.514L26.1802,149.757L26.3121,149.998L26.4446,150.24L26.5779,150.481L26.7118,150.721L26.8464,150.961L26.9818,151.201L27.118,151.44L27.2548,151.679L27.3922,151.917L27.5305,152.155L27.6693,152.392L27.8089,152.629L27.9491,152.866L28.0902,153.102L28.2319,153.337L28.3743,153.572L28.5173,153.807L28.661,154.041L28.8055,154.275L28.9506,154.508L29.0964,154.741L29.2429,154.973L29.39,155.205L29.5379,155.437L29.6865,155.668L29.8357,155.898L29.9856,156.128L30.1362,156.357L30.2874,156.587L30.4393,156.815L30.5919,157.043L30.7452,157.271L30.8991,157.498L31.0537,157.724L31.209,157.951L31.3649,158.176L31.5214,158.401L31.6788,158.626L31.8367,158.85L31.9952,159.074L32.1544,159.297L32.3144,159.52L32.4749,159.742L32.636,159.964L32.7978,160.185L32.9604,160.406L33.1235,160.626L33.2872,160.845L33.4517,161.065L33.6169,161.284L33.7825,161.502L33.9488,161.719L34.1159,161.936L34.2836,162.153L34.4519,162.369L34.6208,162.585L34.7903,162.8L34.9605,163.014L35.1314,163.229L35.3028,163.442L35.4748,163.655L35.6476,163.868L35.8209,164.08L35.9949,164.291L36.1695,164.502L36.3446,164.712L36.5204,164.922L36.6971,165.132L36.874,165.34L37.0516,165.548L37.2301,165.756L37.4089,165.963L37.5884,166.17L37.7684,166.376L37.9492,166.581L38.1307,166.787L38.3125,166.991L38.4951,167.195L38.6782,167.398L38.862,167.601L39.0464,167.803L39.2312,168.005L39.4169,168.206L39.603,168.406L39.7898,168.606L39.9773,168.806L40.1651,169.005L40.3535,169.203L40.5425,169.401L40.7323,169.598L40.9228,169.795L41.1134,169.991L41.3049,170.186L41.497,170.381L41.6895,170.575L41.8829,170.769L42.0765,170.962L42.2709,171.155L42.4658,171.347L42.6611,171.538L42.8573,171.729L43.0541,171.92L43.2512,172.109L43.4489,172.298L43.6472,172.487L43.8459,172.675L44.0455,172.862L44.2456,173.049L44.4461,173.235L44.6472,173.421L44.8488,173.606L45.0511,173.79L45.254,173.974L45.4574,174.157L45.661,174.339L45.8654,174.521L46.0706,174.703L46.2761,174.883L46.4823,175.064L46.6887,175.243L46.8958,175.422L47.1037,175.6L47.3119,175.778L47.5207,175.955L47.73,176.132L47.9397,176.307L48.1502,176.483L48.3613,176.657L48.5724,176.831L48.7843,177.004L48.9971,177.177L49.21,177.349L49.4233,177.521L49.6375,177.691L49.8521,177.862L50.0671,178.031L50.2828,178.2L50.499,178.368L50.7157,178.536L50.9328,178.703L51.1503,178.869L51.3685,179.035L51.5872,179.2L51.8064,179.365L52.0263,179.529L52.2463,179.692L52.4672,179.854L52.6884,180.016L52.9097,180.177L53.1323,180.338L53.3551,180.498L53.5781,180.657L53.8016,180.815L54.0261,180.973L54.2507,181.131L54.4756,181.287L54.7016,181.443L54.9276,181.598L55.1541,181.753L55.3814,181.907L55.6089,182.06L55.837,182.213L56.0656,182.365L56.2948,182.516L56.5241,182.666L56.7539,182.816L56.9843,182.965L57.2155,183.114L57.447,183.262L57.6786,183.409L57.9111,183.556L58.1437,183.701L58.3769,183.846L58.6109,183.991L58.8451,184.135L59.0795,184.278L59.3147,184.42L59.5505,184.562L59.7864,184.703L60.0228,184.843L60.2597,184.983L60.4968,185.121L60.7347,185.26L60.9735,185.397L61.2121,185.534L61.4509,185.67L61.6904,185.805L61.9309,185.94L62.1716,186.074L62.4122,186.207L62.6534,186.34L62.8951,186.472L63.1378,186.603L63.3805,186.733L63.6232,186.863L63.867,186.992L64.1111,187.12L64.3554,187.248L64.6002,187.375L64.8458,187.501L65.0912,187.626L65.3371,187.751L65.5842,187.875L65.8309,187.998L66.0782,188.12L66.326,188.242L66.5742,188.363L66.823,188.483L67.0718,188.603L67.3215,188.722L67.5712,188.84L67.8214,188.957L68.0721,189.074L68.3232,189.189L68.5749,189.305L68.8266,189.419L69.0792,189.533L69.3318,189.645L69.5845,189.757L69.8385,189.869L70.0924,189.98L70.3465,190.089L70.601,190.198L70.856,190.307L71.1119,190.414L71.3678,190.521L71.6237,190.627L71.8805,190.733L72.1378,190.837L72.3951,190.941L72.6528,191.044L72.911,191.146L73.1697,191.248L73.4283,191.348L73.6878,191.448L73.9478,191.548L74.2074,191.646L74.4679,191.744L74.7291,191.841L74.99,191.937L75.2518,192.032L75.514,192.127L75.7758,192.22L76.0384,192.313L76.3019,192.406L76.5654,192.497L76.8289,192.588L77.0929,192.677L77.3577,192.766L77.6225,192.855L77.8877,192.942L78.1534,193.029L78.419,193.115L78.6855,193.2L78.9524,193.284L79.2193,193.368L79.4867,193.45L79.7544,193.532L80.0221,193.613L80.2907,193.694L80.5597,193.773L80.8287,193.852L81.0977,193.93L81.3679,194.007L81.6381,194.083L81.9083,194.159L82.1793,194.233L82.4503,194.307L82.7217,194.38L82.9935,194.452L83.2662,194.524L83.5384,194.594L83.811,194.664L84.0844,194.733L84.3578,194.801L84.632,194.868L84.9058,194.935L85.1803,195L85.4553,195.065L85.7302,195.129L86.0055,195.192L86.2812,195.254L86.5578,195.316L86.8338,195.377L87.1107,195.436L87.388,195.495L87.6648,195.553L87.9428,195.611L88.2208,195.667L88.4992,195.723L88.7779,195.778L89.0566,195.831L89.3361,195.884L89.6156,195.937L89.8954,195.988L90.1756,196.039L90.4557,196.088L90.7367,196.137L91.018,196.185L91.2993,196.232L91.5814,196.278L91.863,196.324L92.1453,196.368L92.428,196.412L92.7107,196.454L92.9942,196.496L93.2776,196.537L93.5614,196.578L93.8455,196.617L94.13,196.655L94.4144,196.693L94.6992,196.729L94.9848,196.765L95.2703,196.8L95.5561,196.834L95.8423,196.867L96.1284,196.9L96.4154,196.931L96.7027,196.962L96.9894,196.991L97.2769,197.02L97.5653,197.048L97.853,197.075L98.1412,197.101L98.4301,197.126L98.719,197.15L99.0082,197.174L99.2977,197.196L99.5876,197.218L99.8778,197.239L100.168,197.258L100.458,197.277L100.749,197.295L101.04,197.312L101.332,197.328L101.624,197.344L101.916,197.358L102.208,197.371L102.5,197.384L102.793,197.396L103.086,197.406L103.379,197.416L103.673,197.425L103.967,197.433L104.261,197.44L104.555,197.446L104.85,197.451L105.145,197.455L105.439,197.458L105.734,197.461L106.03,197.462L106.326,197.463Z" style="fill:rgb(210,210,210);"/>
        <path d="M98.1245,136.684L98.1245,132.043C98.1245,125.34 99.1226,119.825 101.119,115.499C103.115,111.174 106.83,106.604 112.264,101.792C119.804,95.2027 124.559,90.2467 126.527,86.9236C128.496,83.6005 129.48,79.5899 129.48,74.8918C129.48,69.0477 127.664,64.5358 124.032,61.3559C120.4,58.1761 115.175,56.5862 108.355,56.5862C103.974,56.5862 99.7048,57.1161 95.5462,58.1761C91.3877,59.236 86.6192,61.1697 81.2408,63.9772L76.3337,52.375C86.8133,46.7029 97.7641,43.8668 109.186,43.8668C119.777,43.8668 128.011,46.5596 133.888,51.9453C139.765,57.331 142.704,64.9225 142.704,74.7199C142.704,78.9024 142.164,82.5836 141.082,85.7634C140.001,88.9433 138.407,91.9512 136.3,94.7873C134.193,97.6234 129.646,102.193 122.66,108.495C117.06,113.422 113.359,117.519 111.557,120.785C109.755,124.05 108.854,128.405 108.854,133.848L108.854,136.684L98.1245,136.684ZM94.0492,162.209C94.0492,154.417 97.376,150.521 104.03,150.521C107.246,150.521 109.727,151.523 111.473,153.529C113.22,155.534 114.093,158.427 114.093,162.209C114.093,165.875 113.206,168.726 111.432,170.76C109.658,172.794 107.19,173.811 104.03,173.811C101.146,173.811 98.7622,172.908 96.877,171.104C94.9918,169.299 94.0492,166.334 94.0492,162.209Z" style="fill:rgb(210,210,210);fill-rule:nonzero;"/>
    </g>
</svg>
