<?xml version="1.0" standalone="no"?>
<!DOCTYPE svg PUBLIC "-//W3C//DTD SVG 1.1//EN" "http://www.w3.org/Graphics/SVG/1.1/DTD/svg11.dtd">
<svg width="26px" height="26px" viewBox="0 0 17 21" version="1.1" xmlns="http://www.w3.org/2000/svg" xmlns:xlink="http://www.w3.org/1999/xlink" xml:space="preserve" style="fill-rule:evenodd;clip-rule:evenodd;stroke-linejoin:round;stroke-miterlimit:1.41421;">
    <g transform="matrix(1,0,0,1,-189,-0)">
        <g id="trash" transform="matrix(1,0,0,1,-23,-126)">
            <path d="M218.197,133.465C218.197,133.042 217.858,132.699 217.441,132.699C217.023,132.699 216.684,133.042 216.684,133.465L216.684,142.749C216.684,143.172 217.023,143.514 217.441,143.514C217.858,143.514 218.197,143.172 218.197,142.749L218.197,133.465ZM221.256,133.465C221.256,133.042 220.918,132.699 220.5,132.699C220.082,132.699 219.744,133.042 219.744,133.465L219.744,142.749C219.744,143.172 220.082,143.514 220.5,143.514C220.918,143.514 221.256,143.172 221.256,142.749L221.256,133.465ZM224.316,133.465C224.316,133.042 223.977,132.699 223.559,132.699C223.141,132.699 222.803,133.042 222.803,133.465L222.803,142.749C222.803,143.172 223.141,143.514 223.559,143.514C223.977,143.514 224.316,143.172 224.316,142.749L224.316,133.465ZM226.316,145.215L214.684,145.215L214.684,130.999L212.919,130.999L212.919,147L228.081,147L228.081,130.999L226.316,130.999L226.316,145.215ZM224.213,127.428C223.433,127.428 222.801,126.789 222.801,126L218.199,126C218.199,126.789 217.567,127.428 216.787,127.428L212,127.428L212,129.469L229,129.469L229,127.428L224.213,127.428Z" style="fill:rgb(248,248,248);"/>
        </g>
    </g>
</svg>
