<?xml version="1.0" standalone="no"?>
<!DOCTYPE svg PUBLIC "-//W3C//DTD SVG 1.1//EN" "http://www.w3.org/Graphics/SVG/1.1/DTD/svg11.dtd">
<svg width="278px" height="63px" viewBox="0 0 185 42" version="1.1" xmlns="http://www.w3.org/2000/svg" xmlns:xlink="http://www.w3.org/1999/xlink" xml:space="preserve" style="fill-rule:evenodd;clip-rule:evenodd;stroke-linejoin:round;stroke-miterlimit:1.41421;">
    <g>
        <g id="black">
            <g id="logo">
                <path id="Shape 1" d="M3.46736,21.2764C3.13707,19.4953 3.19054,17.96 3.50125,16.6375C3.60948,18.4751 3.99763,20.3016 4.65428,22.026C4.95031,22.8058 5.3042,23.5667 5.7121,24.2978C5.98106,24.7857 9.26027,31.2709 17.8212,32.2232C17.2948,32.0467 15.5971,31.5528 14.7047,31.2184C9.68765,29.3351 7.87774,26.802 6.65609,23.8319C3.90155,17.1214 6.57341,11.3755 13.9744,10.102C16.1963,9.71781 16.3407,9.71483 18.4097,9.63609C19.577,9.59137 21.7555,9.7121 22.8415,9.90033C29.8385,11.1126 35.273,13.6584 35.2742,13.6584C35.3595,13.5319 35.3356,13.3845 35.2584,13.2056C35.0563,12.7433 34.7447,12.312 34.4468,11.9056C34.2793,11.6807 34.1057,11.4581 33.93,11.242C32.9017,9.96656 31.3603,8.35163 29.5172,6.78938C28.3169,5.76726 26.9853,4.76999 25.5818,3.9047C24.9225,3.49665 24.2479,3.12075 23.5645,2.78005C21.9285,1.9606 20.2446,1.3332 18.6244,0.930453C15.1052,-0.159246 11.949,-0.159246 9.08375,0.258089C8.69337,0.314542 8.30003,0.381289 7.91226,0.453568C6.32403,0.750887 4.76315,1.16946 3.20298,1.58493C5.0635,1.44097 7.18398,1.60471 9.35051,1.97247C6.04113,2.67279 2.29523,3.98739 0,5.45537C1.90708,4.46737 4.63292,4.26739 7.09771,4.40174C4.05265,5.95843 1.02378,8.31545 0,11.2363C0.97751,9.59274 2.62059,8.58828 4.40155,7.99304C4.42514,7.98401 4.40453,8.04778 4.35066,8.17146C4.05027,8.86943 2.69218,11.4894 2.05852,13.9418C1.84031,14.7799 1.70859,15.6039 1.73629,16.3197C1.97761,14.6343 2.7673,13.2213 3.81778,12.0522C3.81095,12.0885 3.80163,12.1288 3.79358,12.1675C3.25757,13.5666 2.90085,15.1029 2.84996,16.7579C2.80428,18.181 2.98526,19.6933 3.46736,21.2764Z" style="fill:rgb(255,144,0);"/>
                <path id="Shape 2" d="M35.1285,14.2953C35.1285,14.2953 29.5787,11.7842 22.8573,10.6105C21.8893,10.4432 19.755,10.3091 18.5794,10.3548C16.5086,10.4344 16.3887,10.4381 14.2402,10.8132C11.0061,11.3739 8.64836,12.8421 7.42147,15.059C6.15243,17.3558 6.17491,20.3912 7.48583,23.6014C8.28894,25.5685 9.4717,27.2867 11.1889,28.5544C14.5448,31.032 18.9896,32.3096 23.144,31.9333C24.3527,31.824 25.6161,31.598 26.7764,31.2356C28.4902,30.6974 30.1297,29.9838 31.6611,29.0412C32.2132,28.702 32.7352,28.3229 33.2683,27.9538C38.162,24.5748 39.3258,22.3663 43.2001,21.6375C45.3952,21.2243 47.5679,21.0571 49.6931,22.1234C51.7825,23.1387 54.2689,24.0939 56.5198,23.4216C51.8491,23.2293 49.3841,17.3723 43.8981,16.3818C42.3749,15.9881 40.8562,15.9694 39.3668,16.1934C39.9877,15.9423 40.6645,15.7591 41.4388,15.6827C46.0245,15.139 48.8604,17.3399 52.742,17.1458C48.9446,15.901 45.9999,12.6269 41.7749,11.3707C41.0098,11.1548 40.1771,11.0147 39.3128,10.9659C43.6848,10.456 45.8438,11.9707 48.9969,11.5591C45.7387,10.7756 42.7537,8.47784 39.1369,7.43479C37.7979,7.04713 36.0396,6.93351 34.3508,7.41687C34.0326,7.48284 33.7319,7.59039 33.4582,7.73896C33.2189,7.84275 32.98,7.95376 32.7483,8.08594C32.6459,8.14145 32.5522,8.2063 32.4535,8.26376C33.5042,9.31914 34.2509,10.1957 34.6822,10.7327C34.8653,10.9608 35.0461,11.1948 35.2198,11.4294C35.4967,11.8082 35.5944,11.9685 35.9092,12.4937C36.661,13.7484 36.3428,14.7998 36.3428,14.7998L35.1285,14.2953ZM28.1869,25.9424C28.1199,26.9193 26.8047,28.7044 25.5228,28.6266C23.9337,28.5347 23.0799,25.7953 22.0137,24.3155C22.4804,23.6848 23.3678,23.4739 23.6543,22.6646C23.4685,19.4067 18.9897,15.9423 17.0612,19.3912C15.8018,18.2635 12.9492,17.7517 12.7302,16.1115C12.6169,15.2541 14.0088,13.3217 15.3946,13.2203C17.5317,13.066 21.0027,15.9564 23.2265,18.1371C25.3429,20.2091 28.3179,24.0743 28.1869,25.9424Z" style="fill:rgb(248,248,248);"/>
            </g>
            <g id="phonex">
                <path d="M117.224,24.2258C116.637,25.1075 115.963,25.6573 115.205,25.8786C114.444,26.0999 113.697,26.0764 112.963,25.8048C112.225,25.5366 111.712,25.2047 111.417,24.8125C110.679,23.9307 110.264,22.3751 110.167,20.1456C110.066,17.9128 110.532,16.2331 111.565,15.1067C111.907,14.7647 112.446,14.4797 113.18,14.2618C113.918,14.0405 114.652,14.0539 115.387,14.2987C116.124,14.5434 116.771,15.1067 117.338,15.9884C117.901,16.8701 118.183,18.1944 118.183,19.9579C118.132,21.9225 117.814,23.3407 117.224,24.2258ZM117.814,10.3996C116.198,9.80955 114.381,9.65198 112.373,9.92018C110.361,10.1917 108.718,11.0601 107.444,12.5319C106.66,13.4136 106.086,14.5166 105.714,15.8409C105.349,17.1652 105.164,18.4894 105.164,19.8137C105.164,21.4297 105.386,22.9886 105.828,24.4806C106.267,25.9758 107.005,27.166 108.034,28.0511C109.013,28.9295 110.327,29.5564 111.97,29.9252C113.61,30.2906 115.242,30.2537 116.858,29.8145C118.672,29.4223 120.167,28.4165 121.344,26.7972C121.884,26.016 122.326,25.0572 122.668,23.9307C123.01,22.8042 123.185,21.4531 123.185,19.8875C123.185,17.7284 122.766,15.8409 121.934,14.2216C121.049,12.4112 119.674,11.1338 117.814,10.3996Z" style="fill:rgb(248,248,248);fill-rule:nonzero;"/>
                <path d="M150.539,18.0469C150.589,16.7729 150.954,15.7939 151.642,15.1067C152.329,14.4194 153.211,14.0741 154.29,14.0741C155.467,14.0741 156.375,14.4194 157.012,15.1067C157.603,15.7437 157.944,16.7226 158.042,18.0469L150.539,18.0469ZM154.143,9.80955C151.347,9.80955 149.167,10.7181 147.598,12.5319C146.076,14.2987 145.319,16.7494 145.319,19.8875C145.319,23.1697 146.103,25.6975 147.672,27.461C149.241,29.2748 151.42,30.1833 154.216,30.1833C156.52,30.1833 158.434,29.6201 159.953,28.4903C161.471,27.4141 162.501,25.8417 163.044,23.7832L159.366,23.7832C158.776,23.7832 158.323,23.9073 158.005,24.152C157.683,24.3967 157.502,24.5912 157.452,24.7387C157.307,24.8862 157.17,25.0237 157.049,25.1444C156.925,25.2684 156.791,25.3522 156.647,25.4025C156.057,25.7445 155.343,25.9188 154.511,25.9188C153.237,25.9188 152.282,25.5232 151.642,24.7387C150.954,24.0045 150.589,22.878 150.539,21.3559L163.262,21.3559C163.312,21.2587 163.335,21.0877 163.335,20.843L163.335,20.0316C163.335,16.7964 162.551,14.2719 160.985,12.4581C159.366,10.6946 157.083,9.80955 154.143,9.80955Z" style="fill:rgb(248,248,248);fill-rule:nonzero;"/>
                <path d="M139.958,11.5026C138.141,10.3761 136.156,9.80955 134,9.80955C131.891,9.91013 129.967,10.5203 128.224,11.6501C126.484,12.7766 125.615,15.0094 125.615,18.3419L125.615,29.8145L125.689,29.8145L125.689,29.8112L128.264,29.8112C128.998,29.8112 129.602,29.5799 130.064,29.1105C130.527,28.6512 130.758,28.0544 130.762,27.3269L130.762,17.3127C130.762,16.1359 131.107,15.2776 131.794,14.7379C132.478,14.1981 133.266,13.9299 134.148,13.9299C135.029,13.9299 135.824,14.1981 136.535,14.7379C137.245,15.2776 137.601,16.1359 137.601,17.3127L137.601,27.3135C137.601,28.0511 137.836,28.6512 138.302,29.1172C138.768,29.5799 139.368,29.8145 140.105,29.8145L142.677,29.8145L142.677,18.3419C142.677,14.9089 141.772,12.6291 139.958,11.5026Z" style="fill:rgb(248,248,248);fill-rule:nonzero;"/>
                <path d="M75.6581,15.3279C75.0714,15.9146 74.0925,16.2097 72.7179,16.2097L67.6421,16.2097L67.6421,8.92781L73.0129,8.92781C74.1394,8.92781 75.048,9.22285 75.7352,9.80955C76.3219,10.5002 76.617,11.4054 76.617,12.5319C76.617,13.8561 76.2951,14.7882 75.6581,15.3279ZM73.6734,4.51579L65.0706,4.51579C64.333,4.51579 63.7094,4.77394 63.1931,5.28689C62.6802,5.80319 62.422,6.42677 62.422,7.16434L62.422,29.8145L65.141,29.8145C65.8786,29.8145 66.4787,29.5799 66.9447,29.1139C67.4107,28.6512 67.6421,28.0477 67.6421,27.3135L67.6421,23.753L67.6421,20.7692L74.0422,20.7692C76.5432,20.7692 78.4542,20.0819 79.7785,18.7107C81.1028,17.2389 81.7666,15.2307 81.7666,12.6794C81.7666,9.98388 81.0759,7.94885 79.7047,6.57429C78.3805,5.20307 76.3722,4.51579 73.6734,4.51579Z" style="fill:rgb(255,144,0);fill-rule:nonzero;"/>
                <path d="M185,8.48527L180.588,8.48527C179.559,8.48527 178.825,8.92781 178.382,9.80955L174.634,16.1359L171.251,10.2521L165.588,10.2521L171.616,19.74L165.22,29.8145L171.177,29.8145L174.778,23.6357L178.234,29.8145L184.118,29.8145L177.648,19.8137L185,8.48527Z" style="fill:rgb(255,144,0);fill-rule:nonzero;"/>
                <path d="M97.9865,10.3259C96.5147,9.73915 94.9725,9.63857 93.3532,10.0308C91.7372,10.4231 90.4867,11.3551 89.605,12.8269L89.605,7.01683C89.605,6.32955 89.3569,5.74284 88.8674,5.25001C88.3779,4.76053 87.7912,4.51579 87.1039,4.51579L84.6029,4.51579L84.6029,29.8145L87.1106,29.8145C87.8449,29.8145 88.445,29.5799 88.911,29.1139C89.3636,28.6646 89.5882,28.0846 89.605,27.3839L89.605,19.74C89.605,18.0234 89.9738,16.6757 90.708,15.6934C91.4422,14.7144 92.4983,14.2216 93.8695,14.2216C95.1435,14.2216 96.1493,14.7379 96.8835,15.7671C97.326,16.4041 97.6076,17.0311 97.7317,17.6412C97.8524,18.2581 97.9161,18.9286 97.9161,19.6662L97.9161,27.3169C97.9161,28.0511 98.1474,28.6512 98.6134,29.1139C99.0761,29.5799 99.6796,29.8145 100.414,29.8145L102.841,29.8145L102.841,18.4157C102.841,16.1594 102.375,14.3959 101.446,13.1219C100.514,11.8446 99.3611,10.9126 97.9865,10.3259Z" style="fill:rgb(248,248,248);fill-rule:nonzero;"/>
            </g>
            <g id="secure communication">
                <path d="M62.7071,40.6806C63.0451,40.9005 63.6478,41.1367 64.218,41.1367C65.0528,41.1367 65.4478,40.7213 65.4478,40.2C65.4478,39.6543 65.1179,39.353 64.2709,39.0394C63.1388,38.6362 62.6012,38.0132 62.6012,37.2516C62.6012,36.2335 63.4238,35.4028 64.7799,35.4028C65.4193,35.4028 65.9813,35.582 66.3315,35.7937L66.0464,36.6286C65.798,36.4738 65.3419,36.262 64.7555,36.262C64.0795,36.262 63.7008,36.653 63.7008,37.1213C63.7008,37.6426 64.0795,37.8788 64.898,38.1923C65.9935,38.6077 66.5555,39.1575 66.5555,40.0941C66.5555,41.2059 65.6962,41.9878 64.1935,41.9878C63.5012,41.9878 62.8659,41.8167 62.422,41.5561L62.7071,40.6806Z" style="fill:rgb(248,248,248);fill-rule:nonzero;"/>
                <path d="M72.0247,38.0865C72.0369,37.3575 71.7233,36.2254 70.4324,36.2254C69.2758,36.2254 68.7627,37.2924 68.6772,38.0865L72.0247,38.0865ZM68.6609,38.9091C68.6853,40.4606 69.6749,41.1 70.8233,41.1C71.6459,41.1 72.1387,40.9575 72.5704,40.7742L72.7658,41.5968C72.3627,41.776 71.6744,41.9878 70.6686,41.9878C68.7261,41.9878 67.5654,40.7091 67.5654,38.8032C67.5654,36.8973 68.6853,35.4028 70.526,35.4028C72.5867,35.4028 73.1324,37.215 73.1324,38.3756C73.1324,38.6077 73.1079,38.791 73.0916,38.9091L68.6609,38.9091Z" style="fill:rgb(248,248,248);fill-rule:nonzero;"/>
                <path d="M79.0454,41.6213C78.7441,41.776 78.0803,41.9878 77.2332,41.9878C75.3273,41.9878 74.0894,40.6968 74.0894,38.7665C74.0894,36.824 75.421,35.415 77.4816,35.415C78.1576,35.415 78.7563,35.582 79.0698,35.7408L78.8092,36.6286C78.5364,36.4738 78.1047,36.3272 77.4816,36.3272C76.0319,36.3272 75.25,37.3942 75.25,38.7095C75.25,40.1756 76.1866,41.0756 77.4409,41.0756C78.0925,41.0756 78.5241,40.9005 78.8459,40.7579L79.0454,41.6213Z" style="fill:rgb(248,248,248);fill-rule:nonzero;"/>
                <path d="M85.663,40.1349C85.663,40.7864 85.6752,41.3606 85.7159,41.8575L84.6978,41.8575L84.6327,40.8272L84.6042,40.8272C84.3069,41.3362 83.639,42 82.5191,42C81.5295,42 80.3445,41.4502 80.3445,39.2349L80.3445,35.5453L81.4888,35.5453L81.4888,39.0394C81.4888,40.2367 81.8553,41.0471 82.8979,41.0471C83.6675,41.0471 84.201,40.5136 84.4087,40.0045C84.4739,39.8335 84.5187,39.6258 84.5187,39.4181L84.5187,35.5453L85.663,35.5453L85.663,40.1349Z" style="fill:rgb(248,248,248);fill-rule:nonzero;"/>
                <path d="M87.5566,37.5123C87.5566,36.767 87.5444,36.1317 87.5078,35.5453L88.5136,35.5453L88.5462,36.7833L88.5992,36.7833C88.8842,35.9363 89.5806,35.4028 90.3503,35.4028C90.4806,35.4028 90.5702,35.415 90.672,35.4394L90.672,36.5227C90.558,36.4942 90.4399,36.482 90.2851,36.482C89.4747,36.482 88.9005,37.0969 88.7458,37.9561C88.7173,38.115 88.6928,38.2982 88.6928,38.4896L88.6928,41.8575L87.5566,41.8575L87.5566,37.5123Z" style="fill:rgb(248,248,248);fill-rule:nonzero;"/>
                <path d="M95.6891,38.0865C95.7013,37.3575 95.3878,36.2254 94.0968,36.2254C92.9362,36.2254 92.4272,37.2924 92.3376,38.0865L95.6891,38.0865ZM92.3254,38.9091C92.3498,40.4606 93.3435,41.1 94.4878,41.1C95.3104,41.1 95.8032,40.9575 96.2389,40.7742L96.4303,41.5968C96.0271,41.776 95.3348,41.9878 94.333,41.9878C92.3905,41.9878 91.2299,40.7091 91.2299,38.8032C91.2299,36.8973 92.3498,35.4028 94.1864,35.4028C96.2511,35.4028 96.7968,37.215 96.7968,38.3756C96.7968,38.6077 96.7724,38.791 96.7561,38.9091L92.3254,38.9091Z" style="fill:rgb(248,248,248);fill-rule:nonzero;"/>
                <path d="M105.467,41.6213C105.174,41.776 104.502,41.9878 103.659,41.9878C101.753,41.9878 100.515,40.6968 100.515,38.7665C100.515,36.824 101.842,35.415 103.903,35.415C104.583,35.415 105.182,35.582 105.495,35.7408L105.235,36.6286C104.962,36.4738 104.53,36.3272 103.903,36.3272C102.457,36.3272 101.675,37.3942 101.675,38.7095C101.675,40.1756 102.612,41.0756 103.866,41.0756C104.518,41.0756 104.946,40.9005 105.275,40.7579L105.467,41.6213Z" style="fill:rgb(248,248,248);fill-rule:nonzero;"/>
                <path d="M107.434,38.7095C107.434,40.0941 108.228,41.1367 109.352,41.1367C110.447,41.1367 111.266,40.1104 111.266,38.6851C111.266,37.6181 110.732,36.262 109.376,36.262C108.02,36.262 107.434,37.5123 107.434,38.7095ZM112.443,38.6485C112.443,40.9819 110.826,42 109.299,42C107.589,42 106.273,40.7498 106.273,38.7543C106.273,36.6367 107.654,35.4028 109.401,35.4028C111.217,35.4028 112.443,36.7182 112.443,38.6485Z" style="fill:rgb(248,248,248);fill-rule:nonzero;"/>
                <path d="M113.876,37.2516C113.876,36.6041 113.864,36.0666 113.827,35.5453L114.833,35.5453L114.882,36.5634L114.923,36.5634C115.273,35.9607 115.86,35.4028 116.906,35.4028C117.765,35.4028 118.413,35.924 118.694,36.6652L118.718,36.6652C118.914,36.315 119.162,36.0381 119.419,35.8467C119.802,35.5575 120.221,35.4028 120.816,35.4028C121.65,35.4028 122.888,35.9485 122.888,38.1394L122.888,41.8575L121.769,41.8575L121.769,38.2819C121.769,37.0724 121.325,36.3394 120.396,36.3394C119.749,36.3394 119.24,36.824 119.044,37.3819C118.991,37.5367 118.95,37.7485 118.95,37.9561L118.95,41.8575L117.831,41.8575L117.831,38.0742C117.831,37.0724 117.387,36.3394 116.511,36.3394C115.794,36.3394 115.273,36.9136 115.094,37.4878C115.025,37.6589 115,37.8543 115,38.0498L115,41.8575L113.876,41.8575L113.876,37.2516Z" style="fill:rgb(248,248,248);fill-rule:nonzero;"/>
                <path d="M124.741,37.2516C124.741,36.6041 124.725,36.0666 124.688,35.5453L125.694,35.5453L125.747,36.5634L125.784,36.5634C126.138,35.9607 126.725,35.4028 127.763,35.4028C128.626,35.4028 129.278,35.924 129.551,36.6652L129.583,36.6652C129.775,36.315 130.023,36.0381 130.284,35.8467C130.663,35.5575 131.078,35.4028 131.677,35.4028C132.511,35.4028 133.753,35.9485 133.753,38.1394L133.753,41.8575L132.629,41.8575L132.629,38.2819C132.629,37.0724 132.186,36.3394 131.265,36.3394C130.61,36.3394 130.101,36.824 129.905,37.3819C129.852,37.5367 129.811,37.7485 129.811,37.9561L129.811,41.8575L128.692,41.8575L128.692,38.0742C128.692,37.0724 128.248,36.3394 127.372,36.3394C126.659,36.3394 126.138,36.9136 125.955,37.4878C125.89,37.6589 125.865,37.8543 125.865,38.0498L125.865,41.8575L124.741,41.8575L124.741,37.2516Z" style="fill:rgb(248,248,248);fill-rule:nonzero;"/>
                <path d="M140.888,40.1349C140.888,40.7864 140.896,41.3606 140.937,41.8575L139.919,41.8575L139.858,40.8272L139.829,40.8272C139.528,41.3362 138.864,42 137.74,42C136.751,42 135.562,41.4502 135.562,39.2349L135.562,35.5453L136.71,35.5453L136.71,39.0394C136.71,40.2367 137.072,41.0471 138.119,41.0471C138.889,41.0471 139.422,40.5136 139.63,40.0045C139.699,39.8335 139.74,39.6258 139.74,39.4181L139.74,35.5453L140.888,35.5453L140.888,40.1349Z" style="fill:rgb(248,248,248);fill-rule:nonzero;"/>
                <path d="M142.782,37.2516C142.782,36.6041 142.766,36.0666 142.725,35.5453L143.743,35.5453L143.812,36.5878L143.837,36.5878C144.146,35.9892 144.879,35.4028 145.918,35.4028C146.793,35.4028 148.153,35.924 148.153,38.0865L148.153,41.8575L147.001,41.8575L147.001,38.2168C147.001,37.2028 146.626,36.3516 145.543,36.3516C144.785,36.3516 144.203,36.8892 144.004,37.5245C143.955,37.667 143.926,37.8666 143.926,38.058L143.926,41.8575L142.782,41.8575L142.782,37.2516Z" style="fill:rgb(248,248,248);fill-rule:nonzero;"/>
                <path d="M150.01,41.8575L150.01,35.5453L151.155,35.5453L151.155,41.8575L150.01,41.8575ZM151.285,33.7738C151.297,34.1607 151.016,34.4743 150.556,34.4743C150.153,34.4743 149.864,34.1607 149.864,33.7738C149.864,33.3666 150.161,33.053 150.58,33.053C151.016,33.053 151.285,33.3666 151.285,33.7738Z" style="fill:rgb(248,248,248);fill-rule:nonzero;"/>
                <path d="M157.556,41.6213C157.255,41.776 156.591,41.9878 155.74,41.9878C153.838,41.9878 152.6,40.6968 152.6,38.7665C152.6,36.824 153.928,35.415 155.989,35.415C156.669,35.415 157.267,35.582 157.581,35.7408L157.32,36.6286C157.047,36.4738 156.616,36.3272 155.989,36.3272C154.543,36.3272 153.761,37.3942 153.761,38.7095C153.761,40.1756 154.698,41.0756 155.952,41.0756C156.603,41.0756 157.031,40.9005 157.361,40.7579L157.556,41.6213Z" style="fill:rgb(248,248,248);fill-rule:nonzero;"/>
                <path d="M162.215,38.6362C160.965,38.6077 159.544,38.8276 159.544,40.0575C159.544,40.7987 160.036,41.1489 160.627,41.1489C161.45,41.1489 161.971,40.6317 162.154,40.0941C162.191,39.976 162.215,39.8457 162.215,39.7276L162.215,38.6362ZM162.386,41.8575L162.297,41.0593L162.26,41.0593C161.906,41.5561 161.226,42 160.326,42C159.051,42 158.395,41.1 158.395,40.1878C158.395,38.6647 159.751,37.8258 162.191,37.8381L162.191,37.7077C162.191,37.1865 162.048,36.2498 160.753,36.2498C160.167,36.2498 159.556,36.4331 159.112,36.7182L158.851,35.9607C159.369,35.6227 160.13,35.4028 160.924,35.4028C162.855,35.4028 163.327,36.7182 163.327,37.9847L163.327,40.3426C163.327,40.8882 163.351,41.4258 163.429,41.8575L162.386,41.8575Z" style="fill:rgb(248,248,248);fill-rule:nonzero;"/>
                <path d="M166.495,33.729L166.495,35.5453L168.14,35.5453L168.14,36.4168L166.495,36.4168L166.495,39.8213C166.495,40.6032 166.715,41.0471 167.359,41.0471C167.656,41.0471 167.88,41.0063 168.022,40.9697L168.079,41.829C167.855,41.9226 167.501,41.9878 167.061,41.9878C166.528,41.9878 166.096,41.8167 165.819,41.5032C165.493,41.1652 165.379,40.6032 165.379,39.862L165.379,36.4168L164.402,36.4168L164.402,35.5453L165.379,35.5453L165.379,34.0304L166.495,33.729Z" style="fill:rgb(248,248,248);fill-rule:nonzero;"/>
                <path d="M169.427,41.8575L169.427,35.5453L170.572,35.5453L170.572,41.8575L169.427,41.8575ZM170.706,33.7738C170.718,34.1607 170.429,34.4743 169.977,34.4743C169.57,34.4743 169.285,34.1607 169.285,33.7738C169.285,33.3666 169.586,33.053 170.002,33.053C170.429,33.053 170.706,33.3666 170.706,33.7738Z" style="fill:rgb(248,248,248);fill-rule:nonzero;"/>
                <path d="M173.178,38.7095C173.178,40.0941 173.98,41.1367 175.096,41.1367C176.196,41.1367 177.014,40.1104 177.014,38.6851C177.014,37.6181 176.481,36.262 175.125,36.262C173.768,36.262 173.178,37.5123 173.178,38.7095ZM178.187,38.6485C178.187,40.9819 176.57,42 175.047,42C173.337,42 172.017,40.7498 172.017,38.7543C172.017,36.6367 173.402,35.4028 175.149,35.4028C176.961,35.4028 178.187,36.7182 178.187,38.6485Z" style="fill:rgb(248,248,248);fill-rule:nonzero;"/>
                <path d="M179.624,37.2516C179.624,36.6041 179.612,36.0666 179.576,35.5453L180.59,35.5453L180.659,36.5878L180.683,36.5878C180.993,35.9892 181.726,35.4028 182.764,35.4028C183.644,35.4028 185,35.924 185,38.0865L185,41.8575L183.852,41.8575L183.852,38.2168C183.852,37.2028 183.473,36.3516 182.39,36.3516C181.636,36.3516 181.05,36.8892 180.85,37.5245C180.801,37.667 180.773,37.8666 180.773,38.058L180.773,41.8575L179.624,41.8575L179.624,37.2516Z" style="fill:rgb(248,248,248);fill-rule:nonzero;"/>
            </g>
        </g>
    </g>
</svg>
