<?xml version="1.0" standalone="no"?>
<!DOCTYPE svg PUBLIC "-//W3C//DTD SVG 1.1//EN" "http://www.w3.org/Graphics/SVG/1.1/DTD/svg11.dtd">
<svg width="26px" height="26px" viewBox="0 0 212 212" version="1.1" xmlns="http://www.w3.org/2000/svg" xmlns:xlink="http://www.w3.org/1999/xlink" xml:space="preserve" style="fill-rule:evenodd;clip-rule:evenodd;stroke-linejoin:round;stroke-miterlimit:1.41421;">
    <g id="Layer_5_51_">
        <path d="M106.327,88.032L105.938,88.0317L105.514,88.0297L105.289,88.0275L105.057,88.0243L104.818,88.0198L104.572,88.0138L104.32,88.0061L104.061,87.9964L103.797,87.9847L103.527,87.9706L103.253,87.9539L102.974,87.9344L102.691,87.912L102.548,87.8996L102.404,87.8864L102.259,87.8723L102.114,87.8573L101.967,87.8415L101.82,87.8247L101.673,87.8069L101.525,87.7882L101.376,87.7684L101.227,87.7476L101.077,87.7257L100.927,87.7028L100.777,87.6787L100.626,87.6535L100.475,87.6271L100.324,87.5995L100.173,87.5707L100.021,87.5406L99.8697,87.5092L99.7182,87.4766L99.5668,87.4426L99.4155,87.4072L99.2643,87.3705L99.1133,87.3323L98.9625,87.2927L98.812,87.2517L98.6618,87.2091L98.512,87.165L98.3627,87.1194L98.2138,87.0722L98.0655,87.0234L97.9177,86.973L97.7706,86.9209L97.6241,86.8672L97.4784,86.8117L97.3334,86.7545L97.1893,86.6956L97.046,86.6348L96.9037,86.5723L96.7623,86.5079L96.6219,86.4416L96.4826,86.3735L96.3444,86.3034L96.2073,86.2314L96.0715,86.1574L95.937,86.0814L95.8037,86.0034L95.6718,85.9233L95.5413,85.8412L95.4123,85.757L95.2847,85.6706L95.1587,85.582L95.0344,85.4913L94.9116,85.3983L94.7906,85.3032L94.6713,85.2057L94.5538,85.106L94.4381,85.0039L94.381,84.952L94.3244,84.8995L94.2682,84.8464L94.2126,84.7927L94.1574,84.7384L94.1027,84.6835L94.0486,84.628L93.995,84.5719L93.9418,84.5152L93.8893,84.4579L93.8372,84.3999L93.7857,84.3413L93.7347,84.2821L93.6843,84.2223L93.6345,84.1618L93.5852,84.1007L93.5365,84.039L93.4883,83.9766L93.4408,83.9136L93.3938,83.8499L93.3474,83.7855L93.3016,83.7205L93.2565,83.6549L93.2119,83.5886L93.168,83.5216L93.1247,83.4539L93.082,83.3856L93.04,83.3166L92.9986,83.2469L92.9578,83.1765L92.9177,83.1055L92.8783,83.0337L92.8396,82.9613L92.8015,82.8882L92.7641,82.8143L92.7274,82.7398L92.6913,82.6645L92.656,82.5886L92.6214,82.5119L92.5875,82.4345L92.5543,82.3564L92.5218,82.2776L92.4901,82.1981L92.4591,82.1178L92.4288,82.0368L92.3993,81.955L92.3705,81.8725L92.3425,81.7893L92.3153,81.7053L92.2888,81.6206L92.2631,81.5351L92.2382,81.4488L92.2141,81.3618L92.1908,81.2741L92.1683,81.1856L92.1466,81.0963L92.1257,81.0062L92.1056,80.9153L92.0864,80.8237L92.068,80.7313L92.0504,80.6381L92.0336,80.5441L92.0178,80.4493L92.0027,80.3537L91.9886,80.2574L91.9753,80.1602L91.9629,80.0622L91.9514,79.9634L91.9407,79.8638L91.931,79.7634L91.9221,79.6621L91.9142,79.56L91.9071,79.4571L91.901,79.3534L91.8958,79.2489L91.8916,79.1435L91.8882,79.0372L91.8859,78.9301L91.8844,78.8222L91.8839,78.7134L91.8839,9.31855L91.8844,9.20978L91.8859,9.10185L91.8882,8.99477L91.8916,8.88853L91.8958,8.78314L91.901,8.67858L91.9071,8.57485L91.9142,8.47195L91.9221,8.36988L91.931,8.26864L91.9407,8.16821L91.9514,8.0686L91.9629,7.9698L91.9753,7.87181L91.9886,7.77463L92.0027,7.67825L92.0178,7.58267L92.0336,7.48789L92.0504,7.3939L92.068,7.3007L92.0864,7.20829L92.1056,7.11666L92.1257,7.02581L92.1466,6.93574L92.1683,6.84643L92.1908,6.7579L92.2141,6.67014L92.2382,6.58314L92.2631,6.4969L92.2888,6.41141L92.3153,6.32668L92.3425,6.2427L92.3705,6.15947L92.3993,6.07698L92.4288,5.99522L92.4591,5.91421L92.4901,5.83393L92.5218,5.75437L92.5543,5.67555L92.5875,5.59744L92.6214,5.52006L92.656,5.4434L92.6913,5.36744L92.7274,5.2922L92.7641,5.21766L92.8015,5.14383L92.8396,5.07069L92.8783,4.99826L92.9177,4.92651L92.9578,4.85546L92.9986,4.78509L93.04,4.71541L93.082,4.6464L93.1247,4.57807L93.168,4.51042L93.2119,4.44343L93.2565,4.37711L93.3016,4.31146L93.3474,4.24646L93.3938,4.18212L93.4408,4.11844L93.4883,4.0554L93.5365,3.99301L93.5852,3.93126L93.6345,3.87016L93.6843,3.80969L93.7347,3.74985L93.7857,3.69064L93.8372,3.63206L93.8893,3.57411L93.9418,3.51677L93.995,3.46005L94.0486,3.40394L94.1027,3.34844L94.1574,3.29355L94.2126,3.23926L94.2682,3.18557L94.3244,3.13248L94.381,3.07998L94.4381,3.02807L94.5538,2.92601L94.6713,2.82627L94.7906,2.72882L94.9116,2.63364L95.0344,2.5407L95.1587,2.44997L95.2847,2.36142L95.4123,2.27504L95.5413,2.19079L95.6718,2.10864L95.8037,2.02857L95.937,1.95056L96.0715,1.87457L96.2073,1.80059L96.3444,1.72857L96.4826,1.6585L96.6219,1.59035L96.7623,1.5241L96.9037,1.45971L97.046,1.39716L97.1893,1.33642L97.3334,1.27747L97.4784,1.22028L97.6241,1.16482L97.7706,1.11107L97.9177,1.05899L98.0655,1.00857L98.2138,0.959781L98.3627,0.912588L98.512,0.866967L98.6618,0.822892L98.812,0.780338L98.9625,0.739276L99.1133,0.699681L99.2643,0.661525L99.4155,0.624782L99.5668,0.589426L99.7182,0.555429L99.8697,0.522765L100.021,0.491408L100.173,0.46133L100.324,0.432506L100.475,0.404908L100.626,0.378509L100.777,0.353284L100.927,0.329205L101.077,0.306246L101.227,0.28438L101.376,0.26358L101.525,0.24382L101.673,0.225073L101.82,0.207313L101.967,0.190512L102.114,0.174645L102.259,0.159684L102.404,0.145602L102.548,0.132374L102.691,0.119973L102.974,0.0975422L103.253,0.0780978L103.527,0.061426L103.797,0.0473137L104.061,0.0355475L104.32,0.0259141L104.572,0.0182003L104.818,0.0121928L105.057,0.00767825L105.289,0.00444343L105.514,0.00227504L105.938,0.00028438L106.327,2.92115e-19L106.716,0.00028438L107.14,0.00227504L107.364,0.00444343L107.596,0.00767825L107.835,0.0121928L108.081,0.0182003L108.334,0.0259141L108.593,0.0355475L108.857,0.0473137L109.126,0.061426L109.401,0.0780978L109.68,0.0975422L109.963,0.119973L110.106,0.132374L110.25,0.145602L110.395,0.159684L110.54,0.174645L110.686,0.190512L110.833,0.207313L110.981,0.225073L111.129,0.24382L111.278,0.26358L111.427,0.28438L111.576,0.306246L111.727,0.329205L111.877,0.353284L112.028,0.378509L112.179,0.404908L112.33,0.432506L112.481,0.46133L112.632,0.491408L112.784,0.522765L112.935,0.555429L113.087,0.589426L113.238,0.624782L113.389,0.661525L113.54,0.699681L113.691,0.739276L113.842,0.780338L113.992,0.822892L114.142,0.866967L114.291,0.912588L114.44,0.959781L114.588,1.00857L114.736,1.05899L114.883,1.11107L115.029,1.16482L115.175,1.22028L115.32,1.27747L115.464,1.33642L115.608,1.39716L115.75,1.45971L115.891,1.5241L116.032,1.59035L116.171,1.6585L116.309,1.72857L116.446,1.80059L116.582,1.87457L116.717,1.95056L116.85,2.02857L116.982,2.10864L117.112,2.19079L117.241,2.27504L117.369,2.36142L117.495,2.44997L117.619,2.5407L117.742,2.63364L117.863,2.72882L117.982,2.82627L118.1,2.92601L118.215,3.02807L118.273,3.07998L118.329,3.13248L118.385,3.18557L118.441,3.23926L118.496,3.29355L118.551,3.34844L118.605,3.40394L118.659,3.46005L118.712,3.51677L118.764,3.57411L118.816,3.63206L118.868,3.69064L118.919,3.74985L118.969,3.80969L119.019,3.87016L119.068,3.93126L119.117,3.99301L119.165,4.0554L119.213,4.11844L119.26,4.18212L119.306,4.24646L119.352,4.31146L119.397,4.37711L119.442,4.44343L119.486,4.51042L119.529,4.57807L119.572,4.6464L119.614,4.71541L119.655,4.78509L119.696,4.85546L119.736,4.92651L119.775,4.99826L119.814,5.07069L119.852,5.14383L119.889,5.21766L119.926,5.2922L119.962,5.36744L119.998,5.4434L120.032,5.52006L120.066,5.59744L120.099,5.67555L120.132,5.75437L120.163,5.83393L120.194,5.91421L120.225,5.99522L120.254,6.07698L120.283,6.15947L120.311,6.2427L120.338,6.32668L120.365,6.41141L120.39,6.4969L120.415,6.58314L120.439,6.67014L120.463,6.7579L120.485,6.84643L120.507,6.93574L120.528,7.02581L120.548,7.11666L120.567,7.20829L120.586,7.3007L120.603,7.3939L120.62,7.48789L120.636,7.58267L120.651,7.67825L120.665,7.77463L120.678,7.87181L120.691,7.9698L120.702,8.0686L120.713,8.16821L120.723,8.26864L120.731,8.36988L120.739,8.47195L120.746,8.57485L120.753,8.67858L120.758,8.78314L120.762,8.88853L120.765,8.99477L120.768,9.10185L120.769,9.20978L120.77,9.31855L120.77,78.7134L120.769,78.8222L120.768,78.9301L120.765,79.0372L120.762,79.1435L120.758,79.2489L120.753,79.3534L120.746,79.4571L120.739,79.56L120.731,79.6621L120.723,79.7634L120.713,79.8638L120.702,79.9634L120.691,80.0622L120.678,80.1602L120.665,80.2574L120.651,80.3537L120.636,80.4493L120.62,80.5441L120.603,80.6381L120.586,80.7313L120.567,80.8237L120.548,80.9153L120.528,81.0062L120.507,81.0963L120.485,81.1856L120.463,81.2741L120.439,81.3618L120.415,81.4488L120.39,81.5351L120.365,81.6206L120.338,81.7053L120.311,81.7893L120.283,81.8725L120.254,81.955L120.225,82.0368L120.194,82.1178L120.163,82.1981L120.132,82.2776L120.099,82.3564L120.066,82.4345L120.032,82.5119L119.998,82.5886L119.962,82.6645L119.926,82.7398L119.889,82.8143L119.852,82.8882L119.814,82.9613L119.775,83.0337L119.736,83.1055L119.696,83.1765L119.655,83.2469L119.614,83.3166L119.572,83.3856L119.529,83.4539L119.486,83.5216L119.442,83.5886L119.397,83.6549L119.352,83.7205L119.306,83.7855L119.26,83.8499L119.213,83.9136L119.165,83.9766L119.117,84.039L119.068,84.1007L119.019,84.1618L118.969,84.2223L118.919,84.2821L118.868,84.3413L118.816,84.3999L118.764,84.4579L118.712,84.5152L118.659,84.5719L118.605,84.628L118.551,84.6835L118.496,84.7384L118.441,84.7927L118.385,84.8464L118.329,84.8995L118.273,84.952L118.215,85.0039L118.1,85.106L117.982,85.2057L117.863,85.3032L117.742,85.3983L117.619,85.4913L117.495,85.582L117.369,85.6706L117.241,85.757L117.112,85.8412L116.982,85.9233L116.85,86.0034L116.717,86.0814L116.582,86.1574L116.446,86.2314L116.309,86.3034L116.171,86.3735L116.032,86.4416L115.891,86.5079L115.75,86.5723L115.608,86.6348L115.464,86.6956L115.32,86.7545L115.175,86.8117L115.029,86.8672L114.883,86.9209L114.736,86.973L114.588,87.0234L114.44,87.0722L114.291,87.1194L114.142,87.165L113.992,87.2091L113.842,87.2517L113.691,87.2927L113.54,87.3323L113.389,87.3705L113.238,87.4072L113.087,87.4426L112.935,87.4766L112.784,87.5092L112.632,87.5406L112.481,87.5707L112.33,87.5995L112.179,87.6271L112.028,87.6535L111.877,87.6787L111.727,87.7028L111.576,87.7257L111.427,87.7476L111.278,87.7684L111.129,87.7882L110.981,87.8069L110.833,87.8247L110.686,87.8415L110.54,87.8573L110.395,87.8723L110.25,87.8864L110.106,87.8996L109.963,87.912L109.68,87.9344L109.401,87.9539L109.126,87.9706L108.857,87.9847L108.593,87.9964L108.334,88.0061L108.081,88.0138L107.835,88.0198L107.596,88.0243L107.364,88.0275L107.14,88.0297L106.716,88.0317L106.327,88.032Z" style="fill:rgb(210,210,210);"/>
        <path d="M106.326,212.651L105.983,212.651L105.64,212.649L105.297,212.647L104.954,212.643L104.612,212.639L104.27,212.633L103.928,212.627L103.586,212.62L103.245,212.611L102.904,212.602L102.563,212.591L102.222,212.58L101.882,212.568L101.542,212.554L101.202,212.54L100.863,212.525L100.524,212.509L100.185,212.491L99.8462,212.473L99.5079,212.454L99.1698,212.434L98.8321,212.413L98.4946,212.391L98.1574,212.368L97.8205,212.344L97.4839,212.319L97.1476,212.293L96.8115,212.266L96.4758,212.239L96.1404,212.21L95.8053,212.18L95.4704,212.15L95.1359,212.118L94.8017,212.085L94.4678,212.052L94.1342,212.018L93.8009,211.982L93.4679,211.946L93.1352,211.909L92.8028,211.87L92.4708,211.831L92.1391,211.791L91.8077,211.75L91.4766,211.708L91.1458,211.666L90.8154,211.622L90.4853,211.577L90.1555,211.532L89.826,211.485L89.4969,211.438L89.1681,211.389L88.8396,211.34L88.5115,211.29L88.1837,211.238L87.8563,211.186L87.5292,211.133L87.2024,211.08L86.876,211.025L86.5499,210.969L86.2242,210.912L85.8988,210.855L85.5738,210.797L85.2491,210.737L84.9248,210.677L84.6008,210.616L84.2772,210.554L83.9539,210.491L83.631,210.427L83.3085,210.362L82.9863,210.297L82.6645,210.23L82.3431,210.163L82.022,210.095L81.7013,210.025L81.381,209.955L81.061,209.884L80.7415,209.813L80.4223,209.74L80.1035,209.666L79.785,209.592L79.467,209.517L79.1493,209.44L78.832,209.363L78.5151,209.285L78.1986,209.207L77.8824,209.127L77.5667,209.046L77.2514,208.965L76.9364,208.883L76.6219,208.8L76.3077,208.716L75.994,208.631L75.6806,208.545L75.3677,208.458L75.0551,208.371L74.743,208.283L74.4312,208.194L74.1199,208.104L73.809,208.013L73.4985,207.921L73.1884,207.829L72.8788,207.735L72.5695,207.641L72.2607,207.546L71.9523,207.45L71.6443,207.353L71.3367,207.256L71.0296,207.157L70.7229,207.058L70.4166,206.958L70.1108,206.857L69.8054,206.755L69.5004,206.653L69.1959,206.549L68.8917,206.445L68.5881,206.34L68.2849,206.234L67.9821,206.128L67.6797,206.02L67.3778,205.912L67.0764,205.803L66.7754,205.693L66.4749,205.582L66.1748,205.47L65.8751,205.358L65.5759,205.245L65.2772,205.131L64.9789,205.016L64.6811,204.9L64.3838,204.784L64.0869,204.667L63.7905,204.549L63.4945,204.43L63.1991,204.31L62.9041,204.19L62.6095,204.069L62.3155,203.947L62.0219,203.824L61.7288,203.7L61.4361,203.576L61.144,203.451L60.8523,203.325L60.5611,203.198L60.2704,203.071L59.9802,202.942L59.6905,202.813L59.4012,202.684L59.1125,202.553L58.8242,202.422L58.5365,202.289L58.2492,202.156L57.9625,202.023L57.6762,201.888L57.3905,201.753L57.1052,201.617L56.8204,201.48L56.5362,201.343L56.2525,201.205L55.9692,201.066L55.6865,200.926L55.4043,200.785L55.1226,200.644L54.8415,200.502L54.5608,200.359L54.2807,200.215L54.0011,200.071L53.722,199.926L53.4434,199.78L53.1654,199.634L52.8879,199.486L52.6109,199.338L52.3345,199.19L52.0585,199.04L51.7832,198.89L51.5083,198.739L51.234,198.587L50.9602,198.435L50.687,198.282L50.4143,198.128L50.1422,197.973L49.8706,197.818L49.5995,197.662L49.3291,197.505L49.0591,197.347L48.7897,197.189L48.5209,197.03L48.2526,196.87L47.9849,196.71L47.7177,196.549L47.4511,196.387L47.1851,196.225L46.9196,196.061L46.6547,195.897L46.3903,195.733L46.1265,195.567L45.8633,195.401L45.6007,195.234L45.3386,195.067L45.0772,194.899L44.8163,194.73L44.5559,194.56L44.2962,194.39L44.037,194.219L43.7784,194.048L43.5204,193.875L43.263,193.702L43.0062,193.528L42.75,193.354L42.4944,193.179L42.2393,193.003L41.9849,192.827L41.731,192.65L41.4778,192.472L41.2251,192.293L40.9731,192.114L40.7216,191.934L40.4708,191.754L40.2205,191.573L39.9709,191.391L39.7219,191.208L39.4735,191.025L39.2257,190.841L38.9785,190.657L38.732,190.472L38.486,190.286L38.2407,190.099L37.996,189.912L37.7519,189.724L37.5085,189.536L37.2657,189.347L37.0235,189.157L36.7819,188.967L36.541,188.776L36.3007,188.584L36.061,188.392L35.822,188.199L35.5836,188.005L35.3458,187.811L35.1087,187.616L34.8722,187.42L34.6364,187.224L34.4012,187.027L34.1667,186.83L33.9328,186.632L33.6996,186.433L33.467,186.234L33.2351,186.034L33.0038,185.833L32.7732,185.632L32.5433,185.43L32.314,185.228L32.0854,185.025L31.8574,184.821L31.6301,184.617L31.4035,184.412L31.1775,184.206L30.9522,184L30.7276,183.793L30.5037,183.586L30.2804,183.378L30.0578,183.169L29.8359,182.96L29.6147,182.75L29.3942,182.54L29.1743,182.329L28.9551,182.117L28.7367,181.905L28.5189,181.692L28.3018,181.479L28.0853,181.265L27.8696,181.05L27.6546,180.835L27.4403,180.619L27.2266,180.403L27.0137,180.186L26.8015,179.969L26.59,179.751L26.3791,179.532L26.169,179.313L25.9596,179.093L25.7509,178.873L25.543,178.652L25.3357,178.43L25.1292,178.208L24.9233,177.985L24.7182,177.762L24.5138,177.538L24.3101,177.314L24.1072,177.089L23.905,176.863L23.7035,176.637L23.5027,176.411L23.3027,176.183L23.1034,175.956L22.9048,175.727L22.707,175.498L22.5099,175.269L22.3135,175.039L22.1179,174.809L21.923,174.578L21.7289,174.346L21.5355,174.114L21.3428,173.881L21.1509,173.648L20.9598,173.414L20.7694,173.18L20.5797,172.945L20.3909,172.71L20.2027,172.474L20.0154,172.237L19.8287,172L19.6429,171.763L19.4578,171.525L19.2735,171.286L19.0899,171.047L18.9071,170.807L18.7251,170.567L18.5439,170.327L18.3634,170.085L18.1837,169.844L18.0047,169.601L17.8266,169.359L17.6492,169.115L17.4726,168.872L17.2968,168.627L17.1218,168.383L16.9476,168.137L16.7741,167.892L16.6015,167.645L16.4296,167.399L16.2585,167.151L16.0883,166.903L15.9188,166.655L15.7501,166.406L15.5822,166.157L15.4151,165.907L15.2488,165.657L15.0833,165.406L14.9187,165.155L14.7548,164.903L14.5917,164.651L14.4295,164.398L14.2681,164.145L14.1074,163.891L13.9476,163.637L13.7886,163.383L13.6305,163.128L13.4731,162.872L13.3166,162.616L13.1609,162.359L13.006,162.102L12.852,161.845L12.6987,161.587L12.5464,161.329L12.3948,161.07L12.2441,160.81L12.0942,160.551L11.9451,160.29L11.7969,160.03L11.6495,159.768L11.503,159.507L11.3573,159.245L11.2125,158.982L11.0685,158.719L10.9253,158.456L10.783,158.192L10.6416,157.928L10.501,157.663L10.3612,157.398L10.2224,157.132L10.0843,156.866L9.94717,156.599L9.81087,156.332L9.67543,156.065L9.54086,155.797L9.40715,155.529L9.27431,155.26L9.14234,154.991L9.01124,154.721L8.88102,154.451L8.75167,154.181L8.62319,153.91L8.4956,153.639L8.36888,153.367L8.24305,153.095L8.1181,152.822L7.99403,152.549L7.87085,152.276L7.74856,152.002L7.62715,151.728L7.50664,151.453L7.38702,151.178L7.2683,150.903L7.15047,150.627L7.03354,150.351L6.91751,150.074L6.80238,149.797L6.68815,149.519L6.57482,149.242L6.46241,148.963L6.3509,148.685L6.2403,148.406L6.13061,148.126L6.02183,147.846L5.91397,147.566L5.80702,147.286L5.70099,147.005L5.59588,146.723L5.49169,146.441L5.38842,146.159L5.28608,145.877L5.18466,145.594L5.08417,145.311L4.98461,145.027L4.88598,144.743L4.78829,144.458L4.69152,144.174L4.59569,143.888L4.5008,143.603L4.40685,143.317L4.31384,143.031L4.22177,142.744L4.13064,142.457L4.04046,142.17L3.95123,141.882L3.86294,141.594L3.77561,141.306L3.68923,141.017L3.6038,140.728L3.51932,140.438L3.43581,140.148L3.35325,139.858L3.27165,139.568L3.19102,139.277L3.11134,138.986L3.03264,138.694L2.9549,138.402L2.87813,138.11L2.80232,137.817L2.72749,137.524L2.65364,137.231L2.58076,136.937L2.50885,136.643L2.43792,136.349L2.36798,136.055L2.29901,135.76L2.23103,135.464L2.16403,135.169L2.09802,134.873L2.033,134.577L1.96897,134.28L1.90593,133.983L1.84388,133.686L1.78283,133.389L1.72277,133.091L1.66371,132.793L1.60565,132.494L1.54859,132.195L1.49254,131.896L1.43749,131.597L1.38345,131.297L1.33041,130.997L1.27838,130.697L1.22737,130.396L1.17736,130.096L1.12838,129.794L1.0804,129.493L1.03345,129.191L0.987516,128.889L0.942603,128.587L0.898712,128.284L0.855845,127.981L0.814004,127.678L0.773191,127.374L0.733407,127.071L0.694654,126.766L0.656934,126.462L0.620248,126.157L0.584598,125.852L0.549985,125.547L0.516411,125.242L0.483878,124.936L0.452388,124.63L0.421941,124.324L0.39254,124.017L0.364187,123.71L0.336883,123.403L0.310629,123.096L0.285427,122.788L0.26128,122.48L0.238188,122.172L0.216153,121.864L0.195177,121.555L0.175261,121.246L0.156408,120.937L0.138618,120.627L0.121894,120.318L0.106237,120.008L0.0916486,119.697L0.0781306,119.387L0.0656845,119.076L0.0543121,118.765L0.044015,118.454L0.0347948,118.143L0.0266532,117.831L0.0195918,117.519L0.0136123,117.207L0.00871624,116.895L0.00490535,116.582L0.00218125,116.269L0.000545587,115.956L-8.17124e-14,115.643L0.000962483,115.242L0.00384797,114.841L0.00865354,114.441L0.0153762,114.041L0.0240131,113.641L0.0345613,113.241L0.0470178,112.841L0.0613797,112.442L0.077644,112.042L0.0958079,111.643L0.115868,111.245L0.137822,110.846L0.161667,110.448L0.1874,110.05L0.215017,109.652L0.244516,109.254L0.275895,108.857L0.309149,108.46L0.344276,108.063L0.381274,107.666L0.420139,107.27L0.460868,106.874L0.503458,106.478L0.547907,106.083L0.594211,105.687L0.642368,105.293L0.692374,104.898L0.744228,104.504L0.797924,104.11L0.853462,103.716L0.910837,103.323L0.970048,102.929L1.03109,102.537L1.09396,102.144L1.15866,101.752L1.22518,101.361L1.29352,100.969L1.36368,100.578L1.43565,100.187L1.50944,99.797L1.58503,99.407L1.66243,99.0174L1.74163,98.6281L1.82263,98.2392L1.90542,97.8507L1.99002,97.4625L2.0764,97.0748L2.16457,96.6874L2.25452,96.3005L2.34626,95.9139L2.43977,95.5277L2.53507,95.142L2.63213,94.7566L2.73097,94.3717L2.83157,93.9872L2.93394,93.6031L3.03807,93.2195L3.14396,92.8362L3.2516,92.4535L3.361,92.0711L3.47214,91.6893L3.58503,91.3078L3.69967,90.9268L3.81605,90.5463L3.93416,90.1663L4.05401,89.7867L4.1756,89.4076L4.29891,89.029L4.42395,88.6509L4.55071,88.2732L4.67919,87.8961L4.80939,87.5194L4.9413,87.1433L5.07493,86.7676L5.21026,86.3925L5.3473,86.0179L5.48605,85.6438L5.62649,85.2702L5.76863,84.8971L5.91246,84.5246L6.05799,84.1527L6.2052,83.7812L6.3541,83.4104L6.50468,83.04L6.65694,82.6703L6.81087,82.3011L6.96648,81.9324L7.12376,81.5643L7.28271,81.1968L7.44332,80.8299L7.60559,80.4636L7.76953,80.0978L7.93512,79.7327L8.10236,79.3681L8.27125,79.0042L8.44179,78.6408L8.61397,78.2781L8.78779,77.9159L8.96325,77.5544L9.14035,77.1935L9.31908,76.8333L9.49944,76.4737L9.68142,76.1147L9.86503,75.7563L10.0503,75.3986L10.2371,75.0416L10.4256,74.6852L10.6156,74.3295L10.8073,73.9744L11.0006,73.62L11.1955,73.2663L11.392,72.9133L11.5901,72.5609L11.7898,72.2092L11.991,71.8582L12.1939,71.508L12.3983,71.1584L12.6044,70.8095L12.812,70.4613L13.0212,70.1139L13.2319,69.7671L13.4442,69.4211L13.6581,69.0758L13.8736,68.7313L14.0906,68.3874L14.3092,68.0444L14.5294,67.702L14.751,67.3605L14.9743,67.0196L15.1991,66.6796L15.4254,66.3403L15.6533,66.0017L15.8827,65.664L16.1136,65.327L16.3461,64.9908L16.5801,64.6553L16.8157,64.3207L17.0527,63.9869L17.2913,63.6538L17.5314,63.3216L17.773,62.9902L18.0162,62.6596L18.2608,62.3298L18.5069,62.0008L18.7546,61.6727L19.0037,61.3454L19.2544,61.0189L19.5065,60.6933L19.7601,60.3685L20.0152,60.0446L20.2718,59.7215L20.5299,59.3992L20.7895,59.0779L21.0505,58.7574L21.313,58.4377L21.577,58.119L21.8425,57.8011L22.1094,57.4841L22.3778,57.1681L22.6476,56.8529L22.9189,56.5385L23.1917,56.2252L23.4659,55.9127L23.7415,55.6011L24.0186,55.2904L24.2971,54.9807L24.5771,54.6719L24.8585,54.364L25.1413,54.057L25.4256,53.751L25.7113,53.446L25.9984,53.1418L26.287,52.8387L26.5769,52.5365L26.8683,52.2352L27.1611,51.9349L27.4553,51.6356L27.7509,51.3373L28.0479,51.0399L28.3463,50.7436L28.6461,50.4482L28.9473,50.1538L29.2498,49.8604L29.5538,49.568L29.8592,49.2767L30.1659,48.9863L30.4741,48.6969L30.7836,48.4086L31.0944,48.1213L31.4067,47.835L31.7203,47.5498L32.0353,47.2656L32.3516,46.9824L32.6693,46.7003L32.9884,46.4192L33.3088,46.1392L33.6305,45.8603L33.9536,45.5824L34.2781,45.3056L34.6039,45.0298L34.931,44.7552L35.2595,44.4816L35.5893,44.2091L35.9204,43.9377L36.2529,43.6674L36.5867,43.3982L36.9218,43.1301L37.2582,42.8631L37.5959,42.5973L37.935,42.3325L38.2753,42.0689L38.617,41.8064L38.96,41.545L39.3042,41.2848L39.6498,41.0257L39.9967,40.7678L40.3448,40.511L40.6943,40.2554L41.045,40.0009L41.397,39.7476L41.7503,39.4955L42.1048,39.2445L42.4607,38.9947L42.8178,38.7461L43.1762,38.4987L43.5358,38.2525L43.8967,38.0075L44.2589,37.7636L44.6223,37.521L44.987,37.2796L45.3529,37.0394L45.7201,36.8004L46.0885,36.5627L46.4582,36.3261L46.8291,36.0908L47.2012,35.8568L47.5746,35.6239L47.9492,35.3924L48.325,35.162L48.7021,34.933L49.0804,34.7052L49.4598,34.4786L49.8405,34.2533L50.2225,34.0293L50.6056,33.8066L50.9899,33.5851L51.3755,33.365L51.7622,33.1461L52.1501,32.9285L52.5393,32.7122L52.9296,32.4973L53.3211,32.2836L53.7138,32.0712L54.1077,31.8602L54.5028,31.6505L54.899,31.4421L55.126,31.3247L55.2413,31.2661L55.3578,31.2078L55.4754,31.15L55.5941,31.0926L55.7138,31.0359L55.8346,30.98L55.9563,30.9249L56.079,30.8708L56.2026,30.8178L56.3271,30.7661L56.4524,30.7158L56.5785,30.6669L56.7054,30.6196L56.833,30.574L56.9612,30.5302L57.0901,30.4884L57.2196,30.4487L57.3497,30.4112L57.4804,30.376L57.6115,30.3432L57.7431,30.313L57.8751,30.2855L58.0074,30.2607L58.0738,30.2494L58.1402,30.2389L58.2067,30.2291L58.2732,30.22L58.3399,30.2118L58.4065,30.2044L58.4733,30.1978L58.5401,30.192L58.607,30.1871L58.6739,30.183L58.7408,30.1798L58.8078,30.1775L58.8748,30.1761L58.9418,30.1757L59.0317,30.1767L59.1326,30.1804L59.1869,30.1835L59.2436,30.1874L59.3025,30.1923L59.3637,30.1983L59.4269,30.2055L59.4921,30.2139L59.5591,30.2235L59.6279,30.2346L59.6982,30.2472L59.7701,30.2613L59.8433,30.2771L59.9178,30.2946L59.9935,30.314L60.0702,30.3352L60.1479,30.3584L60.2264,30.3836L60.3055,30.411L60.3853,30.4407L60.4655,30.4726L60.5461,30.5069L60.627,30.5437L60.708,30.5831L60.789,30.6251L60.8699,30.6698L60.9507,30.7174L61.0311,30.7678L61.1111,30.8212L61.1905,30.8776L61.2693,30.9372L61.3084,30.9682L61.3473,31L61.386,31.0327L61.4244,31.0661L61.4626,31.1005L61.5005,31.1356L61.5382,31.1717L61.5755,31.2086L61.6126,31.2464L61.6493,31.2851L61.6857,31.3247L61.7218,31.3653L61.7575,31.4067L61.7928,31.4491L61.8277,31.4925L61.8622,31.5368L61.8963,31.5821L61.93,31.6283L61.9632,31.6756L61.996,31.7239L62.0282,31.7731L62.06,31.8234L62.0913,31.8747L62.1221,31.9271L62.1523,31.9805L62.182,32.035L62.2111,32.0906L62.2396,32.1472L62.2676,32.205L62.2949,32.2638L62.3217,32.3238L62.3478,32.3848L62.3732,32.4471L62.398,32.5104L62.4221,32.575L62.4456,32.6406L62.4683,32.7075L62.4903,32.7756L62.5116,32.8448L62.5321,32.9153L62.5519,32.987L62.5709,33.0599L62.5891,33.134L62.6065,33.2094L62.6231,33.2861L62.6388,33.364L62.6538,33.4433L62.6678,33.5238L62.681,33.6056L62.6933,33.6887L62.7047,33.7731L62.7152,33.8589L62.7247,33.946L62.7333,34.0345L62.7409,34.1243L62.7476,34.2156L62.7533,34.3082L62.758,34.4021L62.7616,34.4975L62.7643,34.5944L62.7659,34.6926L62.7664,34.7923L62.7664,51.6544L62.7658,51.7505L62.7639,51.8462L62.7609,51.9413L62.7566,52.036L62.7511,52.1302L62.7445,52.2239L62.7368,52.3171L62.7279,52.4098L62.7179,52.502L62.7068,52.5938L62.6946,52.685L62.6813,52.7757L62.667,52.8659L62.6517,52.9556L62.6354,53.0449L62.618,53.1336L62.5997,53.2217L62.5804,53.3094L62.5601,53.3966L62.539,53.4832L62.5169,53.5694L62.4939,53.655L62.47,53.74L62.4452,53.8246L62.4196,53.9086L62.3932,53.9921L62.3659,54.0751L62.3379,54.1575L62.309,54.2394L62.2794,54.3207L62.2491,54.4015L62.218,54.4818L62.1862,54.5615L62.1536,54.6407L62.1204,54.7193L62.0866,54.7974L62.052,54.8749L62.0169,54.9519L61.9811,55.0283L61.9447,55.1041L61.9077,55.1794L61.8702,55.2541L61.7934,55.4019L61.7146,55.5473L61.6339,55.6905L61.5513,55.8313L61.467,55.9698L61.3812,56.106L61.2939,56.2398L61.2053,56.3712L61.1156,56.5002L61.0249,56.6268L60.9333,56.7509L60.8409,56.8726L60.7478,56.9918L60.6543,57.1086L60.5604,57.2228L60.4663,57.3345L60.3721,57.4437L60.2779,57.5503L60.1838,57.6544L60.0901,57.7559L59.9967,57.8547L59.904,57.951L59.8119,58.0446L59.7206,58.1355L59.6303,58.2238L59.5411,58.3093L59.4531,58.3922L59.3664,58.4724L59.2813,58.5498L59.1977,58.6244L59.1159,58.6963L59.0359,58.7654L58.958,58.8316L58.8822,58.8951L58.8087,58.9557L58.669,59.0683L58.54,59.1693L58.4227,59.2587L58.3182,59.3361L58.0909,59.5029L57.8642,59.6702L57.6383,59.8382L57.4131,60.0068L57.1886,60.176L56.9649,60.3459L56.7419,60.5163L56.5196,60.6874L56.298,60.859L56.0771,61.0313L55.857,61.2042L55.6376,61.3776L55.419,61.5517L55.2011,61.7263L54.9839,61.9016L54.7674,62.0774L54.5517,62.2539L54.3368,62.4309L54.1225,62.6085L53.9091,62.7867L53.6963,62.9654L53.4843,63.1448L53.2731,63.3247L53.0626,63.5052L52.8528,63.6862L52.6438,63.8678L52.4356,64.05L52.2281,64.2327L52.0214,64.416L51.8154,64.5999L51.6102,64.7843L51.4057,64.9692L51.202,65.1547L50.999,65.3408L50.7969,65.5274L50.5955,65.7145L50.3948,65.9022L50.1949,66.0904L49.9958,66.2792L49.7975,66.4684L49.5999,66.6582L49.4031,66.8486L49.2071,67.0394L49.0118,67.2308L48.8173,67.4227L48.6236,67.6151L48.4307,67.808L48.2386,68.0015L48.0472,68.1954L47.8566,68.3899L47.6668,68.5849L47.4778,68.7803L47.2896,68.9763L47.1022,69.1727L46.9155,69.3697L46.7297,69.5671L46.5446,69.7651L46.3604,69.9635L46.1769,70.1624L45.9942,70.3618L45.8124,70.5617L45.6313,70.762L45.451,70.9629L45.2715,71.1642L45.0929,71.3659L44.915,71.5682L44.7379,71.7709L44.5617,71.974L44.3862,72.1777L44.2116,72.3817L44.0378,72.5863L43.8648,72.7913L43.6926,72.9967L43.5212,73.2026L43.3507,73.409L43.1809,73.6157L43.012,73.823L42.8439,74.0306L42.6766,74.2387L42.5101,74.4473L42.3445,74.6562L42.1797,74.8656L42.0157,75.0754L41.8526,75.2857L41.6903,75.4963L41.5288,75.7074L41.3681,75.9189L41.2083,76.1308L41.0493,76.3432L40.8912,76.5559L40.7338,76.769L40.5774,76.9826L40.4217,77.1965L40.267,77.4109L40.113,77.6256L39.9599,77.8407L39.8077,78.0563L39.6563,78.2722L39.5057,78.4885L39.356,78.7052L39.2071,78.9223L39.0591,79.1397L38.912,79.3575L38.7657,79.5758L38.6203,79.7943L38.4757,80.0133L38.332,80.2326L38.1891,80.4523L38.0471,80.6723L37.906,80.8927L37.7658,81.1135L37.6264,81.3346L37.4878,81.5561L37.3502,81.7779L37.2134,82.0001L37.0775,82.2226L36.9424,82.4454L36.8083,82.6686L36.675,82.8922L36.5426,83.116L36.411,83.3402L36.2804,83.5648L36.1506,83.7896L36.0217,84.0148L35.8937,84.2404L35.7666,84.4662L35.6404,84.6923L35.515,84.9188L35.3906,85.1456L35.267,85.3727L35.1443,85.6001L35.0225,85.8278L34.9017,86.0558L34.7817,86.2841L34.6626,86.5128L34.5444,86.7417L34.4271,86.9709L34.3107,87.2004L34.1952,87.4302L34.0806,87.6602L33.967,87.8906L33.8542,88.1212L33.7423,88.3522L33.6314,88.5834L33.5213,88.8148L33.4122,89.0466L33.304,89.2786L33.1967,89.5109L33.0903,89.7434L32.9848,89.9762L32.8803,90.2093L32.7767,90.4426L32.674,90.6762L32.5722,90.91L32.4713,91.1441L32.3714,91.3785L32.2724,91.613L32.1743,91.8479L32.0772,92.0829L31.981,92.3182L31.8857,92.5538L31.7914,92.7895L31.6979,93.0255L31.6055,93.2617L31.5139,93.4982L31.4233,93.7349L31.3337,93.9718L31.245,94.2089L31.1572,94.4462L31.0704,94.6838L30.9845,94.9215L30.8996,95.1595L30.8156,95.3976L30.7326,95.636L30.6505,95.8746L30.5693,96.1134L30.4892,96.3523L30.41,96.5915L30.3317,96.8309L30.2544,97.0704L30.178,97.3101L30.1027,97.55L30.0282,97.7901L29.9548,98.0304L29.8823,98.2709L29.8108,98.5115L29.7402,98.7523L29.6706,98.9933L29.602,99.2344L29.5344,99.4757L29.4677,99.7172L29.402,99.9588L29.3373,100.201L29.2735,100.442L29.2108,100.685L29.149,100.927L29.0882,101.169L29.0283,101.412L28.9695,101.654L28.9117,101.897L28.8548,102.14L28.7989,102.383L28.744,102.626L28.6901,102.87L28.6372,103.113L28.5853,103.357L28.5344,103.601L28.4844,103.844L28.4355,104.088L28.3876,104.332L28.3407,104.577L28.2947,104.821L28.2498,105.065L28.2059,105.31L28.163,105.555L28.1211,105.799L28.0802,106.044L28.0403,106.289L28.0014,106.534L27.9635,106.779L27.9267,107.024L27.8908,107.27L27.856,107.515L27.8222,107.76L27.7894,108.006L27.7577,108.251L27.7269,108.497L27.6972,108.743L27.6685,108.989L27.6408,109.235L27.6142,109.48L27.5886,109.726L27.564,109.973L27.5404,110.219L27.5179,110.465L27.4964,110.711L27.476,110.957L27.4566,111.204L27.4382,111.45L27.4208,111.696L27.4045,111.943L27.3893,112.189L27.3751,112.436L27.3619,112.682L27.3498,112.929L27.3387,113.176L27.3287,113.422L27.3197,113.669L27.3118,113.916L27.3049,114.162L27.2991,114.409L27.2943,114.656L27.2906,114.902L27.2879,115.149L27.2863,115.396L27.2858,115.643L27.2862,115.876L27.2874,116.108L27.2895,116.341L27.2923,116.573L27.2959,116.806L27.3004,117.038L27.3056,117.269L27.3117,117.501L27.3185,117.733L27.3262,117.964L27.3346,118.195L27.3439,118.426L27.3539,118.657L27.3648,118.887L27.3764,119.118L27.3889,119.348L27.4021,119.578L27.4161,119.808L27.4309,120.038L27.4465,120.267L27.4629,120.496L27.48,120.726L27.498,120.954L27.5167,121.183L27.5362,121.412L27.5565,121.64L27.5776,121.868L27.5995,122.096L27.6221,122.324L27.6455,122.551L27.6697,122.778L27.6947,123.006L27.7204,123.232L27.7469,123.459L27.7742,123.686L27.8022,123.912L27.831,124.138L27.8606,124.364L27.8909,124.589L27.922,124.815L27.9539,125.04L27.9865,125.265L28.0199,125.49L28.0541,125.714L28.089,125.939L28.1246,126.163L28.1611,126.387L28.1982,126.61L28.2362,126.834L28.2748,127.057L28.3143,127.28L28.3544,127.503L28.3954,127.725L28.437,127.948L28.4794,128.17L28.5226,128.392L28.5665,128.613L28.6112,128.835L28.6565,129.056L28.7027,129.277L28.7495,129.497L28.7971,129.718L28.8455,129.938L28.8945,130.158L28.9443,130.378L28.9949,130.597L29.0462,130.816L29.0981,131.035L29.1509,131.254L29.2043,131.473L29.2585,131.691L29.3134,131.909L29.369,132.127L29.4254,132.344L29.4825,132.562L29.5403,132.779L29.5988,132.995L29.658,133.212L29.7179,133.428L29.7786,133.644L29.84,133.86L29.9021,134.075L29.9649,134.29L30.0284,134.505L30.0926,134.72L30.1575,134.934L30.2231,135.149L30.2895,135.362L30.3565,135.576L30.4242,135.789L30.4927,136.002L30.5618,136.215L30.7022,136.64L30.8454,137.064L30.9913,137.486L31.1401,137.908L31.2915,138.328L31.4458,138.747L31.6027,139.165L31.7624,139.582L31.9248,139.998L32.0899,140.413L32.2577,140.826L32.4282,141.238L32.6014,141.649L32.7773,142.059L32.9558,142.468L33.137,142.875L33.3208,143.281L33.5072,143.686L33.6962,144.09L33.8879,144.492L34.0822,144.893L34.279,145.293L34.4785,145.692L34.6805,146.089L34.885,146.485L35.0922,146.88L35.3018,147.273L35.514,147.665L35.7288,148.056L35.946,148.445L36.1657,148.833L36.388,149.22L36.6127,149.605L36.8399,149.989L37.0695,150.371L37.3016,150.752L37.5362,151.132L37.7732,151.51L38.0126,151.887L38.2544,152.262L38.4987,152.636L38.7453,153.009L38.9943,153.38L39.2457,153.749L39.4995,154.117L39.7556,154.484L40.0141,154.849L40.2749,155.212L40.538,155.574L40.8034,155.935L41.0712,156.294L41.3412,156.651L41.6136,157.007L41.8882,157.361L42.1651,157.714L42.4442,158.065L42.7256,158.415L43.0093,158.763L43.2951,159.109L43.5832,159.454L43.8735,159.797L44.166,160.138L44.4607,160.478L44.7576,160.817L45.0566,161.153L45.3578,161.488L45.6612,161.821L45.9666,162.153L46.2743,162.482L46.584,162.811L46.8959,163.137L47.2098,163.462L47.5259,163.785L47.844,164.106L48.1642,164.425L48.4865,164.743L48.8108,165.059L49.1372,165.373L49.4656,165.685L49.7961,165.996L50.1285,166.305L50.4629,166.612L50.7994,166.917L51.1378,167.22L51.4782,167.522L51.8206,167.821L52.1649,168.119L52.5112,168.415L52.8594,168.709L53.2096,169.001L53.5616,169.291L53.9156,169.58L54.2714,169.866L54.6292,170.151L54.9888,170.433L55.3503,170.714L55.7136,170.993L56.0788,171.269L56.4459,171.544L56.8147,171.817L57.1854,172.088L57.5579,172.357L57.9322,172.624L58.3083,172.889L58.6862,173.151L59.0658,173.412L59.4472,173.671L59.8303,173.928L60.2152,174.182L60.6018,174.435L60.9902,174.686L61.3802,174.934L61.772,175.18L62.1654,175.425L62.5606,175.667L62.9574,175.907L63.3558,176.145L63.7559,176.381L64.1577,176.614L64.5611,176.846L64.9661,177.075L65.3727,177.303L65.781,177.528L66.1908,177.75L66.6022,177.971L67.0152,178.189L67.4297,178.406L67.8458,178.62L68.2635,178.831L68.6827,179.041L69.1034,179.248L69.5256,179.453L69.9494,179.656L70.3746,179.857L70.8013,180.055L71.2295,180.251L71.6592,180.444L72.0903,180.636L72.5229,180.824L72.9569,181.011L73.3923,181.195L73.8291,181.377L74.2674,181.557L74.7071,181.734L75.1481,181.909L75.5905,182.082L76.0343,182.252L76.4795,182.419L76.926,182.585L77.3739,182.748L77.823,182.908L78.2735,183.066L78.7253,183.222L79.1784,183.375L79.6329,183.525L80.0885,183.673L80.5455,183.819L81.0037,183.962L81.4632,184.103L81.9239,184.241L82.3858,184.377L82.849,184.51L83.3134,184.641L83.779,184.769L84.2457,184.894L84.7137,185.017L85.1828,185.138L85.6531,185.256L86.1246,185.371L86.5972,185.483L87.0709,185.593L87.5458,185.701L88.0217,185.806L88.4988,185.908L88.977,186.007L89.4562,186.104L89.9366,186.198L90.418,186.29L90.9004,186.379L91.3839,186.465L91.8685,186.549L92.3541,186.629L92.8406,186.707L93.3282,186.783L93.8168,186.855L94.3064,186.925L94.797,186.992L95.2885,187.057L95.781,187.118L96.2744,187.177L96.7688,187.233L97.2641,187.287L97.7603,187.337L98.2575,187.385L98.7555,187.43L99.2544,187.472L99.7542,187.511L100.255,187.547L100.756,187.581L101.259,187.611L101.762,187.639L102.266,187.664L102.771,187.686L103.277,187.705L103.783,187.721L104.291,187.734L104.799,187.745L105.307,187.752L105.817,187.756L106.327,187.758L106.838,187.756L107.347,187.752L107.856,187.745L108.364,187.734L108.872,187.721L109.378,187.705L109.884,187.686L110.389,187.664L110.893,187.639L111.396,187.611L111.898,187.581L112.4,187.547L112.901,187.511L113.4,187.472L113.899,187.43L114.397,187.385L114.895,187.337L115.391,187.287L115.886,187.233L116.38,187.177L116.874,187.118L117.366,187.057L117.858,186.992L118.348,186.925L118.838,186.855L119.327,186.783L119.814,186.707L120.301,186.629L120.786,186.549L121.271,186.465L121.754,186.379L122.237,186.29L122.718,186.199L123.199,186.104L123.678,186.007L124.156,185.908L124.633,185.806L125.109,185.701L125.584,185.594L126.058,185.483L126.53,185.371L127.002,185.256L127.472,185.138L127.941,185.017L128.409,184.894L128.876,184.769L129.341,184.641L129.806,184.51L130.269,184.377L130.731,184.241L131.192,184.103L131.651,183.962L132.109,183.819L132.566,183.674L133.022,183.525L133.476,183.375L133.929,183.222L134.381,183.066L134.832,182.908L135.281,182.748L135.729,182.585L136.175,182.419L136.62,182.252L137.064,182.082L137.507,181.909L137.948,181.734L138.387,181.557L138.826,181.378L139.262,181.196L139.698,181.011L140.132,180.825L140.564,180.636L140.996,180.444L141.425,180.251L141.853,180.055L142.28,179.857L142.705,179.656L143.129,179.453L143.551,179.248L143.972,179.041L144.391,178.832L144.809,178.62L145.225,178.406L145.64,178.19L146.052,177.971L146.464,177.751L146.874,177.528L147.282,177.303L147.689,177.075L148.094,176.846L148.497,176.615L148.899,176.381L149.299,176.145L149.697,175.907L150.094,175.667L150.489,175.425L150.883,175.181L151.274,174.934L151.664,174.686L152.053,174.435L152.439,174.183L152.824,173.928L153.207,173.671L153.589,173.412L153.968,173.152L154.346,172.889L154.722,172.624L155.097,172.357L155.469,172.088L155.84,171.817L156.209,171.544L156.576,171.27L156.941,170.993L157.304,170.714L157.666,170.434L158.025,170.151L158.383,169.866L158.739,169.58L159.093,169.292L159.445,169.001L159.795,168.709L160.143,168.415L160.49,168.119L160.834,167.821L161.176,167.522L161.517,167.22L161.855,166.917L162.192,166.612L162.526,166.305L162.858,165.996L163.189,165.686L163.517,165.373L163.844,165.059L164.168,164.743L164.49,164.425L164.81,164.106L165.129,163.785L165.445,163.462L165.759,163.137L166.07,162.811L166.38,162.483L166.688,162.153L166.993,161.821L167.297,161.488L167.598,161.153L167.897,160.817L168.194,160.479L168.488,160.139L168.781,159.797L169.071,159.454L169.359,159.109L169.645,158.763L169.929,158.415L170.21,158.065L170.489,157.714L170.766,157.362L171.041,157.007L171.313,156.651L171.583,156.294L171.851,155.935L172.116,155.575L172.38,155.212L172.64,154.849L172.899,154.484L173.155,154.117L173.409,153.749L173.66,153.38L173.909,153.009L174.156,152.636L174.4,152.262L174.642,151.887L174.881,151.51L175.118,151.132L175.353,150.752L175.585,150.371L175.814,149.989L176.042,149.605L176.266,149.22L176.489,148.833L176.708,148.445L176.926,148.056L177.14,147.665L177.352,147.273L177.562,146.88L177.769,146.485L177.974,146.089L178.176,145.692L178.375,145.293L178.572,144.894L178.766,144.492L178.958,144.09L179.147,143.686L179.334,143.281L179.517,142.875L179.699,142.468L179.877,142.059L180.053,141.649L180.226,141.238L180.397,140.826L180.564,140.413L180.729,139.998L180.892,139.582L181.052,139.166L181.209,138.748L181.363,138.328L181.514,137.908L181.663,137.487L181.809,137.064L181.952,136.64L182.092,136.215L182.162,136.003L182.23,135.79L182.298,135.576L182.365,135.363L182.431,135.149L182.497,134.935L182.562,134.72L182.626,134.506L182.689,134.291L182.752,134.075L182.814,133.86L182.876,133.644L182.936,133.428L182.996,133.212L183.055,132.995L183.114,132.779L183.172,132.562L183.229,132.344L183.285,132.127L183.341,131.909L183.396,131.691L183.45,131.473L183.503,131.254L183.556,131.036L183.608,130.817L183.659,130.597L183.71,130.378L183.76,130.158L183.809,129.938L183.857,129.718L183.905,129.498L183.952,129.277L183.998,129.056L184.043,128.835L184.088,128.613L184.132,128.392L184.175,128.17L184.217,127.948L184.259,127.725L184.3,127.503L184.34,127.28L184.379,127.057L184.418,126.834L184.456,126.61L184.493,126.387L184.53,126.163L184.565,125.939L184.6,125.714L184.634,125.49L184.668,125.265L184.7,125.04L184.732,124.815L184.763,124.589L184.794,124.364L184.823,124.138L184.852,123.912L184.88,123.686L184.907,123.459L184.934,123.232L184.96,123.006L184.984,122.779L185.009,122.551L185.032,122.324L185.055,122.096L185.077,121.868L185.098,121.64L185.118,121.412L185.137,121.183L185.156,120.954L185.174,120.726L185.191,120.496L185.208,120.267L185.223,120.038L185.238,119.808L185.252,119.578L185.265,119.348L185.278,119.118L185.289,118.888L185.3,118.657L185.31,118.426L185.32,118.195L185.328,117.964L185.336,117.733L185.343,117.501L185.349,117.269L185.354,117.038L185.358,116.806L185.362,116.573L185.365,116.341L185.367,116.108L185.368,115.876L185.368,115.643L185.368,115.392L185.366,115.141L185.363,114.89L185.36,114.639L185.355,114.388L185.349,114.138L185.342,113.887L185.334,113.636L185.324,113.386L185.314,113.135L185.303,112.884L185.29,112.634L185.277,112.383L185.262,112.133L185.247,111.882L185.23,111.632L185.212,111.382L185.193,111.131L185.174,110.881L185.153,110.631L185.131,110.381L185.108,110.131L185.083,109.881L185.058,109.631L185.032,109.381L185.005,109.131L184.976,108.882L184.947,108.632L184.916,108.383L184.885,108.133L184.852,107.884L184.819,107.635L184.784,107.386L184.749,107.137L184.712,106.888L184.674,106.639L184.635,106.39L184.595,106.142L184.555,105.893L184.513,105.645L184.47,105.396L184.426,105.148L184.381,104.9L184.335,104.652L184.288,104.404L184.24,104.157L184.191,103.909L184.14,103.662L184.089,103.414L184.037,103.167L183.984,102.92L183.93,102.673L183.875,102.427L183.818,102.18L183.761,101.933L183.703,101.687L183.644,101.441L183.583,101.195L183.522,100.949L183.46,100.704L183.396,100.458L183.332,100.213L183.267,99.9675L183.2,99.7225L183.133,99.4777L183.065,99.233L182.996,98.9885L182.925,98.7442L182.854,98.5001L182.782,98.2561L182.708,98.0124L182.634,97.7688L182.559,97.5255L182.483,97.2823L182.405,97.0393L182.327,96.7965L182.248,96.554L182.168,96.3116L182.087,96.0694L182.005,95.8275L181.921,95.5857L181.837,95.3442L181.752,95.1029L181.666,94.8618L181.579,94.621L181.491,94.3803L181.402,94.1399L181.312,93.8997L181.222,93.6598L181.13,93.42L181.037,93.1805L180.943,92.9413L180.848,92.7023L180.753,92.4635L180.656,92.225L180.559,91.9868L180.46,91.7487L180.36,91.511L180.26,91.2735L180.159,91.0362L180.056,90.7993L179.953,90.5625L179.849,90.3261L179.743,90.0899L179.637,89.854L179.53,89.6184L179.422,89.383L179.313,89.1479L179.203,88.9131L179.092,88.6786L178.981,88.4444L178.868,88.2104L178.754,87.9768L178.64,87.7434L178.524,87.5103L178.408,87.2776L178.29,87.0451L178.172,86.8129L178.053,86.5811L177.933,86.3495L177.811,86.1183L177.689,85.8874L177.567,85.6568L177.443,85.4265L177.318,85.1965L177.192,84.9669L177.066,84.7376L176.938,84.5086L176.81,84.2799L176.681,84.0516L176.55,83.8236L176.419,83.5959L176.287,83.3686L176.154,83.1416L176.02,82.915L175.886,82.6887L175.75,82.4628L175.613,82.2372L175.476,82.012L175.338,81.7872L175.198,81.5627L175.058,81.3385L174.917,81.1148L174.775,80.8913L174.633,80.6683L174.489,80.4456L174.344,80.2234L174.199,80.0015L174.053,79.7799L173.905,79.5588L173.757,79.338L173.608,79.1176L173.458,78.8976L173.308,78.6781L173.156,78.4589L173.004,78.2401L172.85,78.0217L172.696,77.8037L172.541,77.5861L172.385,77.3689L172.228,77.1521L172.07,76.9357L171.912,76.7198L171.752,76.5042L171.592,76.2891L171.431,76.0744L171.269,75.8602L171.106,75.6463L170.942,75.4329L170.778,75.2199L170.612,75.0074L170.446,74.7953L170.279,74.5836L170.111,74.3724L169.942,74.1616L169.773,73.9513L169.602,73.7414L169.431,73.5319L169.259,73.323L169.085,73.1144L168.912,72.9064L168.737,72.6988L168.561,72.4916L168.385,72.2849L168.208,72.0787L168.03,71.873L167.851,71.6677L167.671,71.463L167.491,71.2586L167.309,71.0548L167.127,70.8515L166.944,70.6486L166.76,70.4463L166.575,70.2444L166.39,70.043L166.204,69.8421L166.017,69.6417L165.829,69.4418L165.64,69.2425L165.45,69.0436L165.26,68.8452L165.069,68.6474L164.877,68.45L164.684,68.2532L164.49,68.0569L164.296,67.8611L164.101,67.6658L163.905,67.4711L163.708,67.2769L163.51,67.0832L163.312,66.8901L163.113,66.6974L162.913,66.5054L162.712,66.3138L162.51,66.1229L162.308,65.9324L162.105,65.7425L161.901,65.5532L161.696,65.3644L161.49,65.1761L161.284,64.9885L161.077,64.8013L160.869,64.6148L160.66,64.4288L160.451,64.2434L160.241,64.0585L160.03,63.8742L159.818,63.6905L159.606,63.5074L159.392,63.3249L159.178,63.1429L158.963,62.9615L158.748,62.7807L158.531,62.6005L158.314,62.4209L158.096,62.2419L157.878,62.0635L157.658,61.8857L157.438,61.7084L157.217,61.5318L156.995,61.3558L156.773,61.1804L156.55,61.0056L156.326,60.8315L156.101,60.6579L155.875,60.485L155.649,60.3127L155.422,60.141L155.195,59.97L154.966,59.7995L154.737,59.6297L154.507,59.4606L154.276,59.292L154.045,59.1242L153.813,58.9569L153.58,58.7903L153.334,58.619L153.111,58.4644L152.99,58.3794L152.865,58.289L152.735,58.1931L152.601,58.0915L152.464,57.9842L152.394,57.9282L152.324,57.8708L152.253,57.8119L152.182,57.7514L152.111,57.6893L152.039,57.6256L151.968,57.5604L151.896,57.4935L151.824,57.4249L151.753,57.3547L151.681,57.2829L151.61,57.2093L151.539,57.134L151.468,57.0569L151.398,56.9781L151.329,56.8975L151.26,56.8151L151.192,56.7308L151.125,56.6448L151.059,56.5569L150.993,56.4671L150.929,56.3754L150.866,56.2818L150.804,56.1862L150.743,56.0887L150.684,55.9892L150.626,55.8878L150.57,55.7843L150.516,55.6788L150.463,55.5712L150.412,55.4616L150.363,55.3499L150.315,55.236L150.27,55.1201L150.227,55.002L150.186,54.8817L150.147,54.7592L150.111,54.6345L150.077,54.5076L150.061,54.4434L150.046,54.3785L150.031,54.3131L150.017,54.2471L150.004,54.1805L149.991,54.1134L149.979,54.0457L149.968,53.9774L149.957,53.9086L149.948,53.8391L149.938,53.7691L149.93,53.6985L149.922,53.6272L149.916,53.5554L149.909,53.4831L149.904,53.4101L149.9,53.3365L149.896,53.2623L149.893,53.1875L149.891,53.1121L149.89,53.036L149.889,52.9594L149.889,33.9892L149.89,33.8991L149.891,33.8103L149.893,33.7228L149.897,33.6366L149.901,33.5516L149.906,33.4679L149.912,33.3855L149.919,33.3042L149.927,33.2243L149.936,33.1455L149.945,33.068L149.956,32.9916L149.967,32.9165L149.979,32.8425L149.992,32.7698L150.005,32.6982L150.02,32.6277L150.035,32.5584L150.05,32.4902L150.067,32.4232L150.084,32.3573L150.102,32.2925L150.121,32.2288L150.14,32.1662L150.16,32.1047L150.181,32.0442L150.202,31.9848L150.224,31.9265L150.247,31.8692L150.27,31.813L150.294,31.7578L150.318,31.7036L150.343,31.6504L150.368,31.5982L150.394,31.547L150.421,31.4967L150.448,31.4475L150.475,31.3992L150.503,31.3519L150.532,31.3055L150.561,31.26L150.59,31.2155L150.62,31.1718L150.65,31.1291L150.681,31.0873L150.712,31.0464L150.743,31.0063L150.775,30.9671L150.807,30.9288L150.84,30.8913L150.872,30.8547L150.906,30.8188L150.939,30.7838L150.973,30.7497L151.007,30.7163L151.041,30.6837L151.11,30.6209L151.18,30.5611L151.251,30.5044L151.323,30.4505L151.395,30.3995L151.468,30.3512L151.541,30.3056L151.615,30.2626L151.689,30.2222L151.762,30.1842L151.836,30.1487L151.91,30.1154L151.983,30.0844L152.056,30.0555L152.129,30.0287L152.201,30.0039L152.272,29.9811L152.343,29.9601L152.413,29.9409L152.481,29.9235L152.549,29.9076L152.616,29.8934L152.681,29.8806L152.745,29.8692L152.808,29.8592L152.869,29.8505L152.928,29.8429L152.986,29.8364L153.042,29.831L153.095,29.8266L153.196,29.8203L153.288,29.8169L153.37,29.8159L153.461,29.8169L153.551,29.8199L153.64,29.8248L153.729,29.8315L153.818,29.8399L153.906,29.85L153.993,29.8617L154.08,29.8749L154.165,29.8896L154.25,29.9057L154.335,29.923L154.418,29.9416L154.5,29.9613L154.581,29.9821L154.662,30.0039L154.741,30.0267L154.819,30.0503L154.896,30.0747L154.972,30.0997L155.046,30.1255L155.119,30.1518L155.191,30.1785L155.261,30.2057L155.33,30.2332L155.398,30.261L155.464,30.289L155.591,30.3452L155.711,30.4012L155.825,30.4566L156.214,30.6517L156.603,30.8483L156.991,31.0462L157.378,31.2455L157.763,31.4462L158.148,31.6482L158.532,31.8516L158.915,32.0564L159.297,32.2626L159.678,32.4701L160.058,32.6789L160.438,32.8892L160.816,33.1007L161.193,33.3136L161.569,33.5279L161.944,33.7434L162.318,33.9603L162.691,34.1786L163.064,34.3981L163.435,34.619L163.805,34.8412L164.174,35.0647L164.542,35.2895L164.909,35.5156L165.275,35.7431L165.64,35.9718L166.004,36.2018L166.367,36.4331L166.728,36.6657L167.089,36.8996L167.449,37.1347L167.808,37.3711L168.165,37.6089L168.522,37.8478L168.877,38.0881L169.231,38.3295L169.585,38.5723L169.937,38.8163L170.288,39.0615L170.638,39.308L170.987,39.5558L171.334,39.8048L171.681,40.055L172.026,40.3064L172.371,40.5591L172.714,40.813L173.056,41.0681L173.397,41.3244L173.737,41.5819L174.076,41.8407L174.413,42.1006L174.75,42.3618L175.085,42.6241L175.419,42.8877L175.752,43.1524L176.084,43.4183L176.414,43.6854L176.744,43.9537L177.072,44.2231L177.399,44.4938L177.725,44.7656L178.05,45.0385L178.373,45.3126L178.695,45.5879L179.016,45.8643L179.336,46.1419L179.655,46.4206L179.972,46.7004L180.288,46.9814L180.603,47.2635L180.917,47.5468L181.229,47.8312L181.541,48.1166L181.851,48.4033L182.159,48.691L182.467,48.9798L182.773,49.2698L183.078,49.5608L183.382,49.853L183.684,50.1462L183.985,50.4406L184.285,50.736L184.583,51.0325L184.881,51.3301L185.177,51.6288L185.471,51.9285L185.764,52.2293L186.057,52.5312L186.347,52.8341L186.637,53.1381L186.925,53.4432L187.211,53.7493L187.497,54.0564L187.781,54.3646L188.064,54.6739L188.345,54.9841L188.625,55.2954L188.904,55.6078L189.181,55.9211L189.457,56.2355L189.732,56.5509L190.005,56.8673L190.277,57.1847L190.547,57.5031L190.816,57.8225L191.084,58.143L191.35,58.4644L191.615,58.7868L191.879,59.1102L192.141,59.4346L192.402,59.7599L192.661,60.0863L192.919,60.4136L193.175,60.7418L193.43,61.0711L193.684,61.4013L193.936,61.7324L194.187,62.0645L194.436,62.3976L194.684,62.7316L194.93,63.0666L195.175,63.4025L195.418,63.7393L195.66,64.077L195.901,64.4157L196.14,64.7553L196.377,65.0958L196.613,65.4373L196.858,65.795L197.102,66.1534L197.343,66.5127L197.583,66.8726L197.82,67.2334L198.056,67.5948L198.29,67.9571L198.523,68.32L198.753,68.6837L198.982,69.0481L199.209,69.4133L199.434,69.7791L199.657,70.1457L199.878,70.513L200.098,70.8809L200.315,71.2496L200.531,71.619L200.745,71.989L200.957,72.3597L201.167,72.7311L201.376,73.1031L201.582,73.4759L201.787,73.8492L201.99,74.2232L202.191,74.5979L202.39,74.9732L202.588,75.3492L202.783,75.7257L202.977,76.1029L203.168,76.4808L203.358,76.8592L203.546,77.2382L203.732,77.6179L203.917,77.9981L204.099,78.379L204.28,78.7604L204.458,79.1424L204.635,79.5249L204.81,79.9081L204.983,80.2918L205.154,80.6761L205.324,81.0609L205.491,81.4463L205.656,81.8322L205.82,82.2187L205.982,82.6057L206.142,82.9932L206.3,83.3812L206.456,83.7698L206.61,84.1589L206.762,84.5484L206.912,84.9385L207.061,85.3291L207.207,85.7202L207.352,86.1117L207.495,86.5037L207.636,86.8963L207.775,87.2892L207.912,87.6827L208.047,88.0766L208.18,88.4709L208.311,88.8657L208.441,89.2609L208.568,89.6566L208.693,90.0527L208.817,90.4493L208.939,90.8462L209.058,91.2436L209.176,91.6414L209.292,92.0395L209.406,92.4381L209.518,92.8371L209.628,93.2365L209.736,93.6362L209.843,94.0363L209.947,94.4368L210.049,94.8377L210.15,95.2389L210.248,95.6405L210.344,96.0424L210.439,96.4447L210.532,96.8473L210.622,97.2503L210.711,97.6536L210.798,98.0572L210.882,98.4611L210.965,98.8653L211.046,99.2699L211.125,99.6747L211.202,100.08L211.277,100.485L211.35,100.891L211.421,101.297L211.49,101.703L211.557,102.11L211.622,102.517L211.685,102.924L211.746,103.331L211.805,103.739L211.863,104.147L211.918,104.555L211.971,104.963L212.022,105.371L212.072,105.78L212.119,106.189L212.164,106.598L212.207,107.008L212.249,107.417L212.288,107.827L212.325,108.237L212.36,108.647L212.394,109.057L212.425,109.468L212.454,109.879L212.481,110.289L212.507,110.7L212.53,111.112L212.551,111.523L212.57,111.934L212.588,112.346L212.603,112.758L212.616,113.169L212.627,113.581L212.636,113.993L212.643,114.406L212.648,114.818L212.651,115.23L212.652,115.643L212.652,115.956L212.65,116.269L212.647,116.582L212.644,116.895L212.639,117.207L212.633,117.519L212.626,117.831L212.617,118.143L212.608,118.454L212.598,118.765L212.587,119.076L212.574,119.387L212.561,119.697L212.546,120.008L212.53,120.318L212.514,120.627L212.496,120.937L212.477,121.246L212.457,121.555L212.436,121.863L212.414,122.172L212.391,122.48L212.367,122.788L212.342,123.096L212.315,123.403L212.288,123.71L212.26,124.017L212.23,124.324L212.2,124.63L212.168,124.936L212.136,125.242L212.102,125.547L212.068,125.852L212.032,126.157L211.995,126.462L211.958,126.766L211.919,127.07L211.879,127.374L211.838,127.678L211.796,127.981L211.754,128.284L211.71,128.587L211.665,128.889L211.619,129.191L211.572,129.493L211.524,129.794L211.475,130.095L211.425,130.396L211.374,130.697L211.322,130.997L211.269,131.297L211.215,131.597L211.16,131.896L211.104,132.195L211.047,132.494L210.989,132.792L210.929,133.091L210.869,133.388L210.808,133.686L210.746,133.983L210.683,134.28L210.619,134.577L210.554,134.873L210.488,135.169L210.421,135.464L210.353,135.76L210.284,136.054L210.214,136.349L210.143,136.643L210.071,136.937L209.999,137.231L209.925,137.524L209.85,137.817L209.774,138.11L209.697,138.402L209.62,138.694L209.541,138.985L209.461,139.277L209.381,139.567L209.299,139.858L209.216,140.148L209.133,140.438L209.048,140.728L208.963,141.017L208.877,141.305L208.789,141.594L208.701,141.882L208.612,142.17L208.522,142.457L208.43,142.744L208.338,143.031L208.245,143.317L208.151,143.603L208.057,143.888L207.961,144.173L207.864,144.458L207.766,144.743L207.668,145.027L207.568,145.31L207.468,145.594L207.366,145.877L207.264,146.159L207.161,146.441L207.056,146.723L206.951,147.004L206.845,147.285L206.738,147.566L206.63,147.846L206.522,148.126L206.412,148.405L206.301,148.684L206.19,148.963L206.077,149.241L205.964,149.519L205.85,149.797L205.735,150.074L205.619,150.35L205.502,150.627L205.384,150.902L205.265,151.178L205.146,151.453L205.025,151.728L204.904,152.002L204.781,152.276L204.658,152.549L204.534,152.822L204.409,153.094L204.283,153.367L204.157,153.638L204.029,153.91L203.901,154.18L203.771,154.451L203.641,154.721L203.51,154.99L203.378,155.26L203.245,155.528L203.111,155.797L202.977,156.065L202.841,156.332L202.705,156.599L202.568,156.865L202.43,157.132L202.291,157.397L202.151,157.663L202.011,157.927L201.869,158.192L201.727,158.456L201.584,158.719L201.44,158.982L201.295,159.244L201.149,159.507L201.003,159.768L200.855,160.029L200.707,160.29L200.558,160.55L200.408,160.81L200.257,161.069L200.106,161.328L199.954,161.587L199.8,161.845L199.646,162.102L199.491,162.359L199.336,162.616L199.179,162.872L199.022,163.127L198.864,163.382L198.705,163.637L198.545,163.891L198.384,164.145L198.223,164.398L198.061,164.651L197.897,164.903L197.734,165.155L197.569,165.406L197.403,165.657L197.237,165.907L197.07,166.157L196.902,166.406L196.733,166.655L196.564,166.903L196.394,167.151L196.223,167.398L196.051,167.645L195.878,167.891L195.705,168.137L195.53,168.382L195.355,168.627L195.18,168.871L195.003,169.115L194.826,169.358L194.648,169.601L194.469,169.843L194.289,170.085L194.108,170.326L193.927,170.567L193.745,170.807L193.562,171.047L193.379,171.286L193.194,171.524L193.009,171.762L192.824,172L192.637,172.237L192.45,172.473L192.261,172.709L192.073,172.945L191.883,173.179L191.692,173.414L191.501,173.648L191.309,173.881L191.117,174.114L190.923,174.346L190.729,174.577L190.534,174.808L190.339,175.039L190.142,175.269L189.945,175.498L189.747,175.727L189.549,175.955L189.35,176.183L189.15,176.41L188.949,176.637L188.747,176.863L188.545,177.089L188.342,177.314L188.138,177.538L187.934,177.762L187.729,177.985L187.523,178.208L187.317,178.43L187.109,178.651L186.901,178.872L186.693,179.093L186.483,179.313L186.273,179.532L186.062,179.75L185.851,179.969L185.639,180.186L185.426,180.403L185.212,180.619L184.998,180.835L184.783,181.05L184.567,181.265L184.351,181.479L184.133,181.692L183.916,181.905L183.697,182.117L183.478,182.329L183.258,182.54L183.038,182.75L182.816,182.96L182.594,183.169L182.372,183.378L182.149,183.586L181.925,183.793L181.7,184L181.475,184.206L181.249,184.411L181.022,184.616L180.795,184.821L180.567,185.024L180.338,185.227L180.109,185.43L179.879,185.632L179.648,185.833L179.417,186.034L179.185,186.234L178.953,186.433L178.719,186.632L178.486,186.83L178.251,187.027L178.016,187.224L177.78,187.42L177.544,187.616L177.306,187.811L177.069,188.005L176.83,188.198L176.591,188.391L176.352,188.584L176.111,188.776L175.87,188.967L175.629,189.157L175.387,189.347L175.144,189.536L174.9,189.724L174.656,189.912L174.412,190.099L174.166,190.286L173.92,190.472L173.674,190.657L173.427,190.841L173.179,191.025L172.93,191.208L172.681,191.391L172.432,191.573L172.181,191.754L171.931,191.934L171.679,192.114L171.427,192.293L171.174,192.472L170.921,192.649L170.667,192.827L170.413,193.003L170.158,193.179L169.902,193.354L169.646,193.528L169.389,193.702L169.132,193.875L168.874,194.047L168.615,194.219L168.356,194.39L168.096,194.56L167.836,194.73L167.575,194.899L167.314,195.067L167.052,195.234L166.789,195.401L166.526,195.567L166.262,195.732L165.998,195.897L165.733,196.061L165.467,196.224L165.201,196.387L164.935,196.549L164.667,196.71L164.4,196.87L164.131,197.03L163.863,197.189L163.593,197.347L163.323,197.505L163.053,197.661L162.782,197.818L162.51,197.973L162.238,198.128L161.965,198.281L161.692,198.435L161.418,198.587L161.144,198.739L160.869,198.89L160.594,199.04L160.318,199.19L160.041,199.338L159.764,199.486L159.487,199.634L159.209,199.78L158.93,199.926L158.651,200.071L158.372,200.215L158.091,200.359L157.811,200.502L157.53,200.644L157.248,200.785L156.966,200.926L156.683,201.065L156.4,201.204L156.116,201.343L155.832,201.48L155.547,201.617L155.262,201.753L154.976,201.888L154.69,202.023L154.403,202.156L154.116,202.289L153.828,202.421L153.54,202.553L153.251,202.683L152.962,202.813L152.672,202.942L152.382,203.071L152.091,203.198L151.8,203.325L151.508,203.451L151.216,203.576L150.923,203.7L150.63,203.824L150.337,203.947L150.043,204.069L149.748,204.19L149.453,204.31L149.158,204.43L148.862,204.549L148.565,204.667L148.268,204.784L147.971,204.9L147.673,205.016L147.375,205.131L147.076,205.245L146.777,205.358L146.477,205.47L146.177,205.582L145.877,205.693L145.576,205.803L145.274,205.912L144.973,206.02L144.67,206.127L144.367,206.234L144.064,206.34L143.761,206.445L143.456,206.549L143.152,206.653L142.847,206.755L142.541,206.857L142.236,206.958L141.929,207.058L141.623,207.157L141.316,207.256L141.008,207.353L140.7,207.45L140.392,207.546L140.083,207.641L139.773,207.735L139.464,207.828L139.154,207.921L138.843,208.013L138.532,208.104L138.221,208.194L137.909,208.283L137.597,208.371L137.285,208.458L136.972,208.545L136.658,208.631L136.345,208.716L136.03,208.8L135.716,208.883L135.401,208.965L135.086,209.046L134.77,209.127L134.454,209.207L134.137,209.285L133.82,209.363L133.503,209.44L133.185,209.517L132.867,209.592L132.549,209.666L132.23,209.74L131.911,209.813L131.591,209.884L131.271,209.955L130.951,210.025L130.63,210.095L130.309,210.163L129.988,210.23L129.666,210.297L129.344,210.362L129.021,210.427L128.698,210.491L128.375,210.554L128.051,210.616L127.727,210.677L127.403,210.737L127.078,210.796L126.753,210.855L126.428,210.912L126.102,210.969L125.776,211.025L125.45,211.08L125.123,211.133L124.796,211.186L124.469,211.238L124.141,211.29L123.813,211.34L123.484,211.389L123.155,211.438L122.826,211.485L122.497,211.532L122.167,211.577L121.837,211.622L121.506,211.666L121.176,211.708L120.845,211.75L120.513,211.791L120.181,211.831L119.849,211.87L119.517,211.909L119.184,211.946L118.851,211.982L118.518,212.018L118.184,212.052L117.851,212.085L117.516,212.118L117.182,212.15L116.847,212.18L116.512,212.21L116.176,212.239L115.841,212.266L115.505,212.293L115.168,212.319L114.832,212.344L114.495,212.368L114.158,212.391L113.82,212.413L113.482,212.434L113.144,212.454L112.806,212.473L112.467,212.491L112.129,212.509L111.789,212.525L111.45,212.54L111.11,212.554L110.77,212.568L110.43,212.58L110.089,212.591L109.749,212.602L109.408,212.611L109.066,212.62L108.725,212.627L108.383,212.633L108.041,212.639L107.698,212.643L107.356,212.647L107.013,212.649L106.67,212.651L106.326,212.651Z" style="fill:rgb(210,210,210);"/>
    </g>
</svg>
