<?xml version="1.0" standalone="no"?>
<!DOCTYPE svg PUBLIC "-//W3C//DTD SVG 1.1//EN" "http://www.w3.org/Graphics/SVG/1.1/DTD/svg11.dtd">
<svg width="26px" height="26px" viewBox="0 0 212 212" version="1.1" xmlns="http://www.w3.org/2000/svg" xmlns:xlink="http://www.w3.org/1999/xlink" xml:space="preserve" style="fill-rule:evenodd;clip-rule:evenodd;stroke-linecap:round;stroke-linejoin:round;stroke-miterlimit:1.41421;">
    <g>
        <path d="M11.4425,11.4425L39.0058,24.0928L73.3245,125.584L158.438,125.584L183.042,44.356L46.2813,44.356" style="fill:none;stroke-width:13.21px;stroke:rgb(210,210,210);"/>
        <path d="M160.058,151.996L58.0331,151.996L70.8478,120.334" style="fill:none;stroke-width:13.21px;stroke:rgb(210,210,210);"/>
        <path d="M74.4798,189.677L74.2459,189.676L74.0126,189.671L73.7801,189.664L73.5484,189.653L73.3174,189.64L73.0872,189.624L72.8577,189.605L72.6292,189.584L72.4014,189.559L72.1745,189.532L71.9485,189.501L71.7233,189.468L71.4991,189.433L71.2758,189.394L71.0534,189.353L70.832,189.309L70.6115,189.263L70.3921,189.214L70.1737,189.162L69.9563,189.107L69.7399,189.05L69.5246,188.99L69.3104,188.928L69.0974,188.863L68.8854,188.796L68.6745,188.726L68.4649,188.654L68.2563,188.579L68.049,188.501L67.8429,188.422L67.638,188.339L67.4344,188.255L67.232,188.168L67.0309,188.078L66.8311,187.986L66.6326,187.892L66.4355,187.796L66.2397,187.697L66.0452,187.596L65.8522,187.492L65.6605,187.387L65.4703,187.279L65.2815,187.169L65.0942,187.057L64.9083,186.942L64.724,186.826L64.5411,186.707L64.3598,186.586L64.18,186.463L64.0018,186.338L63.8252,186.21L63.6502,186.081L63.4768,185.95L63.305,185.817L63.1349,185.681L62.9664,185.544L62.7996,185.405L62.6346,185.263L62.4712,185.12L62.3096,184.975L62.1498,184.828L61.9917,184.679L61.8355,184.528L61.681,184.376L61.5284,184.221L61.3776,184.065L61.2287,183.907L61.0817,183.747L60.9366,183.585L60.7934,183.422L60.6521,183.257L60.5128,183.09L60.3755,182.922L60.2401,182.752L60.1068,182.58L59.9755,182.406L59.8462,182.231L59.719,182.055L59.5939,181.877L59.4708,181.697L59.3499,181.516L59.2311,181.333L59.1145,181.148L59,180.962L58.8878,180.775L58.7777,180.586L58.6698,180.396L58.5642,180.204L58.4608,180.011L58.3598,179.817L58.261,179.621L58.1645,179.424L58.0703,179.226L57.9785,179.026L57.8891,178.825L57.802,178.622L57.7173,178.419L57.6351,178.214L57.5553,178.008L57.4779,177.8L57.403,177.592L57.3306,177.382L57.2607,177.171L57.1934,176.959L57.1285,176.746L57.0663,176.532L57.0066,176.317L56.9495,176.1L56.895,175.883L56.8431,175.665L56.7939,175.445L56.7473,175.225L56.7035,175.003L56.6623,174.781L56.6239,174.558L56.5882,174.333L56.5552,174.108L56.525,173.882L56.4976,173.655L56.4731,173.427L56.4513,173.199L56.4324,172.969L56.4163,172.739L56.4032,172.508L56.3929,172.277L56.3855,172.044L56.3811,171.811L56.3796,171.577L56.3811,171.343L56.3855,171.11L56.3929,170.877L56.4032,170.645L56.4163,170.414L56.4324,170.184L56.4513,169.955L56.4731,169.726L56.4976,169.498L56.525,169.272L56.5552,169.046L56.5882,168.82L56.6239,168.596L56.6623,168.373L56.7035,168.15L56.7473,167.929L56.7939,167.709L56.8431,167.489L56.895,167.271L56.9495,167.053L57.0066,166.837L57.0663,166.622L57.1285,166.407L57.1934,166.194L57.2607,165.982L57.3306,165.772L57.403,165.562L57.4779,165.353L57.5553,165.146L57.6351,164.94L57.7173,164.735L57.802,164.531L57.8891,164.329L57.9785,164.128L58.0703,163.928L58.1645,163.73L58.261,163.533L58.3598,163.337L58.4608,163.142L58.5642,162.949L58.6698,162.758L58.7777,162.567L58.8878,162.379L59,162.191L59.1145,162.005L59.2311,161.821L59.3499,161.638L59.4708,161.457L59.5939,161.277L59.719,161.099L59.8462,160.922L59.9755,160.747L60.1068,160.574L60.2401,160.402L60.3755,160.232L60.5128,160.063L60.6521,159.897L60.7934,159.732L60.9366,159.568L61.0817,159.407L61.2287,159.247L61.3776,159.089L61.5284,158.933L61.681,158.778L61.8355,158.625L61.9917,158.475L62.1498,158.326L62.3096,158.179L62.4712,158.034L62.6346,157.89L62.7996,157.749L62.9664,157.61L63.1349,157.473L63.305,157.337L63.4768,157.204L63.6502,157.073L63.8252,156.943L64.0018,156.816L64.18,156.691L64.3598,156.568L64.5411,156.447L64.724,156.328L64.9083,156.212L65.0942,156.097L65.2815,155.985L65.4703,155.875L65.6605,155.767L65.8522,155.661L66.0452,155.558L66.2397,155.457L66.4355,155.358L66.6326,155.262L66.8311,155.167L67.0309,155.076L67.232,154.986L67.4344,154.899L67.638,154.814L67.8429,154.732L68.049,154.652L68.2563,154.575L68.4649,154.5L68.6745,154.428L68.8854,154.358L69.0974,154.29L69.3104,154.226L69.5246,154.163L69.7399,154.104L69.9563,154.047L70.1737,153.992L70.3921,153.94L70.6115,153.891L70.832,153.844L71.0534,153.801L71.2758,153.759L71.4991,153.721L71.7233,153.685L71.9485,153.652L72.1745,153.622L72.4014,153.595L72.6292,153.57L72.8577,153.548L73.0872,153.529L73.3174,153.513L73.5484,153.5L73.7801,153.49L74.0126,153.483L74.2459,153.478L74.4798,153.477L74.7137,153.478L74.947,153.483L75.1795,153.49L75.4112,153.5L75.6422,153.513L75.8724,153.529L76.1018,153.548L76.3304,153.57L76.5582,153.595L76.7851,153.622L77.0111,153.652L77.2363,153.685L77.4605,153.721L77.6838,153.759L77.9062,153.801L78.1276,153.844L78.348,153.891L78.5675,153.94L78.7859,153.992L79.0033,154.047L79.2197,154.104L79.4349,154.163L79.6491,154.226L79.8622,154.29L80.0742,154.358L80.2851,154.428L80.4947,154.5L80.7032,154.575L80.9106,154.652L81.1167,154.732L81.3216,154.814L81.5252,154.899L81.7276,154.986L81.9287,155.076L82.1285,155.167L82.327,155.262L82.5241,155.358L82.7199,155.457L82.9144,155.558L83.1074,155.661L83.2991,155.767L83.4893,155.875L83.6781,155.985L83.8654,156.097L84.0513,156.212L84.2356,156.328L84.4185,156.447L84.5998,156.568L84.7796,156.691L84.9578,156.816L85.1344,156.943L85.3094,157.073L85.4828,157.204L85.6546,157.337L85.8247,157.473L85.9932,157.61L86.16,157.749L86.325,157.89L86.4884,158.034L86.6499,158.179L86.8098,158.326L86.9678,158.475L87.1241,158.625L87.2786,158.778L87.4312,158.933L87.582,159.089L87.7309,159.247L87.8779,159.407L88.023,159.568L88.1662,159.732L88.3075,159.897L88.4468,160.063L88.5841,160.232L88.7195,160.402L88.8528,160.574L88.9841,160.747L89.1134,160.922L89.2406,161.099L89.3657,161.277L89.4888,161.457L89.6097,161.638L89.7285,161.821L89.8451,162.005L89.9596,162.191L90.0718,162.379L90.1819,162.567L90.2898,162.758L90.3954,162.949L90.4987,163.142L90.5998,163.337L90.6986,163.533L90.7951,163.73L90.8893,163.928L90.9811,164.128L91.0705,164.329L91.1576,164.531L91.2422,164.735L91.3245,164.94L91.4043,165.146L91.4817,165.353L91.5566,165.562L91.629,165.772L91.6989,165.982L91.7662,166.194L91.8311,166.407L91.8933,166.622L91.953,166.837L92.0101,167.053L92.0646,167.271L92.1165,167.489L92.1657,167.709L92.2122,167.929L92.2561,168.15L92.2973,168.373L92.3357,168.596L92.3714,168.82L92.4044,169.046L92.4346,169.272L92.4619,169.498L92.4865,169.726L92.5083,169.955L92.5272,170.184L92.5433,170.414L92.5564,170.645L92.5667,170.877L92.5741,171.11L92.5785,171.343L92.58,171.577L92.5785,171.811L92.5741,172.044L92.5667,172.277L92.5564,172.508L92.5433,172.739L92.5272,172.969L92.5083,173.199L92.4865,173.427L92.4619,173.655L92.4346,173.882L92.4044,174.108L92.3714,174.333L92.3357,174.558L92.2973,174.781L92.2561,175.003L92.2122,175.225L92.1657,175.445L92.1165,175.665L92.0646,175.883L92.0101,176.1L91.953,176.317L91.8933,176.532L91.8311,176.746L91.7662,176.959L91.6989,177.171L91.629,177.382L91.5566,177.592L91.4817,177.8L91.4043,178.008L91.3245,178.214L91.2422,178.419L91.1576,178.622L91.0705,178.825L90.9811,179.026L90.8893,179.226L90.7951,179.424L90.6986,179.621L90.5998,179.817L90.4987,180.011L90.3954,180.204L90.2898,180.396L90.1819,180.586L90.0718,180.775L89.9596,180.962L89.8451,181.148L89.7285,181.333L89.6097,181.516L89.4888,181.697L89.3657,181.877L89.2406,182.055L89.1134,182.231L88.9841,182.406L88.8528,182.58L88.7195,182.752L88.5841,182.922L88.4468,183.09L88.3075,183.257L88.1662,183.422L88.023,183.585L87.8779,183.747L87.7309,183.907L87.582,184.065L87.4312,184.221L87.2786,184.376L87.1241,184.528L86.9678,184.679L86.8098,184.828L86.6499,184.975L86.4884,185.12L86.325,185.263L86.16,185.405L85.9932,185.544L85.8247,185.681L85.6546,185.817L85.4828,185.95L85.3094,186.081L85.1344,186.21L84.9578,186.338L84.7796,186.463L84.5998,186.586L84.4185,186.707L84.2356,186.826L84.0513,186.942L83.8654,187.057L83.6781,187.169L83.4893,187.279L83.2991,187.387L83.1074,187.492L82.9144,187.596L82.7199,187.697L82.5241,187.796L82.327,187.892L82.1285,187.986L81.9287,188.078L81.7276,188.168L81.5252,188.255L81.3216,188.339L81.1167,188.422L80.9106,188.501L80.7032,188.579L80.4947,188.654L80.2851,188.726L80.0742,188.796L79.8622,188.863L79.6491,188.928L79.4349,188.99L79.2197,189.05L79.0033,189.107L78.7859,189.162L78.5675,189.214L78.348,189.263L78.1276,189.309L77.9062,189.353L77.6838,189.394L77.4605,189.433L77.2363,189.468L77.0111,189.501L76.7851,189.532L76.5582,189.559L76.3304,189.584L76.1018,189.605L75.8724,189.624L75.6422,189.64L75.4112,189.653L75.1795,189.664L74.947,189.671L74.7137,189.676L74.4798,189.677ZM74.4798,180.868L74.6022,180.868L74.7239,180.865L74.8448,180.862L74.9654,180.856L75.085,180.849L75.2041,180.841L75.3227,180.831L75.4405,180.82L75.5578,180.807L75.6744,180.793L75.7903,180.778L75.9057,180.761L76.0206,180.743L76.1351,180.723L76.2489,180.702L76.3616,180.68L76.4743,180.656L76.5862,180.631L76.6976,180.604L76.8086,180.576L76.9187,180.547L77.0283,180.517L77.1375,180.485L77.2462,180.452L77.3543,180.418L77.4616,180.382L77.5685,180.345L77.6746,180.307L77.7803,180.268L77.8853,180.227L77.9899,180.185L78.0939,180.142L78.1972,180.097L78.2997,180.052L78.4019,180.005L78.5034,179.957L78.604,179.907L78.7043,179.857L78.804,179.805L78.9027,179.752L79.0007,179.698L79.0983,179.643L79.1954,179.586L79.2914,179.529L79.3868,179.47L79.4815,179.41L79.5755,179.349L79.6686,179.287L79.7611,179.224L79.853,179.159L79.9439,179.094L80.0339,179.027L80.1232,178.959L80.2118,178.891L80.2997,178.821L80.3864,178.75L80.4724,178.678L80.5576,178.605L80.6421,178.531L80.7255,178.456L80.8079,178.381L80.8894,178.304L80.9701,178.226L81.05,178.147L81.1287,178.067L81.2066,177.987L81.2836,177.905L81.3593,177.822L81.4342,177.739L81.5083,177.655L81.5812,177.569L81.6529,177.484L81.7237,177.397L81.7936,177.309L81.8623,177.22L81.93,177.131L81.9966,177.041L82.0621,176.95L82.1265,176.858L82.1897,176.766L82.2519,176.673L82.3129,176.579L82.3728,176.484L82.4317,176.388L82.4893,176.292L82.5457,176.195L82.601,176.098L82.6551,176L82.708,175.901L82.7598,175.801L82.8104,175.701L82.8597,175.6L82.9078,175.499L82.9547,175.397L83.0003,175.294L83.0448,175.191L83.088,175.087L83.13,174.982L83.1707,174.877L83.2101,174.772L83.2482,174.666L83.2851,174.559L83.3208,174.451L83.3551,174.343L83.3881,174.235L83.4198,174.126L83.4503,174.016L83.4794,173.906L83.5071,173.795L83.5336,173.683L83.5587,173.571L83.5825,173.459L83.6049,173.346L83.6259,173.232L83.6456,173.118L83.6639,173.003L83.6808,172.887L83.6963,172.771L83.7103,172.655L83.723,172.538L83.7342,172.42L83.744,172.301L83.7523,172.182L83.7591,172.062L83.7645,171.942L83.7683,171.821L83.7706,171.699L83.7714,171.577L83.7706,171.454L83.7683,171.333L83.7645,171.212L83.7591,171.091L83.7523,170.972L83.744,170.852L83.7342,170.734L83.723,170.616L83.7104,170.499L83.6963,170.382L83.6808,170.266L83.6639,170.151L83.6456,170.036L83.6259,169.922L83.6049,169.808L83.5825,169.695L83.5587,169.582L83.5336,169.47L83.5072,169.359L83.4794,169.248L83.4502,169.138L83.4198,169.028L83.3881,168.919L83.3551,168.811L83.3207,168.702L83.2851,168.595L83.2483,168.488L83.2101,168.382L83.1706,168.276L83.1299,168.171L83.088,168.067L83.0448,167.963L83.0003,167.859L82.9547,167.757L82.9078,167.655L82.8597,167.553L82.8104,167.453L82.7599,167.352L82.708,167.253L82.6551,167.154L82.601,167.056L82.5457,166.958L82.4892,166.861L82.4317,166.765L82.3729,166.67L82.3129,166.575L82.2518,166.481L82.1897,166.388L82.1266,166.296L82.0621,166.204L81.9965,166.113L81.93,166.023L81.8623,165.933L81.7936,165.845L81.7238,165.757L81.653,165.67L81.5811,165.584L81.5082,165.499L81.4343,165.415L81.3593,165.331L81.2835,165.249L81.2066,165.167L81.1287,165.086L81.05,165.007L80.9702,164.928L80.8896,164.85L80.8078,164.773L80.7253,164.697L80.6421,164.622L80.5576,164.548L80.4724,164.475L80.3864,164.404L80.2997,164.333L80.2118,164.263L80.1232,164.194L80.0341,164.127L79.9439,164.06L79.8528,163.995L79.7613,163.93L79.6688,163.867L79.5753,163.805L79.4813,163.744L79.387,163.684L79.2914,163.625L79.1952,163.567L79.0985,163.511L79.0009,163.456L78.9025,163.401L78.8038,163.349L78.7045,163.297L78.6042,163.246L78.5032,163.197L78.4019,163.149L78.2997,163.102L78.197,163.056L78.0939,163.012L77.9901,162.969L77.8856,162.927L77.7803,162.886L77.6746,162.847L77.5682,162.808L77.4614,162.771L77.3543,162.736L77.2462,162.702L77.1375,162.668L77.0286,162.637L76.9187,162.606L76.8084,162.577L76.6979,162.55L76.5862,162.523L76.4743,162.498L76.3619,162.474L76.2486,162.452L76.1348,162.431L76.0206,162.411L75.9059,162.393L75.7905,162.376L75.6744,162.36L75.5576,162.346L75.4405,162.334L75.3227,162.322L75.2041,162.313L75.085,162.304L74.9652,162.298L74.8451,162.292L74.7239,162.288L74.6022,162.286L74.4798,162.285L74.3574,162.286L74.2357,162.288L74.1145,162.292L73.9944,162.298L73.8746,162.304L73.7555,162.313L73.6369,162.322L73.5191,162.334L73.402,162.346L73.2852,162.36L73.169,162.376L73.0537,162.393L72.939,162.411L72.8248,162.431L72.711,162.452L72.5977,162.474L72.4854,162.498L72.3734,162.523L72.2617,162.55L72.1512,162.577L72.0409,162.606L71.931,162.637L71.8221,162.668L71.7134,162.702L71.6053,162.736L71.4983,162.771L71.3914,162.808L71.285,162.847L71.1792,162.886L71.074,162.927L70.9695,162.969L70.8657,163.012L70.7626,163.056L70.6598,163.102L70.5577,163.149L70.4564,163.197L70.3554,163.246L70.2551,163.297L70.1558,163.349L70.057,163.401L69.9586,163.456L69.861,163.511L69.7645,163.567L69.6683,163.625L69.5726,163.684L69.4782,163.744L69.3843,163.805L69.2908,163.867L69.1984,163.93L69.1068,163.995L69.0157,164.06L68.9255,164.127L68.8363,164.194L68.7478,164.263L68.6599,164.333L68.5731,164.404L68.4872,164.475L68.402,164.548L68.3176,164.622L68.2342,164.697L68.1517,164.773L68.07,164.85L67.9894,164.928L67.9096,165.007L67.8309,165.086L67.753,165.167L67.6761,165.249L67.6003,165.331L67.5252,165.415L67.4515,165.499L67.3785,165.584L67.3065,165.67L67.2357,165.757L67.166,165.845L67.0973,165.933L67.0296,166.023L66.9631,166.113L66.8975,166.204L66.833,166.296L66.7699,166.388L66.7078,166.481L66.6466,166.575L66.5867,166.67L66.5279,166.765L66.4704,166.861L66.4139,166.958L66.3586,167.056L66.3045,167.154L66.2515,167.253L66.1998,167.352L66.1493,167.452L66.0999,167.553L66.0518,167.655L66.0049,167.757L65.9592,167.86L65.9148,167.963L65.8716,168.067L65.8297,168.171L65.7889,168.276L65.7495,168.382L65.7113,168.488L65.6744,168.595L65.6388,168.703L65.6045,168.811L65.5715,168.919L65.5398,169.028L65.5093,169.138L65.4802,169.248L65.4524,169.359L65.426,169.47L65.4009,169.582L65.3771,169.695L65.3547,169.808L65.3337,169.922L65.314,170.036L65.2957,170.151L65.2788,170.266L65.2633,170.382L65.2492,170.499L65.2366,170.616L65.2254,170.734L65.2156,170.852L65.2073,170.972L65.2005,171.091L65.1951,171.212L65.1913,171.333L65.189,171.454L65.1882,171.577L65.1913,171.821L65.2005,172.062L65.2156,172.301L65.2366,172.538L65.2633,172.771L65.2957,173.003L65.3337,173.232L65.3771,173.459L65.426,173.683L65.4802,173.906L65.5398,174.126L65.6045,174.343L65.6744,174.559L65.7495,174.772L65.8296,174.982L65.9148,175.191L66.0049,175.397L66.0999,175.6L66.1998,175.801L66.3044,176L66.4139,176.196L66.5279,176.388L66.6466,176.578L66.7699,176.766L66.8975,176.95L67.0296,177.131L67.166,177.309L67.3066,177.483L67.4514,177.655L67.6002,177.822L67.753,177.987L67.9096,178.147L68.0702,178.304L68.2341,178.456L68.402,178.605L68.5731,178.75L68.7478,178.891L68.9257,179.027L69.1066,179.159L69.291,179.287L69.478,179.41L69.6683,179.529L69.8613,179.643L70.0568,179.752L70.2553,179.857L70.4562,179.957L70.6598,180.052L70.8657,180.142L71.0742,180.227L71.285,180.307L71.498,180.382L71.7134,180.452L71.9313,180.517L72.151,180.576L72.3734,180.631L72.5979,180.68L72.8245,180.723L73.0539,180.761L73.2852,180.793L73.5191,180.82L73.7555,180.841L73.9942,180.856L74.2357,180.865L74.4798,180.868Z" style="fill:rgb(210,210,210);"/>
        <path d="M140.434,189.676L140.2,189.675L139.967,189.671L139.735,189.663L139.503,189.653L139.272,189.64L139.042,189.624L138.812,189.605L138.584,189.583L138.356,189.558L138.129,189.531L137.903,189.501L137.678,189.468L137.454,189.432L137.23,189.394L137.008,189.353L136.786,189.309L136.566,189.262L136.347,189.213L136.128,189.161L135.911,189.107L135.694,189.05L135.479,188.99L135.265,188.928L135.052,188.863L134.84,188.795L134.629,188.725L134.419,188.653L134.211,188.578L134.004,188.501L133.797,188.421L133.593,188.339L133.389,188.254L133.186,188.167L132.985,188.078L132.786,187.986L132.587,187.892L132.39,187.795L132.194,187.696L132,187.595L131.807,187.492L131.615,187.386L131.425,187.278L131.236,187.168L131.049,187.056L130.863,186.942L130.678,186.825L130.496,186.706L130.314,186.585L130.135,186.462L129.956,186.337L129.78,186.21L129.605,186.081L129.431,185.949L129.259,185.816L129.089,185.681L128.921,185.543L128.754,185.404L128.589,185.263L128.426,185.119L128.264,184.974L128.104,184.827L127.946,184.678L127.79,184.528L127.636,184.375L127.483,184.221L127.332,184.064L127.183,183.906L127.036,183.746L126.891,183.585L126.748,183.422L126.607,183.256L126.467,183.09L126.33,182.921L126.195,182.751L126.061,182.579L125.93,182.406L125.801,182.231L125.673,182.054L125.548,181.876L125.425,181.696L125.304,181.515L125.186,181.332L125.069,181.148L124.955,180.962L124.842,180.775L124.732,180.586L124.624,180.396L124.519,180.204L124.415,180.011L124.314,179.816L124.215,179.621L124.119,179.423L124.025,179.225L123.933,179.025L123.844,178.824L123.757,178.622L123.672,178.418L123.59,178.213L123.51,178.007L123.432,177.8L123.358,177.591L123.285,177.382L123.215,177.171L123.148,176.959L123.083,176.746L123.021,176.531L122.961,176.316L122.904,176.1L122.849,175.882L122.798,175.664L122.748,175.445L122.702,175.224L122.658,175.003L122.617,174.78L122.578,174.557L122.543,174.333L122.51,174.108L122.48,173.882L122.452,173.655L122.428,173.427L122.406,173.198L122.387,172.969L122.371,172.739L122.358,172.508L122.347,172.276L122.34,172.043L122.336,171.81L122.334,171.576L122.336,171.342L122.34,171.109L122.347,170.877L122.358,170.645L122.371,170.414L122.387,170.184L122.406,169.954L122.428,169.726L122.452,169.498L122.48,169.271L122.51,169.045L122.543,168.82L122.578,168.596L122.617,168.372L122.658,168.15L122.702,167.928L122.748,167.708L122.798,167.489L122.849,167.27L122.904,167.053L122.961,166.836L123.021,166.621L123.083,166.407L123.148,166.194L123.215,165.982L123.285,165.771L123.358,165.561L123.432,165.353L123.51,165.146L123.59,164.939L123.672,164.735L123.757,164.531L123.844,164.328L123.933,164.127L124.025,163.928L124.119,163.729L124.215,163.532L124.314,163.336L124.415,163.142L124.519,162.949L124.624,162.757L124.732,162.567L124.842,162.378L124.955,162.191L125.069,162.005L125.186,161.82L125.304,161.638L125.425,161.456L125.548,161.277L125.673,161.098L125.801,160.922L125.93,160.747L126.061,160.573L126.195,160.401L126.33,160.231L126.467,160.063L126.607,159.896L126.748,159.731L126.891,159.568L127.036,159.406L127.183,159.246L127.332,159.088L127.483,158.932L127.636,158.778L127.79,158.625L127.946,158.474L128.104,158.325L128.264,158.178L128.426,158.033L128.589,157.89L128.754,157.749L128.921,157.609L129.089,157.472L129.259,157.337L129.431,157.203L129.605,157.072L129.78,156.943L129.956,156.815L130.135,156.69L130.314,156.567L130.496,156.446L130.678,156.328L130.863,156.211L131.049,156.097L131.236,155.984L131.425,155.874L131.615,155.766L131.807,155.661L132,155.557L132.194,155.456L132.39,155.357L132.587,155.261L132.786,155.167L132.985,155.075L133.186,154.986L133.389,154.898L133.593,154.814L133.797,154.732L134.004,154.652L134.211,154.574L134.419,154.5L134.629,154.427L134.84,154.357L135.052,154.29L135.265,154.225L135.479,154.163L135.694,154.103L135.911,154.046L136.128,153.991L136.347,153.94L136.566,153.89L136.786,153.844L137.008,153.8L137.23,153.759L137.454,153.72L137.678,153.685L137.903,153.652L138.129,153.622L138.356,153.594L138.584,153.57L138.812,153.548L139.042,153.529L139.272,153.513L139.503,153.5L139.735,153.489L139.967,153.482L140.2,153.478L140.434,153.476L140.668,153.478L140.901,153.482L141.134,153.489L141.366,153.5L141.597,153.513L141.827,153.529L142.056,153.548L142.285,153.57L142.513,153.594L142.74,153.622L142.966,153.652L143.191,153.685L143.415,153.72L143.638,153.759L143.861,153.8L144.082,153.844L144.303,153.89L144.522,153.94L144.74,153.991L144.958,154.046L145.174,154.103L145.389,154.163L145.604,154.225L145.817,154.29L146.029,154.357L146.24,154.427L146.449,154.5L146.658,154.574L146.865,154.652L147.071,154.732L147.276,154.814L147.48,154.898L147.682,154.986L147.883,155.075L148.083,155.167L148.281,155.261L148.479,155.357L148.674,155.456L148.869,155.557L149.062,155.661L149.254,155.766L149.444,155.874L149.633,155.984L149.82,156.097L150.006,156.211L150.19,156.328L150.373,156.446L150.554,156.567L150.734,156.69L150.912,156.815L151.089,156.943L151.264,157.072L151.437,157.203L151.609,157.337L151.779,157.472L151.948,157.609L152.114,157.749L152.28,157.89L152.443,158.033L152.604,158.178L152.764,158.325L152.922,158.474L153.079,158.625L153.233,158.778L153.386,158.932L153.536,159.088L153.685,159.246L153.832,159.406L153.977,159.568L154.121,159.731L154.262,159.896L154.401,160.063L154.539,160.231L154.674,160.401L154.807,160.573L154.939,160.747L155.068,160.922L155.195,161.098L155.32,161.277L155.443,161.456L155.564,161.638L155.683,161.82L155.8,162.005L155.914,162.191L156.026,162.378L156.136,162.567L156.244,162.757L156.35,162.949L156.453,163.142L156.554,163.336L156.653,163.532L156.75,163.729L156.844,163.928L156.936,164.127L157.025,164.328L157.112,164.531L157.197,164.735L157.279,164.939L157.359,165.146L157.436,165.353L157.511,165.561L157.583,165.771L157.653,165.982L157.721,166.194L157.786,166.407L157.848,166.621L157.908,166.836L157.965,167.053L158.019,167.27L158.071,167.489L158.12,167.708L158.167,167.928L158.211,168.15L158.252,168.372L158.29,168.596L158.326,168.82L158.359,169.045L158.389,169.271L158.416,169.498L158.441,169.726L158.463,169.954L158.482,170.184L158.498,170.414L158.511,170.645L158.521,170.877L158.529,171.109L158.533,171.342L158.534,171.576L158.533,171.81L158.529,172.043L158.521,172.276L158.511,172.508L158.498,172.739L158.482,172.969L158.463,173.198L158.441,173.427L158.416,173.655L158.389,173.882L158.359,174.108L158.326,174.333L158.29,174.557L158.252,174.78L158.211,175.003L158.167,175.224L158.12,175.445L158.071,175.664L158.019,175.882L157.965,176.1L157.908,176.316L157.848,176.531L157.786,176.746L157.721,176.959L157.653,177.171L157.583,177.382L157.511,177.591L157.436,177.8L157.359,178.007L157.279,178.213L157.197,178.418L157.112,178.622L157.025,178.824L156.936,179.025L156.844,179.225L156.75,179.423L156.653,179.621L156.554,179.816L156.453,180.011L156.35,180.204L156.244,180.396L156.136,180.586L156.026,180.775L155.914,180.962L155.8,181.148L155.683,181.332L155.564,181.515L155.443,181.696L155.32,181.876L155.195,182.054L155.068,182.231L154.939,182.406L154.807,182.579L154.674,182.751L154.539,182.921L154.401,183.09L154.262,183.256L154.121,183.422L153.977,183.585L153.832,183.746L153.685,183.906L153.536,184.064L153.386,184.221L153.233,184.375L153.079,184.528L152.922,184.678L152.764,184.827L152.604,184.974L152.443,185.119L152.28,185.263L152.114,185.404L151.948,185.543L151.779,185.681L151.609,185.816L151.437,185.949L151.264,186.081L151.089,186.21L150.912,186.337L150.734,186.462L150.554,186.585L150.373,186.706L150.19,186.825L150.006,186.942L149.82,187.056L149.633,187.168L149.444,187.278L149.254,187.386L149.062,187.492L148.869,187.595L148.674,187.696L148.479,187.795L148.281,187.892L148.083,187.986L147.883,188.078L147.682,188.167L147.48,188.254L147.276,188.339L147.071,188.421L146.865,188.501L146.658,188.578L146.449,188.653L146.24,188.725L146.029,188.795L145.817,188.863L145.604,188.928L145.389,188.99L145.174,189.05L144.958,189.107L144.74,189.161L144.522,189.213L144.303,189.262L144.082,189.309L143.861,189.353L143.638,189.394L143.415,189.432L143.191,189.468L142.966,189.501L142.74,189.531L142.513,189.558L142.285,189.583L142.056,189.605L141.827,189.624L141.597,189.64L141.366,189.653L141.134,189.663L140.901,189.671L140.668,189.675L140.434,189.676ZM140.434,180.868L140.557,180.867L140.678,180.865L140.799,180.861L140.92,180.856L141.04,180.849L141.159,180.84L141.277,180.831L141.395,180.819L141.512,180.807L141.629,180.793L141.745,180.777L141.86,180.76L141.975,180.742L142.09,180.722L142.203,180.701L142.316,180.679L142.429,180.655L142.541,180.63L142.652,180.604L142.763,180.576L142.873,180.547L142.983,180.516L143.092,180.485L143.201,180.452L143.309,180.417L143.416,180.382L143.523,180.345L143.629,180.307L143.735,180.267L143.84,180.227L143.944,180.185L144.048,180.141L144.152,180.097L144.254,180.051L144.356,180.004L144.458,179.956L144.559,179.907L144.659,179.856L144.758,179.805L144.857,179.752L144.955,179.697L145.053,179.642L145.15,179.586L145.246,179.528L145.341,179.469L145.436,179.409L145.53,179.348L145.623,179.286L145.716,179.223L145.807,179.158L145.898,179.093L145.988,179.026L146.078,178.959L146.166,178.89L146.254,178.82L146.341,178.749L146.427,178.678L146.512,178.605L146.596,178.531L146.68,178.456L146.762,178.38L146.844,178.303L146.925,178.225L147.004,178.146L147.083,178.067L147.161,177.986L147.238,177.904L147.314,177.822L147.389,177.738L147.463,177.654L147.536,177.569L147.607,177.483L147.678,177.396L147.748,177.308L147.817,177.22L147.884,177.131L147.951,177.04L148.017,176.949L148.081,176.858L148.144,176.765L148.206,176.672L148.267,176.578L148.327,176.483L148.386,176.388L148.444,176.292L148.5,176.195L148.555,176.097L148.61,175.999L148.663,175.9L148.714,175.801L148.765,175.7L148.814,175.6L148.862,175.499L148.909,175.396L148.955,175.293L148.999,175.19L149.042,175.087L149.084,174.982L149.125,174.877L149.165,174.771L149.203,174.665L149.24,174.558L149.275,174.451L149.31,174.343L149.343,174.234L149.374,174.125L149.405,174.015L149.434,173.905L149.462,173.794L149.488,173.683L149.513,173.571L149.537,173.458L149.559,173.345L149.58,173.231L149.6,173.117L149.618,173.002L149.635,172.887L149.651,172.771L149.665,172.654L149.677,172.537L149.689,172.419L149.698,172.301L149.707,172.182L149.714,172.062L149.719,171.942L149.723,171.82L149.725,171.699L149.726,171.576L149.725,171.454L149.723,171.332L149.719,171.211L149.714,171.091L149.707,170.971L149.698,170.852L149.689,170.733L149.677,170.616L149.665,170.498L149.651,170.382L149.635,170.266L149.618,170.15L149.6,170.036L149.58,169.921L149.559,169.807L149.537,169.694L149.513,169.582L149.488,169.47L149.462,169.358L149.434,169.247L149.405,169.137L149.374,169.028L149.343,168.919L149.31,168.81L149.275,168.702L149.24,168.594L149.203,168.488L149.165,168.381L149.125,168.276L149.084,168.171L149.042,168.066L148.999,167.962L148.955,167.859L148.909,167.756L148.862,167.654L148.814,167.553L148.765,167.452L148.714,167.352L148.663,167.252L148.61,167.154L148.555,167.055L148.5,166.958L148.444,166.861L148.386,166.765L148.327,166.669L148.267,166.575L148.206,166.481L148.144,166.387L148.081,166.295L148.017,166.203L147.951,166.112L147.884,166.022L147.817,165.933L147.748,165.844L147.678,165.756L147.607,165.67L147.536,165.584L147.463,165.498L147.389,165.414L147.314,165.331L147.238,165.248L147.161,165.167L147.083,165.086L147.004,165.006L146.925,164.927L146.844,164.85L146.762,164.773L146.68,164.697L146.596,164.622L146.512,164.548L146.427,164.475L146.341,164.403L146.254,164.332L146.167,164.263L146.078,164.194L145.988,164.126L145.898,164.059L145.807,163.994L145.716,163.93L145.623,163.866L145.53,163.804L145.436,163.743L145.341,163.683L145.246,163.624L145.15,163.567L145.053,163.51L144.955,163.455L144.857,163.401L144.758,163.348L144.659,163.296L144.559,163.246L144.458,163.196L144.356,163.148L144.255,163.101L144.152,163.056L144.048,163.011L143.944,162.968L143.84,162.926L143.735,162.885L143.629,162.846L143.523,162.808L143.416,162.771L143.309,162.735L143.2,162.701L143.092,162.668L142.983,162.636L142.873,162.606L142.763,162.577L142.652,162.549L142.541,162.523L142.429,162.497L142.316,162.474L142.203,162.451L142.089,162.43L141.975,162.41L141.86,162.392L141.745,162.375L141.629,162.36L141.512,162.346L141.395,162.333L141.277,162.322L141.159,162.312L141.04,162.304L140.92,162.297L140.8,162.292L140.678,162.288L140.557,162.285L140.434,162.285L140.312,162.285L140.19,162.288L140.069,162.292L139.949,162.297L139.829,162.304L139.71,162.312L139.591,162.322L139.474,162.333L139.357,162.346L139.24,162.36L139.124,162.375L139.008,162.392L138.893,162.41L138.779,162.43L138.666,162.451L138.552,162.474L138.44,162.497L138.328,162.523L138.216,162.549L138.106,162.577L137.995,162.606L137.885,162.636L137.777,162.668L137.668,162.701L137.56,162.735L137.453,162.771L137.346,162.808L137.239,162.846L137.134,162.885L137.029,162.926L136.924,162.968L136.82,163.011L136.717,163.056L136.614,163.101L136.512,163.148L136.411,163.196L136.31,163.246L136.21,163.296L136.11,163.348L136.011,163.401L135.913,163.455L135.816,163.51L135.719,163.567L135.623,163.624L135.527,163.683L135.433,163.743L135.339,163.804L135.245,163.866L135.153,163.93L135.061,163.994L134.97,164.059L134.88,164.126L134.791,164.194L134.702,164.263L134.615,164.332L134.528,164.403L134.441,164.475L134.357,164.548L134.272,164.622L134.189,164.697L134.106,164.773L134.025,164.85L133.944,164.927L133.864,165.006L133.785,165.086L133.707,165.167L133.631,165.248L133.555,165.331L133.48,165.414L133.406,165.498L133.333,165.584L133.261,165.67L133.19,165.756L133.12,165.844L133.052,165.933L132.984,166.022L132.918,166.112L132.852,166.203L132.788,166.295L132.724,166.387L132.662,166.481L132.601,166.575L132.541,166.669L132.482,166.765L132.425,166.861L132.368,166.958L132.313,167.055L132.259,167.153L132.206,167.252L132.154,167.352L132.104,167.452L132.054,167.553L132.006,167.654L131.959,167.756L131.914,167.859L131.869,167.962L131.826,168.066L131.784,168.171L131.743,168.276L131.704,168.381L131.666,168.488L131.629,168.594L131.593,168.702L131.559,168.81L131.526,168.919L131.494,169.028L131.464,169.137L131.435,169.247L131.407,169.358L131.38,169.47L131.355,169.582L131.332,169.694L131.309,169.807L131.288,169.921L131.268,170.036L131.25,170.15L131.233,170.266L131.218,170.382L131.204,170.498L131.191,170.616L131.18,170.733L131.17,170.852L131.162,170.971L131.155,171.091L131.15,171.211L131.146,171.332L131.143,171.454L131.143,171.576L131.146,171.82L131.155,172.062L131.17,172.301L131.191,172.537L131.218,172.771L131.25,173.002L131.288,173.231L131.332,173.458L131.38,173.683L131.435,173.905L131.494,174.125L131.559,174.343L131.629,174.558L131.704,174.771L131.784,174.982L131.869,175.19L131.959,175.396L132.054,175.6L132.154,175.801L132.259,175.999L132.368,176.195L132.482,176.388L132.601,176.578L132.724,176.765L132.852,176.949L132.984,177.131L133.12,177.308L133.261,177.483L133.406,177.654L133.555,177.822L133.707,177.986L133.864,178.146L134.025,178.303L134.189,178.456L134.356,178.605L134.528,178.749L134.702,178.89L134.88,179.026L135.061,179.158L135.245,179.286L135.433,179.409L135.623,179.528L135.816,179.642L136.011,179.752L136.21,179.856L136.411,179.956L136.614,180.051L136.82,180.141L137.029,180.227L137.239,180.307L137.453,180.382L137.668,180.452L137.886,180.516L138.106,180.576L138.328,180.63L138.552,180.679L138.779,180.722L139.008,180.76L139.24,180.793L139.474,180.819L139.71,180.84L139.949,180.856L140.19,180.865L140.434,180.868Z" style="fill:rgb(210,210,210);"/>
    </g>
</svg>
