<?xml version="1.0" standalone="no"?>
<!DOCTYPE svg PUBLIC "-//W3C//DTD SVG 1.1//EN" "http://www.w3.org/Graphics/SVG/1.1/DTD/svg11.dtd">
<svg width="26px" height="26px" viewBox="0 0 21 21" version="1.1" xmlns="http://www.w3.org/2000/svg" xmlns:xlink="http://www.w3.org/1999/xlink" xml:space="preserve" style="fill-rule:evenodd;clip-rule:evenodd;stroke-linejoin:round;stroke-miterlimit:1.41421;">
    <g transform="matrix(1,0,0,1,-311,-42)">
        <g id="decrypt" transform="matrix(0.0808182,-1.77427e-30,-1.77427e-30,0.0808182,321.475,31.5985)">
            <g transform="matrix(1.04047,4.44594e-32,6.66891e-32,1.04047,-552.698,25.7935)">
                <path d="M496.063,294.639L514.82,219.611L514.299,219.328L513.784,219.035L513.274,218.735L512.77,218.426L512.271,218.109L511.778,217.784L511.291,217.451L510.809,217.111L510.334,216.762L509.864,216.406L509.401,216.042L508.944,215.671L508.493,215.292L508.049,214.906L507.611,214.513L507.18,214.113L506.756,213.706L506.338,213.292L505.927,212.871L505.524,212.443L505.127,212.008L504.737,211.567L504.355,211.12L503.98,210.666L503.612,210.206L503.252,209.74L502.9,209.267L502.555,208.789L502.219,208.304L501.89,207.814L501.569,207.318L501.256,206.817L500.951,206.31L500.655,205.797L500.366,205.279L500.087,204.756L499.816,204.227L499.553,203.694L499.3,203.156L499.055,202.612L498.819,202.064L498.592,201.511L498.374,200.954L498.165,200.392L497.966,199.825L497.776,199.254L497.595,198.679L497.424,198.1L497.263,197.516L497.111,196.929L496.969,196.338L496.837,195.743L496.716,195.144L496.604,194.542L496.502,193.936L496.411,193.327L496.33,192.714L496.26,192.098L496.2,191.479L496.151,190.857L496.113,190.232L496.085,189.604L496.069,188.973L496.063,188.34L496.074,187.429L496.109,186.524L496.166,185.624L496.245,184.731L496.345,183.845L496.468,182.965L496.612,182.092L496.777,181.226L496.963,180.368L497.17,179.518L497.397,178.676L497.644,177.842L497.911,177.017L498.197,176.202L498.502,175.395L498.827,174.598L499.17,173.81L499.531,173.033L499.91,172.266L500.308,171.509L500.723,170.764L501.155,170.03L501.604,169.307L502.07,168.595L502.552,167.896L503.051,167.209L503.565,166.535L504.095,165.873L504.64,165.225L505.201,164.589L505.776,163.968L506.366,163.36L506.97,162.767L507.588,162.188L508.22,161.624L508.865,161.074L509.524,160.541L510.195,160.022L510.879,159.52L511.575,159.033L512.283,158.563L513.003,158.11L513.735,157.673L514.477,157.254L515.231,156.852L515.995,156.468L516.77,156.102L517.555,155.755L518.35,155.426L519.154,155.116L519.968,154.825L520.791,154.553L521.622,154.301L522.462,154.069L523.31,153.857L524.166,153.666L525.03,153.496L525.901,153.346L526.779,153.218L527.664,153.112L528.556,153.027L529.453,152.965L530.357,152.925L531.267,152.908L531.496,152.907L531.725,152.908L532.635,152.925L533.539,152.965L534.437,153.027L535.328,153.112L536.213,153.218L537.091,153.346L537.962,153.496L538.826,153.666L539.682,153.857L540.53,154.069L541.37,154.301L542.202,154.553L543.024,154.825L543.838,155.116L544.642,155.426L545.437,155.755L546.222,156.102L546.997,156.468L547.761,156.852L548.515,157.254L549.258,157.673L549.989,158.11L550.709,158.563L551.417,159.033L552.113,159.52L552.797,160.022L553.469,160.541L554.127,161.074L554.772,161.624L555.404,162.188L556.022,162.767L556.626,163.36L557.216,163.968L557.791,164.589L558.352,165.225L558.897,165.873L559.427,166.535L559.942,167.209L560.44,167.896L560.922,168.595L561.388,169.307L561.837,170.03L562.27,170.764L562.684,171.509L563.082,172.266L563.461,173.033L563.823,173.81L564.166,174.598L564.49,175.395L564.795,176.202L565.082,177.017L565.348,177.842L565.595,178.676L565.822,179.518L566.029,180.368L566.215,181.226L566.38,182.092L566.524,182.965L566.647,183.845L566.748,184.731L566.827,185.624L566.883,186.524L566.918,187.429L566.929,188.34L566.924,188.973L566.907,189.604L566.879,190.232L566.841,190.857L566.792,191.479L566.732,192.098L566.662,192.714L566.581,193.327L566.49,193.936L566.388,194.542L566.276,195.144L566.155,195.743L566.023,196.338L565.881,196.929L565.729,197.516L565.568,198.1L565.397,198.679L565.216,199.254L565.026,199.825L564.827,200.392L564.618,200.954L564.4,201.511L564.173,202.064L563.937,202.612L563.693,203.156L563.439,203.694L563.176,204.227L562.905,204.756L562.626,205.279L562.338,205.797L562.041,206.31L561.736,206.817L561.424,207.318L561.103,207.814L560.774,208.304L560.437,208.789L560.092,209.267L559.74,209.74L559.38,210.206L559.012,210.666L558.637,211.12L558.255,211.567L557.865,212.008L557.469,212.443L557.065,212.871L556.654,213.292L556.236,213.706L555.812,214.113L555.381,214.513L554.943,214.906L554.499,215.292L554.048,215.671L553.591,216.042L553.128,216.406L552.658,216.762L552.183,217.111L551.701,217.451L551.214,217.784L550.721,218.109L550.222,218.426L549.718,218.735L549.208,219.035L548.693,219.328L548.172,219.611L566.929,294.639L496.063,294.639ZM510.721,283.195L552.271,283.195L534.923,213.802L543.129,209.326L543.478,209.128L543.824,208.924L544.166,208.715L544.504,208.5L544.839,208.28L545.167,208.055L545.493,207.825L545.815,207.588L546.135,207.346L546.449,207.099L546.76,206.846L547.066,206.59L547.366,206.329L547.662,206.063L547.957,205.789L548.246,205.512L548.527,205.233L548.807,204.946L549.083,204.654L549.35,204.362L549.613,204.063L549.875,203.757L550.13,203.448L550.377,203.139L550.622,202.822L550.862,202.5L551.096,202.176L551.323,201.849L551.546,201.517L551.766,201.177L551.977,200.838L552.182,200.498L552.381,200.153L552.578,199.799L552.768,199.444L552.949,199.091L553.126,198.73L553.299,198.364L553.464,197.997L553.623,197.629L553.776,197.256L553.923,196.879L554.065,196.497L554.2,196.115L554.326,195.735L554.447,195.348L554.564,194.952L554.673,194.559L554.775,194.166L554.871,193.764L554.96,193.363L555.042,192.961L555.118,192.55L555.187,192.14L555.248,191.733L555.302,191.317L555.35,190.898L555.391,190.478L555.424,190.058L555.45,189.63L555.469,189.201L555.48,188.773L555.484,188.36L555.476,187.72L555.452,187.102L555.414,186.488L555.36,185.882L555.292,185.282L555.209,184.686L555.111,184.096L555,183.512L554.875,182.934L554.735,182.359L554.582,181.791L554.415,181.229L554.235,180.671L554.043,180.123L553.836,179.578L553.617,179.038L553.386,178.508L553.142,177.984L552.886,177.466L552.617,176.954L552.336,176.449L552.043,175.951L551.74,175.463L551.424,174.982L551.098,174.508L550.759,174.041L550.41,173.584L550.05,173.135L549.681,172.695L549.301,172.265L548.91,171.843L548.508,171.428L548.098,171.026L547.679,170.634L547.25,170.25L546.812,169.877L546.366,169.515L545.911,169.164L545.447,168.823L544.975,168.493L544.494,168.174L544.007,167.867L543.513,167.573L543.01,167.289L542.499,167.017L541.984,166.758L541.461,166.511L540.93,166.275L540.394,166.053L539.851,165.844L539.303,165.648L538.748,165.465L538.186,165.295L537.62,165.138L537.049,164.996L536.47,164.867L535.887,164.751L535.298,164.65L534.704,164.564L534.105,164.492L533.5,164.434L532.889,164.392L532.274,164.365L531.599,164.352L531.496,164.352L531.393,164.352L530.719,164.365L530.103,164.392L529.492,164.434L528.888,164.492L528.288,164.564L527.694,164.65L527.105,164.751L526.522,164.867L525.943,164.996L525.372,165.138L524.806,165.295L524.244,165.465L523.689,165.648L523.141,165.844L522.598,166.053L522.062,166.275L521.532,166.511L521.009,166.758L520.493,167.017L519.982,167.289L519.479,167.573L518.985,167.867L518.498,168.174L518.017,168.493L517.545,168.823L517.082,169.163L516.627,169.515L516.179,169.878L515.742,170.25L515.314,170.632L514.894,171.026L514.483,171.43L514.082,171.843L513.693,172.263L513.312,172.695L512.94,173.137L512.582,173.584L512.233,174.041L511.894,174.508L511.569,174.979L511.253,175.463L510.948,175.953L510.656,176.449L510.375,176.954L510.106,177.466L509.85,177.984L509.606,178.508L509.375,179.038L509.156,179.578L508.949,180.123L508.757,180.671L508.577,181.229L508.41,181.791L508.257,182.359L508.117,182.934L507.992,183.512L507.881,184.096L507.783,184.686L507.7,185.282L507.632,185.882L507.578,186.488L507.54,187.102L507.516,187.717L507.508,188.362L507.512,188.773L507.523,189.201L507.542,189.634L507.568,190.058L507.601,190.478L507.642,190.898L507.689,191.313L507.744,191.729L507.806,192.144L507.875,192.554L507.95,192.961L508.032,193.363L508.121,193.764L508.218,194.166L508.319,194.559L508.428,194.952L508.545,195.348L508.665,195.731L508.793,196.115L508.929,196.501L509.069,196.879L509.216,197.256L509.369,197.629L509.528,197.997L509.693,198.364L509.864,198.727L510.042,199.088L510.226,199.447L510.416,199.802L510.609,200.149L510.809,200.495L511.017,200.842L511.229,201.18L511.446,201.517L511.669,201.849L511.896,202.176L512.13,202.5L512.368,202.819L512.615,203.139L512.864,203.451L513.117,203.757L513.377,204.061L513.642,204.362L513.911,204.656L514.185,204.946L514.465,205.233L514.746,205.512L515.035,205.789L515.328,206.061L515.625,206.327L515.929,206.591L516.234,206.848L516.543,207.099L516.857,207.346L517.177,207.588L517.499,207.825L517.823,208.054L518.154,208.28L518.49,208.501L518.826,208.715L519.168,208.924L519.514,209.128L519.861,209.325L528.07,213.799L510.721,283.195Z" style="fill:rgb(210,210,210);"/>
            </g>
            <g transform="matrix(12.3735,2.71645e-28,2.71645e-28,12.3735,-3458.07,-131.14)">
                <path d="M279.488,42L279.364,41.999L279.229,41.997L279.094,41.992L278.96,41.986L278.826,41.979L278.693,41.969L278.56,41.958L278.427,41.946L278.295,41.931L278.163,41.916L278.032,41.898L277.993,41.892L278.21,40.408L278.241,40.413L278.353,40.428L278.466,40.441L278.579,40.453L278.693,40.464L278.807,40.474L278.921,40.482L279.036,40.488L279.151,40.493L279.267,40.497L279.383,40.499L279.497,40.5L279.488,42ZM280.983,41.896L280.765,40.412L280.871,40.396L280.983,40.378L281.094,40.359L281.204,40.339L281.314,40.317L281.423,40.294L281.532,40.269L281.641,40.244L281.749,40.217L281.856,40.188L281.963,40.159L282.029,40.139L282.448,41.58L282.373,41.601L282.248,41.636L282.123,41.669L281.997,41.701L281.87,41.731L281.743,41.759L281.615,41.787L281.487,41.812L281.358,41.836L281.228,41.858L281.098,41.879L280.983,41.896ZM276.529,41.573L276.503,41.565L276.379,41.528L276.256,41.488L276.134,41.448L276.012,41.406L275.891,41.362L275.771,41.318L275.652,41.271L275.533,41.223L275.415,41.174L275.297,41.124L275.181,41.072L275.125,41.047L275.752,39.684L275.799,39.705L275.899,39.75L275.999,39.793L276.1,39.835L276.202,39.876L276.304,39.916L276.407,39.954L276.511,39.991L276.615,40.027L276.72,40.062L276.825,40.095L276.931,40.128L276.948,40.133L276.529,41.573ZM283.852,41.057L283.226,39.694L283.3,39.66L283.399,39.613L283.497,39.565L283.594,39.516L283.691,39.465L283.787,39.414L283.882,39.361L283.977,39.308L284.071,39.253L284.164,39.197L284.256,39.14L284.348,39.082L284.35,39.081L285.168,40.338L285.158,40.345L285.051,40.413L284.943,40.479L284.834,40.544L284.725,40.608L284.614,40.671L284.503,40.732L284.391,40.792L284.278,40.851L284.165,40.908L284.05,40.964L283.935,41.019L283.852,41.057ZM273.812,40.325L273.736,40.276L273.631,40.206L273.527,40.134L273.423,40.062L273.321,39.988L273.219,39.913L273.119,39.837L273.019,39.759L272.92,39.681L272.823,39.601L272.726,39.52L272.63,39.438L272.614,39.424L273.603,38.296L273.612,38.305L273.694,38.375L273.778,38.444L273.861,38.513L273.946,38.58L274.032,38.646L274.118,38.712L274.205,38.776L274.293,38.839L274.382,38.902L274.471,38.963L274.561,39.023L274.629,39.067L273.812,40.325ZM271.556,38.363L271.48,38.274L271.399,38.177L271.319,38.08L271.241,37.981L271.163,37.881L271.087,37.781L271.012,37.679L270.938,37.577L270.866,37.473L270.794,37.369L270.724,37.264L270.658,37.163L271.916,36.345L271.977,36.439L272.037,36.529L272.098,36.618L272.161,36.707L272.224,36.795L272.288,36.882L272.354,36.969L272.42,37.054L272.487,37.139L272.556,37.222L272.625,37.306L272.695,37.388L271.556,38.363ZM286.368,39.44L285.392,38.301L285.388,38.305L285.469,38.233L285.549,38.161L285.629,38.088L285.708,38.014L285.786,37.938L285.862,37.863L285.938,37.786L286.014,37.708L286.088,37.629L286.161,37.55L286.233,37.469L286.3,37.392L287.428,38.381L287.355,38.465L287.271,38.558L287.186,38.651L287.099,38.743L287.012,38.834L286.923,38.923L286.834,39.012L286.743,39.099L286.651,39.186L286.558,39.271L286.465,39.355L286.37,39.438L286.368,39.44ZM288.328,37.183L287.071,36.366L287.082,36.348L287.14,36.256L287.197,36.164L287.253,36.071L287.308,35.977L287.361,35.882L287.414,35.787L287.465,35.691L287.516,35.594L287.565,35.497L287.613,35.399L287.66,35.3L287.686,35.242L289.049,35.869L289.019,35.935L288.964,36.05L288.908,36.165L288.851,36.278L288.792,36.391L288.732,36.503L288.671,36.614L288.608,36.725L288.544,36.834L288.479,36.943L288.413,37.051L288.345,37.158L288.328,37.183ZM269.941,35.847L269.928,35.819L269.876,35.703L269.826,35.585L269.777,35.467L269.729,35.348L269.682,35.229L269.638,35.109L269.594,34.988L269.552,34.866L269.512,34.744L269.472,34.621L269.435,34.497L269.419,34.442L270.859,34.023L270.872,34.069L270.905,34.175L270.938,34.28L270.973,34.385L271.009,34.489L271.046,34.592L271.084,34.696L271.124,34.798L271.165,34.9L271.207,35.001L271.25,35.101L271.295,35.201L271.304,35.22L269.941,35.847ZM289.575,34.465L288.134,34.046L288.159,33.963L288.188,33.856L288.217,33.749L288.244,33.641L288.269,33.532L288.294,33.423L288.317,33.314L288.339,33.204L288.359,33.094L288.378,32.983L288.396,32.871L288.409,32.784L289.893,33.001L289.879,33.098L289.858,33.228L289.836,33.358L289.812,33.487L289.787,33.615L289.759,33.743L289.731,33.87L289.701,33.997L289.669,34.123L289.636,34.248L289.601,34.373L289.575,34.465ZM269.103,32.977L269.102,32.968L269.084,32.837L269.069,32.705L269.054,32.573L269.042,32.44L269.031,32.307L269.021,32.174L269.014,32.04L269.008,31.906L269.003,31.771L269.001,31.636L269,31.5L269,31.482L270.5,31.491L270.5,31.5L270.501,31.617L270.503,31.733L270.507,31.849L270.512,31.964L270.518,32.079L270.526,32.193L270.536,32.307L270.547,32.421L270.559,32.535L270.572,32.647L270.587,32.759L270.587,32.759L269.103,32.977ZM290,31.506L288.5,31.497L288.5,31.5L288.499,31.383L288.497,31.267L288.493,31.151L288.488,31.036L288.482,30.921L288.474,30.806L288.464,30.692L288.453,30.579L288.441,30.466L288.428,30.353L288.413,30.241L288.411,30.229L289.895,30.011L289.898,30.032L289.916,30.163L289.931,30.295L289.946,30.427L289.958,30.56L289.969,30.693L289.979,30.826L289.986,30.96L289.992,31.094L289.997,31.229L289.999,31.364L290,31.5L290,31.506ZM270.593,30.204L269.109,29.987L269.121,29.902L269.142,29.772L269.164,29.642L269.188,29.513L269.213,29.385L269.241,29.257L269.269,29.13L269.299,29.003L269.331,28.877L269.364,28.752L269.399,28.627L269.429,28.523L270.869,28.942L270.841,29.037L270.812,29.144L270.783,29.251L270.756,29.359L270.731,29.468L270.706,29.577L270.683,29.686L270.661,29.796L270.641,29.906L270.622,30.017L270.604,30.129L270.593,30.204ZM288.138,28.966L288.128,28.931L288.095,28.825L288.062,28.72L288.027,28.615L287.991,28.511L287.954,28.407L287.916,28.304L287.876,28.202L287.835,28.1L287.793,27.999L287.75,27.899L287.705,27.799L287.691,27.769L289.054,27.142L289.072,27.181L289.124,27.297L289.174,27.415L289.223,27.533L289.271,27.652L289.318,27.771L289.362,27.891L289.406,28.012L289.448,28.134L289.488,28.256L289.528,28.379L289.565,28.503L289.578,28.546L288.138,28.966ZM271.319,27.746L269.956,27.12L269.981,27.065L270.036,26.95L270.092,26.835L270.149,26.722L270.208,26.609L270.268,26.497L270.329,26.386L270.392,26.275L270.456,26.166L270.521,26.057L270.587,25.949L270.655,25.842L270.678,25.807L271.936,26.624L271.918,26.652L271.86,26.744L271.803,26.836L271.747,26.929L271.692,27.023L271.639,27.118L271.586,27.213L271.535,27.309L271.484,27.406L271.435,27.503L271.387,27.601L271.34,27.7L271.319,27.746ZM287.077,26.645L287.023,26.561L286.963,26.471L286.902,26.382L286.839,26.293L286.776,26.205L286.712,26.118L286.646,26.032L286.58,25.946L286.513,25.861L286.444,25.777L286.375,25.695L286.305,25.612L286.309,25.617L287.436,24.628L287.438,24.63L287.52,24.726L287.601,24.823L287.681,24.92L287.759,25.019L287.837,25.119L287.913,25.219L287.988,25.321L288.062,25.423L288.134,25.527L288.206,25.631L288.276,25.736L288.335,25.827L287.077,26.645ZM272.708,25.598L271.58,24.609L271.645,24.535L271.729,24.442L271.814,24.349L271.901,24.257L271.988,24.166L272.077,24.077L272.166,23.988L272.257,23.901L272.349,23.814L272.442,23.729L272.535,23.645L272.63,23.562L272.642,23.552L273.617,24.691L273.612,24.696L273.531,24.767L273.45,24.839L273.371,24.912L273.292,24.986L273.214,25.062L273.137,25.138L273.062,25.214L272.986,25.292L272.912,25.371L272.839,25.451L272.767,25.531L272.708,25.598ZM285.388,24.696L285.388,24.696L285.305,24.625L285.223,24.556L285.139,24.487L285.054,24.42L284.968,24.354L284.882,24.288L284.795,24.224L284.707,24.161L284.619,24.098L284.529,24.037L284.439,23.977L284.36,23.926L285.178,22.668L285.264,22.724L285.369,22.794L285.473,22.866L285.577,22.938L285.679,23.012L285.781,23.087L285.881,23.163L285.981,23.241L286.08,23.319L286.177,23.399L286.274,23.48L286.37,23.562L286.377,23.568L285.388,24.696ZM274.645,23.922L273.843,22.655L273.949,22.587L274.057,22.521L274.166,22.456L274.275,22.392L274.386,22.329L274.497,22.268L274.609,22.208L274.722,22.149L274.835,22.092L274.95,22.036L275.065,21.981L275.159,21.938L275.785,23.301L275.7,23.34L275.601,23.387L275.503,23.435L275.406,23.484L275.309,23.535L275.213,23.586L275.118,23.639L275.023,23.692L274.929,23.747L274.836,23.803L274.744,23.86L274.645,23.922ZM283.237,23.311L283.201,23.295L283.101,23.25L283.001,23.207L282.9,23.165L282.798,23.124L282.695,23.084L282.593,23.046L282.489,23.009L282.385,22.973L282.28,22.938L282.175,22.905L282.069,22.872L282.041,22.864L282.46,21.424L282.497,21.435L282.621,21.472L282.744,21.512L282.866,21.552L282.988,21.594L283.109,21.638L283.229,21.683L283.348,21.729L283.467,21.777L283.585,21.826L283.703,21.876L283.819,21.928L283.863,21.948L283.237,23.311ZM276.983,22.857L276.564,21.417L276.627,21.399L276.752,21.364L276.877,21.331L277.003,21.299L277.13,21.269L277.257,21.241L277.385,21.214L277.513,21.188L277.642,21.164L277.772,21.142L277.902,21.121L278.029,21.102L278.247,22.587L278.129,22.604L278.017,22.622L277.906,22.641L277.796,22.661L277.686,22.683L277.577,22.706L277.468,22.731L277.359,22.756L277.251,22.783L277.144,22.812L277.037,22.842L276.983,22.857ZM280.777,22.59L280.759,22.587L280.647,22.572L280.534,22.559L280.421,22.547L280.308,22.536L280.193,22.526L280.079,22.518L279.964,22.512L279.849,22.507L279.733,22.503L279.617,22.501L279.49,22.5L279.5,21L279.636,21.001L279.771,21.003L279.906,21.008L280.04,21.014L280.174,21.021L280.307,21.031L280.44,21.042L280.573,21.054L280.705,21.069L280.837,21.084L280.968,21.102L280.995,21.106L280.777,22.59Z" style="fill:rgb(210,210,210);"/>
            </g>
        </g>
    </g>
</svg>
