<?xml version="1.0" standalone="no"?>
<!DOCTYPE svg PUBLIC "-//W3C//DTD SVG 1.1//EN" "http://www.w3.org/Graphics/SVG/1.1/DTD/svg11.dtd">
<svg width="26px" height="26px" viewBox="0 0 212 212" version="1.1" xmlns="http://www.w3.org/2000/svg" xmlns:xlink="http://www.w3.org/1999/xlink" xml:space="preserve" style="fill-rule:evenodd;clip-rule:evenodd;stroke-linejoin:round;stroke-miterlimit:1.41421;">
    <g>
        <path d="M8.5233,212.651L8.40097,212.65L8.27892,212.648L8.15715,212.644L8.03568,212.638L7.91453,212.631L7.79371,212.622L7.67324,212.611L7.55312,212.599L7.43337,212.585L7.31401,212.57L7.19506,212.553L7.07652,212.534L6.95841,212.514L6.84074,212.492L6.72353,212.469L6.6068,212.444L6.49055,212.417L6.3748,212.389L6.25957,212.36L6.14487,212.329L6.03072,212.296L5.91712,212.262L5.8041,212.227L5.69166,212.19L5.57983,212.151L5.46861,212.111L5.35802,212.069L5.24808,212.026L5.1388,211.982L5.03019,211.936L4.92226,211.888L4.81504,211.84L4.70854,211.789L4.60276,211.737L4.49773,211.684L4.39346,211.63L4.28997,211.574L4.18726,211.516L4.08535,211.457L3.98426,211.397L3.884,211.336L3.78458,211.273L3.68603,211.208L3.58834,211.142L3.49155,211.075L3.39566,211.007L3.30068,210.937L3.20663,210.866L3.11353,210.793L3.02139,210.72L2.93023,210.645L2.84005,210.568L2.75087,210.49L2.66271,210.411L2.57558,210.331L2.4895,210.249L2.40447,210.166L2.32052,210.082L2.23766,209.997L2.1559,209.91L2.07526,209.822L1.99575,209.733L1.91738,209.642L1.84017,209.55L1.77436,209.47L1.7097,209.389L1.64619,209.308L1.58384,209.226L1.52264,209.143L1.46261,209.059L1.40374,208.975L1.34603,208.89L1.2895,208.805L1.23414,208.719L1.17995,208.632L1.12695,208.545L1.07512,208.458L1.02447,208.369L0.975013,208.281L0.926742,208.191L0.879663,208.101L0.833777,208.011L0.789088,207.92L0.745599,207.828L0.703312,207.737L0.66223,207.644L0.622355,207.551L0.58369,207.458L0.546239,207.364L0.510004,207.27L0.474987,207.175L0.441191,207.08L0.408619,206.984L0.377274,206.888L0.347158,206.792L0.318274,206.695L0.290625,206.598L0.264214,206.5L0.239043,206.402L0.215115,206.304L0.192433,206.206L0.170999,206.107L0.150817,206.007L0.131888,205.908L0.114216,205.808L0.0978038,205.708L0.0826533,205.607L0.0687677,205.507L0.0561495,205.406L0.0448016,205.304L0.0347268,205.203L0.0259276,205.101L0.0184068,204.999L0.0121673,204.897L0.00721155,204.794L0.00354246,204.692L0.00116271,204.589L7.50042e-05,204.486L0.000282083,204.383L0.00178667,204.279L0.00459148,204.176L0.00869924,204.072L0.0141127,203.968L0.0208345,203.864L0.0288675,203.76L0.0382143,203.656L0.0488777,203.552L0.0608604,203.448L0.11536,203.004L0.171448,202.561L0.229123,202.118L0.28838,201.676L0.349217,201.235L0.411629,200.794L0.475614,200.354L0.541168,199.915L0.608289,199.476L0.676971,199.037L0.747214,198.6L0.819012,198.163L0.892363,197.726L0.967263,197.29L1.04371,196.855L1.1217,196.42L1.20123,195.986L1.28229,195.553L1.36489,195.12L1.44902,194.688L1.53467,194.257L1.62184,193.826L1.71054,193.395L1.80075,192.966L1.89247,192.537L1.98571,192.109L2.08045,191.681L2.17669,191.254L2.27443,190.828L2.37367,190.402L2.4744,189.977L2.57662,189.553L2.68033,189.13L2.78552,188.707L2.89219,188.285L3.00033,187.863L3.10995,187.442L3.22104,187.022L3.3336,186.602L3.44761,186.184L3.56309,185.766L3.68002,185.348L3.79841,184.932L3.91825,184.516L4.03953,184.1L4.16226,183.686L4.28642,183.272L4.41202,182.859L4.53906,182.446L4.66752,182.035L4.79741,181.624L4.92873,181.214L5.06146,180.804L5.19561,180.395L5.33118,179.987L5.46815,179.58L5.60653,179.174L5.74631,178.768L5.88749,178.363L6.03007,177.959L6.17405,177.555L6.31941,177.153L6.46616,176.751L6.61429,176.349L6.7638,175.949L6.91469,175.549L7.06695,175.15L7.22059,174.752L7.37558,174.355L7.53195,173.959L7.68967,173.563L7.84875,173.168L8.00918,172.774L8.17096,172.38L8.33409,171.988L8.49856,171.596L8.66437,171.205L8.83152,170.815L9,170.426L9.16982,170.037L9.34096,169.65L9.51342,169.263L9.6872,168.877L9.8623,168.492L10.0387,168.107L10.2164,167.724L10.3955,167.341L10.5758,166.959L10.7574,166.578L10.9404,166.198L11.1246,165.819L11.3101,165.44L11.4969,165.063L11.685,164.686L11.8743,164.31L12.065,163.935L12.2569,163.561L12.4501,163.187L12.6445,162.815L12.8403,162.443L13.0372,162.073L13.2355,161.703L13.435,161.334L13.6357,160.966L13.8377,160.599L14.0409,160.233L14.2454,159.868L14.4511,159.503L14.658,159.14L14.8662,158.777L15.0756,158.415L15.2862,158.055L15.498,157.695L15.7111,157.336L15.9254,156.978L16.1409,156.621L16.3575,156.264L16.5754,155.909L16.7945,155.555L17.0148,155.201L17.2363,154.849L17.459,154.498L17.6828,154.147L17.9079,153.797L18.1341,153.449L18.3615,153.101L18.5901,152.754L18.8199,152.409L19.0508,152.064L19.2828,151.72L19.5161,151.377L19.7505,151.035L19.986,150.694L20.2227,150.354L20.4606,150.015L20.6996,149.677L20.9397,149.34L21.181,149.004L21.4234,148.669L21.6669,148.335L21.9116,148.002L22.1574,147.67L22.4043,147.339L22.6523,147.009L22.9015,146.68L23.1517,146.352L23.4031,146.025L23.6555,145.7L23.9091,145.375L24.1638,145.051L24.4195,144.728L24.6764,144.406L24.9343,144.085L25.1933,143.766L25.4534,143.447L25.7146,143.129L25.9768,142.813L26.2402,142.497L26.5046,142.183L26.77,141.869L27.0365,141.557L27.3041,141.246L27.5727,140.935L27.8424,140.626L28.1131,140.318L28.3849,140.011L28.6577,139.705L28.9315,139.4L29.2064,139.097L29.4823,138.794L29.7593,138.492L30.0373,138.192L30.3162,137.892L30.5962,137.594L30.8773,137.297L31.1593,137.001L31.4423,136.706L31.7264,136.412L32.0114,136.119L32.2975,135.827L32.5845,135.537L32.8725,135.248L33.1615,134.959L33.4515,134.672L33.7425,134.386L34.0345,134.101L34.3274,133.817L34.6213,133.535L34.9162,133.253L35.212,132.973L35.5088,132.694L35.8066,132.416L36.1053,132.139L36.4049,131.863L36.7056,131.589L37.0071,131.316L37.3096,131.043L37.613,130.772L37.9174,130.503L38.2227,130.234L38.5289,129.966L38.8361,129.7L39.1442,129.435L39.4532,129.171L39.7631,128.908L40.0739,128.647L40.3856,128.387L40.6982,128.127L41.0118,127.869L41.3262,127.613L41.6415,127.357L41.9577,127.103L42.2749,126.85L42.5928,126.598L42.9117,126.347L43.2315,126.098L43.5521,125.85L43.8736,125.603L44.1959,125.357L44.5192,125.113L44.8433,124.87L45.1682,124.628L45.494,124.387L45.8207,124.147L46.1482,123.909L46.4765,123.672L46.8057,123.437L47.1358,123.202L47.4666,122.969L47.7983,122.737L48.1308,122.506L48.4642,122.277L48.7984,122.049L49.1334,121.822L49.4692,121.597L49.8058,121.372L50.1432,121.149L50.4814,120.928L50.8205,120.707L51.1603,120.488L51.5009,120.271L51.8423,120.054L52.1845,119.839L52.5275,119.625L52.8713,119.413L53.2159,119.201L53.5612,118.992L53.9073,118.783L54.2542,118.576L54.6018,118.37L54.9502,118.165L55.2993,117.962L55.6492,117.76L55.9999,117.56L56.3513,117.36L56.7035,117.162L57.0023,117.477L57.303,117.791L57.6053,118.102L57.9095,118.411L58.2153,118.718L58.5229,119.024L58.8322,119.327L59.1433,119.629L59.456,119.929L59.7704,120.226L60.0865,120.522L60.4043,120.816L60.7238,121.107L61.0449,121.397L61.3676,121.685L61.6921,121.97L62.0181,122.254L62.3458,122.536L62.675,122.815L63.0059,123.093L63.3384,123.368L63.6725,123.642L64.0081,123.913L64.3454,124.182L64.6842,124.449L65.0245,124.714L65.3664,124.977L65.7098,125.238L66.0548,125.497L66.4013,125.753L66.7493,126.007L67.0988,126.26L67.4498,126.51L67.8022,126.757L68.1562,127.003L68.5116,127.247L68.8685,127.488L69.2268,127.727L69.5866,127.963L69.9478,128.198L70.3104,128.43L70.6745,128.66L71.0399,128.888L71.4068,129.114L71.775,129.337L72.1447,129.558L72.5156,129.776L72.888,129.992L73.2617,130.206L73.6368,130.418L74.0132,130.627L74.3909,130.834L74.77,131.039L75.1503,131.241L75.532,131.441L75.915,131.638L76.2992,131.834L76.6847,132.026L77.0715,132.216L77.4596,132.404L77.8489,132.59L78.2394,132.773L78.6312,132.953L79.0242,133.131L79.4184,133.307L79.8138,133.48L80.2105,133.65L80.6083,133.819L81.0073,133.984L81.4074,134.147L81.8088,134.308L82.2113,134.466L82.6149,134.621L83.0197,134.774L83.4256,134.925L83.8326,135.073L84.2407,135.218L84.65,135.361L85.0603,135.501L85.4717,135.638L85.8842,135.773L86.2978,135.905L86.7124,136.035L87.1281,136.162L87.5448,136.286L87.9625,136.408L88.3813,136.526L88.8011,136.643L89.2219,136.756L89.6437,136.867L90.0665,136.975L90.4903,137.081L90.915,137.184L91.3407,137.284L91.7674,137.381L92.195,137.475L92.6235,137.567L93.053,137.656L93.4834,137.742L93.9147,137.826L94.3469,137.906L94.78,137.984L95.214,138.059L95.6489,138.131L96.0846,138.2L96.5212,138.267L96.9587,138.33L97.397,138.391L97.8361,138.449L98.2761,138.504L98.7168,138.556L99.1584,138.605L99.6008,138.652L100.044,138.695L100.488,138.735L100.933,138.773L101.155,138.791L101.378,138.807L101.601,138.824L101.824,138.839L102.048,138.854L102.271,138.868L102.495,138.881L102.719,138.893L102.943,138.905L103.168,138.916L103.392,138.926L103.617,138.936L103.842,138.944L104.067,138.952L104.292,138.96L104.517,138.966L104.743,138.972L104.968,138.977L105.194,138.981L105.42,138.984L105.647,138.987L105.873,138.989L106.1,138.99L106.326,138.99L106.553,138.99L106.78,138.989L107.006,138.987L107.232,138.984L107.458,138.981L107.684,138.977L107.91,138.972L108.136,138.966L108.361,138.96L108.586,138.952L108.811,138.944L109.036,138.936L109.261,138.926L109.485,138.916L109.71,138.905L109.934,138.893L110.158,138.881L110.381,138.868L110.605,138.854L110.828,138.839L111.052,138.824L111.275,138.807L111.498,138.791L111.72,138.773L112.165,138.735L112.609,138.695L113.052,138.652L113.494,138.605L113.936,138.556L114.377,138.504L114.817,138.449L115.256,138.391L115.694,138.33L116.132,138.267L116.568,138.2L117.004,138.131L117.439,138.059L117.873,137.984L118.306,137.906L118.738,137.826L119.169,137.742L119.6,137.656L120.029,137.567L120.458,137.475L120.885,137.381L121.312,137.284L121.738,137.184L122.162,137.081L122.586,136.975L123.009,136.867L123.431,136.756L123.852,136.643L124.271,136.526L124.69,136.408L125.108,136.286L125.525,136.162L125.94,136.035L126.355,135.905L126.768,135.773L127.181,135.638L127.592,135.501L128.003,135.361L128.412,135.218L128.82,135.073L129.227,134.925L129.633,134.774L130.038,134.621L130.441,134.466L130.844,134.308L131.245,134.147L131.645,133.984L132.044,133.819L132.442,133.65L132.839,133.48L133.234,133.307L133.628,133.131L134.021,132.953L134.413,132.773L134.804,132.59L135.193,132.404L135.581,132.216L135.968,132.026L136.353,131.834L136.738,131.638L137.121,131.441L137.502,131.241L137.883,131.039L138.262,130.834L138.639,130.627L139.016,130.418L139.391,130.206L139.764,129.992L140.137,129.776L140.508,129.558L140.877,129.337L141.246,129.114L141.613,128.888L141.978,128.66L142.342,128.43L142.705,128.198L143.066,127.963L143.426,127.727L143.784,127.488L144.141,127.247L144.496,127.003L144.85,126.757L145.203,126.51L145.554,126.26L145.903,126.007L146.251,125.753L146.598,125.497L146.943,125.238L147.286,124.977L147.628,124.714L147.968,124.449L148.307,124.182L148.644,123.913L148.98,123.642L149.314,123.368L149.647,123.093L149.978,122.815L150.307,122.536L150.635,122.254L150.961,121.97L151.285,121.685L151.608,121.397L151.929,121.107L152.248,120.816L152.566,120.522L152.882,120.226L153.197,119.929L153.509,119.629L153.82,119.327L154.13,119.024L154.437,118.718L154.743,118.411L155.047,118.102L155.35,117.791L155.651,117.477L155.949,117.162L156.302,117.36L156.653,117.56L157.004,117.76L157.353,117.962L157.703,118.166L158.051,118.37L158.399,118.576L158.745,118.783L159.092,118.992L159.437,119.202L159.781,119.413L160.125,119.626L160.468,119.84L160.81,120.055L161.152,120.271L161.492,120.489L161.832,120.708L162.171,120.929L162.509,121.15L162.847,121.373L163.183,121.597L163.519,121.823L163.854,122.05L164.188,122.278L164.522,122.507L164.854,122.738L165.186,122.97L165.517,123.203L165.847,123.438L166.176,123.673L166.504,123.91L166.832,124.149L167.158,124.388L167.484,124.629L167.809,124.871L168.133,125.114L168.456,125.359L168.779,125.604L169.1,125.851L169.421,126.1L169.741,126.349L170.059,126.6L170.377,126.852L170.694,127.105L171.011,127.359L171.326,127.614L171.64,127.871L171.954,128.129L172.266,128.388L172.578,128.649L172.889,128.91L173.199,129.173L173.508,129.437L173.816,129.702L174.123,129.968L174.429,130.236L174.735,130.504L175.039,130.774L175.342,131.045L175.645,131.317L175.946,131.591L176.247,131.865L176.547,132.141L176.845,132.418L177.143,132.696L177.44,132.975L177.736,133.255L178.03,133.537L178.324,133.819L178.617,134.103L178.909,134.388L179.2,134.674L179.49,134.961L179.779,135.249L180.067,135.539L180.354,135.829L180.64,136.121L180.925,136.414L181.209,136.708L181.492,137.003L181.774,137.299L182.055,137.596L182.335,137.894L182.614,138.194L182.892,138.494L183.169,138.796L183.445,139.099L183.72,139.402L183.994,139.707L184.266,140.013L184.538,140.32L184.809,140.628L185.078,140.937L185.347,141.248L185.615,141.559L185.881,141.871L186.147,142.185L186.411,142.499L186.674,142.815L186.936,143.131L187.198,143.449L187.458,143.768L187.717,144.087L187.975,144.408L188.231,144.73L188.487,145.053L188.742,145.377L188.995,145.701L189.248,146.027L189.499,146.354L189.749,146.682L189.998,147.011L190.246,147.341L190.493,147.672L190.739,148.004L190.984,148.337L191.227,148.671L191.47,149.006L191.711,149.342L191.951,149.679L192.19,150.017L192.428,150.356L192.665,150.696L192.9,151.037L193.134,151.379L193.368,151.722L193.6,152.065L193.831,152.41L194.06,152.756L194.289,153.103L194.516,153.45L194.743,153.799L194.968,154.149L195.191,154.499L195.414,154.851L195.636,155.203L195.856,155.556L196.075,155.911L196.293,156.266L196.509,156.622L196.725,156.979L196.939,157.337L197.152,157.696L197.364,158.056L197.575,158.417L197.784,158.778L197.992,159.141L198.199,159.504L198.405,159.869L198.609,160.234L198.813,160.6L199.015,160.967L199.215,161.335L199.415,161.704L199.613,162.074L199.81,162.445L200.006,162.816L200.2,163.189L200.393,163.562L200.585,163.936L200.776,164.311L200.965,164.687L201.153,165.064L201.34,165.441L201.526,165.82L201.71,166.199L201.893,166.579L202.074,166.96L202.255,167.342L202.434,167.725L202.611,168.108L202.788,168.493L202.963,168.878L203.137,169.264L203.309,169.651L203.48,170.038L203.65,170.427L203.819,170.816L203.986,171.206L204.152,171.597L204.316,171.989L204.479,172.381L204.641,172.775L204.801,173.169L204.96,173.564L205.118,173.959L205.275,174.356L205.43,174.753L205.583,175.151L205.736,175.55L205.886,175.95L206.036,176.35L206.184,176.751L206.331,177.153L206.476,177.556L206.62,177.959L206.763,178.364L206.904,178.768L207.044,179.174L207.182,179.581L207.319,179.988L207.455,180.396L207.589,180.805L207.722,181.214L207.853,181.624L207.983,182.035L208.111,182.447L208.238,182.859L208.364,183.272L208.488,183.686L208.611,184.101L208.732,184.516L208.852,184.932L208.971,185.349L209.087,185.766L209.203,186.184L209.317,186.603L209.43,187.022L209.541,187.442L209.65,187.863L209.759,188.285L209.865,188.707L209.97,189.13L210.074,189.553L210.176,189.978L210.277,190.403L210.376,190.828L210.474,191.254L210.57,191.681L210.665,192.109L210.759,192.537L210.85,192.966L210.941,193.396L211.029,193.826L211.116,194.257L211.202,194.688L211.286,195.12L211.369,195.553L211.45,195.986L211.53,196.42L211.608,196.855L211.684,197.29L211.759,197.726L211.832,198.163L211.904,198.6L211.975,199.037L212.043,199.476L212.11,199.915L212.176,200.354L212.24,200.794L212.303,201.235L212.363,201.676L212.423,202.118L212.48,202.561L212.537,203.004L212.591,203.448L212.603,203.552L212.614,203.656L212.623,203.76L212.631,203.864L212.638,203.968L212.643,204.072L212.648,204.176L212.65,204.279L212.652,204.382L212.652,204.485L212.651,204.588L212.649,204.691L212.645,204.794L212.64,204.896L212.634,204.998L212.627,205.1L212.618,205.202L212.608,205.303L212.597,205.405L212.584,205.506L212.57,205.606L212.555,205.707L212.539,205.807L212.521,205.907L212.502,206.006L212.482,206.105L212.461,206.204L212.438,206.303L212.414,206.401L212.389,206.499L212.363,206.596L212.335,206.693L212.306,206.79L212.276,206.886L212.245,206.982L212.213,207.078L212.179,207.173L212.144,207.268L212.108,207.362L212.07,207.456L212.032,207.549L211.992,207.642L211.951,207.734L211.908,207.826L211.865,207.918L211.82,208.009L211.774,208.099L211.727,208.189L211.679,208.279L211.629,208.368L211.579,208.456L211.527,208.544L211.474,208.631L211.419,208.717L211.364,208.804L211.307,208.889L211.249,208.974L211.19,209.058L211.13,209.142L211.069,209.225L211.006,209.307L210.943,209.389L210.878,209.47L210.812,209.55L210.735,209.642L210.656,209.733L210.577,209.822L210.496,209.91L210.414,209.997L210.331,210.082L210.248,210.166L210.163,210.249L210.076,210.331L209.989,210.411L209.901,210.49L209.812,210.568L209.722,210.645L209.631,210.72L209.538,210.793L209.445,210.866L209.351,210.937L209.256,211.007L209.16,211.075L209.064,211.142L208.966,211.208L208.867,211.273L208.768,211.336L208.668,211.397L208.567,211.457L208.465,211.516L208.362,211.574L208.259,211.63L208.154,211.684L208.049,211.737L207.943,211.789L207.837,211.84L207.73,211.888L207.622,211.936L207.513,211.982L207.404,212.026L207.294,212.069L207.183,212.111L207.072,212.151L206.96,212.19L206.848,212.227L206.735,212.262L206.621,212.296L206.507,212.329L206.392,212.36L206.277,212.389L206.161,212.417L206.045,212.444L205.928,212.469L205.811,212.492L205.694,212.514L205.575,212.534L205.457,212.553L205.338,212.57L205.219,212.585L205.099,212.599L204.979,212.611L204.858,212.622L204.737,212.631L204.616,212.638L204.495,212.644L204.373,212.648L204.251,212.65L204.129,212.651L8.5233,212.651ZM16.3842,197.462L196.267,197.462L196.223,197.243L196.147,196.867L196.07,196.491L195.991,196.116L195.911,195.742L195.83,195.368L195.747,194.995L195.663,194.623L195.578,194.252L195.491,193.88L195.403,193.509L195.314,193.14L195.224,192.77L195.132,192.402L195.039,192.033L194.944,191.666L194.849,191.299L194.752,190.933L194.654,190.567L194.555,190.202L194.454,189.838L194.352,189.474L194.249,189.111L194.144,188.748L194.039,188.387L193.932,188.026L193.824,187.665L193.714,187.305L193.603,186.946L193.491,186.587L193.378,186.229L193.264,185.872L193.148,185.516L193.032,185.16L192.914,184.804L192.794,184.45L192.674,184.096L192.552,183.743L192.429,183.39L192.305,183.038L192.18,182.687L192.053,182.337L191.925,181.987L191.797,181.638L191.666,181.289L191.535,180.942L191.403,180.595L191.269,180.248L191.134,179.903L190.998,179.558L190.861,179.213L190.723,178.87L190.583,178.527L190.442,178.185L190.3,177.843L190.157,177.503L190.013,177.163L189.868,176.824L189.721,176.485L189.574,176.147L189.425,175.81L189.275,175.474L189.124,175.138L188.972,174.804L188.818,174.47L188.664,174.136L188.508,173.803L188.351,173.472L188.194,173.141L188.035,172.81L187.874,172.481L187.713,172.152L187.551,171.824L187.387,171.496L187.223,171.17L187.057,170.844L186.891,170.519L186.723,170.195L186.554,169.871L186.384,169.549L186.213,169.227L186.041,168.905L185.867,168.585L185.693,168.265L185.518,167.947L185.341,167.629L185.164,167.312L184.985,166.995L184.806,166.68L184.625,166.365L184.443,166.051L184.26,165.738L184.076,165.426L183.891,165.114L183.705,164.803L183.518,164.493L183.33,164.184L183.141,163.876L182.951,163.569L182.76,163.262L182.568,162.956L182.375,162.651L182.181,162.347L181.985,162.044L181.789,161.741L181.592,161.44L181.394,161.139L181.194,160.839L180.994,160.54L180.793,160.242L180.591,159.945L180.388,159.648L180.183,159.353L179.978,159.058L179.772,158.764L179.565,158.471L179.357,158.179L179.148,157.888L178.938,157.598L178.726,157.308L178.514,157.02L178.302,156.732L178.088,156.445L177.873,156.159L177.657,155.874L177.44,155.59L177.222,155.307L177.004,155.025L176.784,154.743L176.564,154.463L176.342,154.183L176.12,153.905L175.896,153.627L175.672,153.35L175.447,153.074L175.221,152.799L174.994,152.525L174.766,152.252L174.537,151.98L174.308,151.709L174.077,151.439L173.846,151.169L173.613,150.901L173.38,150.633L173.146,150.367L172.911,150.101L172.675,149.836L172.438,149.573L172.2,149.31L171.962,149.049L171.722,148.788L171.482,148.528L171.241,148.269L170.999,148.011L170.756,147.754L170.512,147.498L170.268,147.244L170.022,146.989L169.776,146.737L169.529,146.485L169.281,146.234L169.032,145.984L168.783,145.735L168.532,145.487L168.281,145.24L168.029,144.994L167.776,144.749L167.522,144.505L167.268,144.262L167.012,144.02L166.756,143.779L166.499,143.539L166.241,143.3L165.983,143.062L165.723,142.825L165.463,142.59L165.203,142.355L164.941,142.121L164.678,141.888L164.415,141.657L164.151,141.426L163.886,141.196L163.621,140.968L163.355,140.74L163.087,140.514L162.82,140.289L162.551,140.064L162.282,139.841L162.012,139.619L161.741,139.398L161.469,139.178L161.197,138.959L160.924,138.741L160.65,138.524L160.376,138.308L160.1,138.093L159.824,137.88L159.548,137.667L159.27,137.456L158.992,137.245L158.713,137.036L158.434,136.828L158.154,136.621L157.873,136.415L157.591,136.21L157.588,136.208L157.337,136.406L156.924,136.727L156.508,137.047L156.091,137.363L155.672,137.678L155.251,137.989L154.828,138.298L154.404,138.605L153.977,138.909L153.548,139.21L153.118,139.509L152.685,139.805L152.251,140.098L151.815,140.389L151.377,140.678L150.937,140.963L150.495,141.246L150.052,141.526L149.606,141.804L149.159,142.079L148.71,142.351L148.259,142.62L147.807,142.887L147.353,143.151L146.897,143.412L146.439,143.67L145.979,143.926L145.518,144.178L145.055,144.428L144.591,144.675L144.124,144.919L143.656,145.161L143.186,145.399L142.715,145.635L142.242,145.868L141.767,146.097L141.291,146.324L140.813,146.548L140.334,146.769L139.853,146.987L139.37,147.202L138.885,147.414L138.4,147.623L137.913,147.829L137.424,148.032L136.933,148.232L136.441,148.429L135.948,148.622L135.453,148.813L134.956,149.001L134.458,149.185L133.959,149.366L133.458,149.545L132.956,149.72L132.452,149.892L131.947,150.06L131.441,150.226L130.933,150.388L130.424,150.547L129.913,150.703L129.401,150.856L128.888,151.005L128.374,151.151L127.858,151.294L127.341,151.434L126.823,151.57L126.303,151.703L125.782,151.833L125.26,151.959L124.737,152.082L124.212,152.202L123.687,152.318L123.16,152.431L122.631,152.54L122.102,152.646L121.572,152.748L121.041,152.848L120.508,152.943L119.975,153.035L119.44,153.124L118.904,153.209L118.367,153.291L117.83,153.369L117.291,153.444L116.751,153.515L116.21,153.583L115.668,153.647L115.126,153.707L114.582,153.764L114.037,153.817L113.492,153.867L112.958,153.912L112.672,153.935L112.398,153.955L112.125,153.975L111.85,153.994L111.576,154.012L111.301,154.029L111.026,154.046L110.752,154.061L110.477,154.075L110.201,154.089L109.926,154.101L109.65,154.113L109.374,154.123L109.098,154.133L108.821,154.142L108.545,154.15L108.268,154.157L107.991,154.163L107.714,154.168L107.437,154.172L107.16,154.176L106.882,154.178L106.604,154.179L106.326,154.18L106.049,154.179L105.771,154.178L105.493,154.176L105.216,154.172L104.939,154.168L104.662,154.163L104.385,154.157L104.108,154.15L103.831,154.142L103.555,154.133L103.279,154.123L103.003,154.113L102.727,154.101L102.451,154.089L102.176,154.075L101.901,154.061L101.626,154.046L101.351,154.029L101.077,154.012L100.803,153.994L100.528,153.975L100.255,153.955L99.9805,153.935L99.6943,153.912L99.161,153.867L98.6155,153.817L98.0708,153.764L97.5273,153.707L96.9847,153.647L96.4427,153.583L95.9019,153.515L95.3622,153.444L94.8233,153.369L94.2856,153.291L93.7488,153.209L93.2129,153.124L92.6783,153.035L92.1448,152.943L91.6122,152.848L91.0807,152.748L90.5504,152.646L90.0213,152.54L89.4932,152.431L88.9662,152.318L88.4405,152.202L87.9161,152.082L87.3927,151.959L86.8708,151.833L86.3498,151.703L85.83,151.57L85.3118,151.434L84.7947,151.294L84.2788,151.151L83.7644,151.005L83.2512,150.856L82.7393,150.703L82.2287,150.547L81.7195,150.388L81.2118,150.226L80.7053,150.06L80.2004,149.892L79.6968,149.72L79.1944,149.545L78.6935,149.366L78.1942,149.185L77.6964,149.001L77.1999,148.813L76.705,148.622L76.2117,148.429L75.7195,148.232L75.2291,148.032L74.7401,147.829L74.2528,147.623L73.7671,147.414L73.2827,147.202L72.8,146.987L72.3188,146.769L71.8393,146.548L71.3615,146.324L70.8852,146.097L70.4105,145.868L69.9374,145.635L69.4662,145.399L68.9965,145.161L68.5283,144.92L68.0619,144.675L67.5974,144.428L67.1344,144.178L66.6731,143.926L66.2136,143.67L65.7559,143.412L65.2999,143.151L64.8455,142.887L64.393,142.62L63.9422,142.351L63.4932,142.079L63.0462,141.804L62.6008,141.526L62.1573,141.246L61.7156,140.963L61.2757,140.678L60.8377,140.389L60.4015,140.098L59.9673,139.805L59.5348,139.509L59.1043,139.21L58.6757,138.909L58.2489,138.605L57.824,138.298L57.4012,137.989L56.9802,137.677L56.5611,137.363L56.1441,137.047L55.7289,136.727L55.3158,136.406L55.0637,136.207L55.0601,136.209L54.7786,136.414L54.4977,136.62L54.2174,136.827L53.9378,137.036L53.6591,137.245L53.3811,137.455L53.1036,137.666L52.8269,137.879L52.551,138.093L52.2757,138.307L52.0013,138.523L51.7275,138.74L51.4545,138.958L51.1821,139.177L50.9105,139.397L50.6398,139.618L50.3696,139.84L50.1002,140.063L49.8317,140.288L49.5639,140.513L49.2968,140.739L49.0305,140.967L48.765,141.195L48.5,141.425L48.236,141.656L47.9729,141.887L47.7104,142.12L47.4487,142.353L47.1878,142.588L46.9277,142.824L46.6683,143.061L46.4098,143.299L46.152,143.538L45.895,143.778L45.6389,144.018L45.3836,144.26L45.1291,144.503L44.8753,144.747L44.6225,144.992L44.3703,145.238L44.119,145.485L43.8686,145.733L43.619,145.982L43.3703,146.232L43.1222,146.483L42.8751,146.735L42.6288,146.988L42.3833,147.242L42.1389,147.497L41.8951,147.753L41.6522,148.01L41.4101,148.268L41.169,148.526L40.9287,148.786L40.6892,149.047L40.4507,149.309L40.2129,149.571L39.9761,149.835L39.7402,150.1L39.5051,150.365L39.271,150.632L39.0377,150.899L38.8052,151.168L38.5737,151.437L38.3431,151.707L38.1134,151.978L37.8845,152.251L37.6566,152.524L37.4296,152.798L37.2036,153.073L36.9784,153.349L36.7542,153.625L36.5309,153.903L36.3084,154.182L36.0869,154.461L35.8665,154.742L35.6468,155.023L35.4281,155.305L35.2105,155.589L34.9937,155.873L34.7778,156.158L34.5629,156.444L34.349,156.73L34.136,157.018L33.924,157.307L33.713,157.596L33.5029,157.886L33.2938,158.178L33.0856,158.47L32.8785,158.763L32.6723,159.057L32.4671,159.351L32.2629,159.647L32.0596,159.943L31.8574,160.241L31.6562,160.539L31.4559,160.838L31.2566,161.138L31.0584,161.438L30.8612,161.74L30.6649,162.042L30.4697,162.346L30.2755,162.65L30.0823,162.955L29.8901,163.26L29.699,163.567L29.509,163.874L29.3199,164.183L29.1318,164.492L28.9448,164.802L28.7588,165.112L28.5739,165.424L28.39,165.736L28.2072,166.049L28.0255,166.363L27.8447,166.678L27.665,166.994L27.4864,167.31L27.309,167.627L27.1325,167.945L26.9571,168.264L26.7827,168.584L26.6095,168.904L26.4374,169.225L26.2663,169.547L26.0963,169.87L25.9273,170.193L25.7595,170.518L25.5929,170.843L25.4272,171.168L25.2627,171.495L25.0993,171.822L24.937,172.15L24.7757,172.479L24.6157,172.809L24.4567,173.139L24.2989,173.47L24.1421,173.802L23.9865,174.135L23.832,174.468L23.6787,174.802L23.5265,175.137L23.3754,175.473L23.2254,175.809L23.0766,176.146L22.929,176.484L22.7825,176.823L22.6372,177.162L22.493,177.502L22.3499,177.842L22.2081,178.184L22.0673,178.526L21.9278,178.869L21.7894,179.212L21.6522,179.557L21.5162,179.901L21.3814,180.247L21.2477,180.593L21.1152,180.941L20.9839,181.288L20.8538,181.637L20.7249,181.986L20.5972,182.336L20.4707,182.686L20.3454,183.037L20.2212,183.389L20.0984,183.742L19.9767,184.095L19.8562,184.449L19.7369,184.803L19.6189,185.159L19.5021,185.514L19.3865,185.871L19.2722,186.228L19.1591,186.586L19.0472,186.945L18.9365,187.304L18.8271,187.664L18.719,188.024L18.612,188.385L18.5063,188.747L18.4019,189.11L18.2988,189.473L18.1969,189.836L18.0962,190.201L17.9969,190.566L17.8988,190.931L17.802,191.298L17.7064,191.665L17.6121,192.032L17.5191,192.4L17.4274,192.769L17.337,193.138L17.2478,193.508L17.16,193.879L17.0734,194.25L16.9881,194.622L16.9042,194.994L16.8216,195.367L16.7402,195.741L16.6602,196.115L16.5814,196.49L16.504,196.865L16.428,197.241L16.3842,197.462Z" style="fill:rgb(210,210,210);"/>
        <path d="M106.326,129.11L105.961,129.109L105.597,129.106L105.234,129.1L104.871,129.092L104.509,129.082L104.147,129.069L103.786,129.055L103.425,129.037L103.065,129.018L102.705,128.997L102.346,128.973L101.988,128.947L101.63,128.919L101.272,128.888L100.916,128.856L100.56,128.821L100.204,128.784L99.8491,128.745L99.4948,128.704L99.1411,128.66L98.7881,128.614L98.4356,128.567L98.0839,128.517L97.7327,128.464L97.3822,128.41L97.0323,128.354L96.6831,128.295L96.3346,128.235L95.9867,128.172L95.6395,128.107L95.293,128.04L94.9472,127.971L94.6021,127.9L94.2576,127.827L93.9139,127.751L93.5709,127.674L93.2285,127.595L92.887,127.513L92.5461,127.43L92.206,127.344L91.8666,127.257L91.5279,127.167L91.19,127.076L90.8529,126.982L90.5165,126.886L90.1809,126.789L89.846,126.689L89.512,126.588L89.1787,126.484L88.8462,126.378L88.5145,126.271L88.1836,126.162L87.8535,126.05L87.5243,125.937L87.1958,125.822L86.8682,125.704L86.5414,125.585L86.2154,125.464L85.8903,125.341L85.566,125.216L85.2426,125.09L84.92,124.961L84.5983,124.83L84.2775,124.698L83.9575,124.564L83.6384,124.427L83.3202,124.289L83.0029,124.15L82.6866,124.008L82.3711,123.864L82.0565,123.719L81.7428,123.572L81.4301,123.423L81.1183,123.272L80.8074,123.119L80.4974,122.965L80.1884,122.808L79.8804,122.65L79.5733,122.491L79.2672,122.329L78.962,122.166L78.6578,122.001L78.3546,121.834L78.0524,121.665L77.7511,121.495L77.4509,121.323L77.1517,121.149L76.8534,120.974L76.5562,120.796L76.26,120.617L75.9648,120.437L75.6707,120.254L75.3776,120.07L75.0855,119.885L74.7945,119.697L74.5046,119.508L74.2157,119.318L73.9278,119.125L73.6411,118.931L73.3554,118.736L73.0708,118.539L72.7873,118.34L72.5048,118.139L72.2235,117.937L71.9433,117.733L71.6642,117.528L71.3862,117.321L71.1093,117.113L70.8336,116.903L70.559,116.691L70.2855,116.478L70.0132,116.263L69.7421,116.047L69.4721,115.829L69.2032,115.609L68.9355,115.388L68.669,115.166L68.4037,114.942L68.1396,114.717L67.8766,114.49L67.6149,114.261L67.3543,114.031L67.095,113.8L66.8369,113.567L66.58,113.332L66.3243,113.096L66.0699,112.859L65.8167,112.62L65.5858,112.4L65.3559,112.179L65.1271,111.958L64.8993,111.735L64.6725,111.511L64.4467,111.286L64.222,111.06L63.9984,110.833L63.7759,110.605L63.5544,110.375L63.3341,110.145L63.1149,109.913L62.8968,109.679L62.6798,109.445L62.4641,109.209L62.2495,108.972L62.0359,108.733L61.8231,108.493L61.6112,108.253L61.4002,108.012L61.1903,107.77L60.9814,107.528L60.7736,107.285L60.5669,107.04L60.3615,106.795L60.1573,106.548L59.9544,106.3L59.7529,106.051L59.5527,105.801L59.3541,105.549L59.157,105.296L58.9614,105.041L58.7641,104.781L58.5681,104.519L58.3733,104.257L58.1797,103.993L57.9874,103.729L57.7964,103.463L57.6066,103.196L57.418,102.928L57.2308,102.659L57.0448,102.389L56.8601,102.118L56.6766,101.846L56.4945,101.573L56.3137,101.299L56.1341,101.024L55.9559,100.748L55.7789,100.471L55.6033,100.193L55.429,99.9133L55.256,99.6331L55.0844,99.3519L54.9141,99.0698L54.7451,98.7866L54.5775,98.5024L54.4112,98.2173L54.2463,97.9312L54.0827,97.6441L53.9205,97.3561L53.7596,97.0671L53.6002,96.7772L53.4421,96.4863L53.2854,96.1945L53.1301,95.9017L52.9761,95.608L52.8236,95.3134L52.6725,95.0179L52.5228,94.7214L52.3745,94.424L52.2276,94.1258L52.0821,93.8266L51.9381,93.5265L51.7955,93.2256L51.6543,92.9237L51.5146,92.621L51.3763,92.3174L51.2395,92.0129L51.1041,91.7075L50.9702,91.4013L50.8378,91.0943L50.7068,90.7864L50.5773,90.4776L50.4493,90.168L50.3228,89.8576L50.1978,89.5463L50.0742,89.2342L49.9522,88.9213L49.8317,88.6075L49.7127,88.293L49.5952,87.9776L49.4792,87.6615L49.3647,87.3445L49.2518,87.0268L49.1404,86.7082L49.0306,86.3889L48.9223,86.0688L48.8156,85.748L48.7104,85.4263L48.6068,85.1039L48.5047,84.7808L48.4042,84.4569L48.3053,84.1323L48.208,83.8069L48.1122,83.4807L48.0181,83.1539L47.9255,82.8263L47.8345,82.498L47.7452,82.169L47.6574,81.8392L47.5713,81.5088L47.4868,81.1777L47.4039,80.8458L47.3226,80.5133L47.243,80.1801L47.165,79.8462L47.0887,79.5116L47.014,79.1763L46.941,78.8404L46.8696,78.5039L46.7999,78.1666L46.7319,77.8287L46.6655,77.4902L46.6008,77.151L46.5378,76.8112L46.4765,76.4708L46.4169,76.1297L46.359,75.788L46.3028,75.4457L46.2483,75.1028L46.1955,74.7592L46.1444,74.4151L46.0951,74.0704L46.0475,73.725L46.0016,73.3791L45.9574,73.0326L45.915,72.6856L45.8744,72.3379L45.8355,71.9897L45.7984,71.641L45.763,71.2916L45.7294,70.9418L45.6975,70.5913L45.6675,70.2404L45.6392,69.8889L45.6127,69.5368L45.588,69.1843L45.5651,68.8312L45.5441,68.4776L45.5248,68.1234L45.5073,67.7688L45.4917,67.4137L45.4778,67.0581L45.4658,66.702L45.4557,66.3453L45.4473,65.9883L45.4408,65.6307L45.4362,65.2727L45.4334,64.9142L45.4325,64.5552L45.4337,64.1384L45.4375,63.7222L45.4437,63.3066L45.4524,62.8917L45.4636,62.4774L45.4772,62.0638L45.4933,61.6508L45.5119,61.2384L45.5329,60.8268L45.5563,60.4158L45.5821,60.0055L45.6104,59.5959L45.6411,59.187L45.6741,58.7788L45.7096,58.3714L45.7475,57.9646L45.7877,57.5586L45.8303,57.1534L45.8753,56.7489L45.9227,56.3451L45.9723,55.9421L46.0244,55.5399L46.0787,55.1385L46.1354,54.7379L46.1944,54.338L46.2558,53.939L46.3194,53.5408L46.3853,53.1434L46.4536,52.7468L46.5241,52.3511L46.5968,51.9562L46.6719,51.5622L46.7492,51.169L46.8288,50.7768L46.9106,50.3853L46.9946,49.9948L47.0809,49.6052L47.1694,49.2165L47.2601,48.8287L47.353,48.4418L47.4481,48.0558L47.5454,47.6707L47.6449,47.2867L47.7466,46.9035L47.8504,46.5213L47.9564,46.1401L48.0646,45.7599L48.1749,45.3806L48.2873,45.0023L48.4019,44.6251L48.5186,44.2488L48.6374,43.8736L48.7583,43.4993L48.8813,43.1261L49.0065,42.754L49.1337,42.3829L49.263,42.0128L49.3943,41.6438L49.5277,41.2759L49.6632,40.909L49.8007,40.5433L49.9403,40.1786L50.0819,39.815L50.2255,39.4526L50.3712,39.0912L50.5189,38.731L50.6685,38.3719L50.8202,38.014L50.9738,37.6572L51.1295,37.3016L51.2871,36.9471L51.4466,36.5939L51.6082,36.2417L51.7716,35.8908L51.9371,35.5411L52.1044,35.1926L52.2737,34.8453L52.4449,34.4992L52.6181,34.1544L52.7931,33.8108L52.97,33.4684L53.1488,33.1273L53.3295,32.7875L53.5121,32.4489L53.6966,32.1116L53.8829,31.7756L54.071,31.4409L54.261,31.1075L54.4529,30.7754L54.6466,30.4446L54.8421,30.1151L55.0394,29.787L55.2385,29.4602L55.4394,29.1348L55.6421,28.8107L55.8466,28.488L56.0529,28.1667L56.261,27.8467L56.4708,27.5281L56.6823,27.211L56.8957,26.8952L57.1107,26.5809L57.3275,26.2679L57.546,25.9564L57.7663,25.6464L57.9882,25.3378L58.2118,25.0306L58.4372,24.7249L58.6642,24.4207L58.8929,24.1179L59.1233,23.8166L59.3553,23.5169L59.589,23.2186L59.8244,22.9218L60.0614,22.6266L60.3,22.3329L60.5403,22.0407L60.7821,21.75L61.0256,21.461L61.2707,21.1734L61.5174,20.8874L61.7657,20.6031L62.0156,20.3202L62.267,20.039L62.52,19.7594L62.7746,19.4814L63.0307,19.2049L63.2883,18.9302L63.5475,18.657L63.8083,18.3855L64.0705,18.1156L64.3343,17.8474L64.5995,17.5808L64.8663,17.3159L65.1346,17.0527L65.4043,16.7912L65.6755,16.5313L65.9482,16.2732L66.2224,16.0168L66.498,15.7621L66.775,15.5091L67.0535,15.2578L67.3334,15.0083L67.6148,14.7605L67.8975,14.5145L68.1817,14.2703L68.4673,14.0278L68.7543,13.7871L69.0426,13.5482L69.3323,13.3111L69.6234,13.0759L69.9159,12.8424L70.2097,12.6107L70.5049,12.3809L70.8014,12.1529L71.0993,11.9267L71.3984,11.7024L71.6989,11.48L72.0007,11.2594L72.3038,11.0407L72.6082,10.8239L72.9139,10.609L73.2209,10.396L73.5291,10.1849L73.8386,9.97573L74.1494,9.76847L74.4614,9.56314L74.7747,9.35975L75.0892,9.15831L75.4049,8.95883L75.7218,8.76132L76.04,8.56577L76.3593,8.37221L76.6799,8.18063L77.0017,7.99105L77.3246,7.80348L77.6487,7.61792L77.974,7.43438L78.3004,7.25287L78.628,7.07339L78.9567,6.89596L79.2866,6.72059L79.6176,6.54727L79.9497,6.37602L80.283,6.20685L80.6173,6.03976L80.9528,5.87477L81.2893,5.71187L81.6269,5.55108L81.9656,5.39242L82.3054,5.23587L82.6463,5.08146L82.9881,4.92919L83.3311,4.77906L83.6751,4.63109L84.0201,4.48529L84.3661,4.34166L84.7132,4.20021L85.0612,4.06095L85.4103,3.92388L85.7603,3.78902L86.1114,3.65637L86.4634,3.52595L86.8164,3.39774L87.1704,3.27178L87.5253,3.14806L87.8811,3.02659L88.238,2.90739L88.5957,2.79045L88.9544,2.67578L89.314,2.56341L89.6745,2.45332L90.0359,2.34553L90.3982,2.24006L90.7614,2.13689L91.1254,2.03606L91.4904,1.93755L91.8562,1.84138L92.2229,1.74757L92.5904,1.65611L92.9587,1.56701L93.3279,1.48028L93.698,1.39594L94.0688,1.31398L94.4405,1.23442L94.813,1.15726L95.1862,1.08252L95.5603,1.01019L95.9352,0.940292L96.3108,0.87283L96.6872,0.807813L97.0643,0.745247L97.4422,0.685141L97.8209,0.627503L98.2003,0.57234L98.5804,0.519662L98.9612,0.469476L99.3428,0.421789L99.7251,0.37661L100.108,0.333947L100.492,0.293807L100.876,0.2562L101.261,0.221132L101.647,0.188612L102.033,0.158647L102.42,0.131247L102.808,0.106418L103.196,0.0841682L103.585,0.0645065L103.975,0.0474404L104.365,0.032978L104.756,0.0211272L105.147,0.011896L105.539,0.00529245L105.932,0.00132444L106.325,0L106.718,0.00132424L107.11,0.00529163L107.502,0.0118942L107.894,0.021124L108.285,0.0329729L108.675,0.0474331L109.064,0.0644966L109.453,0.0841553L109.842,0.106401L110.229,0.131227L110.616,0.158623L111.003,0.188583L111.388,0.221099L111.773,0.256161L112.158,0.293763L112.541,0.333897L112.924,0.376554L113.307,0.421727L113.688,0.469406L114.069,0.519586L114.449,0.572257L114.829,0.627411L115.207,0.685041L115.585,0.745139L115.962,0.807696L116.339,0.872705L116.714,0.940157L117.089,1.01005L117.463,1.08236L117.837,1.1571L118.209,1.23424L118.581,1.31379L118.952,1.39574L119.322,1.48008L119.691,1.56679L120.059,1.65588L120.427,1.74733L120.793,1.84113L121.159,1.93729L121.524,2.03578L121.888,2.1366L122.251,2.23975L122.614,2.34522L122.975,2.45299L123.336,2.56306L123.695,2.67543L124.054,2.79008L124.412,2.907L124.768,3.0262L125.124,3.14765L125.479,3.27136L125.833,3.3973L126.186,3.52549L126.538,3.6559L126.889,3.78854L127.239,3.92338L127.588,4.06043L127.937,4.19968L128.284,4.34112L128.63,4.48473L128.975,4.63052L129.319,4.77847L129.662,4.92858L130.003,5.08083L130.344,5.23523L130.684,5.39176L131.023,5.55041L131.36,5.71118L131.697,5.87406L132.032,6.03904L132.367,6.20611L132.7,6.37527L133.032,6.5465L133.363,6.7198L133.693,6.89516L134.022,7.07257L134.349,7.25203L134.676,7.43353L135.001,7.61705L135.325,7.80259L135.648,7.99015L135.97,8.17971L136.291,8.37127L136.61,8.56482L136.928,8.76035L137.245,8.95785L137.561,9.15731L137.875,9.35873L138.189,9.5621L138.501,9.76742L138.811,9.97466L139.121,10.1838L139.429,10.3949L139.736,10.6079L140.042,10.8228L140.346,11.0396L140.649,11.2583L140.951,11.4788L141.252,11.7012L141.551,11.9255L141.849,12.1517L142.145,12.3796L142.44,12.6095L142.734,12.8411L143.027,13.0746L143.318,13.3098L143.607,13.5469L143.896,13.7858L144.183,14.0265L144.468,14.2689L144.753,14.5132L145.035,14.7591L145.317,15.0069L145.597,15.2564L145.875,15.5076L146.152,15.7606L146.428,16.0153L146.702,16.2717L146.975,16.5298L147.246,16.7897L147.516,17.0512L147.784,17.3144L148.051,17.5793L148.316,17.8458L148.58,18.114L148.842,18.3839L149.103,18.6554L149.362,18.9286L149.62,19.2033L149.876,19.4797L150.13,19.7578L150.383,20.0374L150.635,20.3186L150.885,20.6014L151.133,20.8858L151.38,21.1718L151.625,21.4593L151.868,21.7484L152.11,22.039L152.35,22.3312L152.589,22.6249L152.826,22.9201L153.061,23.2169L153.295,23.5152L153.527,23.8149L153.758,24.1162L153.986,24.4189L154.213,24.7231L154.439,25.0288L154.662,25.336L154.884,25.6446L155.105,25.9547L155.323,26.2662L155.54,26.5791L155.755,26.8934L155.968,27.2092L156.18,27.5264L156.39,27.8449L156.598,28.1649L156.804,28.4862L157.008,28.8089L157.211,29.133L157.412,29.4584L157.611,29.7852L157.809,30.1134L158.004,30.4428L158.198,30.7736L158.39,31.1057L158.58,31.4391L158.768,31.7739L158.954,32.1099L159.139,32.4472L159.321,32.7857L159.502,33.1256L159.681,33.4667L159.858,33.8091L160.033,34.1527L160.206,34.4975L160.377,34.8436L160.546,35.1909L160.714,35.5394L160.879,35.8892L161.043,36.2401L161.204,36.5922L161.364,36.9455L161.521,37.3L161.677,37.6556L161.831,38.0124L161.982,38.3704L162.132,38.7295L162.28,39.0897L162.425,39.451L162.569,39.8135L162.711,40.1771L162.85,40.5418L162.988,40.9076L163.123,41.2744L163.257,41.6424L163.388,42.0114L163.517,42.3815L163.644,42.7526L163.77,43.1248L163.893,43.498L164.014,43.8723L164.132,44.2475L164.249,44.6238L164.364,45.0011L164.476,45.3794L164.586,45.7587L164.695,46.139L164.801,46.5202L164.904,46.9024L165.006,47.2856L165.106,47.6697L165.203,48.0548L165.298,48.4408L165.391,48.8277L165.482,49.2156L165.57,49.6043L165.656,49.994L165.741,50.3845L165.822,50.776L165.902,51.1683L165.979,51.5615L166.054,51.9556L166.127,52.3505L166.198,52.7462L166.266,53.1428L166.332,53.5403L166.395,53.9385L166.457,54.3376L166.516,54.7375L166.572,55.1382L166.627,55.5396L166.679,55.9419L166.728,56.3449L166.776,56.7487L166.821,57.1533L166.863,57.5586L166.904,57.9646L166.942,58.3714L166.977,58.7789L167.01,59.1872L167.041,59.5961L167.069,60.0058L167.095,60.4161L167.118,60.8271L167.139,61.2389L167.158,61.6513L167.174,62.0643L167.188,62.478L167.199,62.8924L167.207,63.3074L167.214,63.723L167.217,64.1392L167.219,64.5561L167.218,64.9151L167.215,65.2736L167.21,65.6316L167.204,65.9892L167.195,66.3462L167.185,66.7029L167.173,67.059L167.159,67.4146L167.144,67.7697L167.126,68.1243L167.107,68.4784L167.086,68.8321L167.063,69.1851L167.038,69.5377L167.012,69.8897L166.984,70.2412L166.954,70.5922L166.922,70.9426L166.888,71.2925L166.853,71.6418L166.816,71.9906L166.777,72.3388L166.736,72.6864L166.694,73.0335L166.65,73.38L166.604,73.7259L166.556,74.0712L166.507,74.4159L166.456,74.76L166.403,75.1036L166.348,75.4465L166.292,75.7888L166.234,76.1305L166.175,76.4715L166.113,76.812L166.05,77.1518L165.986,77.4909L165.919,77.8295L165.851,78.1674L165.782,78.5046L165.71,78.8411L165.637,79.1771L165.562,79.5123L165.486,79.8469L165.408,80.1808L165.329,80.514L165.247,80.8465L165.164,81.1783L165.08,81.5095L164.994,81.8399L164.906,82.1696L164.817,82.4986L164.726,82.8269L164.633,83.1545L164.539,83.4814L164.443,83.8075L164.346,84.1329L164.247,84.4575L164.146,84.7814L164.044,85.1045L163.941,85.4269L163.836,85.7485L163.729,86.0694L163.621,86.3895L163.511,86.7088L163.399,87.0273L163.286,87.3451L163.172,87.662L163.056,87.9782L162.938,88.2935L162.819,88.6081L162.699,88.9218L162.577,89.2347L162.453,89.5468L162.328,89.8581L162.202,90.1685L162.074,90.4781L161.944,90.7869L161.813,91.0948L161.681,91.4018L161.547,91.7081L161.412,92.0134L161.275,92.3179L161.137,92.6215L160.997,92.9242L160.856,93.2261L160.713,93.527L160.569,93.8271L160.424,94.1263L160.277,94.4246L160.128,94.7219L159.979,95.0184L159.828,95.3139L159.675,95.6085L159.521,95.9022L159.366,96.195L159.209,96.4868L159.051,96.7777L158.891,97.0677L158.731,97.3566L158.568,97.6447L158.405,97.9318L158.24,98.2179L158.074,98.503L157.906,98.7872L157.737,99.0703L157.567,99.3525L157.395,99.6337L157.222,99.914L157.048,100.193L156.872,100.471L156.695,100.749L156.517,101.025L156.337,101.3L156.157,101.574L155.975,101.847L155.791,102.119L155.606,102.39L155.42,102.66L155.233,102.929L155.045,103.197L154.855,103.464L154.664,103.73L154.471,103.994L154.278,104.258L154.083,104.52L153.887,104.782L153.69,105.042L153.493,105.297L153.296,105.55L153.096,105.802L152.896,106.052L152.694,106.302L152.491,106.55L152.286,106.796L152.081,107.042L151.874,107.287L151.666,107.53L151.458,107.772L151.248,108.014L151.038,108.255L150.826,108.494L150.614,108.733L150.402,108.972L150.187,109.209L149.972,109.445L149.755,109.679L149.537,109.912L149.317,110.144L149.097,110.375L148.876,110.604L148.653,110.833L148.429,111.06L148.205,111.286L147.979,111.511L147.752,111.735L147.524,111.958L147.295,112.179L147.065,112.4L146.834,112.62L146.581,112.859L146.327,113.096L146.071,113.332L145.814,113.566L145.556,113.799L145.297,114.03L145.036,114.26L144.775,114.489L144.512,114.716L144.247,114.941L143.982,115.165L143.716,115.387L143.448,115.608L143.179,115.827L142.909,116.045L142.638,116.261L142.366,116.476L142.092,116.689L141.818,116.901L141.542,117.111L141.265,117.319L140.987,117.526L140.708,117.731L140.428,117.935L140.146,118.137L139.864,118.338L139.58,118.536L139.296,118.734L139.01,118.929L138.723,119.123L138.435,119.315L138.147,119.506L137.857,119.695L137.566,119.882L137.274,120.068L136.98,120.252L136.686,120.434L136.391,120.615L136.095,120.794L135.798,120.971L135.499,121.147L135.2,121.32L134.9,121.492L134.599,121.663L134.297,121.831L133.993,121.998L133.689,122.163L133.384,122.327L133.078,122.488L132.771,122.648L132.463,122.806L132.154,122.962L131.844,123.117L131.533,123.27L131.221,123.42L130.908,123.569L130.595,123.717L130.28,123.862L129.965,124.006L129.648,124.147L129.331,124.287L129.013,124.425L128.694,124.562L128.374,124.696L128.053,124.828L127.731,124.959L127.409,125.088L127.085,125.214L126.761,125.339L126.436,125.462L126.11,125.583L125.783,125.703L125.455,125.82L125.127,125.935L124.798,126.049L124.468,126.16L124.137,126.269L123.805,126.377L123.472,126.483L123.139,126.586L122.805,126.688L122.47,126.787L122.135,126.885L121.798,126.981L121.461,127.074L121.123,127.166L120.785,127.256L120.445,127.343L120.105,127.429L119.764,127.512L119.423,127.594L119.08,127.673L118.737,127.751L118.394,127.826L118.049,127.899L117.704,127.97L117.358,128.039L117.012,128.106L116.664,128.171L116.317,128.234L115.968,128.295L115.619,128.353L115.269,128.41L114.918,128.464L114.567,128.516L114.215,128.566L113.863,128.614L113.51,128.66L113.156,128.703L112.802,128.745L112.447,128.784L112.092,128.821L111.735,128.856L111.379,128.888L111.021,128.919L110.664,128.947L110.305,128.973L109.946,128.997L109.586,129.018L109.226,129.037L108.866,129.054L108.504,129.069L108.143,129.082L107.78,129.092L107.417,129.1L107.054,129.106L106.69,129.109L106.326,129.11ZM106.326,113.921L106.594,113.92L106.862,113.917L107.13,113.913L107.398,113.907L107.664,113.9L107.93,113.891L108.196,113.88L108.462,113.867L108.726,113.853L108.99,113.837L109.254,113.82L109.518,113.801L109.781,113.78L110.043,113.758L110.305,113.734L110.566,113.708L110.827,113.681L111.088,113.652L111.347,113.622L111.607,113.59L111.866,113.556L112.124,113.521L112.382,113.485L112.64,113.446L112.897,113.406L113.154,113.365L113.41,113.322L113.665,113.278L113.92,113.232L114.175,113.184L114.429,113.135L114.683,113.084L114.936,113.032L115.189,112.978L115.441,112.923L115.693,112.866L115.944,112.808L116.194,112.748L116.445,112.687L116.695,112.624L116.944,112.56L117.193,112.494L117.441,112.426L117.688,112.358L117.936,112.287L118.183,112.216L118.429,112.142L118.674,112.068L118.92,111.991L119.165,111.914L119.408,111.835L119.652,111.754L119.896,111.672L120.138,111.588L120.38,111.503L120.622,111.417L120.863,111.329L121.103,111.239L121.343,111.149L121.583,111.056L121.822,110.963L122.06,110.868L122.298,110.771L122.535,110.673L122.772,110.574L123.009,110.473L123.244,110.371L123.479,110.267L123.714,110.162L123.948,110.055L124.181,109.948L124.414,109.838L124.646,109.728L124.878,109.616L125.109,109.502L125.339,109.387L125.569,109.271L125.798,109.154L126.027,109.035L126.255,108.914L126.482,108.793L126.709,108.669L126.935,108.545L127.161,108.419L127.386,108.292L127.61,108.164L127.833,108.034L128.056,107.902L128.279,107.77L128.5,107.636L128.721,107.501L128.942,107.364L129.161,107.226L129.38,107.087L129.599,106.946L129.816,106.805L130.033,106.662L130.249,106.517L130.465,106.371L130.68,106.224L130.894,106.076L131.107,105.926L131.32,105.775L131.532,105.623L131.743,105.47L131.954,105.315L132.163,105.159L132.372,105.001L132.58,104.843L132.788,104.683L132.995,104.522L133.2,104.36L133.406,104.196L133.61,104.031L133.814,103.865L134.016,103.698L134.218,103.529L134.419,103.359L134.62,103.189L134.819,103.016L135.018,102.843L135.216,102.668L135.413,102.493L135.609,102.316L135.804,102.137L135.999,101.958L136.192,101.778L136.387,101.594L136.566,101.423L136.748,101.248L136.929,101.074L137.107,100.899L137.284,100.725L137.459,100.551L137.632,100.376L137.803,100.203L137.972,100.029L138.14,99.8552L138.306,99.6816L138.47,99.5085L138.632,99.335L138.792,99.1614L138.951,98.9881L139.104,98.8192L139.267,98.6361L139.446,98.4345L139.622,98.2346L139.795,98.0369L139.965,97.8411L140.132,97.6472L140.295,97.4554L140.456,97.2655L140.613,97.0773L140.767,96.8912L140.919,96.7065L141.067,96.5237L141.212,96.3428L141.353,96.1635L141.492,95.986L141.621,95.819L141.758,95.6383L141.908,95.4381L142.057,95.2369L142.206,95.0346L142.353,94.8318L142.5,94.6281L142.645,94.4234L142.79,94.2179L142.934,94.0114L143.076,93.8043L143.218,93.5965L143.359,93.3875L143.499,93.1778L143.637,92.9674L143.775,92.756L143.912,92.5438L144.048,92.331L144.183,92.1174L144.317,91.9027L144.45,91.6874L144.582,91.4712L144.713,91.2543L144.843,91.0366L144.972,90.8182L145.099,90.5989L145.226,90.3789L145.352,90.1581L145.477,89.9364L145.601,89.7142L145.723,89.4913L145.845,89.2673L145.966,89.0425L146.085,88.8173L146.204,88.5914L146.321,88.3646L146.437,88.1371L146.553,87.9089L146.667,87.6797L146.78,87.45L146.892,87.2196L147.003,86.9885L147.113,86.7567L147.222,86.5241L147.329,86.2909L147.436,86.0569L147.541,85.8224L147.646,85.5869L147.749,85.3508L147.851,85.1144L147.952,84.877L148.051,84.6391L148.15,84.4003L148.248,84.1608L148.344,83.9208L148.439,83.6802L148.534,83.439L148.627,83.1966L148.718,82.9542L148.809,82.711L148.899,82.4668L148.987,82.2224L149.074,81.9774L149.16,81.7316L149.245,81.485L149.328,81.238L149.411,80.9901L149.492,80.7418L149.572,80.4932L149.651,80.2437L149.728,79.9935L149.805,79.7427L149.88,79.4913L149.954,79.2394L150.027,78.987L150.098,78.7341L150.168,78.4803L150.237,78.2258L150.305,77.971L150.372,77.716L150.437,77.4599L150.501,77.203L150.564,76.9459L150.626,76.6886L150.686,76.4302L150.745,76.1714L150.803,75.9123L150.859,75.6521L150.914,75.3918L150.968,75.1309L151.021,74.8691L151.072,74.607L151.122,74.3447L151.171,74.0815L151.219,73.8177L151.265,73.5538L151.31,73.2888L151.353,73.0236L151.396,72.758L151.436,72.4917L151.476,72.2249L151.514,71.9574L151.551,71.6896L151.587,71.4215L151.621,71.1529L151.654,70.8833L151.686,70.6133L151.716,70.3434L151.745,70.0725L151.772,69.8012L151.798,69.5294L151.823,69.257L151.846,68.9843L151.868,68.711L151.889,68.4373L151.908,68.1634L151.926,67.8886L151.942,67.6133L151.957,67.3377L151.971,67.0616L151.983,66.7851L151.994,66.508L152.003,66.2307L152.011,65.9527L152.018,65.6743L152.023,65.3956L152.026,65.1161L152.028,64.8363L152.029,64.5591L152.028,64.2303L152.025,63.9051L152.02,63.5803L152.014,63.2565L152.005,62.9332L151.994,62.6104L151.982,62.2883L151.967,61.9666L151.951,61.6458L151.933,61.3257L151.912,61.0061L151.89,60.6871L151.867,60.3685L151.841,60.0509L151.813,59.734L151.784,59.4176L151.752,59.1019L151.719,58.7868L151.684,58.4723L151.648,58.1584L151.609,57.8455L151.569,57.5334L151.526,57.2215L151.482,56.9103L151.437,56.6004L151.389,56.2907L151.34,55.9815L151.289,55.6733L151.236,55.3659L151.181,55.0592L151.125,54.753L151.066,54.4477L151.006,54.143L150.945,53.839L150.882,53.5359L150.816,53.2337L150.75,52.932L150.681,52.6308L150.611,52.3307L150.539,52.0315L150.465,51.7327L150.39,51.4351L150.313,51.138L150.235,50.8415L150.154,50.5459L150.072,50.2513L149.989,49.9576L149.904,49.6642L149.817,49.372L149.728,49.0806L149.638,48.7898L149.546,48.4999L149.453,48.2109L149.358,47.9228L149.261,47.6355L149.163,47.349L149.063,47.0633L148.962,46.7787L148.859,46.4946L148.754,46.2114L148.648,45.9296L148.541,45.6483L148.431,45.3677L148.321,45.0884L148.208,44.8097L148.094,44.5319L147.979,44.2553L147.862,43.9795L147.744,43.7046L147.624,43.4306L147.503,43.1575L147.38,42.8853L147.255,42.6143L147.129,42.3442L147.002,42.0748L146.873,41.8066L146.743,41.5392L146.611,41.2729L146.478,41.0076L146.343,40.7433L146.207,40.4801L146.07,40.2175L145.931,39.9564L145.79,39.6961L145.649,39.4367L145.506,39.1787L145.361,38.9215L145.215,38.6651L145.068,38.4102L144.919,38.1562L144.769,37.9031L144.617,37.6513L144.464,37.4005L144.31,37.1507L144.155,36.9021L143.998,36.6545L143.84,36.4082L143.68,36.1628L143.519,35.9186L143.357,35.6755L143.193,35.4335L143.029,35.1927L142.863,34.953L142.695,34.7145L142.527,34.4773L142.357,34.241L142.186,34.0059L142.013,33.7721L141.84,33.5394L141.665,33.3078L141.489,33.0775L141.311,32.8485L141.133,32.6206L140.953,32.3939L140.772,32.1684L140.59,31.9443L140.407,31.7213L140.222,31.4995L140.036,31.279L139.849,31.0598L139.661,30.8416L139.472,30.625L139.282,30.4096L139.09,30.1954L138.898,29.9825L138.704,29.7708L138.509,29.5605L138.313,29.3516L138.116,29.1437L137.917,28.9373L137.718,28.7324L137.518,28.5286L137.316,28.3261L137.114,28.1251L136.91,27.9254L136.706,27.7269L136.5,27.5299L136.293,27.3343L136.086,27.14L135.877,26.9471L135.667,26.7554L135.456,26.5653L135.244,26.3766L135.032,26.1891L134.818,26.0032L134.603,25.8186L134.387,25.6355L134.171,25.4538L133.953,25.2733L133.734,25.0944L133.515,24.917L133.294,24.7409L133.073,24.5664L132.85,24.3933L132.627,24.2216L132.403,24.0514L132.178,23.8826L131.952,23.7154L131.725,23.5495L131.497,23.3851L131.268,23.2224L131.039,23.0611L130.808,22.9012L130.577,22.7428L130.345,22.586L130.112,22.4307L129.878,22.2768L129.644,22.1245L129.408,21.9737L129.172,21.8244L128.935,21.6768L128.697,21.5306L128.459,21.3859L128.219,21.2428L127.979,21.1013L127.738,20.9613L127.496,20.8229L127.253,20.686L127.01,20.5507L126.766,20.4171L126.521,20.2849L126.276,20.1543L126.029,20.0254L125.782,19.8981L125.535,19.7723L125.286,19.6481L125.037,19.5255L124.787,19.4046L124.536,19.2852L124.285,19.1675L124.033,19.0513L123.78,18.9369L123.527,18.8241L123.272,18.7128L123.018,18.6032L122.762,18.4953L122.506,18.389L122.249,18.2843L121.992,18.1813L121.734,18.08L121.475,17.9803L121.216,17.8823L120.956,17.786L120.695,17.6913L120.434,17.5984L120.172,17.5071L119.909,17.4175L119.646,17.3295L119.382,17.2433L119.118,17.1588L118.853,17.0759L118.587,16.9948L118.321,16.9155L118.054,16.8378L117.786,16.7618L117.518,16.6876L117.25,16.6151L116.98,16.5443L116.71,16.4752L116.44,16.4079L116.169,16.3424L115.897,16.2786L115.625,16.2166L115.352,16.1563L115.079,16.0978L114.805,16.0411L114.531,15.9861L114.256,15.9329L113.98,15.8815L113.704,15.8319L113.427,15.7841L113.15,15.7381L112.872,15.6939L112.593,15.6516L112.314,15.611L112.035,15.5722L111.754,15.5353L111.474,15.5003L111.192,15.467L110.911,15.4356L110.628,15.4061L110.345,15.3784L110.062,15.3526L109.778,15.3286L109.493,15.3065L109.208,15.2864L108.922,15.2681L108.636,15.2517L108.349,15.2372L108.061,15.2246L107.773,15.2139L107.485,15.2051L107.195,15.1983L106.906,15.1934L106.616,15.1905L106.325,15.1895L106.034,15.1905L105.744,15.1934L105.454,15.1983L105.165,15.2051L104.876,15.2139L104.588,15.2246L104.301,15.2372L104.014,15.2517L103.728,15.2681L103.442,15.2864L103.157,15.3066L102.872,15.3286L102.588,15.3526L102.305,15.3784L102.022,15.4061L101.739,15.4356L101.457,15.467L101.176,15.5003L100.895,15.5354L100.615,15.5723L100.336,15.611L100.057,15.6516L99.7781,15.694L99.5002,15.7382L99.2229,15.7842L98.9461,15.832L98.6699,15.8816L98.3943,15.933L98.1192,15.9862L97.8447,16.0411L97.5708,16.0979L97.2975,16.1564L97.0247,16.2167L96.7526,16.2787L96.481,16.3425L96.2099,16.4081L95.9395,16.4754L95.6697,16.5444L95.4005,16.6152L95.1318,16.6877L94.8637,16.7619L94.5963,16.8379L94.3294,16.9156L94.0632,16.995L93.7976,17.0761L93.5325,17.159L93.2681,17.2435L93.0043,17.3297L92.7411,17.4177L92.4786,17.5073L92.2166,17.5986L91.9553,17.6916L91.6946,17.7862L91.4346,17.8826L91.1752,17.9806L90.9165,18.0803L90.6584,18.1816L90.401,18.2846L90.1442,18.3893L89.8881,18.4956L89.6327,18.6035L89.3778,18.7131L89.1237,18.8244L88.8704,18.9372L88.6177,19.0517L88.3656,19.1678L88.1143,19.2856L87.8636,19.4049L87.6137,19.5259L87.3645,19.6485L87.116,19.7727L86.8682,19.8985L86.6212,20.0258L86.3748,20.1548L86.1293,20.2854L85.8844,20.4175L85.6403,20.5512L85.3971,20.6865L85.1545,20.8234L84.9127,20.9618L84.6717,21.1018L84.4314,21.2434L84.192,21.3865L83.9533,21.5311L83.7154,21.6773L83.4784,21.825L83.2422,21.9743L83.0068,22.1251L82.7721,22.2774L82.5384,22.4312L82.3054,22.5866L82.0734,22.7435L81.8421,22.9018L81.6117,23.0617L81.3823,23.223L81.1536,23.3859L80.9258,23.5503L80.6989,23.7161L80.4729,23.8833L80.2478,24.0521L80.0236,24.2224L79.8003,24.3941L79.5779,24.5672L79.3565,24.7418L79.136,24.9178L78.9164,25.0953L78.6978,25.2742L78.4801,25.4545L78.2634,25.6363L78.0477,25.8195L77.8329,26.0041L77.6191,26.1901L77.4064,26.3775L77.1945,26.5663L76.9837,26.7565L76.774,26.948L76.5652,27.1409L76.3574,27.3353L76.1507,27.531L75.945,27.728L75.7404,27.9264L75.5368,28.1262L75.3343,28.3273L75.1328,28.5297L74.9324,28.7335L74.7332,28.9385L74.535,29.145L74.3378,29.3527L74.1419,29.5617L73.947,29.772L73.7532,29.9836L73.5605,30.1966L73.3691,30.4108L73.1787,30.6262L72.9895,30.843L72.8015,31.061L72.6146,31.2802L72.4288,31.5008L72.2442,31.7226L72.0609,31.9455L71.8787,32.1698L71.6977,32.3953L71.5179,32.622L71.3394,32.8498L71.1621,33.0789L70.9859,33.3092L70.811,33.5407L70.6373,33.7735L70.465,34.0073L70.2939,34.2423L70.124,34.4786L69.9553,34.716L69.788,34.9545L69.622,35.1942L69.4572,35.435L69.2937,35.677L69.1316,35.92L68.9708,36.1643L68.8113,36.4096L68.6531,36.656L68.4961,36.9037L68.3406,37.1522L68.1864,37.402L68.0336,37.6528L67.8822,37.9047L67.732,38.1577L67.5833,38.4117L67.4359,38.6668L67.29,38.9229L67.1454,39.1801L67.0022,39.4384L66.8604,39.6976L66.7201,39.9579L66.5811,40.2192L66.4436,40.4815L66.3075,40.7449L66.1729,41.0092L66.0397,41.2745L65.9079,41.5408L65.7777,41.8081L65.6488,42.0764L65.5214,42.3456L65.3956,42.6158L65.2712,42.887L65.1483,43.159L65.0269,43.4321L64.907,43.7061L64.7886,43.981L64.6717,44.2568L64.5563,44.5336L64.4425,44.8113L64.3302,45.0898L64.2195,45.3693L64.1103,45.6497L64.0026,45.931L63.8966,46.2131L63.792,46.4961L63.6891,46.78L63.5877,47.0648L63.4879,47.3504L63.3897,47.6369L63.2931,47.9242L63.1982,48.2123L63.1048,48.5013L63.013,48.7911L62.9228,49.0818L62.8343,49.3733L62.7475,49.6655L62.6622,49.9586L62.5786,50.2525L62.4967,50.5472L62.4164,50.8427L62.3378,51.139L62.2608,51.436L62.1856,51.7338L62.112,52.0325L62.0401,52.3319L61.9699,52.632L61.9014,52.9328L61.8346,53.2345L61.7695,53.5369L61.7062,53.84L61.6445,54.1439L61.5847,54.4484L61.5265,54.7538L61.4701,55.0598L61.4154,55.3666L61.3626,55.674L61.3114,55.9822L61.2621,56.2911L61.2145,56.6007L61.1687,56.911L61.1247,57.2219L61.0825,57.5336L61.0421,57.8459L61.0035,58.1589L60.9667,58.4726L60.9317,58.7869L60.8986,59.102L60.8673,59.4176L60.8379,59.734L60.8103,60.051L60.7845,60.3686L60.7607,60.6869L60.7387,61.0058L60.7185,61.3253L60.7003,61.6456L60.6839,61.9664L60.6695,62.2879L60.6569,62.6099L60.6463,62.9326L60.6376,63.2559L60.6308,63.5798L60.6259,63.9044L60.623,64.2295L60.622,64.5583L60.6227,64.8354L60.6249,65.1152L60.6285,65.3945L60.6336,65.6734L60.6401,65.9518L60.648,66.2298L60.6573,66.5072L60.6681,66.7842L60.6803,67.0608L60.6939,67.3369L60.7089,67.6125L60.7253,67.8876L60.7431,68.1623L60.7623,68.4365L60.7829,68.7102L60.8049,68.9835L60.8282,69.2562L60.853,69.5285L60.8791,69.8003L60.9066,70.0716L60.9354,70.3424L60.9656,70.6128L60.9971,70.8825L61.03,71.1518L61.0643,71.4207L61.0999,71.689L61.1368,71.9568L61.1751,72.2241L61.2147,72.4909L61.2556,72.7572L61.2978,73.0229L61.3414,73.2881L61.3862,73.5529L61.4324,73.8171L61.4799,74.0808L61.5287,74.3439L61.5788,74.6065L61.6301,74.8686L61.6828,75.1301L61.7367,75.3911L61.792,75.6515L61.8485,75.9115L61.9063,76.1708L61.9653,76.4295L62.0256,76.6878L62.0872,76.9455L62.15,77.2026L62.2141,77.4591L62.2794,77.7152L62.346,77.9706L62.4138,78.2254L62.4829,78.4797L62.5531,78.7333L62.6247,78.9864L62.6974,79.2389L62.7714,79.4909L62.8465,79.7422L62.9229,79.9929L63.0005,80.243L63.0793,80.4925L63.1594,80.7415L63.2406,80.9898L63.323,81.2375L63.4065,81.4845L63.4913,81.7309L63.5773,81.9768L63.6644,82.222L63.7527,82.4665L63.8422,82.7104L63.9328,82.9537L64.0247,83.1965L64.1176,83.4384L64.2117,83.6796L64.307,83.9204L64.4034,84.1604L64.5009,84.3997L64.5996,84.6385L64.6995,84.8765L64.8004,85.1139L64.9025,85.3506L65.0057,85.5865L65.11,85.8219L65.2155,86.0565L65.322,86.2904L65.4296,86.5236L65.5384,86.7561L65.6482,86.988L65.7592,87.2191L65.8712,87.4496L65.9843,87.6792L66.0985,87.9081L66.2138,88.1365L66.3301,88.3639L66.4475,88.5907L66.566,88.8169L66.6856,89.0421L66.8061,89.2666L66.9278,89.4905L67.0505,89.7136L67.1742,89.9359L67.299,90.1574L67.4247,90.3782L67.5515,90.5981L67.6794,90.8174L67.8084,91.036L67.9383,91.2536L68.0691,91.4705L68.201,91.6865L68.3339,91.9018L68.4679,92.1164L68.6029,92.3303L68.7387,92.543L68.8755,92.755L69.0134,92.9664L69.1523,93.1769L69.2922,93.3866L69.4329,93.5953L69.5746,93.8033L69.7174,94.0105L69.861,94.2167L70.0056,94.4222L70.1513,94.6269L70.2978,94.8306L70.4452,95.0335L70.5935,95.2355L70.7428,95.4367L70.8931,95.6371L71.0397,95.8306L71.1758,96.0079L71.3101,96.1804L71.4479,96.3551L71.5893,96.532L71.734,96.7108L71.8822,96.8917L72.0341,97.0752L72.1896,97.2609L72.3486,97.4489L72.511,97.6391L72.6772,97.832L72.847,98.0275L73.0201,98.2252L73.197,98.4257L73.3776,98.629L73.5451,98.8164L73.7004,98.9881L73.8591,99.1616L74.0196,99.3351L74.1819,99.5087L74.3458,99.6822L74.5115,99.8556L74.679,100.029L74.8484,100.203L75.0195,100.377L75.1924,100.551L75.3672,100.725L75.5438,100.899L75.7222,101.073L75.9026,101.248L76.0848,101.423L76.2655,101.595L76.4615,101.78L76.6551,101.961L76.8497,102.14L77.045,102.319L77.2409,102.496L77.4379,102.671L77.6358,102.846L77.8344,103.019L78.0338,103.192L78.2342,103.363L78.4352,103.532L78.637,103.701L78.8397,103.868L79.0433,104.034L79.2475,104.199L79.4525,104.363L79.6585,104.525L79.8651,104.686L80.0725,104.846L80.2804,105.004L80.4893,105.162L80.6992,105.318L80.9095,105.473L81.1205,105.626L81.3325,105.778L81.545,105.929L81.7583,106.079L81.9725,106.227L82.1871,106.374L82.4025,106.52L82.6188,106.664L82.8357,106.808L83.0532,106.949L83.2714,107.09L83.4903,107.229L83.7098,107.367L83.9301,107.503L84.151,107.638L84.3728,107.772L84.5951,107.905L84.8178,108.036L85.0414,108.166L85.2656,108.294L85.4903,108.421L85.7159,108.547L85.942,108.672L86.1686,108.795L86.3961,108.916L86.6241,109.037L86.8526,109.156L87.0817,109.273L87.3114,109.389L87.542,109.504L87.7729,109.618L88.0044,109.73L88.2366,109.84L88.4693,109.949L88.7026,110.057L88.9365,110.164L89.1709,110.269L89.406,110.372L89.6417,110.475L89.8776,110.575L90.1144,110.675L90.3518,110.773L90.5895,110.869L90.8277,110.964L91.0667,111.058L91.3063,111.15L91.5462,111.241L91.7866,111.33L92.0279,111.418L92.2694,111.504L92.5115,111.589L92.7541,111.673L92.9972,111.755L93.2409,111.836L93.4851,111.915L93.7298,111.992L93.9748,112.068L94.2206,112.143L94.4669,112.216L94.7137,112.288L94.9611,112.359L95.2087,112.427L95.4568,112.495L95.7057,112.56L95.9551,112.625L96.2048,112.687L96.4549,112.749L96.7056,112.809L96.9567,112.867L97.2087,112.924L97.4609,112.979L97.7136,113.032L97.9668,113.085L98.2205,113.135L98.4746,113.184L98.7291,113.232L98.9843,113.278L99.24,113.322L99.4962,113.365L99.7526,113.407L100.01,113.447L100.267,113.485L100.525,113.521L100.784,113.556L101.043,113.59L101.302,113.622L101.562,113.652L101.823,113.681L102.084,113.708L102.345,113.734L102.607,113.758L102.87,113.78L103.132,113.801L103.396,113.82L103.66,113.837L103.924,113.853L104.189,113.867L104.454,113.88L104.72,113.891L104.987,113.9L105.253,113.907L105.52,113.913L105.788,113.917L106.057,113.92L106.326,113.921Z" style="fill:rgb(210,210,210);"/>
    </g>
</svg>
